<svg id="Layer_1" data-name="Layer 1" xmlns="http://www.w3.org/2000/svg" width="102.5" height="436.2" viewBox="0 0 102.5 436.2">
  <defs>
    <style>
      .cls-1 {
        fill: #741750;
      }

      .cls-2 {
        fill: #e480ce;
      }
    </style>
  </defs>
  <title>Left Leaves</title>
  <g>
    <path class="cls-1" d="M56.6,296.7c7.4-7.4,16.7-19.7,13.1-36-16.4-3.6-28.7,5.7-36,13S17,293.4,20.6,309.8C36.9,313.4,49.3,304,56.6,296.7Z"/>
    <path class="cls-1" d="M42.5,428.3c4.2-4.1,9.5-11.1,7.4-20.4-9.2-2-16.2,3.2-20.4,7.4s-9.5,11.2-7.4,20.4C31.4,437.8,38.4,432.5,42.5,428.3Z"/>
    <path class="cls-1" d="M51.8,49.7c9.9-9.9,22.5-26.5,17.6-48.6C47.3-3.8,30.7,8.8,20.8,18.7S-1.8,45.3,3.1,67.4C25.2,72.3,41.9,59.6,51.8,49.7Z"/>
    <path class="cls-1" d="M6,157c3.1,3.2,8.4,7.2,15.5,5.6,1.5-7-2.5-12.3-5.6-15.5S7.4,140,.3,141.5C-1.2,148.5,2.8,153.9,6,157Z"/>
    <path class="cls-2" d="M76.2,380.4c5.2,5.2,14,11.9,25.7,9.3,2.6-11.7-4-20.5-9.3-25.7s-14.1-11.9-25.7-9.3C64.3,366.3,71,375.2,76.2,380.4Z"/>
    <path class="cls-2" d="M86.3,167c-5.2-5.2-14-11.9-25.7-9.3-2.6,11.7,4.1,20.5,9.3,25.7s14.1,11.9,25.8,9.4C98.2,181.1,91.6,172.3,86.3,167Z"/>
  </g>
</svg>
