<svg id="Layer_1" data-name="Layer 1" xmlns="http://www.w3.org/2000/svg" width="102.5" height="436.2" viewBox="0 0 102.5 436.2">
  <defs>
    <style>
      @keyframes twinkle {
          0% {
              transform: rotate(5deg) scale(1);
          }
          100% {
              transform: rotate(-5deg) scale(0.95);
          }
      }

      .cls-1 {
          animation: twinkle 1.25s ease-in-out infinite alternate;
      }

      .cls-2 {
          animation: twinkle 1s ease-in-out infinite alternate;
      }

      g g:nth-child(odd) .cls-1, g g:nth-child(even) .cls-2 {
          animation-direction: alternate-reverse;
      }

      .cls-1 {
        fill: #741750;
      }

      .cls-2 {
        fill: #e480ce;
      }
    </style>
  </defs>
  <title>Left Leaves</title>
  <g>
    <g transform="translate(56.6, 296.7)">
      <path class="cls-1" x="-25" y="-25" width="50" height="50" d="m0 0c7.4-7.4 16.7-19.7 13.1-36-16.4-3.6-28.7 5.7-36 13s-16.7 19.7-13.1 36.1c16.3 3.6 28.7-5.8 36-13.1z"/>
    </g>
    <g transform="translate(42.5, 428.3)">
      <path class="cls-1" d="m0 0c4.2-4.1 9.5-11.1 7.4-20.4-9.2-2-16.2 3.2-20.4 7.4s-9.5 11.2-7.4 20.4c9.3 2.1 16.3-3.2 20.4-7.4z"/>
    </g>
    <g transform="translate(51.8, 49.7)">
      <path class="cls-1" d="m0 0c9.9-9.9 22.5-26.5 17.6-48.6-22.1-4.9-38.7 7.7-48.6 17.6s-22.6 26.6-17.7 48.7c22.1 4.9 38.8-7.8 48.7-17.7z"/>
    </g>
    <g transform="translate(6, 157)">
      <path class="cls-1" d="m0 0c3.1 3.2 8.4 7.2 15.5 5.6 1.5-7-2.5-12.3-5.6-15.5s-8.5-7.1-15.6-5.6c-1.5 7 2.5 12.4 5.7 15.5z"/>
    </g>
    <g transform="translate(76.2, 380.4)">
      <path class="cls-2" d="m0 0c5.2 5.2 14 11.9 25.7 9.3 2.6-11.7-4-20.5-9.3-25.7s-14.1-11.9-25.7-9.3c-2.6 11.6 4.1 20.5 9.3 25.7z"/>
    </g>
    <g transform="translate(86.3 167)">
      <path class="cls-2" d="m0, 0c-5.2-5.2-14-11.9-25.7-9.3-2.6 11.7 4.1 20.5 9.3 25.7s14.1 11.9 25.8 9.4c2.5-11.7-4.1-20.5-9.4-25.8z"/>
    </g>
  </g>
</svg>
