<svg id="Layer_1" data-name="Layer 1" xmlns="http://www.w3.org/2000/svg" width="100%" height="100%" viewBox="0 0 243.3 61.8">
  <defs>
    <style>
      .cls-1 {
        fill: #0c0c51;
      }

      .cls-2 {
        fill: #8b68c8;
      }
    </style>
  </defs>
  <title>Bottom Right Plants</title>
  <g>
    <path class="cls-1" d="M0,40.1,21.7,61.8H31.8L53.5,40.1l-11,2.1a8.1,8.1,0,0,0-4.1,2.3l-6.6,6.6V44.8A6.7,6.7,0,0,0,30,40.4l-8.3-9.3v20l-6.6-6.6A8.5,8.5,0,0,0,11,42.2ZM26.7,56.8l-.3-.3.3-.4.4.4Z"/>
    <path class="cls-2" d="M221.2,22.3a16.7,16.7,0,0,0-8.2,4.5L199.6,40.2V0L182.8,18.6a13.7,13.7,0,0,0-3.5,9V40.3L165.9,26.8a16.7,16.7,0,0,0-8.2-4.5l-22.1-4.2,43.7,43.7h20.3l43.7-43.7ZM188.8,51l.7-.6.6.6-.6.7Z"/>
  </g>
</svg>
