<svg id="Layer_1" data-name="Layer 1" xmlns="http://www.w3.org/2000/svg" width="100%" height="100%" viewBox="0 0 233.2 50.6">
  <defs>
    <style>
      .cls-1 {
        fill: #0c0c51;
      }

      .cls-2 {
        fill: #8b68c8;
      }
    </style>
  </defs>
  <title>Bottom Left Plants</title>
  <g>
    <path class="cls-1" d="M219.7,26.4a10.2,10.2,0,0,0-5.1,2.7l-8.2,8.3V12.7L196.1,24.1a8.1,8.1,0,0,0-2.1,5.5v7.8l-8.3-8.3a9.5,9.5,0,0,0-5-2.7l-13.6-2.6L194,50.6h12.4l26.8-26.8ZM199.8,44l.4-.4.4.4-.4.4Z"/>
    <path class="cls-2" d="M0,14.8,35.8,50.6H52.4L88.2,14.8,70.1,18.3A12.2,12.2,0,0,0,63.4,22l-11,11V22.6a11,11,0,0,0-2.9-7.4L35.8,0V32.9L24.8,22a12.2,12.2,0,0,0-6.7-3.7ZM44.1,42.3l-.5-.5.5-.6.5.6Z"/>
  </g>
</svg>
