<svg id="Layer_1" data-name="Layer 1" xmlns="http://www.w3.org/2000/svg" width="210.1" height="47.1" viewBox="0 0 210.1 47.1">
  <defs>
    <style>
      .cls-1 {
        fill: #ac4c8f;
      }
    </style>
  </defs>
  <title>Top Left Stars</title>
  <g>
    <path class="cls-1" d="M31.9,12.8v6.3h-.7A12.1,12.1,0,0,0,19.1,31.2v.7H12.8v-.7A12.1,12.1,0,0,0,.7,19.1H0V12.8H.7A12.1,12.1,0,0,0,12.8.7V0h6.3V.7A12.1,12.1,0,0,0,31.2,12.8Z"/>
    <path class="cls-1" d="M210.1,37.2v3.3h-.4a6.2,6.2,0,0,0-6.2,6.2v.4h-3.3v-.4a6.2,6.2,0,0,0-6.2-6.2h-.3V37.2h.3a6.2,6.2,0,0,0,6.2-6.2v-.3h3.3V31a6.2,6.2,0,0,0,6.2,6.2Z"/>
  </g>
</svg>
