<svg id="Layer_1" data-name="Layer 1" xmlns="http://www.w3.org/2000/svg" width="100%" height="100%" viewBox="0 0 203.8 48.8">
  <defs>
    <style>
      .cls-1 {
        fill: #0c0c51;
      }

      .cls-2 {
        fill: #8b68c8;
      }
    </style>
  </defs>
  <title>Top Left Plants</title>
  <g>
    <path class="cls-1" d="M153.8,28.5l20.3,20.3h9.4l20.3-20.3-10.3,2a7.3,7.3,0,0,0-3.8,2.1l-6.2,6.2V32.9a6.2,6.2,0,0,0-1.6-4.1l-7.8-8.7V38.8l-6.2-6.2a7.3,7.3,0,0,0-3.8-2.1Zm25,15.6-.3-.3.3-.3.3.3Z"/>
    <path class="cls-2" d="M67.6,17.6a13.2,13.2,0,0,0-6.5,3.6L50.6,31.8V0L37.3,14.7a10.5,10.5,0,0,0-2.7,7.1v10L23.9,21.2a12.5,12.5,0,0,0-6.4-3.6L0,14.3,34.5,48.8H50.6L85.1,14.3ZM42,40.3l.5-.5.6.5-.6.5Z"/>
  </g>
</svg>
