<svg xmlns="http://www.w3.org/2000/svg" width="100%" height="100%" viewBox="0 0 812.2 260.3">
  <defs>
    <style>
      .cls-1 {
        isolation: isolate;
      }

      .cls-2 {
        fill: #0c0c51;
      }

      .cls-3 {
        fill: #ff9e00;
      }

      .cls-4 {
        fill: #ffca00;
      }

      .cls-5 {
        fill: #0f66bc;
      }

      .cls-6, .cls-7 {
        fill: #a85b3d;
      }

      .cls-15, .cls-20, .cls-7 {
        mix-blend-mode: multiply;
      }

      .cls-8 {
        fill: #3882d6;
      }

      .cls-9 {
        fill: #464649;
      }

      .cls-10 {
        fill: #5a5a5e;
      }

      .cls-11, .cls-29 {
        fill: #fff;
      }

      .cls-12, .cls-22, .cls-28 {
        fill: none;
        stroke-miterlimit: 10;
      }

      .cls-12 {
        stroke: #3882d6;
        stroke-width: 1.12px;
      }

      .cls-13, .cls-15 {
        fill: #ffad98;
      }

      .cls-14 {
        fill: #65c1ef;
      }

      .cls-16 {
        fill: #966e5a;
      }

      .cls-17 {
        fill: #e88170;
      }

      .cls-18, .cls-20 {
        fill: #c9926c;
      }

      .cls-19, .cls-26 {
        fill: #f27261;
      }

      .cls-21, .cls-25 {
        fill: #5f7fce;
      }

      .cls-22, .cls-28 {
        stroke: #000;
      }

      .cls-23, .cls-29 {
        opacity: 0.5;
      }

      .cls-24 {
        fill: #281f17;
      }

      .cls-25, .cls-26 {
        mix-blend-mode: screen;
      }

      .cls-27 {
        fill: #a39ae2;
      }

      .cls-28 {
        stroke-width: 1.06px;
      }
    </style>
  </defs>
  <title>Letter from our Team</title>
  <g class="cls-1">
    <g id="Layer_1" data-name="Layer 1">
      <g>
        <g>
          <rect class="cls-2" x="391.2" y="246.1" width="39.4" height="14.16"/>
          <rect class="cls-2" x="438.3" y="246.1" width="19.7" height="14.16"/>
          <rect class="cls-2" x="363.8" y="246.1" width="19.7" height="14.16"/>
          <path class="cls-3" d="M404.9,196.3c-7.7,0-14-10.3-14-22.9s6.3-22.9,14-22.9"/>
          <path class="cls-4" d="M434.9,230.4c-4.9,0-8.9-5.9-8.9-13.2s4-13.1,8.9-13.1"/>
          <path class="cls-4" d="M386.9,199.6c6.3,0,11.5,6.9,11.5,15.4s-5.2,15.4-11.5,15.4"/>
          <path class="cls-3" d="M414,161c6.6,0,12,11.7,12,26.1s-5.4,26.1-12,26.1"/>
          <path class="cls-4" d="M403.1,235.6a7.9,7.9,0,1,1,15.8,0"/>
        </g>
        <rect class="cls-5" x="277.6" y="96.8" width="10.2" height="11.48"/>
        <path class="cls-6" d="M218.9,12.4H276a0,0,0,0,1,0,0V40.9a28.6,28.6,0,0,1-28.6,28.6h0a28.6,28.6,0,0,1-28.6-28.6V12.4a0,0,0,0,1,0,0Z"/>
        <circle class="cls-6" cx="276" cy="37.7" r="6.6"/>
        <path class="cls-7" d="M276,34.5a3.2,3.2,0,1,1,0,6.3"/>
        <path class="cls-7" d="M250.2,46a2.7,2.7,0,0,1-2.7,2.8,2.8,2.8,0,0,1-2.8-2.8"/>
        <circle class="cls-6" cx="218.9" cy="37.7" r="6.6"/>
        <g>
          <path d="M232.1,39.5a3.6,3.6,0,1,1,7.1,0"/>
          <path d="M255.7,39.5a3.6,3.6,0,1,1,7.1,0"/>
        </g>
        <rect class="cls-8" x="218.9" y="76.2" width="57.1" height="86.82"/>
        <path class="cls-7" d="M218.9,40.8a3.2,3.2,0,1,1,0-6.3"/>
        <rect class="cls-6" x="223.4" y="204.8" width="14.4" height="40.24"/>
        <rect class="cls-6" x="257.1" y="204.8" width="14.4" height="40.24"/>
        <polygon class="cls-9" points="276 163.1 276 230.6 251.5 230.6 251.5 194 243.4 194 243.4 230.6 218.9 230.6 218.9 163.1 276 163.1"/>
        <rect class="cls-10" x="253.7" y="230.6" width="20.3" height="8.34"/>
        <rect class="cls-10" x="220.4" y="230.6" width="20.3" height="8.34"/>
        <path class="cls-5" d="M267.4,76.2h14.8a5.5,5.5,0,0,1,5.5,5.5V99.6a0,0,0,0,1,0,0H267.4a0,0,0,0,1,0,0V76.2A0,0,0,0,1,267.4,76.2Z"/>
        <rect class="cls-5" x="205.1" y="76.2" width="24" height="18.68"/>
        <polygon class="cls-5" points="278.9 76.3 278.9 163.1 216.2 163.1 216.2 76.3 237.6 76.3 247.5 117 257.3 76.3 278.9 76.3"/>
        <g>
          <rect class="cls-6" x="237.6" y="56.2" width="19.7" height="20"/>
          <circle class="cls-6" cx="247.5" cy="76.2" r="9.8"/>
        </g>
        <path class="cls-11" d="M239.1,54.8c0,4.3,3.8,7.7,8.4,7.7s8.3-3.4,8.3-7.7Z"/>
        <line class="cls-12" x1="247.5" y1="108.3" x2="247.5" y2="151.4"/>
        <rect class="cls-8" x="257.3" y="140.6" width="14.1" height="3.34"/>
        <rect class="cls-8" x="223.7" y="140.6" width="14.1" height="3.34"/>
        <rect class="cls-8" x="191" y="80.9" width="18.7" height="9.4" transform="translate(286 -114.8) rotate(90)"/>
        <rect class="cls-8" x="271.9" y="101.7" width="15.9" height="9.4" transform="translate(559.7 212.7) rotate(180)"/>
        <rect class="cls-6" x="182.7" y="77.7" width="13" height="14.81"/>
        <rect class="cls-6" x="275.2" y="110.6" width="12.6" height="11.82"/>
        <rect class="cls-6" x="182.7" y="46" width="11.7" height="32.88"/>
        <path class="cls-6" d="M254.3,101.5l20.8,20.8,7.7-7.7L258,89.7a2.7,2.7,0,0,0-3.7,0h0A8.3,8.3,0,0,0,254.3,101.5Z"/>
        <g>
          <path class="cls-11" d="M227.7,100.9l-3.2-1.8V94.7l3.8-2.1,3.9,2.1v4.4l-2.3,1.3v3.5l2.9,1.6,2.9-1.6v-3.5l-2.2-1.3v-.9l3.1,1.7v4.5l-3.8,2.1-3.8-2.1V99.9l2.3-1.3V95.2l-3-1.7-2.9,1.7v3.4l2.3,1.4Z"/>
          <polygon class="cls-11" points="226.6 96 226.6 98 228.4 99.1 230.2 98 230.2 96 228.4 94.9 226.6 96"/>
          <polygon class="cls-11" points="231 101.1 231 103.2 232.8 104.2 234.6 103.2 234.6 101.1 232.8 100.1 231 101.1"/>
        </g>
        <path d="M276,7.7V28.9c0,.3-.1.4-.4.4a9,9,0,0,1-8.9-7.8H228.2a8.5,8.5,0,0,1-2.5,5.2,9.3,9.3,0,0,1-6.4,2.6.4.4,0,0,1-.4-.4V7.7A5.7,5.7,0,0,1,224.6,2h45.7A5.7,5.7,0,0,1,276,7.7Z"/>
        <path d="M257,245h18.5a13,13,0,0,1,13,13v.4a1.9,1.9,0,0,1-1.9,1.9H259.9a5.3,5.3,0,0,1-5.3-5.3v-7.6A2.4,2.4,0,0,1,257,245Z"/>
        <path d="M211.7,245h26.7a1.9,1.9,0,0,1,1.9,1.9v.4a13,13,0,0,1-13,13H208.9a2.4,2.4,0,0,1-2.4-2.4v-7.6A5.3,5.3,0,0,1,211.7,245Z" transform="translate(446.7 505.3) rotate(180)"/>
        <g>
          <path class="cls-11" d="M223.7,112.2v-3h.6v1.4h.7v-1.4h.6v3H225v-1.3h-.7v1.3Z"/>
          <path class="cls-11" d="M226.5,112.2v-2.3c0-.2.1-.3.2-.5l.5-.2h.6l.5.2c.1.2.2.3.2.5v2.3h-.7v-1.3h-.6v1.3Zm.7-1.6h.6v-.7c0-.1,0-.2-.1-.2s-.1-.1-.2-.1-.2,0-.2.1-.1.1-.1.2Z"/>
          <path class="cls-11" d="M231.3,111.5c0,.5-.2.7-.6.7H230l-.4-.2c-.2-.1-.2-.3-.2-.5v-1.6a.9.9,0,0,1,.1-.5l.5-.2h.7c.4,0,.6.2.6.7H231a.3.3,0,0,0-.3-.3h-.6a.3.3,0,0,0-.1.2v1.9h.6c.2,0,.3-.1.3-.4Z"/>
          <path class="cls-11" d="M232.2,112.2v-3h.7v1.2l1-1.2h.6l-1.3,1.5,1.3,1.5h-.6l-1-1.2v1.2Z"/>
          <path class="cls-11" d="M236.4,110.6h1v.9a.6.6,0,0,1-.2.5.6.6,0,0,1-.5.2h-.6l-.5-.2a.8.8,0,0,1-.2-.5v-1.6c0-.2.1-.3.2-.5l.5-.2h.6a.6.6,0,0,1,.7.7H237a.3.3,0,0,0-.3-.3h-.6v2.1h.3c.2,0,.3-.1.3-.4v-.6h-.3Z"/>
          <path class="cls-11" d="M238.6,112.2v-2.6h-.7v-.4h2v.4h-.7v2.6Z"/>
        </g>
        <rect class="cls-13" x="707.1" y="142.1" width="40.4" height="11.42"/>
        <rect class="cls-13" x="725.3" y="127.1" width="13.1" height="15.16"/>
        <rect class="cls-13" x="791" y="79.8" width="11.8" height="31.55" transform="translate(300.9 -535.5) rotate(45)"/>
        <path class="cls-13" d="M790.8,61.2h.6a4.6,4.6,0,0,1,4.6,4.6V87.7a0,0,0,0,1,0,0h-9.8a0,0,0,0,1,0,0V65.8a4.6,4.6,0,0,1,4.6-4.6Z" transform="translate(179.1 581.2) rotate(-45)"/>
        <polygon class="cls-14" points="733.3 113.6 733.3 169.8 790.5 169.8 790.5 113.6 805.1 98.9 792.2 86 780.5 97.7 743.3 97.7 733.3 97.7 733.3 113.6"/>
        <path class="cls-13" d="M733.3,35.7h57.1a0,0,0,0,1,0,0V64.3a28.6,28.6,0,0,1-28.6,28.6h0a28.6,28.6,0,0,1-28.6-28.6V35.7a0,0,0,0,1,0,0Z"/>
        <circle class="cls-13" cx="790.5" cy="61" r="6.6"/>
        <path class="cls-15" d="M790.5,57.8a3.1,3.1,0,0,1,3.1,3.2,3.2,3.2,0,0,1-3.1,3.2"/>
        <path class="cls-15" d="M758.5,69.4a2.7,2.7,0,0,1-5.4,0"/>
        <circle class="cls-13" cx="733.3" cy="61" r="6.6"/>
        <g>
          <path d="M743.5,62.8a3.5,3.5,0,0,1,3.5-3.6,3.6,3.6,0,0,1,3.6,3.6"/>
          <path d="M765.6,62.8a3.6,3.6,0,1,1,7.2,0"/>
        </g>
        <g>
          <rect class="cls-13" x="752.1" y="79.6" width="19.7" height="20"/>
          <circle class="cls-13" cx="761.9" cy="99.6" r="9.8"/>
        </g>
        <path class="cls-11" d="M750.5,77.1a8.4,8.4,0,1,0,16.7,0Z"/>
        <path class="cls-15" d="M733.3,64.2a3.2,3.2,0,0,1-3.1-3.2,3.1,3.1,0,0,1,3.1-3.2"/>
        <polygon class="cls-16" points="790.5 170 790.5 209.3 766 209.3 766 201 757.8 201 757.8 209.3 733.3 209.3 733.3 170 790.5 170"/>
        <rect class="cls-13" x="737.8" y="209.3" width="14.4" height="38.01"/>
        <rect class="cls-13" x="771.6" y="209.3" width="14.4" height="38.01"/>
        <rect class="cls-14" x="771.6" y="235.2" width="14.4" height="12.17"/>
        <rect class="cls-14" x="737.8" y="235.2" width="14.4" height="12.17"/>
        <rect class="cls-17" x="771.6" y="239.4" width="14.4" height="3.71"/>
        <rect class="cls-17" x="737.8" y="239.4" width="14.4" height="3.71"/>
        <path d="M790.5,32.1v20a9.8,9.8,0,0,1-9.5-7.6H742.8a9.1,9.1,0,0,1-2.6,4.7,9.7,9.7,0,0,1-6.9,2.9V35.5a6.4,6.4,0,0,1,6.4-6.3h8.8a4.6,4.6,0,0,1,4.6-4.5h30A7.4,7.4,0,0,1,790.5,32.1Z"/>
        <path class="cls-2" d="M769.5,247.3H786a0,0,0,0,1,0,0v9.8a3.2,3.2,0,0,1-3.2,3.2H761.1a2.3,2.3,0,0,1-2.3-2.3v0A10.7,10.7,0,0,1,769.5,247.3Z"/>
        <path class="cls-2" d="M736,247.3h16.5a0,0,0,0,1,0,0v9.8a3.2,3.2,0,0,1-3.2,3.2H727.5a2.3,2.3,0,0,1-2.3-2.3v0A10.7,10.7,0,0,1,736,247.3Z"/>
        <path class="cls-14" d="M733.3,97.7h3a0,0,0,0,1,0,0v35a0,0,0,0,1,0,0H722.1a0,0,0,0,1,0,0V108.9A11.2,11.2,0,0,1,733.3,97.7Z"/>
        <g>
          <path class="cls-13" d="M707.1,142.1H693.2a1.9,1.9,0,0,0-1.9,1.9v4.6a4.9,4.9,0,0,0,4.9,4.9h10.9"/>
          <path class="cls-13" d="M702,136.9h1.7a0,0,0,0,1,0,0v9.4a0,0,0,0,1,0,0h-4.5a0,0,0,0,1,0,0v-6.6A2.8,2.8,0,0,1,702,136.9Z"/>
        </g>
        <g>
          <path class="cls-11" d="M737.5,127.2v-8h1.8v3.5h1.8v-3.5h1.7v8h-1.7v-3.6h-1.8v3.6Z"/>
          <path class="cls-11" d="M745.2,127.2V121a1.7,1.7,0,0,1,1.8-1.8h1.7a1.7,1.7,0,0,1,1.3.5,2.1,2.1,0,0,1,.5,1.3v6.2h-1.8v-3.6H747v3.6Zm1.8-4.5h1.7V121a.7.7,0,0,0-.9-.9.7.7,0,0,0-.6.2.8.8,0,0,0-.2.7Z"/>
          <path class="cls-11" d="M758.2,125.4q-.2,1.8-1.8,1.8h-1.8a1.7,1.7,0,0,1-1.2-.5,1.8,1.8,0,0,1-.6-1.3V121a1.8,1.8,0,0,1,.6-1.3,1.3,1.3,0,0,1,1.2-.5h1.8q1.6,0,1.8,1.8h-.9q-.1-.9-.9-.9h-.9a.7.7,0,0,0-.6.2.9.9,0,0,0-.3.7v4.4a.6.6,0,0,0,.3.6.9.9,0,0,0,.6.3h.9q.8,0,.9-.9Z"/>
          <path class="cls-11" d="M760.5,127.2v-8h1.8v3.3l2.9-3.3h1.6l-3.6,4,3.6,4H765l-2.7-3.1v3.1Z"/>
          <path class="cls-11" d="M771.8,122.7h2.6v2.7a1.6,1.6,0,0,1-.5,1.4,1.9,1.9,0,0,1-1.2.4h-1.8a1.7,1.7,0,0,1-1.8-1.8V121a2.1,2.1,0,0,1,.5-1.3,1.7,1.7,0,0,1,1.3-.5h1.8c1.1,0,1.7.6,1.7,1.8h-.8q-.1-.9-.9-.9h-.9a.8.8,0,0,0-.7.2,1.4,1.4,0,0,0-.2.7v4.4a1.4,1.4,0,0,0,.2.7l.7.2q.8,0,.9-.9v-1.8h-.9Z"/>
          <path class="cls-11" d="M777.7,127.2v-7.1h-1.8v-.9h5.3v.9h-1.8v7.1Z"/>
        </g>
        <rect class="cls-17" x="707.1" y="142.2" width="3.2" height="11.3"/>
        <polygon class="cls-18" points="552.3 87 543.6 108.4 539.1 119.2 526.9 114.3 531.4 103.4 540.1 82 552.3 87"/>
        <rect class="cls-18" x="610.9" y="83.2" width="13.2" height="34.86" transform="translate(1227.2 -39.7) rotate(157.8)"/>
        <path class="cls-18" d="M621.7,99.9h43.1a0,0,0,0,1,0,0v12.4a0,0,0,0,1,0,0H617.1a2.5,2.5,0,0,1-2.5-2.5V107A7.1,7.1,0,0,1,621.7,99.9Z" transform="translate(1272.1 -37.4) rotate(157.8)"/>
        <path class="cls-19" d="M627,102.9l-14.7,6-5.2-12.7v53.4H550V96.2l-5.2,12.7-1.2-.5-12.2-5-1.3-.5,12-29.4a9.9,9.9,0,0,1,9.2-6.2h54.5a9.9,9.9,0,0,1,9.2,6.2Z"/>
        <path class="cls-18" d="M649.5,89.3h1.7a0,0,0,0,1,0,0v11.4a0,0,0,0,1,0,0h-4.5a0,0,0,0,1,0,0V92.1a2.8,2.8,0,0,1,2.8-2.8Z" transform="translate(125.2 -299.7) rotate(28.7)"/>
        <rect class="cls-18" x="554.5" y="211.8" width="14.4" height="34.75"/>
        <rect class="cls-18" x="588.2" y="211.8" width="14.4" height="34.75"/>
        <path class="cls-18" d="M550,14.6h57.1a0,0,0,0,1,0,0V43.2a28.6,28.6,0,0,1-28.6,28.6h0A28.6,28.6,0,0,1,550,43.2V14.6a0,0,0,0,1,0,0Z"/>
        <circle class="cls-18" cx="607.1" cy="39.9" r="6.6"/>
        <path class="cls-20" d="M607.1,36.8a3.2,3.2,0,1,1,0,6.3"/>
        <path class="cls-20" d="M581.3,49.3a2.8,2.8,0,1,1-5.5,0l2.7-2.8Z"/>
        <circle class="cls-18" cx="550" cy="39.9" r="6.6"/>
        <g>
          <path d="M593.9,38.2a3.6,3.6,0,0,1-7.1,0"/>
          <path d="M570.3,38.2a3.6,3.6,0,0,1-7.1,0"/>
        </g>
        <g>
          <path class="cls-11" d="M562.2,96l-3.3-1.9V89.5l4-2.3,4.1,2.3v4.6l-2.4,1.4v3.6l3.1,1.7,3-1.7V95.4l-2.3-1.3v-1l3.3,1.8c0,1.6,0,3.1-.1,4.7l-3.9,2.3-4-2.3V94.9l2.3-1.4V90l-3.1-1.8-3,1.7v3.7l2.4,1.4Z"/>
          <polygon class="cls-11" points="561 90.8 561 92.9 562.9 94 564.8 92.9 564.8 90.8 562.9 89.7 561 90.8"/>
          <polygon class="cls-11" points="565.7 96.1 565.7 98.3 567.5 99.4 569.4 98.3 569.4 96.1 567.5 95.1 565.7 96.1"/>
        </g>
        <g>
          <rect class="cls-18" x="568.7" y="51.8" width="19.7" height="20"/>
          <circle class="cls-18" cx="578.5" cy="71.8" r="9.8"/>
        </g>
        <path class="cls-11" d="M570.2,57.2c0,3.2,3.7,5.9,8.3,5.9s8.4-2.7,8.4-5.9Z"/>
        <path class="cls-20" d="M550,43.1a3.2,3.2,0,1,1,0-6.3"/>
        <polygon class="cls-21" points="607.1 149.6 607.1 230.8 582.6 230.8 582.6 180.5 574.5 180.5 574.5 230.8 550 230.8 550 149.6 607.1 149.6"/>
        <path d="M607.1,14.1V31.8a9.6,9.6,0,0,1-9.6-9.6V19.8h-7.8a4.1,4.1,0,0,1-4.1,4.1H559.5a9.7,9.7,0,0,1-9.5,7.9V12.2A12.1,12.1,0,0,1,562.1,0h16.1a6.3,6.3,0,0,1,6.3,6.2h14.8A7.9,7.9,0,0,1,607.1,14.1Z"/>
        <g>
          <circle class="cls-22" cx="590.4" cy="39.1" r="7.4"/>
          <circle class="cls-22" cx="566.7" cy="39.1" r="7.4"/>
          <line class="cls-22" x1="574.1" y1="39.1" x2="583" y2="39.1"/>
        </g>
        <g class="cls-23">
          <circle class="cls-11" cx="590.4" cy="39.1" r="7.4"/>
          <circle class="cls-11" cx="566.7" cy="39.1" r="7.4"/>
        </g>
        <path class="cls-24" d="M542.6,246.5h26.7a1.7,1.7,0,0,1,1.7,1.7v.6a11.5,11.5,0,0,1-11.5,11.5h-20a1.5,1.5,0,0,1-1.5-1.5v-7.6A4.7,4.7,0,0,1,542.6,246.5Z" transform="translate(1108.9 506.8) rotate(180)"/>
        <path class="cls-24" d="M587.6,246.5h20A11.5,11.5,0,0,1,619.2,258v.6a1.7,1.7,0,0,1-1.7,1.7H590.8a4.7,4.7,0,0,1-4.7-4.7V248a1.5,1.5,0,0,1,1.5-1.5Z"/>
        <rect class="cls-25" x="550" y="223.6" width="24.5" height="7.11"/>
        <rect class="cls-25" x="582.6" y="223.6" width="24.5" height="7.11"/>
        <rect class="cls-19" x="554.5" y="239.5" width="14.4" height="7.03"/>
        <rect class="cls-19" x="588.2" y="239.5" width="14.4" height="7.03"/>
        <rect class="cls-26" x="586.8" y="88.1" width="11.9" height="2.39"/>
        <rect class="cls-26" x="586.8" y="92.3" width="11.9" height="8.36"/>
        <path class="cls-18" d="M494.8,99.9h47.7a0,0,0,0,1,0,0v12.4a0,0,0,0,1,0,0H499.4a7.1,7.1,0,0,1-7.1-7.1v-2.8A2.5,2.5,0,0,1,494.8,99.9Z" transform="translate(78.5 -187.7) rotate(22.2)"/>
        <path class="cls-18" d="M505.9,89.3h4.5a0,0,0,0,1,0,0v11.4a0,0,0,0,1,0,0h-1.7a2.8,2.8,0,0,1-2.8-2.8V89.3A0,0,0,0,1,505.9,89.3Z" transform="translate(999.5 -65.4) rotate(151.3)"/>
        <path class="cls-6" d="M264.9,90.1h.8a0,0,0,0,1,0,0v8.6a0,0,0,0,1,0,0h-3.6a0,0,0,0,1,0,0V92.9A2.8,2.8,0,0,1,264.9,90.1Z"/>
        <path class="cls-6" d="M194.4,39.6h0a0,0,0,0,1,0,0v8.2a.4.4,0,0,1-.4.4h-2.8a.4.4,0,0,1-.4-.4V43.1A3.6,3.6,0,0,1,194.4,39.6Z"/>
        <path class="cls-6" d="M188.9,33.8h0a1.9,1.9,0,0,1,1.9,1.9V46.1a0,0,0,0,1,0,0h-8.1a0,0,0,0,1,0,0V40A6.3,6.3,0,0,1,188.9,33.8Z"/>
        <g>
          <path d="M63.1,22h.6A36.4,36.4,0,0,1,100,58.4V108a0,0,0,0,1,0,0H26.7a0,0,0,0,1,0,0V58.4A36.4,36.4,0,0,1,63.1,22Z"/>
          <path class="cls-13" d="M130.3,72.1V77l-31,31a.5.5,0,0,1-.7,0l-7.3-7.3a.5.5,0,0,1,0-.7l31.1-31v3.6H125l1,.4v-.3l1.3-3.7A3.1,3.1,0,0,1,130.3,72.1Z"/>
          <g>
            <path class="cls-13" d="M14.6,66.3H24.8a.5.5,0,0,1,.5.5v43.9a0,0,0,0,1,0,0H14a0,0,0,0,1,0,0V66.8a.5.5,0,0,1,.5-.5Z" transform="translate(96.2 137.1) rotate(135)"/>
            <path class="cls-13" d="M0,68.8H8a0,0,0,0,1,0,0v4.8a3.1,3.1,0,0,1-3.1,3.1H0a0,0,0,0,1,0,0v-8A0,0,0,0,1,0,68.8Z" transform="translate(8 145.6) rotate(-180)"/>
            <path class="cls-13" d="M5.3,58.6H8a0,0,0,0,1,0,0V69.8a2.7,2.7,0,0,1-2.7,2.7h0a0,0,0,0,1,0,0V58.6A0,0,0,0,1,5.3,58.6Z" transform="translate(13.3 131.1) rotate(-180)"/>
            <path class="cls-13" d="M2,58.9H4.7a0,0,0,0,1,0,0V70.1A2.7,2.7,0,0,1,2,72.7H2a0,0,0,0,1,0,0V58.9A0,0,0,0,1,2,58.9Z" transform="translate(28.2 126.9) rotate(160.7)"/>
          </g>
          <path class="cls-13" d="M40.4,49.9H90.1a0,0,0,0,1,0,0V74.8A24.8,24.8,0,0,1,65.3,99.6h0A24.8,24.8,0,0,1,40.4,74.8V49.9a0,0,0,0,1,0,0Z"/>
          <circle class="cls-13" cx="90.1" cy="72" r="5.7"/>
          <polygon class="cls-13" points="126.1 72.7 126 73 125 72.6 122.4 72.6 122.4 69 124 70.6 125 71.7 126.1 72.7"/>
          <path class="cls-15" d="M90.1,69.2a2.8,2.8,0,1,1,0,5.5"/>
          <path class="cls-15" d="M71.2,77.8a2.8,2.8,0,0,1-4,0l2-2Z"/>
          <circle class="cls-13" cx="40.4" cy="72" r="5.7"/>
          <g>
            <path d="M52.8,71.2a3.4,3.4,0,1,1,6.7,0"/>
            <path d="M74.9,71.2a3.4,3.4,0,1,1,6.7,0"/>
          </g>
          <path d="M30.7,57.6c1.4,4.9,12.3,5,24.2.3A50.6,50.6,0,0,0,68,50.5a34.6,34.6,0,0,0,10.2,5.9C87.6,59.9,96,58.9,96.9,54s-6-11.7-15.4-15.3c-5.1-1.9-10-2.5-13.4-1.8s-11.3.5-18.4,3.3C37.7,45,29.2,52.8,30.7,57.6Z"/>
          <polygon class="cls-27" points="105.7 105.7 92 119.4 92 174.1 38.5 174.1 38.5 119.4 24.8 105.7 36.9 93.6 47.9 104.6 82.7 104.6 93.6 93.6 105.7 105.7"/>
          <g>
            <rect class="cls-13" x="56.7" y="87.7" width="17.1" height="17.39"/>
            <circle class="cls-13" cx="65.3" cy="105.1" r="8.5"/>
          </g>
          <path class="cls-11" d="M60.6,83.7c0,4.5,3.2,8.1,7.2,8.1s7.3-3.6,7.3-8.1Z"/>
          <path class="cls-15" d="M40.4,74.7a2.8,2.8,0,0,1,0-5.5"/>
          <polygon class="cls-16" points="92 174.1 92 210.9 69.1 210.9 69.1 203.1 61.5 203.1 61.5 210.9 38.5 210.9 38.5 174.1 92 174.1"/>
          <rect class="cls-13" x="42.7" y="210.9" width="13.5" height="35.58"/>
          <rect class="cls-13" x="74.3" y="210.9" width="13.5" height="35.58"/>
          <rect class="cls-27" x="74.3" y="235.1" width="13.5" height="11.39"/>
          <rect class="cls-27" x="42.7" y="235.1" width="13.5" height="11.39"/>
          <rect class="cls-17" x="74.3" y="239.1" width="13.5" height="3.47"/>
          <rect class="cls-17" x="42.7" y="239.1" width="13.5" height="3.47"/>
          <g>
            <path class="cls-11" d="M59.2,141.5l-8-4.5V126l9.4-5.4,9.7,5.5V137l-5.7,3.3v8.5l7.3,4.2,7.2-4.1c.1-2.9.1-5.8.1-8.7L73.6,137v-2.3l7.8,4.2v11.3l-9.5,5.3-9.5-5.4V139l5.6-3.3v-8.4l-7.3-4.2-7.2,4v8.7l5.7,3.3Z"/>
            <polygon class="cls-11" points="56.3 129.1 56.3 134.3 60.8 136.9 65.3 134.3 65.3 129.1 60.8 126.6 56.3 129.1"/>
            <polygon class="cls-11" points="67.4 141.9 67.4 147.1 71.9 149.7 76.3 147.1 76.3 141.9 71.9 139.3 67.4 141.9"/>
          </g>
          <path class="cls-2" d="M45.1,246.5H68.3a3.4,3.4,0,0,1,3.4,3.4v10.4a0,0,0,0,1,0,0H54.1a11.4,11.4,0,0,1-11.4-11.4v0a2.4,2.4,0,0,1,2.4-2.4Z" transform="translate(114.4 506.8) rotate(180)"/>
          <path class="cls-2" d="M76.7,246.5H99.9a3.4,3.4,0,0,1,3.4,3.4v10.4a0,0,0,0,1,0,0H85.7a11.4,11.4,0,0,1-11.4-11.4v0a2.4,2.4,0,0,1,2.4-2.4Z" transform="translate(177.6 506.8) rotate(180)"/>
          <g>
            <g>
              <circle class="cls-28" cx="57" cy="69.5" r="6.4"/>
              <circle class="cls-28" cx="79.1" cy="69.5" r="6.4"/>
              <line class="cls-28" x1="63.3" y1="69.5" x2="72.7" y2="69.5"/>
            </g>
            <g>
              <circle class="cls-29" cx="57" cy="69.5" r="6.4"/>
              <circle class="cls-29" cx="79.1" cy="69.5" r="6.4"/>
            </g>
          </g>
          <path class="cls-13" d="M127.4,69l-1.3,3.7V73l-1-.4h-2.6V69h5Z"/>
          <path class="cls-13" d="M125,61.5V72.6h-2.6V58.8a2.3,2.3,0,0,1,1.8.8A2.6,2.6,0,0,1,125,61.5Z"/>
          <path class="cls-13" d="M129.8,61.6a2.5,2.5,0,0,1-.1.8L127.4,69l-1.3,3.7V73l-1-.4-1.5-.5.5-1.5.6-1.6.4-1.4,3-8.6A2.7,2.7,0,0,1,129.8,61.6Z"/>
        </g>
      </g>
    </g>
  </g>
</svg>
