<svg xmlns="http://www.w3.org/2000/svg" width="1440.315" height="1026.325" viewBox="0 0 1440.315 1026.325">
  <defs>
    <style>
      .cls-1 {
        isolation: isolate;
      }

      .cls-2 {
        fill: #e88170;
      }

      .cls-3 {
        fill: #ffffb3;
      }

      .cls-4 {
        fill: #f7a7bf;
      }

      .cls-5 {
        fill: #741750;
      }

      .cls-12, .cls-13, .cls-6 {
        fill: #ac4c8f;
      }

      .cls-7 {
        fill: #391f63;
      }

      .cls-8 {
        fill: #533b89;
      }

      .cls-9 {
        fill: #0c0c51;
      }

      .cls-10 {
        fill: #ff9e00;
      }

      .cls-11 {
        fill: #ffca00;
      }

      .cls-12 {
        mix-blend-mode: multiply;
      }

      .cls-13 {
        mix-blend-mode: screen;
      }

      .cls-14 {
        fill: #da77c2;
      }

      .cls-15 {
        fill: #643a9f;
      }

      .cls-16 {
        fill: #8b68c8;
      }

      .cls-17 {
        fill: #d25cb2;
      }

      .cls-18 {
        fill: #4e062d;
      }
    </style>
  </defs>
  <title>Splash Image</title>
  <g class="cls-1">
    <g id="Layer_1" data-name="Layer 1">
      <g>
        <rect class="cls-2" x="-2.01" y="-1.432" width="1444.02" height="1026.11"/>
        <circle class="cls-3" cx="349.025" cy="564.89" r="94.065"/>
        <path class="cls-2" d="M416.07,553.584h0a3.471,3.471,0,0,1-3.47,3.471H84.906a3.471,3.471,0,0,1-3.471-3.471h0a5.816,5.816,0,0,1,5.817-5.816h34.859A34.285,34.285,0,0,1,177.134,526.5a40.155,40.155,0,0,1,73.189-15.86,54.455,54.455,0,0,1,84.939,18.322,29.293,29.293,0,0,1,44.785,18.806h30.207A5.816,5.816,0,0,1,416.07,553.584Z"/>
        <path class="cls-4" d="M1358.564,388.379h0a3.47,3.47,0,0,1-3.471,3.47H1027.4a3.47,3.47,0,0,1-3.471-3.47h0a5.816,5.816,0,0,1,5.816-5.816h34.86a34.285,34.285,0,0,1,55.023-21.269,40.155,40.155,0,0,1,73.189-15.859,54.454,54.454,0,0,1,84.938,18.321,29.3,29.3,0,0,1,44.786,18.807h30.206A5.816,5.816,0,0,1,1358.564,388.379Z"/>
        <path class="cls-4" d="M174.282,228.541h0a2.189,2.189,0,0,0,2.188,2.189H383.15a2.189,2.189,0,0,0,2.189-2.189h0a3.668,3.668,0,0,0-3.668-3.668H359.684a21.624,21.624,0,0,0-34.7-13.415,25.326,25.326,0,0,0-46.161-10,34.346,34.346,0,0,0-53.572,11.555A18.477,18.477,0,0,0,197,224.873H177.95A3.668,3.668,0,0,0,174.282,228.541Z"/>
        <path class="cls-4" d="M694.36,85.837h0a3.006,3.006,0,0,1-3.007,3.006H492.134a3.006,3.006,0,0,1-3.006-3.006h0a3.006,3.006,0,0,1,3.006-3.006h24.4c1.659-11.723,12.881-20.786,26.475-20.786a28.879,28.879,0,0,1,14.794,3.99,34.862,34.862,0,0,1,66.773-3.784,30.5,30.5,0,0,1,14.616-3.675c15,0,27.346,10.612,28.943,24.255h23.218A3.006,3.006,0,0,1,694.36,85.837Z"/>
        <path class="cls-4" d="M1003.828,580.985h0a2.46,2.46,0,0,1-2.46,2.46H838.306a2.461,2.461,0,0,1-2.461-2.46h0a2.461,2.461,0,0,1,2.461-2.461h19.971c1.358-9.6,10.543-17.013,21.67-17.013a23.638,23.638,0,0,1,12.109,3.266,28.535,28.535,0,0,1,54.654-3.1,24.973,24.973,0,0,1,11.963-3.008c12.277,0,22.383,8.687,23.691,19.853h19A2.46,2.46,0,0,1,1003.828,580.985Z"/>
        <polygon class="cls-5" points="1441.693 648.363 1441.693 1025.052 -1.694 1025.052 -1.694 625.921 46.309 625.921 121.067 551.163 141.685 571.78 177.003 571.78 233.54 515.243 342.915 624.617 443.565 624.617 460.292 607.891 481.922 607.891 497.305 592.508 563.98 659.183 758.442 659.183 780.944 681.686 921.716 681.686 957.506 645.906 985.363 645.906 1107.714 523.546 1142.721 488.548 1162.727 508.554 1185.751 508.554 1282.21 605.003 1398.333 605.003 1441.693 648.363"/>
        <polygon class="cls-5" points="891.231 689.59 878.24 689.59 884.735 655.361 891.231 689.59"/>
        <polygon class="cls-5" points="743.377 667.061 730.386 667.061 736.881 632.832 743.377 667.061"/>
        <polygon class="cls-5" points="622.549 663.754 613.167 663.754 617.858 639.034 622.549 663.754"/>
        <polygon class="cls-5" points="27.361 629.798 17.978 629.798 22.669 605.078 27.361 629.798"/>
        <polygon class="cls-5" points="393.383 629.968 382.908 629.968 388.145 602.37 393.383 629.968"/>
        <polygon class="cls-5" points="968.973 649.219 955.981 649.219 962.476 614.99 968.973 649.219"/>
        <polygon class="cls-5" points="1367.292 608.867 1354.301 608.867 1360.796 574.638 1367.292 608.867"/>
        <g>
          <polygon class="cls-5" points="1441.693 648.363 1441.693 1025.052 -1.694 1025.052 -1.694 625.921 46.309 625.921 121.067 551.163 141.685 571.78 177.003 571.78 233.54 515.243 342.915 624.617 443.565 624.617 460.292 607.891 481.922 607.891 497.305 592.508 563.98 659.183 758.442 659.183 780.944 681.686 921.716 681.686 957.506 645.906 985.363 645.906 1107.714 523.546 1142.721 488.548 1162.727 508.554 1185.751 508.554 1282.21 605.003 1398.333 605.003 1441.693 648.363"/>
          <g>
            <polygon class="cls-5" points="891.231 689.59 878.24 689.59 884.735 655.361 891.231 689.59"/>
            <polygon class="cls-5" points="743.377 667.061 730.386 667.061 736.881 632.832 743.377 667.061"/>
            <polygon class="cls-5" points="622.549 663.754 613.167 663.754 617.858 639.034 622.549 663.754"/>
            <polygon class="cls-5" points="27.361 629.798 17.978 629.798 22.669 605.078 27.361 629.798"/>
            <polygon class="cls-5" points="393.383 629.968 382.908 629.968 388.145 602.37 393.383 629.968"/>
            <polygon class="cls-5" points="968.973 649.219 955.981 649.219 962.476 614.99 968.973 649.219"/>
            <polygon class="cls-5" points="1367.292 608.867 1354.301 608.867 1360.796 574.638 1367.292 608.867"/>
          </g>
        </g>
        <g>
          <path class="cls-6" d="M-1.694,1024.418l1069.007,1.168-171.1-152.651a401.115,401.115,0,0,0-267.032-101.8H489.128l-70.209-70.209a150.42,150.42,0,0,0-106.362-44.057H63.952A92.835,92.835,0,0,0-1.694,684.058h0V1025.75"/>
          <polygon class="cls-6" points="538.639 784.992 514.639 784.992 526.638 721.758 538.639 784.992"/>
          <polygon class="cls-6" points="224.404 663.746 204.155 663.746 214.279 610.397 224.404 663.746"/>
          <polygon class="cls-6" points="88.88 669.341 70.635 669.341 79.756 621.27 88.88 669.341"/>
          <polygon class="cls-6" points="666.625 780.611 652.063 780.611 659.343 742.244 666.625 780.611"/>
          <polygon class="cls-6" points="777.123 805.647 758.119 805.647 767.621 755.575 777.123 805.647"/>
        </g>
        <g>
          <g>
            <circle class="cls-7" cx="761.476" cy="865.568" r="35.768"/>
            <path class="cls-7" d="M745.568,853.846a35.768,35.768,0,0,0-71.536,0v22.679h71.536Z"/>
            <circle class="cls-7" cx="810.536" cy="833.611" r="42.915"/>
            <circle class="cls-7" cx="876.005" cy="828.11" r="36.63"/>
          </g>
          <g>
            <circle class="cls-7" cx="1146.175" cy="743.297" r="35.768"/>
            <circle class="cls-7" cx="1096.976" cy="763.186" r="32.919"/>
            <circle class="cls-7" cx="1246.197" cy="730.663" r="38.937"/>
            <path class="cls-7" d="M1274.785,745.69a24.994,24.994,0,1,1,49.988,0v36.982h-49.988Z"/>
            <circle class="cls-7" cx="1199.994" cy="756.182" r="36.63"/>
          </g>
          <path class="cls-8" d="M1442.325,1025.052H556.081A172.653,172.653,0,0,1,728.734,852.335H840.05a342.483,342.483,0,0,1,242.174-100.312h217.242a10.415,10.415,0,0,0,7.364-3.051L1357.7,698.1a119.672,119.672,0,0,1,84.621-35.051h0v362"/>
        </g>
        <g>
          <polygon class="cls-6" points="1209.953 852.405 1029.953 852.405 1131.091 686.875 1209.953 852.405"/>
          <polygon class="cls-9" points="1209.953 852.405 1309.342 852.409 1131.095 686.876 1209.953 852.405"/>
          <g>
            <path class="cls-8" d="M1139.376,858.18a21,21,0,1,1,42,0"/>
            <path class="cls-8" d="M1174.164,853.792a25.456,25.456,0,0,1,50.911,0"/>
            <g>
              <path class="cls-8" d="M1045.221,856.278a21,21,0,0,1,42,0"/>
              <path class="cls-8" d="M1002.83,855.013c0-17.644,13.456-31.947,30.054-31.947s30.054,14.3,30.054,31.947"/>
            </g>
            <circle class="cls-8" cx="1230.299" cy="836.884" r="27.856"/>
            <path class="cls-8" d="M1231.781,863.151a29.774,29.774,0,1,1,59.548,0"/>
          </g>
          <path class="cls-3" d="M1127.686,670.41h1.057a5.761,5.761,0,0,1,5.761,5.761v10.556a0,0,0,0,1,0,0h0a6.818,6.818,0,0,1-6.818-6.818v-9.5A0,0,0,0,1,1127.686,670.41Z" transform="translate(-148.53 998.554) rotate(-45)"/>
          <polygon class="cls-9" points="1129.446 723.957 1133.308 852.405 1115.051 852.405 1129.446 723.957"/>
          <g>
            <rect class="cls-9" x="990.722" y="844.123" width="23.026" height="8.282"/>
            <rect class="cls-9" x="1018.26" y="844.123" width="11.513" height="8.282"/>
            <rect class="cls-9" x="974.698" y="844.123" width="11.513" height="8.282"/>
            <path class="cls-10" d="M998.743,814.948c-4.535,0-8.211-5.993-8.211-13.387s3.676-13.387,8.211-13.387"/>
            <path class="cls-11" d="M1016.3,834.89c-2.9,0-5.249-3.435-5.249-7.672s2.35-7.673,5.249-7.673"/>
            <path class="cls-11" d="M988.174,816.913c3.717,0,6.73,4.025,6.73,8.989s-3.013,8.988-6.73,8.988"/>
            <path class="cls-10" d="M1004.03,794.312c3.875,0,7.017,6.841,7.017,15.28s-3.142,15.28-7.017,15.28"/>
            <path class="cls-11" d="M997.661,837.97a4.631,4.631,0,1,1,9.262,0"/>
          </g>
        </g>
        <g>
          <path class="cls-7" d="M-1.694,774.758H249.459A135.363,135.363,0,0,1,345.173,814.4H506.961c117.833,0,213.354,95.521,213.354,213.354H-1.694Z"/>
          <polygon class="cls-7" points="138.841 789.217 96.447 789.217 117.642 677.522 138.841 789.217"/>
        </g>
        <path class="cls-9" d="M1210.635,869.161l10.654,10.654,0,0v0h4.936V879.8l.013.014,10.654-10.654-5.4,1.026a3.925,3.925,0,0,0-2,1.1l-3.275,3.275V871.48a3.27,3.27,0,0,0-.842-2.191l-4.094-4.541v9.806l-3.266-3.267a3.939,3.939,0,0,0-2-1.1Zm13.129,8.178-.156-.156.156-.157.157.157Z"/>
        <path class="cls-9" d="M1288.7,804.364l6.808,6.807,0,0v0h3.154v-.008l.009.008,6.807-6.807-3.447.656a2.515,2.515,0,0,0-1.276.7l-2.093,2.093v-1.969a2.087,2.087,0,0,0-.538-1.4l-2.616-2.9v6.266l-2.086-2.088a2.526,2.526,0,0,0-1.277-.7Zm8.39,5.226-.1-.1.1-.1.1.1Z"/>
        <path class="cls-9" d="M913.818,814.363l7.533,7.534,0,0v0h3.49v-.01l.01.01,7.533-7.534-3.815.726a2.778,2.778,0,0,0-1.412.778l-2.316,2.316V816a2.314,2.314,0,0,0-.6-1.549l-2.895-3.211v6.934l-2.309-2.31a2.785,2.785,0,0,0-1.413-.778Zm9.284,5.783-.111-.11.111-.111.111.111Z"/>
        <path class="cls-9" d="M1017.987,887.612l9.009,9.009,0,0v0h4.174v-.012l.011.012,9.009-9.009-4.563.868a3.323,3.323,0,0,0-1.688.929l-2.769,2.77v-2.607a2.767,2.767,0,0,0-.712-1.852L1027,883.88v8.293l-2.761-2.764a3.329,3.329,0,0,0-1.69-.929Zm11.1,6.915-.132-.132.132-.132.133.132Z"/>
        <path class="cls-9" d="M248.956,830.972l9.009,9.009,0,0v0h4.173v-.012l.012.012,9.009-9.009-4.563.868a3.317,3.317,0,0,0-1.688.93l-2.77,2.769v-2.606a2.766,2.766,0,0,0-.711-1.853l-3.462-3.84v8.293l-2.762-2.763a3.332,3.332,0,0,0-1.689-.93Zm11.1,6.915-.133-.132.133-.132.132.132Z"/>
        <path class="cls-12" d="M373.384,784.757l5.989,5.989,0,0v0h2.774v-.008l.008.008,5.989-5.989-3.033.577a2.2,2.2,0,0,0-1.123.618l-1.841,1.841v-1.732a1.838,1.838,0,0,0-.473-1.232l-2.3-2.552v5.512l-1.836-1.837a2.209,2.209,0,0,0-1.123-.618Zm7.38,4.6-.088-.088.088-.088.088.088Z"/>
        <path class="cls-12" d="M478.876,795.333l4.939,4.939,0,0v0h2.288v-.006l.007.006,4.939-4.939-2.5.476a1.813,1.813,0,0,0-.925.509l-1.519,1.519v-1.429a1.513,1.513,0,0,0-.39-1.016l-1.9-2.105v4.546l-1.514-1.515a1.82,1.82,0,0,0-.926-.509Zm6.087,3.791-.072-.072.072-.073.073.073Z"/>
        <path class="cls-12" d="M349.035,695l4.939,4.94,0,0v0h2.288v-.006l.006.006,4.939-4.94-2.5.477a1.82,1.82,0,0,0-.926.509l-1.518,1.519v-1.429a1.518,1.518,0,0,0-.39-1.016l-1.9-2.105V697.5l-1.514-1.515a1.827,1.827,0,0,0-.927-.509Zm6.087,3.792-.073-.072.073-.073.072.073Z"/>
        <path class="cls-9" d="M689.369,877.4a2.645,2.645,0,1,0,4.5-1.634A4.854,4.854,0,0,0,689.369,877.4Z"/>
        <path class="cls-9" d="M1354.152,776.192c-1.837-1.837-4.92-4.17-9.011-3.267-.9,4.091,1.427,7.177,3.264,9.014s4.925,4.169,9.016,3.266C1358.325,781.114,1355.989,778.029,1354.152,776.192Z"/>
        <path class="cls-9" d="M437.027,927.7c1.352,1.352,3.621,3.07,6.633,2.4.665-3.012-1.051-5.283-2.4-6.636s-3.626-3.069-6.637-2.4C433.954,924.078,435.674,926.35,437.027,927.7Z"/>
        <path class="cls-9" d="M591.921,847.079a3.195,3.195,0,1,0,1.974,5.439A5.859,5.859,0,0,0,591.921,847.079Z"/>
        <path class="cls-9" d="M336.072,832.326a5.863,5.863,0,0,0-5.438-1.972,6.822,6.822,0,0,0,7.411,7.412A5.865,5.865,0,0,0,336.072,832.326Z"/>
        <path class="cls-9" d="M242.15,887.429c-1.353-1.352-3.622-3.07-6.633-2.4-.666,3.012,1.05,5.284,2.4,6.636s3.626,3.069,6.637,2.4C245.222,891.053,243.5,888.782,242.15,887.429Z"/>
        <path class="cls-9" d="M171.029,796.665a5.5,5.5,0,0,0,1.851-5.1,6.4,6.4,0,0,0-6.955,6.955A5.5,5.5,0,0,0,171.029,796.665Z"/>
        <path class="cls-13" d="M250.583,757.973a5.5,5.5,0,0,0,1.85-5.1,6.4,6.4,0,0,0-6.955,6.955A5.509,5.509,0,0,0,250.583,757.973Z"/>
        <path class="cls-9" d="M63.854,824.859c1.353-1.353,3.071-3.622,2.406-6.633-3.012-.665-5.284,1.05-6.636,2.4s-3.07,3.626-2.4,6.638C60.231,827.931,62.5,826.211,63.854,824.859Z"/>
        <path class="cls-9" d="M1272.39,894.888c-1.379-1.379-3.693-3.131-6.764-2.453-.678,3.071,1.071,5.388,2.45,6.767s3.7,3.13,6.768,2.451C1275.522,898.583,1273.769,896.267,1272.39,894.888Z"/>
        <path class="cls-9" d="M1414.094,758.158a3.641,3.641,0,1,0-2.248-6.2A6.685,6.685,0,0,0,1414.094,758.158Z"/>
        <circle class="cls-9" cx="1348.309" cy="820.146" r="2.972"/>
        <circle class="cls-9" cx="1346.228" cy="744.954" r="2.972"/>
        <circle class="cls-9" cx="1367.269" cy="856.205" r="2.972"/>
        <circle class="cls-9" cx="1228.047" cy="919.833" r="2.972"/>
        <circle class="cls-9" cx="1246.197" cy="769.601" r="2.972"/>
        <circle class="cls-9" cx="890.061" cy="840.991" r="2.972"/>
        <circle class="cls-9" cx="1057.493" cy="866.176" r="2.972"/>
        <circle class="cls-9" cx="1035.22" cy="792.137" r="2.537"/>
        <circle class="cls-9" cx="800.816" cy="869.159" r="2.353"/>
        <circle class="cls-9" cx="725.708" cy="892.789" r="2.972"/>
        <circle class="cls-9" cx="406.167" cy="848.921" r="4.872"/>
        <circle class="cls-9" cx="330.512" cy="925.587" r="3.246"/>
        <circle class="cls-9" cx="458.667" cy="880.211" r="3.246"/>
        <circle class="cls-9" cx="560.911" cy="877.324" r="4.83"/>
        <circle class="cls-9" cx="121.328" cy="812.533" r="5.541"/>
        <circle class="cls-12" cx="333.002" cy="762.428" r="2.489"/>
        <circle class="cls-13" cx="367.981" cy="747.776" r="3.074"/>
        <g>
          <path class="cls-14" d="M730.424,805.907l3.827,3.827v0h1.773v0l0,0,3.826-3.827-1.938.369a1.414,1.414,0,0,0-.717.4l-1.176,1.176V806.74a1.178,1.178,0,0,0-.3-.787l-1.471-1.631v3.522l-1.173-1.173a1.417,1.417,0,0,0-.718-.4Zm4.716,2.938-.056-.057.056-.056.056.056Z"/>
          <path class="cls-14" d="M648.888,788.941l5.989,5.989,0,0v0h2.774v-.007l.008.007,5.989-5.989-3.033.578a2.2,2.2,0,0,0-1.123.618l-1.841,1.841v-1.733a1.838,1.838,0,0,0-.473-1.232l-2.3-2.552v5.512l-1.836-1.836a2.209,2.209,0,0,0-1.123-.618Zm7.38,4.6-.088-.088.088-.088.088.088Z"/>
          <path class="cls-14" d="M229.622,680.033a5.5,5.5,0,0,0,1.85-5.1,6.4,6.4,0,0,0-6.955,6.954A5.506,5.506,0,0,0,229.622,680.033Z"/>
          <path class="cls-14" d="M406.161,754.3a5.5,5.5,0,0,0,5.1,1.85,6.407,6.407,0,1,0-5.1-1.85Z"/>
          <path class="cls-14" d="M549.234,802.929a2.567,2.567,0,1,0,4.371-1.586A4.711,4.711,0,0,0,549.234,802.929Z"/>
          <path class="cls-14" d="M655.831,842.875a2.165,2.165,0,1,0,1.337,3.686A3.972,3.972,0,0,0,655.831,842.875Z"/>
          <path class="cls-14" d="M81.383,674.561a5.5,5.5,0,0,0-5.1-1.85,6.4,6.4,0,0,0,6.955,6.955A5.509,5.509,0,0,0,81.383,674.561Z"/>
          <circle class="cls-14" cx="313.882" cy="675.543" r="2.346"/>
          <circle class="cls-14" cx="88.88" cy="755.731" r="2.489"/>
          <circle class="cls-14" cx="172.993" cy="755.927" r="2.489"/>
          <circle class="cls-14" cx="201.666" cy="740.308" r="2.489"/>
          <circle class="cls-14" cx="37.112" cy="689.666" r="2.489"/>
          <circle class="cls-14" cx="524.866" cy="786.428" r="2.489"/>
          <circle class="cls-14" cx="682.416" cy="815.194" r="1.835"/>
          <circle class="cls-14" cx="758.119" cy="803.653" r="1.296"/>
          <circle class="cls-14" cx="623.448" cy="788.917" r="1.834"/>
        </g>
        <g>
          <path class="cls-5" d="M594.016,803.751l6.043,6.043,0,0v0h2.8v-.008l.008.008,6.043-6.043-3.06.582a2.23,2.23,0,0,0-1.133.624l-1.858,1.858v-1.749a1.858,1.858,0,0,0-.477-1.243l-2.322-2.576v5.563l-1.853-1.853a2.238,2.238,0,0,0-1.133-.624Zm7.448,4.639-.089-.089.089-.089.088.089Z"/>
          <path class="cls-5" d="M179.538,698.189l5.989,5.988,0,0v0H188.3v-.007l.007.007,5.989-5.988-3.033.577a2.2,2.2,0,0,0-1.122.618l-1.841,1.841v-1.733a1.837,1.837,0,0,0-.474-1.231l-2.3-2.553v5.513l-1.835-1.837a2.212,2.212,0,0,0-1.124-.618Zm7.381,4.6-.088-.088.088-.088.087.088Z"/>
          <path class="cls-5" d="M29.563,746.988,37,754.429l0,0v0h3.447v-.009l.01.009,7.441-7.441-3.769.717a2.742,2.742,0,0,0-1.394.768l-2.288,2.287v-2.152a2.284,2.284,0,0,0-.588-1.531l-2.859-3.171v6.849l-2.281-2.282a2.751,2.751,0,0,0-1.4-.768Zm9.17,5.712-.109-.109.109-.11.11.11Z"/>
          <path class="cls-5" d="M574.158,786.141a2.136,2.136,0,1,0-1.319-3.637A3.919,3.919,0,0,0,574.158,786.141Z"/>
          <path class="cls-5" d="M653.263,815.877a2.567,2.567,0,1,0,4.371-1.585A4.714,4.714,0,0,0,653.263,815.877Z"/>
          <path class="cls-5" d="M708.407,799.855a2.567,2.567,0,1,0,4.37-1.585A4.712,4.712,0,0,0,708.407,799.855Z"/>
          <path class="cls-5" d="M753.021,819.618a1.618,1.618,0,1,0,1,2.755A2.971,2.971,0,0,0,753.021,819.618Z"/>
          <path class="cls-5" d="M328.894,717.006a5.5,5.5,0,0,0,1.85-5.1,6.4,6.4,0,0,0-6.955,6.955A5.5,5.5,0,0,0,328.894,717.006Z"/>
          <path class="cls-5" d="M276.074,695.551a5.5,5.5,0,0,0,5.1,1.85,6.4,6.4,0,0,0-6.955-6.955A5.5,5.5,0,0,0,276.074,695.551Z"/>
          <path class="cls-5" d="M69.9,717.848c-1.306,1.307-2.966,3.5-2.323,6.408,2.909.642,5.1-1.015,6.41-2.321s2.965-3.5,2.322-6.412C73.4,714.881,71.2,716.542,69.9,717.848Z"/>
          <path class="cls-5" d="M147.795,727.941A4.087,4.087,0,0,0,144,726.566a4.756,4.756,0,0,0,5.167,5.167A4.09,4.09,0,0,0,147.795,727.941Z"/>
          <circle class="cls-5" cx="397.094" cy="708.837" r="2.489"/>
          <circle class="cls-5" cx="233.54" cy="710.172" r="2.489"/>
          <circle class="cls-5" cx="141.76" cy="684.123" r="2.125"/>
          <circle class="cls-5" cx="622.962" cy="829.8" r="2.489"/>
          <circle class="cls-5" cx="690.805" cy="795.198" r="1.296"/>
          <circle class="cls-5" cx="453.283" cy="766.359" r="2.489"/>
        </g>
        <g>
          <path class="cls-15" d="M103.049,865.648l9.009,9.009,0,0v0h4.173v-.011l.012.011,9.009-9.009-4.563.868a3.317,3.317,0,0,0-1.688.93l-2.77,2.769v-2.606a2.77,2.77,0,0,0-.711-1.853l-3.462-3.839v8.292l-2.762-2.763a3.331,3.331,0,0,0-1.69-.93Zm11.1,6.916-.133-.133.133-.132.132.132Z"/>
          <path class="cls-15" d="M490.6,902.406l10.523,10.523,0,0v0H506v-.013l.013.013,10.523-10.523-5.329,1.014a3.88,3.88,0,0,0-1.972,1.086L506,907.741V904.7a3.23,3.23,0,0,0-.832-2.164l-4.043-4.485v9.687l-3.226-3.228a3.893,3.893,0,0,0-1.974-1.086Zm12.968,8.078-.155-.155.155-.154.155.154Z"/>
          <path class="cls-15" d="M300.566,880.041c-1.352,1.352-3.07,3.621-2.4,6.633,3.012.665,5.284-1.05,6.636-2.4s3.069-3.627,2.4-6.638C304.19,876.969,301.919,878.689,300.566,880.041Z"/>
          <path class="cls-15" d="M469.736,841.742a5.863,5.863,0,0,0-1.972,5.438,6.822,6.822,0,0,0,7.412-7.411A5.865,5.865,0,0,0,469.736,841.742Z"/>
          <path class="cls-15" d="M22.416,800.412c1.352,1.352,3.621,3.07,6.633,2.4.665-3.012-1.05-5.283-2.4-6.636s-3.626-3.069-6.638-2.4C19.344,796.788,21.064,799.06,22.416,800.412Z"/>
          <circle class="cls-15" cx="404.196" cy="901.621" r="3.246"/>
          <circle class="cls-15" cx="524.866" cy="852.64" r="3.246"/>
          <circle class="cls-15" cx="181.163" cy="844.393" r="4.525"/>
          <circle class="cls-15" cx="232.479" cy="800.023" r="2.89"/>
          <circle class="cls-15" cx="19.864" cy="846.855" r="2.805"/>
        </g>
        <g>
          <path class="cls-16" d="M1344.209,896.6l8.15,8.149,0,0v0h3.775v-.01l.011.01,8.149-8.149-4.127.785a3.008,3.008,0,0,0-1.527.841l-2.506,2.506v-2.358a2.5,2.5,0,0,0-.644-1.676l-3.131-3.474v7.5l-2.5-2.5a3.022,3.022,0,0,0-1.529-.841Zm10.043,6.256-.119-.12.119-.12.12.12Z"/>
          <path class="cls-16" d="M1416.069,698.31l7.011,7.011,0,0v0h3.248v-.008l.009.008,7.012-7.011-3.551.676a2.584,2.584,0,0,0-1.314.723l-2.156,2.156v-2.029a2.152,2.152,0,0,0-.554-1.442l-2.694-2.988v6.454l-2.149-2.151a2.6,2.6,0,0,0-1.315-.723Zm8.641,5.382-.1-.1.1-.1.1.1Z"/>
          <path class="cls-16" d="M764.671,893.374l8.15,8.15,0,0v0H776.6v-.01l.011.01,8.149-8.15-4.127.786a2.994,2.994,0,0,0-1.527.841l-2.506,2.5v-2.358a2.505,2.505,0,0,0-.643-1.676L772.824,890v7.5l-2.5-2.5a3.007,3.007,0,0,0-1.529-.841Zm10.044,6.256-.12-.119.12-.12.119.12Z"/>
          <path class="cls-16" d="M1117.479,873.286c-1.658,1.582-3.78,4.252-3.067,7.878,3.589.882,6.358-1.11,8.016-2.692s3.779-4.258,3.067-7.884C1121.906,869.707,1119.137,871.7,1117.479,873.286Z"/>
          <path class="cls-16" d="M751.509,867.909a2.646,2.646,0,1,0,1.634,4.5A4.856,4.856,0,0,0,751.509,867.909Z"/>
          <path class="cls-16" d="M1050.408,770.941a3.166,3.166,0,1,0,1.956,5.39A5.807,5.807,0,0,0,1050.408,770.941Z"/>
          <path class="cls-16" d="M949.459,859.7a2.956,2.956,0,1,0-5.034,1.826A5.425,5.425,0,0,0,949.459,859.7Z"/>
          <path class="cls-16" d="M853.977,869.205a2.75,2.75,0,1,0-1.7-4.682A5.045,5.045,0,0,0,853.977,869.205Z"/>
          <path class="cls-16" d="M1417.478,841.377a2.6,2.6,0,1,0-4.421,1.6A4.766,4.766,0,0,0,1417.478,841.377Z"/>
          <path class="cls-16" d="M1263.256,782.751a2.6,2.6,0,1,0,4.422-1.6A4.766,4.766,0,0,0,1263.256,782.751Z"/>
          <circle class="cls-16" cx="1391.323" cy="791.88" r="5.944"/>
          <circle class="cls-16" cx="1305.478" cy="772.724" r="2.103"/>
          <circle class="cls-16" cx="965.449" cy="796.105" r="2.972"/>
          <circle class="cls-16" cx="1173.107" cy="893.224" r="4.322"/>
          <circle class="cls-16" cx="1078.16" cy="895.371" r="3.616"/>
          <circle class="cls-16" cx="1315.753" cy="872.155" r="2.998"/>
          <circle class="cls-16" cx="1380.791" cy="725.678" r="4.588"/>
        </g>
        <g>
          <rect class="cls-17" x="622.053" y="734.07" width="6.46" height="6.46" transform="translate(1362.583 112.017) rotate(90)"/>
          <rect class="cls-17" x="618.823" y="697.035" width="3.23" height="3.23" transform="translate(1319.088 78.212) rotate(90)"/>
          <rect class="cls-17" x="1032.714" y="696.76" width="5.883" height="5.883" transform="translate(1735.358 -335.954) rotate(90)"/>
          <rect class="cls-17" x="490.075" y="712.707" width="7.112" height="7.112" transform="translate(1209.895 222.632) rotate(90)"/>
          <polygon class="cls-17" points="16.746 638.192 21.538 638.192 19.142 635.796 16.746 638.192"/>
          <polygon class="cls-17" points="96.352 641.478 102.924 641.478 99.638 638.192 96.352 641.478"/>
          <polygon class="cls-17" points="570.986 722.986 578.693 722.986 574.839 719.133 570.986 722.986"/>
          <polygon class="cls-17" points="505.186 675.918 512.892 675.918 509.039 672.065 505.186 675.918"/>
          <polygon class="cls-17" points="490.601 620.883 496.482 620.883 493.541 617.943 490.601 620.883"/>
          <polygon class="cls-17" points="364.128 644.772 371.834 644.772 367.981 640.919 364.128 644.772"/>
          <polygon class="cls-17" points="254.629 643.689 262.335 643.689 258.482 639.836 254.629 643.689"/>
          <polygon class="cls-17" points="222.735 598.681 228.71 598.681 225.722 595.694 222.735 598.681"/>
          <polygon class="cls-17" points="305.538 623.311 311.513 623.311 308.526 620.323 305.538 623.311"/>
          <polygon class="cls-17" points="244.711 554.351 250.686 554.351 247.698 551.363 244.711 554.351"/>
          <polygon class="cls-17" points="140.898 632.282 146.873 632.282 143.885 629.294 140.898 632.282"/>
          <polygon class="cls-17" points="218.795 547.967 222.758 547.967 220.776 545.985 218.795 547.967"/>
          <polygon class="cls-17" points="678.563 745.842 686.269 745.842 682.416 741.989 678.563 745.842"/>
          <polygon class="cls-17" points="674.71 681.947 682.416 681.947 678.563 678.093 674.71 681.947"/>
          <polygon class="cls-17" points="773.808 722.276 781.514 722.276 777.661 718.423 773.808 722.276"/>
          <polygon class="cls-17" points="821.283 743.915 828.99 743.915 825.137 740.062 821.283 743.915"/>
          <polygon class="cls-17" points="928.534 728.581 936.241 728.581 932.387 724.727 928.534 728.581"/>
          <polygon class="cls-17" points="1003.07 664.214 1010.776 664.214 1006.923 660.361 1003.07 664.214"/>
          <polygon class="cls-17" points="1159.51 636.896 1167.217 636.896 1163.364 633.043 1159.51 636.896"/>
          <polygon class="cls-17" points="1119.471 529.494 1127.324 529.494 1123.397 525.568 1119.471 529.494"/>
          <polygon class="cls-17" points="1206.463 672.61 1214.316 672.61 1210.39 668.683 1206.463 672.61"/>
          <polygon class="cls-17" points="1305.617 654.744 1313.47 654.744 1309.544 650.818 1305.617 654.744"/>
          <polygon class="cls-17" points="1305.617 703.004 1313.47 703.004 1309.544 699.077 1305.617 703.004"/>
          <polygon class="cls-17" points="1385.232 621.575 1393.085 621.575 1389.159 617.648 1385.232 621.575"/>
          <polygon class="cls-17" points="1084 686.626 1091.707 686.626 1087.854 682.773 1084 686.626"/>
          <polygon class="cls-17" points="908.782 760.653 916.488 760.653 912.635 756.8 908.782 760.653"/>
          <polygon class="cls-17" points="841.415 698.739 847.238 698.739 844.327 695.827 841.415 698.739"/>
          <rect class="cls-17" x="563.727" y="689.042" width="3.308" height="3.308" transform="translate(1256.078 125.315) rotate(90)"/>
          <rect class="cls-17" x="446.122" y="661.394" width="3.308" height="3.308" transform="translate(1110.824 215.271) rotate(90)"/>
          <rect class="cls-17" x="516.531" y="638.182" width="3.308" height="3.308" transform="translate(1158.02 121.651) rotate(90)"/>
          <rect class="cls-17" x="427.86" y="689.666" width="2.62" height="2.62" transform="translate(1120.146 261.806) rotate(90)"/>
          <rect class="cls-17" x="258.482" y="594.384" width="2.62" height="2.62" transform="translate(855.485 335.902) rotate(90)"/>
          <rect class="cls-17" x="292.796" y="643.231" width="2.62" height="2.62" transform="translate(938.647 350.434) rotate(90)"/>
          <rect class="cls-17" x="146.587" y="581.768" width="2.134" height="2.134" transform="translate(730.489 435.181) rotate(90)"/>
          <rect class="cls-17" x="189.549" y="612.769" width="4.405" height="4.405" transform="translate(806.723 423.22) rotate(90)"/>
          <rect class="cls-17" x="86.589" y="605.83" width="3.279" height="3.279" transform="translate(695.698 519.241) rotate(90)"/>
          <rect class="cls-17" x="42.72" y="646.653" width="3.279" height="3.279" transform="translate(692.652 603.934) rotate(90)"/>
          <rect class="cls-17" x="899.233" y="705.243" width="5.199" height="5.199" transform="translate(1609.675 -193.989) rotate(90)"/>
          <rect class="cls-17" x="1009.126" y="741.316" width="5.199" height="5.199" transform="translate(1755.641 -267.81) rotate(90)"/>
          <rect class="cls-17" x="1182.193" y="575.397" width="4.67" height="4.67" transform="translate(1762.259 -606.796) rotate(90)"/>
          <rect class="cls-17" x="1213.277" y="628.73" width="4.67" height="4.67" transform="translate(1846.677 -584.546) rotate(90)"/>
          <rect class="cls-17" x="1263.043" y="614.941" width="4.67" height="4.67" transform="translate(1882.655 -648.102) rotate(90)"/>
          <rect class="cls-17" x="1265.378" y="670.275" width="4.67" height="4.67" transform="translate(1940.323 -595.104) rotate(90)"/>
          <rect class="cls-17" x="1375.88" y="656.966" width="4.67" height="4.67" transform="translate(2037.516 -718.915) rotate(90)"/>
          <rect class="cls-17" x="1091.707" y="643.082" width="7.526" height="7.526" transform="translate(1742.315 -448.624) rotate(90)"/>
          <rect class="cls-17" x="1132.179" y="551.242" width="4.794" height="4.794" transform="translate(1688.215 -580.937) rotate(90)"/>
          <rect class="cls-17" x="1117.119" y="614.14" width="4.704" height="4.704" transform="translate(1735.963 -502.978) rotate(90)"/>
          <rect class="cls-17" x="1043.614" y="620.621" width="4.704" height="4.704" transform="translate(1668.94 -422.993) rotate(90)"/>
        </g>
        <g>
          <rect class="cls-18" x="948.945" y="749.623" width="8.944" height="8.944" transform="translate(1707.512 -199.323) rotate(90)"/>
          <rect class="cls-18" x="732.501" y="743.915" width="8.761" height="8.761" transform="translate(1485.177 11.415) rotate(90)"/>
          <rect class="cls-18" x="547.32" y="737.3" width="6.616" height="6.616" transform="translate(1291.235 189.98) rotate(90)"/>
          <rect class="cls-18" x="699.198" y="712.299" width="6.124" height="6.124" transform="translate(1417.621 13.1) rotate(90)"/>
          <rect class="cls-18" x="848.853" y="768.731" width="6.641" height="6.641" transform="translate(1624.225 -80.122) rotate(90)"/>
          <rect class="cls-18" x="816.092" y="711.948" width="6.205" height="6.205" transform="translate(1534.244 -104.144) rotate(90)"/>
          <polygon class="cls-18" points="459.773 695.571 467.48 695.571 463.626 691.718 459.773 695.571"/>
          <polygon class="cls-18" points="424.007 644.541 431.714 644.541 427.86 640.688 424.007 644.541"/>
          <polygon class="cls-18" points="282.525 602.534 290.231 602.534 286.378 598.681 282.525 602.534"/>
          <polygon class="cls-18" points="203.246 562.946 207.925 562.946 205.585 560.606 203.246 562.946"/>
          <polygon class="cls-18" points="178.099 645.805 182.892 645.805 180.496 643.409 178.099 645.805"/>
          <polygon class="cls-18" points="120.762 616.17 125.554 616.17 123.158 613.773 120.762 616.17"/>
          <polygon class="cls-18" points="55.392 633.48 60.185 633.48 57.789 631.084 55.392 633.48"/>
          <polygon class="cls-18" points="156.288 604.647 162.86 604.647 159.574 601.361 156.288 604.647"/>
          <polygon class="cls-18" points="544.289 673.991 550.351 673.991 547.32 670.961 544.289 673.991"/>
          <polygon class="cls-18" points="479.324 738.815 485.385 738.815 482.354 735.785 479.324 738.815"/>
          <polygon class="cls-18" points="652.058 708.488 659.765 708.488 655.912 704.635 652.058 708.488"/>
          <polygon class="cls-18" points="591.658 754.603 599.364 754.603 595.511 750.75 591.658 754.603"/>
          <polygon class="cls-18" points="860.736 734.513 868.442 734.513 864.589 730.66 860.736 734.513"/>
          <polygon class="cls-18" points="795.404 772.052 802.901 772.052 799.152 768.303 795.404 772.052"/>
          <polygon class="cls-18" points="989.226 709.769 996.933 709.769 993.08 705.916 989.226 709.769"/>
          <polygon class="cls-18" points="1246.197 648.131 1253.904 648.131 1250.05 644.278 1246.197 648.131"/>
          <polygon class="cls-18" points="1157.718 675.737 1165.424 675.737 1161.571 671.884 1157.718 675.737"/>
          <polygon class="cls-18" points="1342.176 676.984 1349.883 676.984 1346.03 673.131 1342.176 676.984"/>
          <polygon class="cls-18" points="1311.106 625.291 1318.812 625.291 1314.959 621.438 1311.106 625.291"/>
          <polygon class="cls-18" points="1080.147 605.341 1087.854 605.341 1084 601.488 1080.147 605.341"/>
          <polygon class="cls-18" points="1140.629 590.06 1151.721 590.06 1146.175 584.514 1140.629 590.06"/>
          <polygon class="cls-18" points="1202.321 557.546 1209.762 557.546 1206.041 553.825 1202.321 557.546"/>
          <polygon class="cls-18" points="1166.02 539.325 1173.84 539.325 1169.93 535.415 1166.02 539.325"/>
          <rect class="cls-18" x="525.701" y="691.991" width="3.308" height="3.308" transform="translate(1221 166.289) rotate(90)"/>
          <rect class="cls-18" x="399.584" y="659" width="5.702" height="5.702" transform="translate(1064.285 259.416) rotate(90)"/>
          <rect class="cls-18" x="272.601" y="621.817" width="3.75" height="3.75" transform="translate(898.168 349.216) rotate(90)"/>
          <rect class="cls-18" x="327.723" y="642.829" width="3.887" height="3.887" transform="translate(974.439 315.105) rotate(90)"/>
          <rect class="cls-18" x="237.399" y="617.541" width="3.656" height="3.656" transform="translate(858.596 380.142) rotate(90)"/>
          <rect class="cls-18" x="112.436" y="585.208" width="4.99" height="4.99" transform="translate(702.634 472.772) rotate(90)"/>
          <rect class="cls-18" x="233.19" y="572.589" width="2.517" height="2.517" transform="translate(808.296 339.398) rotate(90)"/>
          <rect class="cls-18" x="268.538" y="575.106" width="2.517" height="2.517" transform="translate(846.161 306.567) rotate(90)"/>
          <rect class="cls-18" x="196.755" y="582.595" width="2.613" height="2.613" transform="translate(781.963 385.841) rotate(90)"/>
          <rect class="cls-18" x="483.731" y="657.056" width="3.308" height="3.308" transform="translate(1144.094 173.325) rotate(90)"/>
          <rect class="cls-18" x="469.854" y="632.338" width="3.308" height="3.308" transform="translate(1105.499 162.484) rotate(90)"/>
          <rect class="cls-18" x="592.958" y="681.947" width="5.105" height="5.105" transform="translate(1280.01 88.988) rotate(90)"/>
          <rect class="cls-18" x="729.901" y="689.686" width="5.199" height="5.199" transform="translate(1424.787 -40.215) rotate(90)"/>
          <rect class="cls-18" x="1070.762" y="717.625" width="5.199" height="5.199" transform="translate(1793.586 -353.137) rotate(90)"/>
          <rect class="cls-18" x="957.278" y="684.699" width="5.199" height="5.199" transform="translate(1647.176 -272.579) rotate(90)"/>
          <rect class="cls-18" x="1041.773" y="656.168" width="8.387" height="8.387" transform="translate(1706.328 -385.605) rotate(90)"/>
          <rect class="cls-18" x="1177.75" y="608.87" width="8.387" height="8.387" transform="translate(1795.006 -568.88) rotate(90)"/>
          <rect class="cls-18" x="1095.039" y="566.135" width="5.103" height="5.103" transform="translate(1666.277 -528.904) rotate(90)"/>
          <rect class="cls-18" x="1405.694" y="643.913" width="4.582" height="4.582" transform="translate(2054.19 -761.781) rotate(90)"/>
          <rect class="cls-18" x="1189.071" y="696.36" width="6.115" height="6.115" transform="translate(1891.547 -492.711) rotate(90)"/>
          <rect class="cls-18" x="1227.334" y="587.708" width="4.704" height="4.704" transform="translate(1819.746 -639.626) rotate(90)"/>
          <rect class="cls-18" x="1351.948" y="633.605" width="4.704" height="4.704" transform="translate(1990.258 -718.343) rotate(90)"/>
        </g>
        <g>
          <path class="cls-9" d="M1442.325,1027.728H-1.694V898.184h81.16A30.085,30.085,0,0,1,100.739,907L115.8,922.058A10.027,10.027,0,0,0,122.892,925h158.27a30.084,30.084,0,0,1,21.272,8.812l16.645,16.645a10.028,10.028,0,0,0,7.091,2.937H509.931a10.027,10.027,0,0,0,7.091-2.937l26.368-26.368a30.084,30.084,0,0,1,21.272-8.811H792.171a10.027,10.027,0,0,0,7.091-2.937L819.9,891.7a30.084,30.084,0,0,1,21.272-8.811H959.986a30.087,30.087,0,0,1,21.272,8.811l24.68,24.68a10.027,10.027,0,0,0,7.091,2.937h152.319a30.081,30.081,0,0,1,21.272,8.812l20.179,20.178a10.027,10.027,0,0,0,7.091,2.937h120.287a10.028,10.028,0,0,0,7.091-2.937l52.548-52.548a30.085,30.085,0,0,1,21.273-8.812h27.236Z"/>
          <path class="cls-3" d="M917.366,876.823c-2.725,2.724-7.052,6.117-12.742,6.063h-4.6c-5.662.054-10.017-3.339-12.768-6.063-3.206-3.233-7.293-8.628-5.717-15.788,7.186-1.6,12.582,2.485,15.787,5.717a21.98,21.98,0,0,1,5,7.159,21.978,21.978,0,0,1,5-7.159c3.205-3.232,8.6-7.319,15.787-5.717C924.685,868.2,920.6,873.59,917.366,876.823Z"/>
          <path class="cls-3" d="M640.49,909.338c-2.724,2.724-7.051,6.117-12.742,6.064h-4.594c-5.663.053-10.017-3.34-12.769-6.064-3.205-3.233-7.292-8.628-5.716-15.787,7.186-1.6,12.582,2.484,15.787,5.716a22,22,0,0,1,5,7.159,21.991,21.991,0,0,1,4.994-7.159c3.206-3.232,8.6-7.319,15.788-5.716C647.81,900.71,643.723,906.105,640.49,909.338Z"/>
          <path class="cls-3" d="M1300.861,945.614c-2.725,2.725-7.052,6.118-12.742,6.064h-4.6c-5.662.054-10.017-3.339-12.768-6.064-3.206-3.232-7.293-8.628-5.717-15.787,7.186-1.6,12.582,2.485,15.787,5.717a21.98,21.98,0,0,1,5,7.159,21.978,21.978,0,0,1,5-7.159c3.2-3.232,8.6-7.319,15.787-5.717C1308.18,936.986,1304.093,942.382,1300.861,945.614Z"/>
          <path class="cls-3" d="M196.2,918.9c-2.725,2.725-7.052,6.117-12.742,6.064h-4.594c-5.663.053-10.017-3.339-12.769-6.064-3.205-3.232-7.292-8.628-5.716-15.787,7.185-1.6,12.581,2.484,15.787,5.716a22,22,0,0,1,5,7.159,22,22,0,0,1,4.995-7.159c3.206-3.232,8.6-7.319,15.788-5.716C203.521,910.271,199.435,915.667,196.2,918.9Z"/>
          <path class="cls-9" d="M509.039,807.381l-26.855,26.845H384.021V997.31a.225.225,0,0,1-.231.22H346.015a.232.232,0,0,1-.231-.22V790H247.621l-26.845-24.578,26.845-26.845h98.163V705.257a17.71,17.71,0,0,1,17.7-17.7h2.838a17.7,17.7,0,0,1,17.7,17.7V782.8h98.163Z"/>
        </g>
      </g>
    </g>
  </g>
</svg>
