<?xml version="1.0" encoding="UTF-8" standalone="no"?>
<!-- Created with Inkscape (http://www.inkscape.org/) -->

<svg
   xmlns:dc="http://purl.org/dc/elements/1.1/"
   xmlns:cc="http://creativecommons.org/ns#"
   xmlns:rdf="http://www.w3.org/1999/02/22-rdf-syntax-ns#"
   xmlns:svg="http://www.w3.org/2000/svg"
   xmlns="http://www.w3.org/2000/svg"
   xmlns:sodipodi="http://sodipodi.sourceforge.net/DTD/sodipodi-0.dtd"
   xmlns:inkscape="http://www.inkscape.org/namespaces/inkscape"
   width="234.59723mm"
   height="85.724998mm"
   viewBox="0 0 234.59723 85.724998"
   version="1.1"
   id="svg8"
   inkscape:version="0.92.3 (2405546, 2018-03-11)"
   sodipodi:docname="ags.svg">
  <defs
     id="defs2" />
  <sodipodi:namedview
     id="base"
     pagecolor="#ffffff"
     bordercolor="#666666"
     borderopacity="1.0"
     inkscape:pageopacity="0.0"
     inkscape:pageshadow="2"
     inkscape:zoom="1.4"
     inkscape:cx="-7.3080986"
     inkscape:cy="141.63029"
     inkscape:document-units="mm"
     inkscape:current-layer="layer1"
     showgrid="false"
     fit-margin-top="0"
     fit-margin-left="0"
     fit-margin-right="0"
     fit-margin-bottom="0"
     inkscape:window-width="3440"
     inkscape:window-height="1377"
     inkscape:window-x="-8"
     inkscape:window-y="-8"
     inkscape:window-maximized="1" />
  <metadata
     id="metadata5">
    <rdf:RDF>
      <cc:Work
         rdf:about="">
        <dc:format>image/svg+xml</dc:format>
        <dc:type
           rdf:resource="http://purl.org/dc/dcmitype/StillImage" />
        <dc:title></dc:title>
      </cc:Work>
    </rdf:RDF>
  </metadata>
  <g
     inkscape:label="Layer 1"
     inkscape:groupmode="layer"
     id="layer1"
     transform="translate(4.6617064,-102.94703)">
    <path
       style="fill:#000000;stroke-width:0.35277778"
       d="m 123.74941,182.37443 c 0,-6.04962 0,-6.04962 1.1606,-6.04962 4.87761,0 11.32831,-3.91684 14.3827,-8.73311 1.57179,-2.47846 3.44698,-9.26345 2.55818,-9.25624 -0.15741,10e-4 -0.76245,0.32718 -1.34454,0.72423 -2.08226,1.42032 -5.81414,3.14998 -8.35342,3.87166 -3.38033,0.9607 -9.8984,1.2996 -13.59008,0.7066 -11.73617,-1.88519 -21.675646,-11.07639 -24.430078,-22.59092 -0.896885,-3.74931 -0.971854,-10.11024 -0.165182,-14.01559 2.385516,-11.54901 12.19586,-21.12977 23.7846,-23.22797 6.10739,-1.10578 13.33483,-0.28754 18.48715,2.09297 3.65492,1.68868 6.56161,3.81221 9.60804,7.01931 4.39718,4.62908 7.06656,10.21223 7.89269,16.50796 0.25979,1.97978 0.3508,8.28628 0.26475,18.34444 -0.12429,14.52617 -0.17206,15.47504 -0.91385,18.14971 -1.55516,5.60745 -4.11243,9.85622 -8.40014,13.95637 -5.40963,5.17298 -11.15043,7.82667 -18.031,8.33486 -2.91042,0.21496 -2.91042,0.21496 -2.91042,-5.83466 z m 4.2005,-30.93449 c 3.40679,-0.80304 6.07396,-2.40107 8.80357,-5.27464 2.78851,-2.93557 4.06018,-5.29965 4.84506,-9.00716 0.92062,-4.3487 0.0265,-9.37701 -2.31678,-13.02866 -1.47123,-2.29271 -5.23321,-5.7876 -7.426,-6.89877 -5.05391,-2.56101 -11.26075,-2.52237 -16.57302,0.10318 -2.38419,1.17837 -6.5293,5.2444 -7.83769,7.68816 -2.72108,5.08232 -2.72489,12.11141 -0.009,17.23329 1.29749,2.44724 5.49959,6.5699 7.86875,7.72 4.07575,1.97855 8.35999,2.47475 12.64545,1.4646 z m -77.578281,12.03278 c -6.773482,-1.43077 -12.903374,-5.23066 -17.361127,-10.76209 -1.876361,-2.3283 -2.0493,-2.67164 -1.53508,-3.04765 0.318727,-0.23306 2.701388,-1.55974 5.294799,-2.94819 4.715295,-2.52445 4.715295,-2.52445 7.148435,-0.12735 5.817712,5.73152 13.8872,7.00478 21.26964,3.35606 2.519235,-1.24512 6.593022,-5.3189 7.838137,-7.83814 3.648551,-7.3821 2.310215,-15.64229 -3.459445,-21.35163 -8.099725,-8.01504 -20.302217,-7.08602 -27.523593,2.09546 -1.086432,1.38132 -1.086432,1.38132 -6.256877,-1.39388 -2.843745,-1.52636 -5.170445,-2.96393 -5.170445,-3.1946 0,-1.48687 6.135144,-7.92815 9.819446,-10.30943 6.775073,-4.37894 16.216712,-5.78388 24.450633,-3.6383 9.768467,2.54544 18.085203,10.7598 21.180232,20.9195 0.763199,2.50527 0.791355,3.14565 0.908636,20.66524 0.121027,18.07986 0.121027,18.07986 -5.893958,18.07986 -6.014988,0 -6.014988,0 -6.014988,-2.82222 0,-1.55222 -0.09046,-2.82222 -0.20102,-2.82222 -0.110564,0 -0.914245,0.49071 -1.785959,1.09046 -2.021205,1.39063 -5.387996,2.91814 -8.079909,3.66585 -2.898049,0.80497 -11.557078,1.03185 -14.627557,0.38327 z M 160.4383,157.98036 c 0,-5.99722 0,-5.99722 21.76084,-5.99722 21.45412,0 21.78263,-0.0105 23.30661,-0.74829 4.59752,-2.22562 4.56057,-8.64291 -0.0627,-10.88097 -1.4142,-0.6846 -2.12461,-0.71796 -15.28909,-0.71796 -8.71624,0 -14.49518,-0.14372 -15.67543,-0.38985 -6.06671,-1.26513 -11.48758,-6.23646 -13.33993,-12.23367 -0.95366,-3.08759 -0.95366,-8.00148 0,-11.08907 1.3167,-4.26298 4.52709,-8.17538 8.64676,-10.53754 3.53838,-2.02886 4.33006,-2.08598 28.91073,-2.08598 22.41994,0 22.41994,0 22.41994,5.99722 0,5.99722 0,5.99722 -21.88356,5.99722 -23.77971,0 -23.20302,-0.0456 -25.10164,1.98503 -2.94071,3.14517 -1.87858,8.18147 2.08289,9.87648 0.89901,0.38465 3.99018,0.48571 14.85671,0.48571 7.85793,0 14.53289,0.15388 15.62023,0.36009 4.97654,0.94378 10.34735,5.16967 12.60408,9.91723 4.89181,10.29105 -0.81782,22.66456 -11.77531,25.51862 -1.75732,0.45773 -5.50864,0.54017 -24.57752,0.54017 -22.50366,0 -22.50366,0 -22.50366,-5.99722 z M -0.72415382,154.90595 c -3.83708628,-1.53014 -3.60795978,-0.15729 -3.50058568,-20.97448 0.0922,-17.87529 0.0922,-17.87529 0.9101486,-18.74572 0.9634605,-1.02528 4.24880067,-2.36094 5.8072361,-2.36094 0.7606732,0 6.4251052,2.87563 18.5776368,9.4312 9.61581,5.18716 17.840478,9.78369 18.277041,10.21452 0.878265,0.86672 1.045746,2.4681 0.352778,3.3731 -0.715413,0.93432 -36.3655725,20.02385 -37.3262612,19.98703 -0.4740642,-0.0182 -1.86816121,-0.43428 -3.09799362,-0.92471 z M 224.99663,107.88592 c -1.60081,-1.60082 -0.39424,-4.23333 1.94028,-4.23333 1.54039,0 2.64584,1.03175 2.64584,2.46944 0,2.21029 -2.98979,3.36021 -4.58612,1.76389 z m 3.23542,-0.23107 c 1.26361,-1.14355 0.41639,-3.64949 -1.23384,-3.64949 -1.72612,0 -2.61927,2.26051 -1.41773,3.5882 0.72607,0.8023 1.80521,0.82724 2.65157,0.0613 z m -2.06139,-1.35643 c 0.0497,-1.1557 0.18841,-1.41111 0.76625,-1.41111 0.46614,0 0.71001,0.23956 0.71868,0.70598 0.007,0.38828 0.14218,0.91478 0.29992,1.16999 0.15773,0.25522 0.1796,0.5712 0.0486,0.7022 -0.13099,0.13099 -0.3929,-0.0383 -0.58202,-0.37625 -0.4398,-0.78588 -0.91442,-0.78466 -1.13736,0.003 -0.0961,0.33955 -0.14745,-0.0176 -0.11407,-0.79375 z m 0.9691,-0.62618 c -0.0436,-0.42182 -0.52751,-0.34013 -0.6791,0.11465 -0.0776,0.23283 0.0494,0.35983 0.28222,0.28222 0.23284,-0.0776 0.41143,-0.2562 0.39688,-0.39687 z"
       id="path89"
       inkscape:connector-curvature="0" />
  </g>
</svg>
