<?xml version="1.0" encoding="UTF-8" standalone="no"?>
<!-- Created with Inkscape (http://www.inkscape.org/) -->

<svg
   xmlns:dc="http://purl.org/dc/elements/1.1/"
   xmlns:cc="http://creativecommons.org/ns#"
   xmlns:rdf="http://www.w3.org/1999/02/22-rdf-syntax-ns#"
   xmlns:svg="http://www.w3.org/2000/svg"
   xmlns="http://www.w3.org/2000/svg"
   xmlns:sodipodi="http://sodipodi.sourceforge.net/DTD/sodipodi-0.dtd"
   xmlns:inkscape="http://www.inkscape.org/namespaces/inkscape"
   width="1000"
   height="997.51703"
   id="svg2"
   version="1.1"
   inkscape:version="0.92.3 (2405546, 2018-03-11)"
   sodipodi:docname="amex.svg">
  <defs
     id="defs4" />
  <sodipodi:namedview
     id="base"
     pagecolor="#ffffff"
     bordercolor="#666666"
     borderopacity="1.0"
     inkscape:pageopacity="0.0"
     inkscape:pageshadow="2"
     inkscape:zoom="0.70710678"
     inkscape:cx="971.75473"
     inkscape:cy="618.03793"
     inkscape:document-units="px"
     inkscape:current-layer="layer1"
     showgrid="true"
     fit-margin-top="0"
     fit-margin-left="0"
     fit-margin-right="0"
     fit-margin-bottom="0"
     inkscape:window-width="3440"
     inkscape:window-height="1377"
     inkscape:window-x="-8"
     inkscape:window-y="-8"
     inkscape:window-maximized="1">
    <inkscape:grid
       type="xygrid"
       id="grid2996"
       empspacing="5"
       visible="true"
       enabled="true"
       snapvisiblegridlinesonly="true"
       originx="-55.5px"
       originy="947.50002px" />
  </sodipodi:namedview>
  <metadata
     id="metadata7">
    <rdf:RDF>
      <cc:Work
         rdf:about="">
        <dc:format>image/svg+xml</dc:format>
        <dc:type
           rdf:resource="http://purl.org/dc/dcmitype/StillImage" />
        <dc:title />
      </cc:Work>
    </rdf:RDF>
  </metadata>
  <g
     inkscape:label="Layer 1"
     inkscape:groupmode="layer"
     id="layer1"
     transform="translate(-55.5,-1002.3452)">
    <path
       style="fill:#016fd0;fill-opacity:1;stroke:none"
       d="M 0 0 L 0 420.45312 L 37.392578 333.27734 L 102.06055 333.27734 L 123.28125 382.10938 L 123.28125 333.27734 L 203.66992 333.27734 L 216.30273 368.57227 L 228.54883 333.27734 L 589.40625 333.27734 L 589.40625 351.02148 C 589.40625 351.02148 608.37682 333.27734 639.55273 333.27734 L 756.63672 333.68555 L 777.49219 381.88086 L 777.49219 333.27734 L 844.76562 333.27734 L 863.2793 360.96094 L 863.2793 333.27734 L 931.16992 333.27734 L 931.16992 489.88672 L 863.2793 489.88672 L 845.53711 462.11328 L 845.53711 489.88672 L 746.69727 489.88672 L 736.75781 465.19922 L 710.1875 465.19922 L 700.41016 489.88672 L 633.38086 489.88672 C 606.55497 489.88672 589.40625 472.50586 589.40625 472.50586 L 589.40625 489.88672 L 488.34375 489.88672 L 468.28516 465.19922 L 468.28516 489.88672 L 92.480469 489.88672 L 82.546875 465.19922 L 56.060547 465.19922 L 46.199219 489.88672 L 0 489.88672 L 0 997.51758 L 997.51758 997.51758 L 997.51758 684.29883 C 997.51758 684.29883 981.77677 694.94301 963.57227 695.09961 L 630.29492 695.09961 L 610.23633 670.41211 L 610.23633 695.09961 L 544.50781 695.09961 L 544.50781 652.95703 C 544.50781 652.95703 535.52868 658.83984 516.11719 658.83984 L 493.74414 658.83984 L 493.74414 695.09961 L 394.22266 695.09961 L 376.45898 671.4082 L 358.41992 695.09961 L 193.64062 695.09961 L 193.64062 538.49023 L 359.46094 538.49023 L 377.25195 561.68164 L 395.63086 538.49023 L 997.51758 538.49023 L 997.51758 0 L 0 0 z "
       transform="translate(55.5,1002.3452)"
       id="path3078" />
    <path
       id="path3046"
       d="m 106.12803,1354.9291 -50.435161,117.2641 32.835892,0 9.305914,-23.4816 54.099665,0 9.2577,23.4816 33.55915,0 -50.38695,-117.2641 -38.23621,0 z m 18.66004,27.2909 16.49028,41.0329 -33.02877,0 16.53849,-41.0329 z"
       style="fill:#016fd0;fill-opacity:1;stroke:none"
       inkscape:connector-curvature="0" />
    <path
       sodipodi:nodetypes="cccccccccccccc"
       inkscape:connector-curvature="0"
       id="path3048"
       d="m 198.22282,1472.1735 0,-117.2642 46.66163,0.1733 27.13999,75.6045 26.4901,-75.7778 46.28848,0 0,117.2642 -29.31604,0 0,-86.4052 -31.07562,86.4052 -25.71023,0 -31.16227,-86.4052 0,86.4052 z"
       style="fill:#016fd0;fill-opacity:1;stroke:none" />
    <path
       sodipodi:nodetypes="ccccccccccccc"
       inkscape:connector-curvature="0"
       id="path3050"
       d="m 364.86136,1472.1735 0,-117.2642 95.66287,0 0,26.2302 -66.03824,0 0,20.0583 64.49529,0 0,24.6872 -64.49529,0 0,20.8298 66.03824,0 0,25.4587 z"
       style="fill:#016fd0;fill-opacity:1;stroke:none" />
    <path
       id="path3052"
       d="m 477.49667,1354.9291 0,117.2641 29.31604,0 0,-41.6596 12.34359,0 35.15032,41.6596 35.82536,0 -38.57374,-43.2025 c 15.8309,-1.3359 32.16085,-14.9233 32.16085,-36.0182 0,-24.6765 -19.36827,-38.0434 -40.98459,-38.0434 l -65.23783,0 z m 29.31604,26.2301 33.51093,0 c 8.03881,0 13.88655,6.2882 13.88655,12.3436 0,7.7905 -7.57673,12.3436 -13.45259,12.3436 l -33.94489,0 0,-24.6872 z"
       style="fill:#016fd0;fill-opacity:1;stroke:none"
       inkscape:connector-curvature="0" />
    <path
       sodipodi:nodetypes="ccccc"
       inkscape:connector-curvature="0"
       id="path3054"
       d="m 625.61982,1472.1735 -29.93322,0 0,-117.2642 29.93322,0 z"
       style="fill:#016fd0;fill-opacity:1;stroke:none" />
    <path
       sodipodi:nodetypes="ccccccccccc"
       inkscape:connector-curvature="0"
       id="path3056"
       d="m 696.59549,1472.1735 -6.4611,0 c -31.26172,0 -50.24229,-24.6292 -50.24229,-58.1499 0,-34.3488 18.76806,-59.1143 58.24634,-59.1143 l 32.40194,0 0,27.7731 -33.58657,0 c -16.026,0 -27.35994,12.5067 -27.35994,31.6305 0,22.7096 12.95987,32.2476 31.63047,32.2476 l 7.71474,0 z"
       style="fill:#016fd0;fill-opacity:1;stroke:none" />
    <path
       inkscape:connector-curvature="0"
       style="fill:#016fd0;fill-opacity:1;stroke:none"
       d="m 760.3868,1354.9291 -50.43515,117.2641 32.83589,0 9.30591,-23.4816 54.09967,0 9.25769,23.4816 33.55915,0 -50.38694,-117.2641 -38.23622,0 z m 18.66005,27.2909 16.49027,41.0329 -33.02876,0 16.53849,-41.0329 z"
       id="path3058" />
    <path
       sodipodi:nodetypes="ccccccccccc"
       inkscape:connector-curvature="0"
       id="path3060"
       d="m 852.43338,1472.1735 0,-117.2642 37.27187,0 47.59035,73.6759 0,-73.6759 29.31604,0 0,117.2642 -36.06644,0 -48.79578,-75.6045 0,75.6045 z"
       style="fill:#016fd0;fill-opacity:1;stroke:none" />
    <path
       style="fill:#016fd0;fill-opacity:1;stroke:none"
       d="m 269.1985,1677.3858 0,-117.2642 95.66286,0 0,26.2302 -66.03823,0 0,20.0583 64.49528,0 0,24.6872 -64.49528,0 0,20.8298 66.03823,0 0,25.4587 z"
       id="path3062"
       inkscape:connector-curvature="0"
       sodipodi:nodetypes="ccccccccccccc" />
    <path
       sodipodi:nodetypes="ccccccccccccc"
       inkscape:connector-curvature="0"
       id="path3064"
       d="m 737.94653,1677.3858 0,-117.2642 95.66287,0 0,26.2302 -66.03824,0 0,20.0583 64.1867,0 0,24.6872 -64.1867,0 0,20.8298 66.03824,0 0,25.4587 z"
       style="fill:#016fd0;fill-opacity:1;stroke:none" />
    <path
       sodipodi:nodetypes="ccccccccccccc"
       inkscape:connector-curvature="0"
       id="path3066"
       d="m 368.57408,1677.3858 46.57779,-57.9089 -47.68678,-59.3553 36.93435,0 28.39991,36.6932 28.49635,-36.6932 35.48784,0 -47.05996,58.6321 46.66353,58.6321 -36.92851,0 -27.57537,-36.1148 -26.90518,36.1148 z"
       style="fill:#016fd0;fill-opacity:1;stroke:none" />
    <path
       style="fill:#016fd0;fill-opacity:1;stroke:none"
       d="m 499.86944,1560.1414 0,117.2641 30.08751,0 0,-37.0308 30.85899,0 c 26.11107,0 45.90274,-13.8524 45.90274,-40.7917 0,-22.3164 -15.52271,-39.4416 -42.09358,-39.4416 l -64.75566,0 z m 30.08751,26.5194 32.49837,0 c 8.43546,0 14.46515,5.1701 14.46515,13.5008 0,7.8262 -5.99925,13.5008 -14.56158,13.5008 l -32.40194,0 0,-27.0016 z"
       id="path3068"
       inkscape:connector-curvature="0" />
    <path
       inkscape:connector-curvature="0"
       style="fill:#016fd0;fill-opacity:1;stroke:none"
       d="m 619.44802,1560.1216 0,117.2642 29.31604,0 0,-41.6597 12.34359,0 35.15032,41.6597 35.82536,0 -38.57374,-43.2026 c 15.83089,-1.3361 32.16085,-14.9233 32.16085,-36.0183 0,-24.6764 -19.36827,-38.0433 -40.98459,-38.0433 l -65.23783,0 z m 29.31604,26.2302 33.51093,0 c 8.03881,0 13.88654,6.2881 13.88654,12.3435 0,7.7906 -7.57673,12.3436 -13.45259,12.3436 l -33.94488,0 0,-24.6871 z"
       id="path3072" />
    <path
       sodipodi:nodetypes="ccccccccccccccccc"
       inkscape:connector-curvature="0"
       id="path3074"
       d="m 847.18735,1677.3858 0,-25.4587 58.67066,0 c 8.68115,0 12.44003,-4.6912 12.44003,-9.8363 0,-4.9296 -3.74703,-9.9134 -12.44003,-9.9134 l -26.5126,0 c -23.04571,0 -35.88042,-14.0409 -35.88042,-35.1214 0,-18.8023 11.75348,-36.9344 45.99918,-36.9344 l 57.08913,0 -12.3436,26.3844 -49.37438,0 c -9.43821,0 -12.3436,4.9526 -12.3436,9.6821 0,4.8612 3.59036,10.222 10.80065,10.222 l 27.77309,0 c 25.69029,0 36.83792,14.5724 36.83792,33.6556 0,20.5163 -12.42212,37.3201 -38.23646,37.3201 z"
       style="fill:#016fd0;fill-opacity:1;stroke:none" />
    <path
       style="fill:#016fd0;fill-opacity:1;stroke:none"
       d="m 954.78398,1677.3858 0,-25.4587 58.67062,0 c 8.6812,0 12.4401,-4.6912 12.4401,-9.8363 0,-4.9296 -3.7471,-9.9134 -12.4401,-9.9134 l -26.51256,0 c -23.04571,0 -35.88043,-14.0409 -35.88043,-35.1214 0,-18.8023 11.75348,-36.9344 45.99918,-36.9344 l 57.08911,0 -12.3436,26.3844 -49.37436,0 c -9.4382,0 -12.34359,4.9526 -12.34359,9.6821 0,4.8612 3.59035,10.222 10.80064,10.222 l 27.77311,0 c 25.6903,0 36.8379,14.5724 36.8379,33.6556 0,20.5163 -12.4221,37.3201 -38.2365,37.3201 z"
       id="path3076"
       inkscape:connector-curvature="0"
       sodipodi:nodetypes="ccccccccccccccccc" />
  </g>
</svg>
