<?xml version="1.0" encoding="UTF-8" standalone="no"?>
<!-- Created with Inkscape (http://www.inkscape.org/) -->

<svg
   xmlns:dc="http://purl.org/dc/elements/1.1/"
   xmlns:cc="http://creativecommons.org/ns#"
   xmlns:rdf="http://www.w3.org/1999/02/22-rdf-syntax-ns#"
   xmlns:svg="http://www.w3.org/2000/svg"
   xmlns="http://www.w3.org/2000/svg"
   xmlns:sodipodi="http://sodipodi.sourceforge.net/DTD/sodipodi-0.dtd"
   xmlns:inkscape="http://www.inkscape.org/namespaces/inkscape"
   width="173.3"
   height="42.130001"
   id="svg4253"
   version="1.1"
   inkscape:version="0.92.3 (2405546, 2018-03-11)"
   sodipodi:docname="express-scripts.svg">
  <defs
     id="defs4255">
    <clipPath
       clipPathUnits="userSpaceOnUse"
       id="clipPath298">
      <path
         inkscape:connector-curvature="0"
         d="M 0,0 612,0 612,792 0,792 0,0 z"
         id="path300" />
    </clipPath>
    <clipPath
       clipPathUnits="userSpaceOnUse"
       id="clipPath268">
      <path
         inkscape:connector-curvature="0"
         d="M 0,0 612,0 612,792 0,792 0,0 z"
         id="path270" />
    </clipPath>
    <clipPath
       clipPathUnits="userSpaceOnUse"
       id="clipPath248">
      <path
         inkscape:connector-curvature="0"
         d="M 0,0 612,0 612,792 0,792 0,0 z"
         id="path250" />
    </clipPath>
    <clipPath
       clipPathUnits="userSpaceOnUse"
       id="clipPath218">
      <path
         inkscape:connector-curvature="0"
         d="M 0,0 612,0 612,792 0,792 0,0 z"
         id="path220" />
    </clipPath>
    <clipPath
       clipPathUnits="userSpaceOnUse"
       id="clipPath314">
      <path
         inkscape:connector-curvature="0"
         d="M 0,0 612,0 612,792 0,792 0,0 z"
         id="path316" />
    </clipPath>
    <clipPath
       clipPathUnits="userSpaceOnUse"
       id="clipPath298-7">
      <path
         inkscape:connector-curvature="0"
         d="M 0,0 612,0 612,792 0,792 0,0 z"
         id="path300-9" />
    </clipPath>
    <clipPath
       clipPathUnits="userSpaceOnUse"
       id="clipPath268-3">
      <path
         inkscape:connector-curvature="0"
         d="M 0,0 612,0 612,792 0,792 0,0 z"
         id="path270-1" />
    </clipPath>
    <clipPath
       clipPathUnits="userSpaceOnUse"
       id="clipPath248-9">
      <path
         inkscape:connector-curvature="0"
         d="M 0,0 612,0 612,792 0,792 0,0 z"
         id="path250-8" />
    </clipPath>
    <clipPath
       clipPathUnits="userSpaceOnUse"
       id="clipPath218-6">
      <path
         inkscape:connector-curvature="0"
         d="M 0,0 612,0 612,792 0,792 0,0 z"
         id="path220-5" />
    </clipPath>
    <clipPath
       clipPathUnits="userSpaceOnUse"
       id="clipPath314-7">
      <path
         inkscape:connector-curvature="0"
         d="M 0,0 612,0 612,792 0,792 0,0 z"
         id="path316-6" />
    </clipPath>
    <clipPath
       clipPathUnits="userSpaceOnUse"
       id="clipPath298-3">
      <path
         inkscape:connector-curvature="0"
         d="M 0,0 612,0 612,792 0,792 0,0 z"
         id="path300-6" />
    </clipPath>
    <clipPath
       clipPathUnits="userSpaceOnUse"
       id="clipPath268-1">
      <path
         inkscape:connector-curvature="0"
         d="M 0,0 612,0 612,792 0,792 0,0 z"
         id="path270-5" />
    </clipPath>
    <clipPath
       clipPathUnits="userSpaceOnUse"
       id="clipPath248-4">
      <path
         inkscape:connector-curvature="0"
         d="M 0,0 612,0 612,792 0,792 0,0 z"
         id="path250-2" />
    </clipPath>
    <clipPath
       clipPathUnits="userSpaceOnUse"
       id="clipPath218-0">
      <path
         inkscape:connector-curvature="0"
         d="M 0,0 612,0 612,792 0,792 0,0 z"
         id="path220-9" />
    </clipPath>
  </defs>
  <sodipodi:namedview
     id="base"
     pagecolor="#ffffff"
     bordercolor="#666666"
     borderopacity="1.0"
     inkscape:pageopacity="0.0"
     inkscape:pageshadow="2"
     inkscape:zoom="21.984542"
     inkscape:cx="31.602264"
     inkscape:cy="21.74497"
     inkscape:document-units="px"
     inkscape:current-layer="layer1"
     showgrid="false"
     fit-margin-top="0"
     fit-margin-left="0"
     fit-margin-right="0"
     fit-margin-bottom="0"
     inkscape:window-width="3440"
     inkscape:window-height="1377"
     inkscape:window-x="-8"
     inkscape:window-y="-8"
     inkscape:window-maximized="1" />
  <metadata
     id="metadata4258">
    <rdf:RDF>
      <cc:Work
         rdf:about="">
        <dc:format>image/svg+xml</dc:format>
        <dc:type
           rdf:resource="http://purl.org/dc/dcmitype/StillImage" />
      </cc:Work>
    </rdf:RDF>
  </metadata>
  <g
     inkscape:label="Ebene 1"
     inkscape:groupmode="layer"
     id="layer1"
     transform="translate(-152.53381,-469.3962)">
    <path
       style="fill:#1d4f9f;fill-opacity:1;fill-rule:nonzero;stroke:none;stroke-width:1.25"
       d="M 21.064453 1.96875 C 16.447163 1.96875 12.208099 3.6160573 8.9023438 6.3535156 L 19.839844 6.3535156 L 21.878906 2.0097656 C 21.606711 1.9981989 21.339445 1.96875 21.064453 1.96875 z M 22.898438 2.0605469 L 20.884766 6.3535156 L 24.238281 6.3535156 L 25.970703 2.6308594 C 24.973753 2.3651262 23.951942 2.1614914 22.898438 2.0605469 z M 26.894531 2.8867188 L 25.28125 6.3535156 L 33.226562 6.3535156 C 31.377067 4.8218406 29.231472 3.6381486 26.894531 2.8867188 z M 7.8613281 7.3007812 C 4.6494828 10.382336 2.504416 14.563144 2.0585938 19.240234 L 13.791016 19.240234 L 17.050781 12.296875 C 16.849647 12.247579 16.649571 12.190987 16.447266 12.150391 L 16.632812 11.222656 C 16.910912 11.278538 17.185606 11.35102 17.460938 11.421875 L 18.835938 8.4902344 C 18.835374 8.4895551 18.83455 8.4889593 18.833984 8.4882812 C 18.785274 8.4298967 18.72705 8.3759492 18.660156 8.3261719 C 18.659735 8.3258586 18.658625 8.3264849 18.658203 8.3261719 C 18.60409 8.2860164 18.541046 8.2499632 18.474609 8.2148438 C 18.395623 8.1732633 18.28654 8.1406672 18.189453 8.1054688 C 18.072592 8.0626974 17.964542 8.0173642 17.820312 7.9824219 C 17.6794 7.9486879 17.500022 7.9222609 17.332031 7.8945312 C 17.185665 7.8700517 17.060433 7.8431504 16.892578 7.8222656 C 16.889669 7.8219071 16.885728 7.8206701 16.882812 7.8203125 C 16.537022 7.7775569 16.14449 7.740691 15.703125 7.7070312 L 15.892578 7.3007812 L 7.8613281 7.3007812 z M 25.533203 8.078125 C 25.223841 8.078125 24.998791 8.0874411 24.796875 8.1054688 C 24.66608 8.1172939 24.540222 8.1300821 24.441406 8.15625 L 22.005859 13.382812 C 22.357072 13.605965 22.700961 13.841976 23.033203 14.091797 L 22.464844 14.849609 C 22.185329 14.63983 21.895858 14.442386 21.601562 14.251953 L 19.527344 18.708984 L 23.763672 18.708984 C 24.830728 18.708984 25.66032 18.688305 26.335938 18.617188 C 27.010138 18.546219 27.529764 18.425336 27.974609 18.224609 C 28.419495 18.023864 28.790215 17.742933 29.166016 17.353516 C 29.267069 17.248743 29.375085 17.115275 29.478516 16.994141 C 29.567532 16.889925 29.653178 16.80071 29.746094 16.683594 C 29.746386 16.683226 29.745802 16.682009 29.746094 16.681641 C 29.947041 16.428301 30.158672 16.145234 30.392578 15.826172 L 31.755859 15.826172 L 30.166016 19.240234 L 40.068359 19.240234 C 39.748418 15.883276 38.552042 12.781728 36.716797 10.15625 C 36.706914 10.183514 36.697238 10.209319 36.6875 10.236328 C 36.399215 11.035671 36.155583 11.756979 35.927734 12.488281 L 34.449219 12.609375 C 34.532031 12.187187 34.58041 11.801289 34.599609 11.449219 C 34.638008 10.745078 34.560742 10.177109 34.408203 9.7304688 C 34.331934 9.5071484 34.237031 9.3150781 34.128906 9.1503906 C 34.063125 9.0627344 33.985034 8.9796069 33.894531 8.9023438 C 33.804412 8.8254077 33.700906 8.7539713 33.582031 8.6875 C 33.581556 8.6872346 33.580554 8.6877653 33.580078 8.6875 C 33.54288 8.6667368 33.493406 8.6505899 33.453125 8.6308594 C 33.234822 8.5240978 32.981047 8.4275799 32.660156 8.3515625 C 31.898594 8.1710938 30.819531 8.078125 29.285156 8.078125 L 25.533203 8.078125 z M 13.496094 10.908203 C 13.818594 10.908203 14.138984 10.9175 14.458984 10.9375 L 14.400391 11.882812 C 14.094141 11.862813 13.801406 11.850469 13.472656 11.855469 C 13.016406 11.855469 12.556172 11.874816 12.107422 11.916016 L 12.021484 10.972656 C 12.506484 10.928956 12.994844 10.900703 13.496094 10.908203 z M 9.8574219 11.320312 L 10.070312 12.242188 C 9.3278165 12.413436 8.5921094 12.646641 7.8808594 12.931641 L 7.5292969 12.052734 C 8.2830469 11.748984 9.0686719 11.502816 9.8574219 11.320312 z M 5.5546875 13.009766 L 6.0253906 13.832031 C 5.3641406 14.210781 4.7264062 14.644844 4.1289062 15.121094 L 3.5390625 14.380859 C 4.1728125 13.874609 4.8509375 13.412266 5.5546875 13.009766 z M 24.693359 15.523438 C 25.268359 16.093437 25.805313 16.714688 26.289062 17.367188 L 25.527344 17.929688 C 25.072344 17.317187 24.568594 16.733516 24.027344 16.197266 L 24.693359 15.523438 z M 2.0097656 20.1875 C 1.9963659 20.480322 1.9667969 20.768379 1.9667969 21.064453 C 1.9667969 25.192052 3.2967168 29.006372 5.53125 32.132812 C 5.5397218 32.131824 5.5482069 32.131855 5.5566406 32.130859 C 6.3463355 32.036342 6.9779739 31.909236 7.4960938 31.724609 C 7.5232924 31.714883 7.5515318 31.705382 7.578125 31.695312 C 7.7422107 31.633448 7.8965552 31.567734 8.0390625 31.492188 C 8.0398647 31.491762 8.040214 31.49066 8.0410156 31.490234 L 13.345703 20.1875 L 2.0097656 20.1875 z M 18.837891 20.1875 L 13.958984 30.660156 C 13.959195 30.663098 13.960711 30.665039 13.960938 30.667969 C 13.97243 30.816536 14.012491 30.945056 14.066406 31.0625 C 14.084791 31.102355 14.10154 31.143336 14.125 31.179688 C 14.140758 31.204229 14.155745 31.228979 14.173828 31.251953 C 14.227935 31.320435 14.289869 31.384529 14.365234 31.439453 C 14.527243 31.548376 14.730527 31.629052 14.966797 31.695312 C 14.99896 31.704333 15.025005 31.716269 15.058594 31.724609 C 15.05924 31.72477 15.0599 31.724449 15.060547 31.724609 C 15.901579 31.933036 17.190783 31.933594 19.021484 31.933594 C 20.236484 31.933594 21.294171 31.876461 22.222656 31.753906 C 23.150935 31.631365 23.950479 31.443682 24.646484 31.185547 C 25.110598 31.01345 25.529219 30.809453 25.910156 30.572266 C 27.126406 29.791016 28.706484 28.471719 30.271484 26.824219 L 31.556641 26.988281 C 30.949351 27.836614 28.371452 31.383545 27.279297 32.765625 C 27.265695 32.782823 27.233823 32.825301 27.220703 32.841797 L 27.458984 32.941406 L 35.992188 32.941406 C 38.59411 29.677581 40.160156 25.553844 40.160156 21.064453 C 40.160156 20.768379 40.130585 20.480322 40.117188 20.1875 L 29.724609 20.1875 L 28.320312 23.201172 L 26.958984 23.201172 C 27.020634 22.890107 27.065319 22.618641 27.099609 22.367188 C 27.115117 22.250381 27.118745 22.151775 27.126953 22.046875 C 27.136924 21.927974 27.144793 21.81154 27.144531 21.707031 C 27.134933 20.622825 26.545724 20.281044 24.755859 20.1875 L 18.837891 20.1875 z M 28.539062 24.277344 C 28.687813 25.084844 28.774375 25.888672 28.796875 26.701172 L 27.851562 26.730469 C 27.829062 25.969219 27.745469 25.199922 27.605469 24.451172 L 28.539062 24.277344 z M 7.9765625 33.888672 L 7.6328125 34.623047 C 8.3963472 35.379458 9.2298977 36.063594 10.111328 36.683594 L 11.414062 33.888672 L 7.9765625 33.888672 z M 12.457031 33.888672 L 10.910156 37.208984 C 13.855772 39.068384 17.331088 40.162109 21.064453 40.162109 C 26.656277 40.162109 31.678306 37.731493 35.173828 33.888672 L 27.130859 33.888672 C 26.917982 34.319368 26.692568 34.742184 26.443359 35.148438 L 25.634766 34.652344 C 25.787135 34.404144 25.926238 34.147132 26.064453 33.888672 L 12.457031 33.888672 z M 24.4375 36.333984 L 25.167969 36.935547 C 24.651719 37.561797 24.083516 38.153203 23.478516 38.689453 L 22.847656 37.984375 C 23.416406 37.476875 23.9525 36.921484 24.4375 36.333984 z "
       transform="translate(152.53381,469.3962)"
       id="path224" />
    <g
       id="g236"
       transform="matrix(1.25,0,0,-1.25,199.78731,493.7833)"
       style="fill:#000000">
      <path
         inkscape:connector-curvature="0"
         d="m 0,0 0,7.226 4.01,0 -0.157,-0.981 -2.652,0 0,-1.973 2.224,0 0,-0.993 -2.203,0 0,-2.255 2.892,0 L 4.114,0 0,0 z"
         style="fill:#000000;fill-opacity:1;fill-rule:nonzero;stroke:none"
         id="path238" />
    </g>
    <g
       id="g240"
       transform="matrix(1.25,0,0,-1.25,212.59143,493.7833)"
       style="fill:#000000">
      <path
         inkscape:connector-curvature="0"
         d="M 0,0 -1.493,2.861 -2.934,0 l -1.472,0 2.213,3.874 -1.942,3.352 1.462,0 1.159,-2.234 1.138,2.234 1.42,0 L -0.794,3.959 1.441,0 0,0 z"
         style="fill:#000000;fill-opacity:1;fill-rule:nonzero;stroke:none"
         id="path242" />
    </g>
    <g
       transform="matrix(1.25,0,0,-1.25,-354.15569,1398.5221)"
       id="g244"
       style="fill:#000000">
      <g
         id="g246"
         clip-path="url(#clipPath248-4)"
         style="fill:#000000">
        <g
           id="g252"
           transform="translate(459.5473,726.5487)"
           style="fill:#000000">
          <path
             inkscape:connector-curvature="0"
             d="m 0,0 -1.221,0 0,-2.758 -1.191,0 0,7.227 1.922,0 C 0.564,4.469 0.95,4.364 1.347,4.124 1.984,3.748 2.339,3.101 2.339,2.308 2.339,0.887 1.306,0 0,0 m 0.721,3.143 c -0.22,0.23 -0.534,0.354 -1.003,0.354 l -0.939,0 0,-2.537 0.939,0 c 0.887,0 1.294,0.418 1.294,1.274 0,0.397 -0.094,0.7 -0.291,0.909"
             style="fill:#000000;fill-opacity:1;fill-rule:nonzero;stroke:none"
             id="path254" />
        </g>
        <g
           id="g256"
           transform="translate(468.0046,723.791)"
           style="fill:#000000">
          <path
             inkscape:connector-curvature="0"
             d="m 0,0 -0.626,1.117 c -0.501,0.888 -0.836,1.39 -1.232,1.787 -0.136,0.136 -0.241,0.209 -0.47,0.219 l 0,-3.123 -1.18,0 0,7.226 2.203,0 C 0.313,7.226 1.044,6.287 1.044,5.159 1.044,4.125 0.376,3.174 -0.752,3.174 -0.491,3.04 -0.01,2.339 0.366,1.735 L 1.431,0 0,0 z m -1.67,6.255 -0.658,0 0,-2.286 0.616,0 c 0.626,0 0.96,0.084 1.18,0.303 0.198,0.198 0.324,0.501 0.324,0.876 0,0.731 -0.397,1.107 -1.462,1.107"
             style="fill:#000000;fill-opacity:1;fill-rule:nonzero;stroke:none"
             id="path258" />
        </g>
      </g>
    </g>
    <g
       id="g260"
       transform="matrix(1.25,0,0,-1.25,235.90144,493.7833)"
       style="fill:#000000">
      <path
         inkscape:connector-curvature="0"
         d="m 0,0 0,7.226 4.01,0 -0.157,-0.981 -2.652,0 0,-1.973 2.224,0 0,-0.993 -2.202,0 0,-2.255 2.891,0 L 4.114,0 0,0 z"
         style="fill:#000000;fill-opacity:1;fill-rule:nonzero;stroke:none"
         id="path262" />
    </g>
    <g
       transform="matrix(1.25,0,0,-1.25,-354.15569,1398.5221)"
       id="g264"
       style="fill:#000000">
      <g
         id="g266"
         clip-path="url(#clipPath268-1)"
         style="fill:#000000">
        <g
           id="g272"
           transform="translate(480.723,723.6562)"
           style="fill:#000000">
          <path
             inkscape:connector-curvature="0"
             d="m 0,0 c -0.826,0 -1.66,0.219 -2.371,0.647 l 0.461,0.919 c 0.647,-0.375 1.22,-0.595 1.952,-0.595 0.887,0 1.419,0.427 1.419,1.148 0,0.533 -0.334,0.867 -1.075,1.076 l -0.772,0.219 c -0.659,0.188 -1.128,0.46 -1.4,0.866 -0.198,0.293 -0.302,0.638 -0.302,1.056 0,1.274 1.002,2.14 2.454,2.14 0.824,0 1.649,-0.24 2.287,-0.689 L 2.109,5.941 C 1.44,6.337 0.981,6.495 0.407,6.495 c -0.711,0 -1.18,-0.387 -1.18,-0.982 0,-0.449 0.25,-0.679 0.961,-0.888 L 1.043,4.375 C 2.088,4.072 2.821,3.404 2.821,2.318 2.821,1.116 1.848,0 0,0"
             style="fill:#000000;fill-opacity:1;fill-rule:nonzero;stroke:none"
             id="path274" />
        </g>
        <g
           id="g276"
           transform="translate(488.2088,723.6562)"
           style="fill:#000000">
          <path
             inkscape:connector-curvature="0"
             d="m 0,0 c -0.824,0 -1.66,0.219 -2.369,0.647 l 0.459,0.919 c 0.647,-0.375 1.22,-0.595 1.952,-0.595 0.887,0 1.42,0.427 1.42,1.148 0,0.533 -0.335,0.867 -1.076,1.076 l -0.772,0.219 c -0.657,0.188 -1.128,0.46 -1.399,0.866 -0.199,0.293 -0.303,0.638 -0.303,1.056 0,1.274 1.002,2.14 2.454,2.14 0.825,0 1.649,-0.24 2.286,-0.689 L 2.11,5.941 C 1.441,6.337 0.981,6.495 0.407,6.495 c -0.709,0 -1.18,-0.387 -1.18,-0.982 0,-0.449 0.25,-0.679 0.961,-0.888 L 1.044,4.375 C 2.088,4.072 2.819,3.404 2.819,2.318 2.819,1.116 1.848,0 0,0"
             style="fill:#000000;fill-opacity:1;fill-rule:nonzero;stroke:none"
             id="path278" />
        </g>
        <g
           id="g280"
           transform="translate(499.61,723.6562)"
           style="fill:#000000">
          <path
             inkscape:connector-curvature="0"
             d="m 0,0 c -0.824,0 -1.661,0.219 -2.369,0.647 l 0.458,0.919 c 0.649,-0.375 1.223,-0.595 1.954,-0.595 0.886,0 1.419,0.427 1.419,1.148 0,0.533 -0.335,0.867 -1.074,1.076 l -0.775,0.219 c -0.657,0.188 -1.127,0.46 -1.398,0.866 -0.199,0.293 -0.303,0.638 -0.303,1.056 0,1.274 1.003,2.14 2.453,2.14 0.826,0 1.65,-0.24 2.288,-0.689 L 2.11,5.941 C 1.441,6.337 0.983,6.495 0.408,6.495 c -0.71,0 -1.18,-0.387 -1.18,-0.982 0,-0.449 0.251,-0.679 0.96,-0.888 L 1.045,4.375 C 2.089,4.072 2.82,3.404 2.82,2.318 2.82,1.116 1.848,0 0,0"
             style="fill:#000000;fill-opacity:1;fill-rule:nonzero;stroke:none"
             id="path282" />
        </g>
        <g
           id="g284"
           transform="translate(508.0974,723.6769)"
           style="fill:#000000">
          <path
             inkscape:connector-curvature="0"
             d="m 0,0 c -0.959,0 -1.722,0.365 -2.285,1.045 -0.544,0.657 -0.825,1.534 -0.825,2.578 0,0.867 0.156,1.588 0.48,2.193 0.544,1.034 1.535,1.66 2.663,1.66 0.699,0 1.368,-0.209 1.796,-0.564 L 1.276,6.118 C 0.889,6.401 0.491,6.526 0.043,6.526 -0.573,6.526 -1.085,6.213 -1.398,5.659 -1.65,5.221 -1.773,4.615 -1.773,3.759 -1.773,2.872 -1.68,2.37 -1.492,1.963 -1.18,1.274 -0.583,0.94 0.117,0.94 c 0.51,0 0.886,0.136 1.294,0.459 L 1.976,0.636 C 1.411,0.209 0.774,0 0,0"
             style="fill:#000000;fill-opacity:1;fill-rule:nonzero;stroke:none"
             id="path286" />
        </g>
        <g
           id="g288"
           transform="translate(516.2948,723.791)"
           style="fill:#000000">
          <path
             inkscape:connector-curvature="0"
             d="m 0,0 -0.626,1.117 c -0.502,0.888 -0.834,1.39 -1.232,1.787 -0.137,0.136 -0.24,0.209 -0.47,0.219 l 0,-3.123 -1.181,0 0,7.226 2.204,0 c 1.619,0 2.35,-0.939 2.35,-2.067 C 1.045,4.125 0.376,3.174 -0.752,3.174 -0.491,3.04 -0.01,2.339 0.366,1.735 L 1.431,0 0,0 z m -1.671,6.255 -0.657,0 0,-2.286 0.616,0 c 0.626,0 0.96,0.084 1.18,0.303 0.198,0.198 0.324,0.501 0.324,0.876 0,0.731 -0.397,1.107 -1.463,1.107"
             style="fill:#000000;fill-opacity:1;fill-rule:nonzero;stroke:none"
             id="path290" />
        </g>
      </g>
    </g>
    <path
       inkscape:connector-curvature="0"
       d="m 296.26431,484.7508 1.54125,0 0,9.0325 -1.54125,0 0,-9.0325 z"
       style="fill:#000000;fill-opacity:1;fill-rule:nonzero;stroke:none"
       id="path292" />
    <g
       transform="matrix(1.25,0,0,-1.25,-354.15569,1398.5221)"
       id="g294"
       style="fill:#000000">
      <g
         id="g296"
         clip-path="url(#clipPath298-3)"
         style="fill:#000000">
        <g
           id="g302"
           transform="translate(527.2166,726.5487)"
           style="fill:#000000">
          <path
             inkscape:connector-curvature="0"
             d="m 0,0 -1.222,0 0,-2.758 -1.19,0 0,7.227 1.922,0 C 0.564,4.469 0.95,4.364 1.348,4.124 1.984,3.748 2.339,3.101 2.339,2.308 2.339,0.887 1.305,0 0,0 M 0.72,3.143 C 0.502,3.373 0.188,3.497 -0.281,3.497 l -0.941,0 0,-2.537 0.941,0 c 0.886,0 1.293,0.418 1.293,1.274 0,0.397 -0.093,0.7 -0.292,0.909"
             style="fill:#000000;fill-opacity:1;fill-rule:nonzero;stroke:none"
             id="path304" />
        </g>
      </g>
    </g>
    <g
       id="g306"
       transform="matrix(1.25,0,0,-1.25,315.99768,486.00318)"
       style="fill:#000000">
      <path
         inkscape:connector-curvature="0"
         d="m 0,0 -1.817,0 0,-6.224 -1.2,0 0,6.224 -1.828,0 0,1.002 5.002,0 L 0,0 z"
         style="fill:#000000;fill-opacity:1;fill-rule:nonzero;stroke:none"
         id="path308" />
    </g>
    <g
       id="g318"
       transform="matrix(1.25,0,0,-1.25,321.30969,493.95183)"
       style="fill:#000000">
      <path
         inkscape:connector-curvature="0"
         d="m 0,0 c -0.824,0 -1.66,0.219 -2.37,0.647 l 0.46,0.919 c 0.647,-0.375 1.221,-0.595 1.952,-0.595 0.888,0 1.42,0.427 1.42,1.148 0,0.533 -0.334,0.867 -1.075,1.076 l -0.773,0.219 c -0.658,0.188 -1.127,0.46 -1.398,0.866 -0.2,0.293 -0.303,0.638 -0.303,1.056 0,1.274 1.001,2.14 2.453,2.14 0.824,0 1.65,-0.24 2.286,-0.689 L 2.109,5.941 C 1.442,6.337 0.981,6.495 0.407,6.495 c -0.71,0 -1.179,-0.387 -1.179,-0.982 0,-0.449 0.25,-0.679 0.96,-0.888 L 1.045,4.375 C 2.088,4.072 2.819,3.404 2.819,2.318 2.819,1.116 1.849,0 0,0"
         style="fill:#000000;fill-opacity:1;fill-rule:nonzero;stroke:none"
         id="path320" />
    </g>
  </g>
</svg>
