<?xml version="1.0" encoding="UTF-8" standalone="no"?>
<svg
   xmlns:dc="http://purl.org/dc/elements/1.1/"
   xmlns:cc="http://creativecommons.org/ns#"
   xmlns:rdf="http://www.w3.org/1999/02/22-rdf-syntax-ns#"
   xmlns:svg="http://www.w3.org/2000/svg"
   xmlns="http://www.w3.org/2000/svg"
   viewBox="0 0 250.39999 88.466667"
   height="88.466667"
   width="250.39999"
   xml:space="preserve"
   id="svg2"
   version="1.1"><metadata
     id="metadata8"><rdf:RDF><cc:Work
         rdf:about=""><dc:format>image/svg+xml</dc:format><dc:type
           rdf:resource="http://purl.org/dc/dcmitype/StillImage" /></cc:Work></rdf:RDF></metadata><defs
     id="defs6"><linearGradient
       id="linearGradient18"
       spreadMethod="pad"
       gradientTransform="matrix(574.703,0,0,-574.703,791.099,481.157)"
       gradientUnits="userSpaceOnUse"
       y2="0"
       x2="1"
       y1="0"
       x1="0"><stop
         id="stop14"
         offset="0"
         style="stop-opacity:1;stop-color:#21396e" /><stop
         id="stop16"
         offset="1"
         style="stop-opacity:1;stop-color:#318ed5" /></linearGradient><linearGradient
       id="linearGradient26"
       spreadMethod="pad"
       gradientTransform="matrix(574.759,0,0,-574.759,791.045,542.466)"
       gradientUnits="userSpaceOnUse"
       y2="0"
       x2="1"
       y1="0"
       x1="0"><stop
         id="stop22"
         offset="0"
         style="stop-opacity:1;stop-color:#21396e" /><stop
         id="stop24"
         offset="1"
         style="stop-opacity:1;stop-color:#318ed5" /></linearGradient><linearGradient
       id="linearGradient34"
       spreadMethod="pad"
       gradientTransform="matrix(574.723,0,0,-574.723,791.074,425.18)"
       gradientUnits="userSpaceOnUse"
       y2="0"
       x2="1"
       y1="0"
       x1="0"><stop
         id="stop30"
         offset="0"
         style="stop-opacity:1;stop-color:#21396e" /><stop
         id="stop32"
         offset="1"
         style="stop-opacity:1;stop-color:#318ed5" /></linearGradient><linearGradient
       id="linearGradient42"
       spreadMethod="pad"
       gradientTransform="matrix(574.689,0,0,-574.689,791.113,374.526)"
       gradientUnits="userSpaceOnUse"
       y2="0"
       x2="1"
       y1="0"
       x1="0"><stop
         id="stop38"
         offset="0"
         style="stop-opacity:1;stop-color:#21396e" /><stop
         id="stop40"
         offset="1"
         style="stop-opacity:1;stop-color:#318ed5" /></linearGradient><linearGradient
       id="linearGradient50"
       spreadMethod="pad"
       gradientTransform="matrix(574.768,0,0,-574.768,791.035,329.736)"
       gradientUnits="userSpaceOnUse"
       y2="0"
       x2="1"
       y1="0"
       x1="0"><stop
         id="stop46"
         offset="0"
         style="stop-opacity:1;stop-color:#21396e" /><stop
         id="stop48"
         offset="1"
         style="stop-opacity:1;stop-color:#318ed5" /></linearGradient><linearGradient
       id="linearGradient58"
       spreadMethod="pad"
       gradientTransform="matrix(574.808,0,0,-574.808,791.001,547.261)"
       gradientUnits="userSpaceOnUse"
       y2="0"
       x2="1"
       y1="0"
       x1="0"><stop
         id="stop54"
         offset="0"
         style="stop-opacity:1;stop-color:#21396e" /><stop
         id="stop56"
         offset="1"
         style="stop-opacity:1;stop-color:#318ed5" /></linearGradient><linearGradient
       id="linearGradient66"
       spreadMethod="pad"
       gradientTransform="matrix(574.769,0,0,-574.769,791.03,622.436)"
       gradientUnits="userSpaceOnUse"
       y2="0"
       x2="1"
       y1="0"
       x1="0"><stop
         id="stop62"
         offset="0"
         style="stop-opacity:1;stop-color:#21396e" /><stop
         id="stop64"
         offset="1"
         style="stop-opacity:1;stop-color:#318ed5" /></linearGradient><linearGradient
       id="linearGradient74"
       spreadMethod="pad"
       gradientTransform="matrix(574.653,0,0,-574.653,791.143,405.444)"
       gradientUnits="userSpaceOnUse"
       y2="0"
       x2="1"
       y1="0"
       x1="0"><stop
         id="stop70"
         offset="0"
         style="stop-opacity:1;stop-color:#21396e" /><stop
         id="stop72"
         offset="1"
         style="stop-opacity:1;stop-color:#318ed5" /></linearGradient><linearGradient
       id="linearGradient82"
       spreadMethod="pad"
       gradientTransform="matrix(574.752,0,0,-574.752,791.055,447.563)"
       gradientUnits="userSpaceOnUse"
       y2="0"
       x2="1"
       y1="0"
       x1="0"><stop
         id="stop78"
         offset="0"
         style="stop-opacity:1;stop-color:#21396e" /><stop
         id="stop80"
         offset="1"
         style="stop-opacity:1;stop-color:#318ed5" /></linearGradient><linearGradient
       id="linearGradient90"
       spreadMethod="pad"
       gradientTransform="matrix(574.741,0,0,-574.741,791.055,471.03)"
       gradientUnits="userSpaceOnUse"
       y2="0"
       x2="1"
       y1="0"
       x1="0"><stop
         id="stop86"
         offset="0"
         style="stop-opacity:1;stop-color:#21396e" /><stop
         id="stop88"
         offset="1"
         style="stop-opacity:1;stop-color:#318ed5" /></linearGradient><linearGradient
       id="linearGradient98"
       spreadMethod="pad"
       gradientTransform="matrix(574.745,0,0,-574.745,791.055,495.552)"
       gradientUnits="userSpaceOnUse"
       y2="0"
       x2="1"
       y1="0"
       x1="0"><stop
         id="stop94"
         offset="0"
         style="stop-opacity:1;stop-color:#21396e" /><stop
         id="stop96"
         offset="1"
         style="stop-opacity:1;stop-color:#318ed5" /></linearGradient><linearGradient
       id="linearGradient106"
       spreadMethod="pad"
       gradientTransform="matrix(574.8,0,0,-574.8,791.016,622.436)"
       gradientUnits="userSpaceOnUse"
       y2="0"
       x2="1"
       y1="0"
       x1="0"><stop
         id="stop102"
         offset="0"
         style="stop-opacity:1;stop-color:#21396e" /><stop
         id="stop104"
         offset="1"
         style="stop-opacity:1;stop-color:#318ed5" /></linearGradient><linearGradient
       id="linearGradient114"
       spreadMethod="pad"
       gradientTransform="matrix(574.788,0,0,-574.788,791.016,622.436)"
       gradientUnits="userSpaceOnUse"
       y2="0"
       x2="1"
       y1="0"
       x1="0"><stop
         id="stop110"
         offset="0"
         style="stop-opacity:1;stop-color:#21396e" /><stop
         id="stop112"
         offset="1"
         style="stop-opacity:1;stop-color:#318ed5" /></linearGradient><linearGradient
       id="linearGradient122"
       spreadMethod="pad"
       gradientTransform="matrix(574.76,0,0,-574.76,790.991,509.946)"
       gradientUnits="userSpaceOnUse"
       y2="0"
       x2="1"
       y1="0"
       x1="0"><stop
         id="stop118"
         offset="0"
         style="stop-opacity:1;stop-color:#21396e" /><stop
         id="stop120"
         offset="1"
         style="stop-opacity:1;stop-color:#318ed5" /></linearGradient><linearGradient
       id="linearGradient130"
       spreadMethod="pad"
       gradientTransform="matrix(574.788,0,0,-574.788,791.011,552.593)"
       gradientUnits="userSpaceOnUse"
       y2="0"
       x2="1"
       y1="0"
       x1="0"><stop
         id="stop126"
         offset="0"
         style="stop-opacity:1;stop-color:#21396e" /><stop
         id="stop128"
         offset="1"
         style="stop-opacity:1;stop-color:#318ed5" /></linearGradient><linearGradient
       id="linearGradient138"
       spreadMethod="pad"
       gradientTransform="matrix(504.878,0,0,-504.878,1370.28,418.247)"
       gradientUnits="userSpaceOnUse"
       y2="0"
       x2="1"
       y1="0"
       x1="0"><stop
         id="stop134"
         offset="0"
         style="stop-opacity:1;stop-color:#21396e" /><stop
         id="stop136"
         offset="1"
         style="stop-opacity:1;stop-color:#318ed5" /></linearGradient><linearGradient
       id="linearGradient146"
       spreadMethod="pad"
       gradientTransform="matrix(504.903,0,0,-504.903,1370.26,465.151)"
       gradientUnits="userSpaceOnUse"
       y2="0"
       x2="1"
       y1="0"
       x1="0"><stop
         id="stop142"
         offset="0"
         style="stop-opacity:1;stop-color:#21396e" /><stop
         id="stop144"
         offset="1"
         style="stop-opacity:1;stop-color:#318ed5" /></linearGradient><linearGradient
       id="linearGradient154"
       spreadMethod="pad"
       gradientTransform="matrix(504.912,0,0,-504.912,1370.26,536.596)"
       gradientUnits="userSpaceOnUse"
       y2="0"
       x2="1"
       y1="0"
       x1="0"><stop
         id="stop150"
         offset="0"
         style="stop-opacity:1;stop-color:#21396e" /><stop
         id="stop152"
         offset="1"
         style="stop-opacity:1;stop-color:#318ed5" /></linearGradient><linearGradient
       id="linearGradient162"
       spreadMethod="pad"
       gradientTransform="matrix(504.886,0,0,-504.886,1370.27,444.907)"
       gradientUnits="userSpaceOnUse"
       y2="0"
       x2="1"
       y1="0"
       x1="0"><stop
         id="stop158"
         offset="0"
         style="stop-opacity:1;stop-color:#21396e" /><stop
         id="stop160"
         offset="1"
         style="stop-opacity:1;stop-color:#318ed5" /></linearGradient><linearGradient
       id="linearGradient170"
       spreadMethod="pad"
       gradientTransform="matrix(504.875,0,0,-504.875,1370.26,400.649)"
       gradientUnits="userSpaceOnUse"
       y2="0"
       x2="1"
       y1="0"
       x1="0"><stop
         id="stop166"
         offset="0"
         style="stop-opacity:1;stop-color:#21396e" /><stop
         id="stop168"
         offset="1"
         style="stop-opacity:1;stop-color:#318ed5" /></linearGradient><linearGradient
       id="linearGradient178"
       spreadMethod="pad"
       gradientTransform="matrix(505.041,0,0,-505.041,1370.26,342.002)"
       gradientUnits="userSpaceOnUse"
       y2="0"
       x2="1"
       y1="0"
       x1="0"><stop
         id="stop174"
         offset="0"
         style="stop-opacity:1;stop-color:#21396e" /><stop
         id="stop176"
         offset="1"
         style="stop-opacity:1;stop-color:#318ed5" /></linearGradient><linearGradient
       id="linearGradient186"
       spreadMethod="pad"
       gradientTransform="matrix(504.831,0,0,-504.831,1370.28,369.184)"
       gradientUnits="userSpaceOnUse"
       y2="0"
       x2="1"
       y1="0"
       x1="0"><stop
         id="stop182"
         offset="0"
         style="stop-opacity:1;stop-color:#21396e" /><stop
         id="stop184"
         offset="1"
         style="stop-opacity:1;stop-color:#318ed5" /></linearGradient><linearGradient
       id="linearGradient194"
       spreadMethod="pad"
       gradientTransform="matrix(504.862,0,0,-504.862,1370.28,528.598)"
       gradientUnits="userSpaceOnUse"
       y2="0"
       x2="1"
       y1="0"
       x1="0"><stop
         id="stop190"
         offset="0"
         style="stop-opacity:1;stop-color:#21396e" /><stop
         id="stop192"
         offset="1"
         style="stop-opacity:1;stop-color:#318ed5" /></linearGradient><linearGradient
       id="linearGradient202"
       spreadMethod="pad"
       gradientTransform="matrix(504.917,0,0,-504.917,1370.26,329.746)"
       gradientUnits="userSpaceOnUse"
       y2="0"
       x2="1"
       y1="0"
       x1="0"><stop
         id="stop198"
         offset="0"
         style="stop-opacity:1;stop-color:#21396e" /><stop
         id="stop200"
         offset="1"
         style="stop-opacity:1;stop-color:#318ed5" /></linearGradient><linearGradient
       id="linearGradient210"
       spreadMethod="pad"
       gradientTransform="matrix(504.914,0,0,-504.914,1370.26,248.164)"
       gradientUnits="userSpaceOnUse"
       y2="0"
       x2="1"
       y1="0"
       x1="0"><stop
         id="stop206"
         offset="0"
         style="stop-opacity:1;stop-color:#21396e" /><stop
         id="stop208"
         offset="1"
         style="stop-opacity:1;stop-color:#318ed5" /></linearGradient><linearGradient
       id="linearGradient218"
       spreadMethod="pad"
       gradientTransform="matrix(504.85,0,0,-504.85,1370.27,300.947)"
       gradientUnits="userSpaceOnUse"
       y2="0"
       x2="1"
       y1="0"
       x1="0"><stop
         id="stop214"
         offset="0"
         style="stop-opacity:1;stop-color:#21396e" /><stop
         id="stop216"
         offset="1"
         style="stop-opacity:1;stop-color:#318ed5" /></linearGradient><linearGradient
       id="linearGradient226"
       spreadMethod="pad"
       gradientTransform="matrix(504.974,0,0,-504.974,1370.26,239.629)"
       gradientUnits="userSpaceOnUse"
       y2="0"
       x2="1"
       y1="0"
       x1="0"><stop
         id="stop222"
         offset="0"
         style="stop-opacity:1;stop-color:#21396e" /><stop
         id="stop224"
         offset="1"
         style="stop-opacity:1;stop-color:#318ed5" /></linearGradient><linearGradient
       id="linearGradient234"
       spreadMethod="pad"
       gradientTransform="matrix(505.154,0,0,-505.154,1370.26,290.801)"
       gradientUnits="userSpaceOnUse"
       y2="0"
       x2="1"
       y1="0"
       x1="0"><stop
         id="stop230"
         offset="0"
         style="stop-opacity:1;stop-color:#21396e" /><stop
         id="stop232"
         offset="1"
         style="stop-opacity:1;stop-color:#318ed5" /></linearGradient><linearGradient
       id="linearGradient242"
       spreadMethod="pad"
       gradientTransform="matrix(504.927,0,0,-504.927,1370.26,245.488)"
       gradientUnits="userSpaceOnUse"
       y2="0"
       x2="1"
       y1="0"
       x1="0"><stop
         id="stop238"
         offset="0"
         style="stop-opacity:1;stop-color:#21396e" /><stop
         id="stop240"
         offset="1"
         style="stop-opacity:1;stop-color:#318ed5" /></linearGradient><linearGradient
       id="linearGradient250"
       spreadMethod="pad"
       gradientTransform="matrix(505.05,0,0,-505.05,1370.26,185.254)"
       gradientUnits="userSpaceOnUse"
       y2="0"
       x2="1"
       y1="0"
       x1="0"><stop
         id="stop246"
         offset="0"
         style="stop-opacity:1;stop-color:#21396e" /><stop
         id="stop248"
         offset="1"
         style="stop-opacity:1;stop-color:#318ed5" /></linearGradient><linearGradient
       id="linearGradient258"
       spreadMethod="pad"
       gradientTransform="matrix(504.882,0,0,-504.882,1370.26,176.181)"
       gradientUnits="userSpaceOnUse"
       y2="0"
       x2="1"
       y1="0"
       x1="0"><stop
         id="stop254"
         offset="0"
         style="stop-opacity:1;stop-color:#21396e" /><stop
         id="stop256"
         offset="1"
         style="stop-opacity:1;stop-color:#318ed5" /></linearGradient><linearGradient
       id="linearGradient266"
       spreadMethod="pad"
       gradientTransform="matrix(504.891,0,0,-504.891,1370.27,518.999)"
       gradientUnits="userSpaceOnUse"
       y2="0"
       x2="1"
       y1="0"
       x1="0"><stop
         id="stop262"
         offset="0"
         style="stop-opacity:1;stop-color:#21396e" /><stop
         id="stop264"
         offset="1"
         style="stop-opacity:1;stop-color:#318ed5" /></linearGradient><linearGradient
       id="linearGradient274"
       spreadMethod="pad"
       gradientTransform="matrix(504.887,0,0,-504.887,1370.26,110.605)"
       gradientUnits="userSpaceOnUse"
       y2="0"
       x2="1"
       y1="0"
       x1="0"><stop
         id="stop270"
         offset="0"
         style="stop-opacity:1;stop-color:#21396e" /><stop
         id="stop272"
         offset="1"
         style="stop-opacity:1;stop-color:#318ed5" /></linearGradient></defs><g
     transform="matrix(1.3333333,0,0,-1.3333333,0,88.466667)"
     id="g10"><g
       transform="scale(0.1)"
       id="g12"><path
         id="path20"
         style="fill:url(#linearGradient18);fill-opacity:1;fill-rule:evenodd;stroke:none"
         d="m 1363,451.305 v 52.226 l -73.56,7.481 15.98,-43.711 57.58,-15.996" /><path
         id="path28"
         style="fill:url(#linearGradient26);fill-opacity:1;fill-rule:evenodd;stroke:none"
         d="m 1363,512.086 v 60.762 h -95.96 l 19.19,-51.172 76.77,-9.59" /><path
         id="path36"
         style="fill:url(#linearGradient34);fill-opacity:1;fill-rule:evenodd;stroke:none"
         d="m 1363,393.727 v 47.988 l -53.31,14.922 15.99,-41.582 37.32,-21.328" /><path
         id="path44"
         style="fill:url(#linearGradient42);fill-opacity:1;fill-rule:evenodd;stroke:none"
         d="m 1363,345.738 v 38.379 l -33.04,19.199 11.71,-34.121 21.33,-23.457" /><path
         id="path52"
         style="fill:url(#linearGradient50);fill-opacity:1;fill-rule:evenodd;stroke:none"
         d="m 1363,312.676 v 20.25 l -12.79,13.867 z" /><path
         id="path60"
         style="fill:url(#linearGradient58);fill-opacity:1;fill-rule:evenodd;stroke:none"
         d="m 1276.64,521.676 -19.19,51.172 h -99.18 l 37.32,-41.582 81.05,-9.59" /><path
         id="path68"
         style="fill:url(#linearGradient66);fill-opacity:1;fill-rule:evenodd;stroke:none"
         d="m 1255.31,581.383 -30.93,82.109 h -148.21 l 73.57,-82.109 h 105.57" /><path
         id="path76"
         style="fill:url(#linearGradient74);fill-opacity:1;fill-rule:evenodd;stroke:none"
         d="m 1318.22,409.723 -24.52,13.847 31.98,-36.25 z" /><path
         id="path84"
         style="fill:url(#linearGradient82);fill-opacity:1;fill-rule:evenodd;stroke:none"
         d="m 1313.96,421.441 -14.93,37.325 -52.25,14.922 28.78,-30.918 38.4,-21.329" /><path
         id="path92"
         style="fill:url(#linearGradient90);fill-opacity:1;fill-rule:evenodd;stroke:none"
         d="m 1251.04,456.637 -20.25,22.383 -21.33,6.406 34.11,-24.531 7.47,-4.258" /><path
         id="path100"
         style="fill:url(#linearGradient98);fill-opacity:1;fill-rule:evenodd;stroke:none"
         d="m 1235.04,487.555 60.79,-18.125 -16,43.711 -75.7,8.535 30.91,-34.121" /><path
         id="path108"
         style="fill:url(#linearGradient106);fill-opacity:1;fill-rule:evenodd;stroke:none"
         d="m 929.004,618.707 c 34.125,-11.719 67.191,-24.531 98.106,-37.324 h 111.97 l -74.65,82.109 H 789.316 c 50.118,-14.922 94.895,-29.844 139.688,-44.785" /><path
         id="path116"
         style="fill:url(#linearGradient114);fill-opacity:1;fill-rule:evenodd;stroke:none"
         d="m 1363,581.383 v 82.109 h -129.02 l 29.85,-82.109 H 1363" /><path
         id="path124"
         style="fill:url(#linearGradient122);fill-opacity:1;fill-rule:evenodd;stroke:none"
         d="m 1136.94,529.137 47.99,-27.715 34.12,-10.664 -27.72,31.992 -54.39,6.387" /><path
         id="path132"
         style="fill:url(#linearGradient130);fill-opacity:1;fill-rule:evenodd;stroke:none"
         d="m 1181.72,532.34 -35.18,40.508 h -98.11 l 66.13,-31.993 67.16,-8.515" /><path
         id="path140"
         style="fill:url(#linearGradient138);fill-opacity:1;fill-rule:evenodd;stroke:none"
         d="m 1675.43,361.734 90.65,95.957 -156.75,17.071 -53.31,-78.926 119.41,-34.102" /><path
         id="path148"
         style="fill:url(#linearGradient146);fill-opacity:1;fill-rule:evenodd;stroke:none"
         d="m 1466.44,491.813 -93.84,10.664 v -54.375 l 70.38,-20.274 23.46,63.985" /><path
         id="path156"
         style="fill:url(#linearGradient154);fill-opacity:1;fill-rule:evenodd;stroke:none"
         d="m 1372.6,572.848 v -61.836 l 97.03,-10.664 26.66,72.5 H 1372.6" /><path
         id="path164"
         style="fill:url(#linearGradient162);fill-opacity:1;fill-rule:evenodd;stroke:none"
         d="m 1474.97,490.758 -22.39,-65.039 94.9,-26.66 52.25,77.832 -124.76,13.867" /><path
         id="path172"
         style="fill:url(#linearGradient170);fill-opacity:1;fill-rule:evenodd;stroke:none"
         d="m 1372.6,389.449 47.99,-27.715 20.25,58.653 -68.24,19.179 v -50.117" /><path
         id="path180"
         style="fill:url(#linearGradient178);fill-opacity:1;fill-rule:evenodd;stroke:none"
         d="m 1372.6,378.785 v -42.656 l 27.73,-30.914 17.07,49.039 -44.8,24.531" /><path
         id="path188"
         style="fill:url(#linearGradient186);fill-opacity:1;fill-rule:evenodd;stroke:none"
         d="m 1449.38,417.164 -21.32,-58.633 67.18,-37.324 46.9,70.371 -92.76,25.586" /><path
         id="path196"
         style="fill:url(#linearGradient194);fill-opacity:1;fill-rule:evenodd;stroke:none"
         d="m 1479.24,499.273 126.89,-14.921 58.64,88.496 h -159.94 l -25.59,-73.575" /><path
         id="path204"
         style="fill:url(#linearGradient202);fill-opacity:1;fill-rule:evenodd;stroke:none"
         d="m 1502.7,316.934 84.24,-45.84 81.04,84.234 -117.29,33.067 -47.99,-71.461" /><path
         id="path212"
         style="fill:url(#linearGradient210);fill-opacity:1;fill-rule:evenodd;stroke:none"
         d="m 1580.54,264.688 -83.17,44.785 -42.66,-63.965 52.25,-58.653 73.58,77.833" /><path
         id="path220"
         style="fill:url(#linearGradient218);fill-opacity:1;fill-rule:evenodd;stroke:none"
         d="m 1448.32,251.895 42.64,61.855 -65.04,36.246 -19.19,-52.242 41.59,-45.859" /><path
         id="path228"
         style="fill:url(#linearGradient226);fill-opacity:1;fill-rule:evenodd;stroke:none"
         d="m 1403.52,288.145 -14.92,-42.637 19.2,-54.395 35.18,53.321 -39.46,43.711" /><path
         id="path236"
         style="fill:url(#linearGradient234);fill-opacity:1;fill-rule:evenodd;stroke:none"
         d="m 1383.27,258.281 12.8,38.399 -23.47,26.636 v -35.171 l 10.67,-29.864" /><path
         id="path244"
         style="fill:url(#linearGradient242);fill-opacity:1;fill-rule:evenodd;stroke:none"
         d="m 1379,245.508 -6.4,18.105 v -36.25 z" /><path
         id="path252"
         style="fill:url(#linearGradient250);fill-opacity:1;fill-rule:evenodd;stroke:none"
         d="m 1383.27,232.695 -10.67,-31.992 v -62.89 l 28.8,43.71 -18.13,51.172" /><path
         id="path260"
         style="fill:url(#linearGradient258);fill-opacity:1;fill-rule:evenodd;stroke:none"
         d="m 1449.38,238.027 -38.39,-56.504 25.6,-67.187 63.97,67.187 -51.18,56.504" /><path
         id="path268"
         style="fill:url(#linearGradient266);fill-opacity:1;fill-rule:evenodd;stroke:none"
         d="m 1774.61,465.152 103.43,107.696 h -202.61 l -60.77,-89.571 159.95,-18.125" /><path
         id="path276"
         style="fill:url(#linearGradient274);fill-opacity:1;fill-rule:evenodd;stroke:none"
         d="m 1372.6,48.2227 57.58,58.6523 -24.52,66.113 -33.06,-50.117 V 48.2227" /><path
         id="path278"
         style="fill:#21396e;fill-opacity:1;fill-rule:evenodd;stroke:none"
         d="m 240.992,272.988 -3.203,30.918 c 0,8.535 -3.195,14.942 -7.461,19.196 -4.265,4.277 -11.73,6.406 -21.324,6.406 H 91.7031 C 69.3125,328.434 53.3164,324.176 38.3906,316.719 25.5898,308.184 15.9961,297.52 9.59375,285.801 3.19922,272.988 0,259.141 0,244.199 V 0 H 58.6484 V 141.836 H 206.871 l -3.199,30.918 c -1.07,8.535 -3.203,14.922 -7.465,18.125 -4.269,5.332 -11.734,7.461 -21.328,7.461 H 58.6484 v 37.324 c 0,11.719 4.2657,20.254 10.6641,27.715 6.4023,6.426 17.0586,9.609 31.9925,9.609 z m 516.11,12.813 C 751.77,272.988 747.5,259.141 747.5,244.199 V 0 h 59.719 v 235.664 c 0,11.719 3.203,20.254 9.597,27.715 6.399,6.426 18.118,9.609 33.055,9.609 h 98.09 l -4.262,30.918 c 0,8.535 -2.129,14.942 -6.402,19.196 -4.262,4.277 -11.723,6.406 -21.328,6.406 h -75.703 c -21.328,-1.074 -39.438,-5.332 -52.246,-12.789 -14.922,-8.535 -24.524,-19.199 -30.918,-30.918 z M 1174.04,156.758 V 55.4492 h -123.69 c -10.67,0 -19.2,4.2774 -25.61,9.5899 -5.33,6.4062 -8.51,12.8125 -8.51,22.4023 0,7.4805 3.18,14.9216 7.46,21.3286 5.33,5.332 14.94,10.664 26.66,12.812 z M 1233.76,0 v 244.199 c 0,14.942 -3.2,28.789 -9.6,41.602 -5.34,11.719 -16,22.383 -29.87,30.918 -12.79,7.457 -30.92,11.715 -52.24,12.789 h -122.64 c -10.66,0 -17.05,-2.129 -21.328,-6.406 -4.258,-4.254 -6.387,-10.661 -7.461,-19.196 l -3.183,-30.918 h 143.942 c 14.94,0 26.66,-3.183 34.12,-9.609 6.41,-7.461 8.54,-15.996 8.54,-27.715 v -19.18 l -121.56,-33.086 c -33.07,-8.515 -56.507,-21.308 -72.523,-36.23 -15.996,-15.996 -24.512,-36.25 -24.512,-59.7266 0,-19.1797 4.258,-34.1211 12.793,-47.9883 7.461,-11.7187 19.2,-21.3281 33.062,-28.789 C 1014.08,2.12891 1030.07,0 1046.07,0 Z M 282.578,0 h 58.649 v 329.508 h -58.649 z m 360.418,316.719 c -13.859,7.457 -30.922,11.715 -53.312,12.789 H 410.535 V 0 h 57.586 v 272.988 h 111.961 c 14.934,0 26.66,-3.183 33.059,-9.609 6.402,-7.461 9.597,-15.996 9.597,-27.715 V 0 h 58.649 v 244.199 c 0,14.942 -3.199,28.789 -9.594,41.602 -5.332,11.719 -15.996,22.383 -28.797,30.918" /></g></g></svg>