<?xml version="1.0" encoding="UTF-8" standalone="no"?>
<!-- Created with Inkscape (http://www.inkscape.org/) -->

<svg
   xmlns:dc="http://purl.org/dc/elements/1.1/"
   xmlns:cc="http://creativecommons.org/ns#"
   xmlns:rdf="http://www.w3.org/1999/02/22-rdf-syntax-ns#"
   xmlns:svg="http://www.w3.org/2000/svg"
   xmlns="http://www.w3.org/2000/svg"
   xmlns:sodipodi="http://sodipodi.sourceforge.net/DTD/sodipodi-0.dtd"
   xmlns:inkscape="http://www.inkscape.org/namespaces/inkscape"
   width="238.96243"
   height="238.9299"
   id="svg4111"
   sodipodi:version="0.32"
   inkscape:version="0.92.3 (2405546, 2018-03-11)"
   version="1.0"
   sodipodi:docname="gm.svg"
   inkscape:output_extension="org.inkscape.output.svg.inkscape">
  <defs
     id="defs4113">
    <inkscape:perspective
       sodipodi:type="inkscape:persp3d"
       inkscape:vp_x="0 : 526.18109 : 1"
       inkscape:vp_y="0 : 1000 : 0"
       inkscape:vp_z="744.09448 : 526.18109 : 1"
       inkscape:persp3d-origin="372.04724 : 350.78739 : 1"
       id="perspective4119" />
  </defs>
  <sodipodi:namedview
     id="base"
     pagecolor="#ffffff"
     bordercolor="#666666"
     borderopacity="1.0"
     gridtolerance="10000"
     guidetolerance="10"
     objecttolerance="10"
     inkscape:pageopacity="0.0"
     inkscape:pageshadow="2"
     inkscape:zoom="3.9817556"
     inkscape:cx="107.4894"
     inkscape:cy="114.76322"
     inkscape:document-units="px"
     inkscape:current-layer="layer1"
     showgrid="false"
     inkscape:window-width="3440"
     inkscape:window-height="1377"
     inkscape:window-x="-8"
     inkscape:window-y="-8"
     fit-margin-top="0"
     fit-margin-left="0"
     fit-margin-right="0"
     fit-margin-bottom="0"
     inkscape:window-maximized="1" />
  <metadata
     id="metadata4116">
    <rdf:RDF>
      <cc:Work
         rdf:about="">
        <dc:format>image/svg+xml</dc:format>
        <dc:type
           rdf:resource="http://purl.org/dc/dcmitype/StillImage" />
      </cc:Work>
    </rdf:RDF>
  </metadata>
  <g
     inkscape:label="Layer 1"
     inkscape:groupmode="layer"
     id="layer1"
     transform="translate(-169.09021,-178.61151)">
    <path
       style="fill:#22559e;overflow:visible"
       d="M 0 0 L 0 238.92969 L 238.96289 238.92969 L 238.96289 0 L 0 0 z M 82.179688 58.107422 C 105.01554 58.107422 105.01564 75.91709 105.01562 82.125 L 105.01562 88.462891 L 91.363281 88.462891 L 91.363281 82.125 C 91.363281 78.6873 91.363945 70.412109 82.398438 70.412109 C 73.541855 70.412109 73.541016 78.5558 73.541016 82.125 L 73.541016 126.08789 C 73.541016 132.97325 75.676466 138.19531 82.398438 138.19531 C 89.109127 138.19531 91.363281 133.29138 91.363281 126.08789 L 91.363281 111.87891 L 83.537109 111.87891 L 83.537109 101.08398 L 105.01562 101.08398 L 105.01562 149.71094 L 91.8125 149.58008 L 91.8125 144.81836 C 90.68541 146.63551 85.365585 151.40974 77.734375 151.39844 C 64.828395 151.31143 59.847656 142.38749 59.847656 128.76953 L 59.847656 82.125 C 59.847656 78.44688 59.847948 58.107422 82.179688 58.107422 z M 119.04883 59.966797 L 139.24805 59.966797 L 149.13086 125.65039 L 159.23438 59.966797 L 179.21289 59.966797 L 179.21289 149.71094 L 165.90234 149.71094 L 165.90234 82.125 L 154.68164 149.71094 L 143.17773 149.71094 L 132.34961 82.125 L 132.34961 149.58008 L 119.04883 149.58008 L 119.04883 59.966797 z M 59.771484 160.01367 L 179.32422 160.01367 L 179.32422 179.41016 L 59.771484 179.41016 L 59.771484 160.01367 z "
       transform="translate(169.09021,178.61151)"
       id="rect4057" />
  </g>
</svg>
