<?xml version="1.0" encoding="UTF-8" standalone="no"?>
<!-- Created with Inkscape (http://www.inkscape.org/) -->

<svg
   xmlns:dc="http://purl.org/dc/elements/1.1/"
   xmlns:cc="http://creativecommons.org/ns#"
   xmlns:rdf="http://www.w3.org/1999/02/22-rdf-syntax-ns#"
   xmlns:svg="http://www.w3.org/2000/svg"
   xmlns="http://www.w3.org/2000/svg"
   xmlns:sodipodi="http://sodipodi.sourceforge.net/DTD/sodipodi-0.dtd"
   xmlns:inkscape="http://www.inkscape.org/namespaces/inkscape"
   width="147.67982mm"
   height="42.132847mm"
   viewBox="0 0 147.67982 42.132847"
   version="1.1"
   id="svg8"
   inkscape:version="0.92.3 (2405546, 2018-03-11)"
   sodipodi:docname="google-cloud-platform-logo-with-gap.svg">
  <defs
     id="defs2" />
  <sodipodi:namedview
     id="base"
     pagecolor="#ffffff"
     bordercolor="#666666"
     borderopacity="1.0"
     inkscape:pageopacity="0.0"
     inkscape:pageshadow="2"
     inkscape:zoom="0.49497475"
     inkscape:cx="378.38172"
     inkscape:cy="-91.099712"
     inkscape:document-units="mm"
     inkscape:current-layer="layer1"
     showgrid="false"
     fit-margin-top="0"
     fit-margin-left="0"
     fit-margin-right="0"
     fit-margin-bottom="0"
     inkscape:window-width="1368"
     inkscape:window-height="865"
     inkscape:window-x="1155"
     inkscape:window-y="333"
     inkscape:window-maximized="0" />
  <metadata
     id="metadata5">
    <rdf:RDF>
      <cc:Work
         rdf:about="">
        <dc:format>image/svg+xml</dc:format>
        <dc:type
           rdf:resource="http://purl.org/dc/dcmitype/StillImage" />
        <dc:title></dc:title>
      </cc:Work>
    </rdf:RDF>
  </metadata>
  <g
     inkscape:label="Layer 1"
     inkscape:groupmode="layer"
     id="layer1"
     transform="translate(-30.431651,-87.067993)">
    <path
       style="fill:#000000;stroke-width:0.28837687"
       d="m 42.430148,128.88434 c -1.03472,-0.428 -1.736133,-1.48458 -6.900572,-10.39482 l -5.097925,-8.79551 0.116656,-1.58605 c 0.09871,-1.34181 0.427637,-2.10861 2.135592,-4.97849 l 2.018916,-3.392435 6.049661,10.457655 6.049661,10.45766 6.645181,0.14408 6.645181,0.14407 -2.342706,4.09847 -2.342705,4.09847 -6.200102,-0.007 c -3.410056,-0.003 -6.459641,-0.11478 -6.776855,-0.24591 z m 14.296019,-0.35361 c 0.19336,-0.36792 2.813258,-4.93012 5.821971,-10.13821 3.008714,-5.20812 5.525405,-9.68517 5.592655,-9.949 0.0673,-0.26397 -1.31041,-2.922 -3.06147,-5.90694 -1.751055,-2.984965 -3.183738,-5.547895 -3.183738,-5.695445 0,-0.15498 2.039409,-0.26567 4.830318,-0.26192 l 4.83031,0.007 2.79171,4.824115 c 3.23357,5.58769 3.50863,6.21804 3.26946,7.49292 -0.23948,1.27654 -9.77819,17.83474 -11.00507,19.10369 l -0.975869,1.0093 -4.630932,0.0923 -4.630929,0.0923 z m 79.570983,-2.1834 c -1.92884,-0.96387 -2.14996,-2.97881 -0.46476,-4.23556 0.60001,-0.44745 1.21899,-0.5918 2.5051,-0.58417 0.93952,0.007 1.70823,-0.0715 1.70823,-0.17167 0,-0.27009 -0.93356,-1.0216 -1.53486,-1.23553 -0.50716,-0.18052 -1.61797,0.22582 -1.93599,0.70838 -0.22479,0.34078 -1.43155,-0.0371 -1.43155,-0.44826 0,-0.56963 1.22872,-1.52583 2.23391,-1.73844 1.22474,-0.2592 2.80088,0.27895 3.52912,1.20481 0.49783,0.63295 0.58124,1.1679 0.58124,3.72804 v 2.98906 h -0.72092 c -0.42378,0 -0.72095,-0.16554 -0.72095,-0.40147 0,-0.3171 -0.2248,-0.28679 -1.07031,0.14407 -1.31037,0.6681 -1.41923,0.66973 -2.67826,0.0405 z m 2.60741,-1.52014 c 0.83393,-0.4463 1.2963,-1.44804 0.81046,-1.75591 -0.64612,-0.40941 -2.48047,-0.28747 -2.96504,0.19687 -1.22011,1.2201 0.48389,2.45298 2.15458,1.55887 z m -53.065117,1.28025 c -1.31799,-0.5717 -1.97183,-1.18907 -2.63465,-2.48776 -0.64951,-1.27259 -0.72685,-3.85092 -0.15648,-5.21602 0.74106,-1.77362 3.22151,-3.37146 5.23374,-3.37146 1.06341,0 2.73185,0.59456 3.48401,1.24153 l 0.74537,0.64115 -0.58666,0.5309 c -0.57098,0.51676 -0.60735,0.51469 -1.36054,-0.0777 -0.5676,-0.44646 -1.18362,-0.60872 -2.31103,-0.60872 -1.30682,0 -1.68929,0.13352 -2.55248,0.89146 -2.40602,2.11252 -1.80632,6.06794 1.08613,7.16386 1.33503,0.50583 2.63626,0.35927 3.79569,-0.42752 1.02555,-0.69596 1.11215,-0.709 1.6253,-0.24456 0.44244,0.40042 0.47598,0.57038 0.18256,0.92505 -1.10973,1.34139 -4.5843,1.89296 -6.55098,1.03996 z m 7.7776,-5.16673 v -5.62335 h 0.72094 0.72094 v 5.62335 5.62335 h -0.72094 -0.72094 z m 3.71497,4.50378 c -1.02761,-1.02763 -1.11958,-1.24916 -1.11958,-2.69696 0,-2.03438 0.84677,-3.38102 2.46175,-3.91495 4.123227,-1.36323 7.150697,3.79455 3.981647,6.78337 -0.8876,0.8371 -1.19257,0.94811 -2.60477,0.94811 -1.473457,0 -1.687667,-0.0882 -2.719047,-1.11957 z m 4.338647,-1.08216 c 1.71601,-2.18152 -0.51988,-5.46558 -2.733617,-4.01509 -1.35635,0.88873 -1.61553,3.03382 -0.51366,4.25137 0.74921,0.82787 2.511067,0.69966 3.247277,-0.23638 z m 3.93965,1.31449 c -0.69868,-0.83036 -0.74657,-1.08009 -0.74657,-3.89309 0,-2.97383 0.007,-3.00585 0.68654,-3.00585 0.66603,0 0.69009,0.0811 0.80506,2.70977 0.1341,3.06603 0.42248,3.63453 1.84369,3.63453 1.47263,0 1.85549,-0.78679 1.85549,-3.81308 v -2.53122 h 0.8735 0.8735 l -0.0804,3.82102 c -0.0783,3.71726 -0.0981,3.8235 -0.7306,3.91328 -0.38789,0.0552 -0.71958,-0.0886 -0.8223,-0.3563 -0.1531,-0.39902 -0.23982,-0.40127 -0.78382,-0.0204 -0.33641,0.2357 -1.15521,0.42844 -1.81955,0.42844 -0.99478,0 -1.33962,-0.15667 -1.95447,-0.88727 z m 8.6588,0.28508 c -1.63281,-1.28434 -2.13124,-3.88951 -1.07541,-5.62096 1.06388,-1.74464 3.63926,-2.30339 4.98855,-1.0823 0.50152,0.45389 0.52358,0.38083 0.52358,-1.73367 0,-2.16245 0.0146,-2.20755 0.72094,-2.20755 h 0.72094 v 5.62335 c 0,5.46007 -0.017,5.62335 -0.5858,5.62335 -0.32218,0 -0.65979,-0.19278 -0.75021,-0.42841 -0.14543,-0.37899 -0.23498,-0.37899 -0.77606,0 -0.90603,0.63461 -2.85301,0.54476 -3.76653,-0.1737 z m 3.86692,-1.63492 c 0.73123,-0.92961 0.74603,-2.6721 0.0303,-3.5561 -0.39053,-0.48229 -0.83894,-0.66639 -1.62322,-0.66639 -1.41512,0 -2.1663,0.88121 -2.15366,2.52642 0.0102,1.34201 0.44113,2.06811 1.44812,2.44059 0.92792,0.34326 1.61897,0.11955 2.29857,-0.74452 z m 14.02739,2.04491 c -0.10558,-0.10559 -0.1921,-2.63627 -0.1921,-5.62335 v -5.43112 h 0.86513 0.86513 v 5.62335 5.62335 h -0.67289 c -0.37007,0 -0.75937,-0.0865 -0.86513,-0.1921 z m 11.91956,-0.38451 c -0.49128,-0.49132 -0.57674,-0.96125 -0.57674,-3.17213 0,-2.57619 -0.007,-2.5954 -0.72095,-2.5954 -0.57675,0 -0.72092,-0.14407 -0.72092,-0.72095 0,-0.57674 0.14407,-0.72095 0.72092,-0.72095 0.64884,0 0.72095,-0.11547 0.72095,-1.15349 0,-1.03815 0.0722,-1.15352 0.72095,-1.15352 0.64885,0 0.72092,0.11547 0.72092,1.15352 0,1.08942 0.048,1.15349 0.86513,1.15349 0.73056,0 0.86513,0.11206 0.86513,0.72095 0,0.61094 -0.13385,0.72095 -0.87678,0.72095 h -0.87678 l 0.0838,2.37911 c 0.0807,2.29178 0.11036,2.38283 0.80468,2.48027 0.74268,0.10423 1.14139,0.49435 1.14909,1.12443 0.007,0.61326 -2.21688,0.44619 -2.87935,-0.21628 z m 4.61404,-2.59539 v -3.17214 h -0.72095 c -0.57674,0 -0.72092,-0.14407 -0.72092,-0.72095 0,-0.57674 0.14407,-0.72095 0.72092,-0.72095 0.61281,0 0.72095,-0.13318 0.72095,-0.88731 0,-1.25713 1.36524,-2.57322 2.66934,-2.57322 0.54088,0 1.06537,0.0821 1.16555,0.18223 0.37139,0.37139 -0.41319,1.25978 -1.11259,1.25978 -0.50531,0 -0.80123,0.21901 -0.99919,0.73969 -0.43416,1.14201 -0.3562,1.27893 0.72811,1.27893 0.87736,0 1.00931,0.092 1.00931,0.7027 0,0.58195 -0.16111,0.71819 -0.93724,0.79302 l -0.9372,0.0903 -0.0817,3.10006 c -0.0814,3.08099 -0.0862,3.10003 -0.79306,3.10003 h -0.71118 z m 5.44972,2.51388 c -1.20219,-0.80756 -1.87349,-2.51228 -1.5882,-4.033 0.68536,-3.65334 5.59777,-4.54228 7.26665,-1.315 0.59844,1.15723 0.579,3.17476 -0.0409,4.22385 -1.08468,1.83622 -3.7782,2.37331 -5.63772,1.12415 z m 4.2452,-2.00342 c 1.35011,-2.61082 -1.87652,-5.28268 -3.7111,-3.07305 -1.02409,1.23346 -0.41595,3.73583 1.0387,4.27395 0.92,0.34026 2.16459,-0.21901 2.6724,-1.2009 z m 2.99366,-1.23141 v -3.89309 h 0.72095 c 0.47858,0 0.72095,0.16042 0.72095,0.47728 0,0.44408 0.0368,0.44408 0.52736,0 0.55334,-0.50078 2.64478,-0.6688 2.64478,-0.21253 0,0.72841 -0.42282,1.17753 -1.11227,1.18151 -1.57914,0.0102 -2.05987,0.94596 -2.05987,4.0139 0,2.28882 -0.0102,2.32598 -0.72095,2.32598 h -0.72095 z m 5.19078,0 v -3.89309 h 0.84112 c 0.46261,0 0.88615,0.13522 0.94119,0.30041 0.0627,0.18801 0.45365,0.12398 1.04687,-0.17201 1.04228,-0.51993 2.17656,-0.37997 3.01045,0.37153 0.46138,0.41578 0.55675,0.40767 1.11173,-0.0947 0.40685,-0.3682 1.03318,-0.54936 1.89941,-0.54936 1.05849,0 1.41833,0.14646 1.98837,0.8091 0.64401,0.74875 0.69595,1.0447 0.69595,3.96519 v 3.15606 h -0.72092 c -0.71203,0 -0.72095,-0.0307 -0.72095,-2.43241 0,-3.24101 -0.26806,-3.91186 -1.56259,-3.91186 -1.51977,0 -1.89794,0.75975 -1.89794,3.81305 v 2.53122 h -0.86513 -0.86513 v -2.82608 c 0,-3.08334 -0.18597,-3.51819 -1.50383,-3.51819 -1.30382,0 -1.95431,1.36684 -1.95564,4.10937 -0.001,2.19137 -0.0136,2.2349 -0.722,2.2349 h -0.72096 z m -42.67977,-1.87444 v -5.47918 h 2.32134 c 3.5373,0 4.88808,0.95914 4.88808,3.47075 0,1.09609 -0.14966,1.46714 -0.87013,2.15741 -0.73563,0.70477 -1.1591,0.85205 -2.73958,0.95266 l -1.86945,0.11887 v 2.12925 2.12924 h -0.86513 -0.86513 z m 5.13641,-0.87637 c 1.39256,-1.29736 0.15722,-3.1609 -2.09534,-3.1609 h -1.31081 v 1.87444 1.87444 h 1.38751 c 0.99774,0 1.5648,-0.16519 2.01864,-0.58798 z m -76.878289,-5.59236 c -3.025931,-0.97208 -4.526336,-3.22183 -4.340623,-6.50847 0.09292,-1.64457 0.264683,-2.20993 0.981048,-3.22919 2.351746,-3.34615 6.769678,-3.70562 9.687069,-0.78822 1.853601,1.85359 2.379566,3.88628 1.642315,6.34699 -0.966443,3.22572 -4.754323,5.21184 -7.969809,4.17889 z m 77.058479,-1.9976 c -0.96378,-0.43679 -3.07737,-2.72584 -2.85263,-3.08947 0.0767,-0.12398 0.59649,-0.37647 1.15508,-0.56083 0.93839,-0.30961 1.05904,-0.27998 1.58656,0.39063 1.52962,1.9446 4.39405,1.43915 5.13615,-0.90631 0.21595,-0.68277 0.32528,-1.30873 0.24319,-1.39105 -0.0824,-0.0824 -0.57228,0.0688 -1.08877,0.33583 -0.66397,0.34333 -1.39347,0.44793 -2.48997,0.35702 -1.70723,-0.14169 -2.59073,-0.66594 -3.94847,-2.34348 -1.10866,-1.3698 -1.40002,-4.11867 -0.60342,-5.693065 1.4731,-2.91144 4.29367,-4.11608 6.99489,-2.98743 0.68993,0.28815 1.10325,0.33924 1.16827,0.14408 0.0552,-0.16588 0.6089,-0.30178 1.23012,-0.30178 h 1.12947 v 6.253255 c 0,7.08917 -0.20572,7.96217 -2.19276,9.30762 -1.27294,0.86189 -4.08535,1.11132 -5.4676,0.48491 z m 4.43221,-8.07252 c 0.92599,-0.926 1.16394,-2.91835 0.50154,-4.19929 -0.54878,-1.061205 -2.16729,-1.883045 -3.13419,-1.591455 -1.01523,0.3062 -2.19296,1.594865 -2.38292,2.607405 -0.59474,3.1703 2.84529,5.35363 5.01557,3.18334 z m -44.964737,2.8753 c -3.80998,-1.36149 -6.01633,-4.49388 -6.01633,-8.541525 0,-3.59755 1.68969,-6.305236 4.97289,-7.968944 2.88945,-1.464182 6.93661,-1.144833 9.15195,0.72218 l 1.00931,0.850587 -0.81909,0.861963 -0.8191,0.861964 -1.5893,-0.836044 c -2.69963,-1.420075 -5.20677,-1.019867 -7.33176,1.170414 -0.99265,1.02317 -1.42166,1.7492 -1.68693,2.85496 -0.9455,3.941315 2.07946,7.802285 6.12744,7.820845 1.46897,0.007 3.1531,-0.56506 4.04814,-1.37443 0.57512,-0.5201 1.63804,-2.42356 1.63804,-2.93337 0,-0.18767 -1.07985,-0.29973 -2.88377,-0.29973 h -2.88377 v -1.297695 -1.29769 h 4.21852 4.218517 l -0.132907,2.295955 c -0.10988,1.89825 -0.27973,2.53344 -0.98045,3.66683 -0.99502,1.60941 -2.86204,3.12026 -4.37509,3.5405 -1.46828,0.40776 -4.59913,0.3562 -5.8663,-0.0967 z m 15.462117,0.0102 c -1.21208,-0.55256 -2.6663,-2.12257 -3.05392,-3.2971 -0.18001,-0.54548 -0.27215,-1.75465 -0.20471,-2.68705 0.41481,-5.734655 8.50719,-7.102825 10.93231,-1.848315 1.16501,2.524235 0.44198,5.327335 -1.85032,7.173495 -0.94084,0.75774 -1.37345,0.89616 -3.02796,0.96871 -1.19294,0.0525 -2.26076,-0.0661 -2.79542,-0.30961 z m 3.75512,-2.37557 c 1.96259,-0.93131 2.39385,-3.71056 0.8292,-5.343705 -1.01603,-1.0605 -2.1326,-1.28663 -3.39501,-0.68758 -2.3588,1.11932 -2.51064,4.807265 -0.24847,6.034695 1.02279,0.55498 1.63915,0.55423 2.81428,-0.003 z m 8.63315,2.21981 c -3.97241,-1.80441 -4.3822,-7.404325 -0.73058,-9.983705 1.06485,-0.75219 1.47566,-0.86513 3.14646,-0.86513 2.47212,0 3.88734,0.67834 4.967,2.38081 1.44139,2.272835 1.35707,4.857775 -0.22673,6.950745 -1.45431,1.92181 -4.73447,2.61729 -7.15616,1.51728 z m 3.90183,-2.1959 c 1.21827,-0.62998 1.73345,-1.53789 1.73345,-3.05486 0,-2.421515 -2.03479,-3.918225 -4.1343,-3.040965 -2.60233,1.0873 -2.70239,4.857295 -0.16356,6.162035 0.91718,0.47136 1.55682,0.45485 2.56441,-0.0661 z m 25.23617,2.33633 c -1.20042,-0.52596 -2.66321,-2.09787 -3.05392,-3.28177 -0.50126,-1.51882 -0.20742,-4.159305 0.59316,-5.327435 2.27223,-3.3161 6.85167,-3.33412 8.94379,-0.0351 0.47882,0.75501 0.86952,1.50959 0.86823,1.676785 -0.001,0.16723 -1.69311,1.00331 -3.75961,1.85802 -2.07335,0.85753 -3.70974,1.69644 -3.65129,1.87181 0.0582,0.17473 0.5205,0.55992 1.02719,0.85584 1.14479,0.6686 2.69079,0.44915 3.65943,-0.51949 l 0.66942,-0.66942 1.05332,0.71574 1.05334,0.71574 -0.67357,0.72181 c -1.57621,1.68912 -4.63782,2.33401 -6.72949,1.41759 z m 3.12387,-7.230105 c 0.89016,-0.37892 1.04061,-0.54837 0.77313,-0.87068 -0.9651,-1.16285 -3.35926,-0.59292 -4.18049,0.995165 -0.83969,1.62372 -0.68638,1.61814 3.40736,-0.124655 z M 37.711743,103.23752 c -1.290758,-2.22164 -2.346831,-4.195735 -2.346831,-4.386885 0,-0.57439 5.444778,-9.932756 6.181832,-10.625167 0.375906,-0.353171 1.182647,-0.757943 1.792755,-0.899497 1.525549,-0.354023 20.173914,-0.33924 21.456249,0.01703 0.56414,0.156677 1.359035,0.642649 1.766435,1.079812 0.66033,0.70859 4.27309,6.729012 4.27309,7.120812 0,0.0858 -5.408075,0.19005 -12.017936,0.23161 l -12.017932,0.0753 -3.142897,5.479165 c -1.728595,3.01355 -3.245285,5.58452 -3.370419,5.7133 -0.125138,0.12875 -1.283592,-1.58356 -2.574346,-3.80521 z M 138.60384,98.734045 v -8.507128 h 1.2977 1.29769 v 8.507128 8.507125 h -1.29769 -1.2977 z"
       id="path837"
       inkscape:connector-curvature="0" />
  </g>
</svg>
