<?xml version="1.0" encoding="UTF-8" standalone="no"?>
<!-- Generator: Adobe Illustrator 13.0.1, SVG Export Plug-In . SVG Version: 6.00 Build 14948)  -->

<svg
   xmlns:dc="http://purl.org/dc/elements/1.1/"
   xmlns:cc="http://creativecommons.org/ns#"
   xmlns:rdf="http://www.w3.org/1999/02/22-rdf-syntax-ns#"
   xmlns:svg="http://www.w3.org/2000/svg"
   xmlns="http://www.w3.org/2000/svg"
   xmlns:sodipodi="http://sodipodi.sourceforge.net/DTD/sodipodi-0.dtd"
   xmlns:inkscape="http://www.inkscape.org/namespaces/inkscape"
   version="1.1"
   id="Layer_1"
   x="0px"
   y="0px"
   width="719px"
   height="720px"
   viewBox="0 0 129.996 130.238"
   enable-background="new 0 0 129.996 130.238"
   xml:space="preserve"
   sodipodi:docname="gsa.svg"
   inkscape:version="0.92.3 (2405546, 2018-03-11)"><metadata
   id="metadata5325"><rdf:RDF><cc:Work
       rdf:about=""><dc:format>image/svg+xml</dc:format><dc:type
         rdf:resource="http://purl.org/dc/dcmitype/StillImage" /></cc:Work></rdf:RDF></metadata><defs
   id="defs5323" /><sodipodi:namedview
   pagecolor="#ffffff"
   bordercolor="#666666"
   borderopacity="1"
   objecttolerance="10"
   gridtolerance="10"
   guidetolerance="10"
   inkscape:pageopacity="0"
   inkscape:pageshadow="2"
   inkscape:window-width="3440"
   inkscape:window-height="1377"
   id="namedview5321"
   showgrid="false"
   inkscape:zoom="1.3111111"
   inkscape:cx="310.76898"
   inkscape:cy="324.83662"
   inkscape:window-x="-8"
   inkscape:window-y="-8"
   inkscape:window-maximized="1"
   inkscape:current-layer="Layer_1" />
<path
   style="fill:#00538e;stroke-width:5.52834034"
   d="M 0.16796875 0 L 0.16796875 720 L 718.83203 720 L 718.83203 0 L 0.16796875 0 z M 564.28711 357.05859 L 619.69141 480.51172 L 581.08789 480.51172 L 564.28711 439.48633 L 547.45312 480.51172 L 508.85352 480.51172 L 564.28711 357.05859 z M 174.4668 362.12891 C 207.83586 362.12891 222.71178 367.08213 243.79688 374.35742 L 240.625 414.25 C 221.22053 401.56799 204.70063 396.49805 176.08594 396.49805 C 125.83332 396.49805 92.287672 432.86381 92.525391 481.70117 C 92.763109 534.25358 129.27814 566.92578 174.4668 566.92578 C 187.93936 566.92578 199.38906 565.94088 207.61523 563.7793 L 207.61523 503.9082 L 164.15625 503.9082 L 164.15625 470.16797 L 246.51758 470.16797 L 246.51758 590.42578 C 231.96699 595.40682 209.68785 601.28516 174.14062 601.28516 C 101.19421 601.28516 52.367186 554.13253 52.367188 480.73828 C 52.367188 409.5222 104.19606 362.12891 174.4668 362.12891 z M 373.0332 362.13477 C 388.18638 362.13477 406.28081 364.77009 424.44141 371.20508 L 418.99609 407.01758 C 399.22122 399.26132 390.58015 396.50977 374.33789 396.50977 C 356.3542 396.50977 337.86719 402.82831 337.86719 423.57617 C 337.86719 439.79079 354.50843 448.20961 366.88086 454.38477 C 400.41024 471.11352 434.75781 484.85186 434.75781 531.14062 C 434.75781 581.6586 395.09239 602.75017 349.33984 601.28516 C 333.09758 600.75996 317.28067 596.65162 300.04883 591.0293 L 303.95703 554.66406 C 318.54079 560.66784 337.44189 567.17489 353.26953 566.93164 C 373.94552 566.611 394.60547 557.01389 394.60547 533.07617 C 394.60547 514.63916 379.84449 505.56734 365.57031 498.3418 C 334.00902 482.33172 297.70898 471.21415 297.70898 426.48438 C 297.70898 384.19257 331.34399 362.13477 373.0332 362.13477 z M 620.32617 481.95508 L 671.90039 597.2207 L 631.37305 597.2207 L 592.82422 507.7168 L 620.32617 481.95508 z M 508.22266 481.97656 L 535.7168 507.72852 L 515.4043 554.16016 L 564.20898 528.57031 L 592.30469 550.20898 L 496.21094 597.23242 L 456.64453 597.23242 L 508.22266 481.97656 z "
   transform="matrix(0.18088611,0,0,0.18088611,-0.03055694,0)"
   id="rect5308" />





</svg>