<?xml version="1.0" encoding="UTF-8" standalone="no"?>
<!-- Created with Inkscape (http://www.inkscape.org/) -->

<svg
   xmlns:dc="http://purl.org/dc/elements/1.1/"
   xmlns:cc="http://creativecommons.org/ns#"
   xmlns:rdf="http://www.w3.org/1999/02/22-rdf-syntax-ns#"
   xmlns:svg="http://www.w3.org/2000/svg"
   xmlns="http://www.w3.org/2000/svg"
   xmlns:xlink="http://www.w3.org/1999/xlink"
   xmlns:sodipodi="http://sodipodi.sourceforge.net/DTD/sodipodi-0.dtd"
   xmlns:inkscape="http://www.inkscape.org/namespaces/inkscape"
   id="svg2440"
   sodipodi:version="0.32"
   inkscape:version="0.92.3 (2405546, 2018-03-11)"
   width="846.59351"
   height="729.36719"
   version="1.0"
   sodipodi:docname="gsk.svg"
   inkscape:output_extension="org.inkscape.output.svg.inkscape">
  <metadata
     id="metadata2445">
    <rdf:RDF>
      <cc:Work
         rdf:about="">
        <dc:format>image/svg+xml</dc:format>
        <dc:type
           rdf:resource="http://purl.org/dc/dcmitype/StillImage" />
        <dc:title />
      </cc:Work>
    </rdf:RDF>
  </metadata>
  <defs
     id="defs2443">
    <linearGradient
       id="linearGradient3251">
      <stop
         style="stop-color:#ff9300;stop-opacity:1;"
         offset="0"
         id="stop3253" />
      <stop
         style="stop-color:#ff1b00;stop-opacity:1;"
         offset="1"
         id="stop3255" />
    </linearGradient>
    <radialGradient
       inkscape:collect="always"
       xlink:href="#linearGradient3251"
       id="radialGradient3288"
       gradientUnits="userSpaceOnUse"
       gradientTransform="matrix(1,0,0,0.8615318,39.61146,-733.00923)"
       cx="492.02243"
       cy="1155.554"
       fx="492.02243"
       fy="1155.554"
       r="423.29675" />
  </defs>
  <sodipodi:namedview
     inkscape:window-height="1377"
     inkscape:window-width="3440"
     inkscape:pageshadow="2"
     inkscape:pageopacity="0.0"
     guidetolerance="10.0"
     gridtolerance="10.0"
     objecttolerance="10.0"
     borderopacity="1.0"
     bordercolor="#666666"
     pagecolor="#ffffff"
     id="base"
     showgrid="false"
     inkscape:zoom="1.875149"
     inkscape:cx="750.33365"
     inkscape:cy="379.86272"
     inkscape:window-x="-8"
     inkscape:window-y="-8"
     inkscape:current-layer="svg2440"
     fit-margin-top="0"
     fit-margin-left="0"
     fit-margin-right="0"
     fit-margin-bottom="0"
     inkscape:window-maximized="1" />
  <path
     style="fill:url(#radialGradient3288);fill-opacity:1"
     d="M 530.62305 0 C 497.61971 -0.0017 463.73539 0.44042183 450.98047 1.3261719 C 349.55044 8.3698619 274.08133 22.579874 207.9375 47.089844 C 116.00767 81.154964 53.747966 131.61561 20.457031 199.03711 C 6.1199348 228.07301 0.0365 256.40305 0 294.31445 C 0.095935266 343.1767 9.1612441 384.55027 24.03125 424.73242 C 61.224624 501.26776 130.40707 536.91545 217.17383 528.69141 C 240.55282 526.47551 252.08483 522.43546 261.23633 513.28516 C 272.92702 501.59576 272.41983 483.17931 260.17383 474.75391 C 252.27263 469.31771 242.6781 467.68551 206.17383 465.69141 C 172.53572 463.85381 149.46933 461.85526 143.17383 460.22266 C 128.97524 456.54096 117.15688 447.52161 111.51758 436.06641 C 107.45418 427.81261 106.49928 416.80606 109.14258 408.84766 C 112.73678 398.02676 121.63898 388.11941 134.58008 380.50391 L 138.95508 377.91016 L 133.01758 374.91016 C 106.52378 361.53596 90.190178 332.98821 92.017578 303.25391 C 93.008579 287.12791 97.311024 274.58631 106.11133 262.25391 C 122.03964 239.93231 149.21224 227.31886 181.61133 226.97266 C 183.77127 226.94986 185.96929 226.97941 188.17383 227.06641 C 202.50312 227.63111 210.73276 229.08161 229.17383 234.31641 C 238.88282 237.07291 239.85773 237.13991 262.67383 237.12891 C 280.51852 237.12041 287.85833 236.74236 293.17383 235.53516 C 297.02382 234.66056 300.51133 234.16256 300.92383 234.41016 C 302.06524 235.09536 301.82653 263.51026 300.67383 264.22266 C 300.12992 264.55886 293.26743 264.34526 285.42383 263.72266 C 277.58032 263.10016 268.78858 262.72876 265.89258 262.91016 L 260.64258 263.22266 L 264.26758 268.59766 C 272.86138 281.33606 277.27968 297.95791 276.39258 314.19141 C 275.37318 332.84691 269.00343 347.36666 256.17383 360.34766 C 238.25923 378.47396 217.4475 385.88331 183.67383 386.12891 C 167.51772 386.24641 165.79873 386.41701 161.42383 388.56641 C 147.82213 395.24911 142.67343 411.50301 151.73633 419.12891 C 157.16453 423.69651 163.19163 424.70751 197.17383 426.75391 C 243.78129 429.56071 253.19808 431.10546 268.95508 438.53516 C 289.61698 448.27736 299.72558 463.57311 299.76758 485.19141 C 299.79049 496.94461 298.36748 503.41221 293.58008 513.44141 C 280.47638 540.89241 248.2873 555.66251 197.67383 557.44141 C 175.36672 558.22531 155.04787 556.14406 131.26758 550.66016 C 105.95304 540.36678 84.619212 529.25629 67.628906 518.92969 C 68.958762 521.47436 70.26716 523.99738 71.621094 526.57031 C 143.08265 645.36921 252.62886 719.30351 363.57422 728.44141 C 403.02953 731.69111 443.25574 726.35307 479.62109 713.04297 C 493.71901 707.88307 523.35615 693.06617 538.06055 683.82617 C 605.50455 641.44527 687.79851 556.12171 747.63672 466.53711 C 801.29417 386.20571 833.33567 311.50451 844.14453 241.53711 C 847.16455 221.98821 847.44604 182.76236 844.68359 166.38086 C 838.01839 126.85576 822.82865 97.199308 795.82812 70.992188 C 755.46535 31.815477 695.87651 10.066134 604.98047 1.3339844 C 595.74872 0.44703431 563.62638 0.0017 530.62305 0 z M 552.12695 128.44727 C 553.10965 128.47227 553.42565 148.8435 553.62695 225.1582 L 553.88086 321.83984 L 591.38086 286.78125 C 612.00586 267.49965 632.1969 247.84426 636.25 243.10156 L 643.61914 234.47852 L 672.25 234.54883 C 689.1669 234.59083 700.06266 234.97072 698.88086 235.47852 C 697.04436 236.26782 697.03212 236.3436 698.73242 236.4082 C 699.78022 236.4482 698.19774 237.73429 695.08594 239.37109 C 682.93004 245.76549 672.83886 254.36815 627.16016 297.28125 C 596.64966 325.94455 591.6149 331.07046 592.6543 332.41016 C 595.9867 336.70546 627.15311 372.53162 644.47461 391.97852 C 666.28131 416.46102 679.6126 429.71978 689.4707 436.73438 C 702.1701 445.77067 716.57704 451.06344 724.96484 449.77344 C 727.25694 449.42094 728.04688 449.68619 728.04688 450.80859 C 728.04688 452.76039 714.94206 458.91086 706.38086 460.97656 C 695.57136 463.58476 679.16731 463.85891 670.75391 461.57031 C 656.42661 457.67311 645.17396 450.32585 630.63086 435.37305 C 625.60546 430.20615 606.1685 407.61216 587.4375 385.16406 L 553.38086 344.34961 L 553.40234 378.66406 C 553.42644 418.71356 554.54106 439.01898 557.28906 449.42578 C 558.37066 453.52158 559.03277 457.23408 558.75977 457.67578 C 558.48677 458.11748 546.08091 458.47852 531.19141 458.47852 L 504.11914 458.47852 L 504.73828 455.22852 C 505.07828 453.44102 506.03995 449.50352 506.87695 446.47852 C 510.01305 435.14372 510.52517 410.13762 510.10547 288.47852 C 509.73577 181.32512 509.51785 168.10607 508.00195 160.54297 C 507.07225 155.90387 505.4265 150.10942 504.3457 147.66602 C 503.2649 145.22272 502.38241 142.71916 502.38281 142.10156 C 502.38341 141.11686 548.84695 128.36307 552.12695 128.44727 z M 403.50586 227.10352 C 422.54605 227.07117 442.06721 231.1508 458.31055 239.25391 L 464.81055 242.49609 L 465.08594 259.24609 C 465.40334 278.63539 465.61686 278.31301 456.50586 272.13281 C 430.46356 255.33181 368.78259 239.93102 361.18359 283.23242 C 361.34559 294.73862 368.38775 304.49146 383.81055 314.56836 C 388.21055 317.44316 402.68757 325.41546 415.98047 332.28516 C 444.13087 346.83316 455.71627 354.43043 465.13477 364.51562 C 476.63077 376.82542 481.16761 389.27581 480.00391 405.31641 C 477.34531 441.96271 444.39095 465.0757 392.81055 466.4707 C 384.56055 466.6938 374.66055 466.47944 370.81055 465.99414 C 356.82835 464.23454 344.62022 461.45884 331.35352 457.02344 L 317.81055 452.49609 L 317.53711 434.74609 C 317.35371 422.82569 317.61021 416.99609 318.31641 416.99609 C 318.89481 416.99609 321.94304 418.28096 325.08984 419.85156 C 338.14904 426.36916 357.33995 432.68539 372.81055 435.55469 C 385.44095 437.89719 407.35019 437.1844 415.74609 434.1582 C 427.61389 429.8806 433.71617 423.65762 435.13477 414.39062 C 437.24907 400.57943 430.90688 389.03142 415.55078 378.72852 C 411.75808 376.18392 397.59181 368.68495 384.07031 362.06445 C 355.85311 348.24845 344.38323 340.99626 334.98633 331.03516 C 324.17053 319.56976 319.29857 307.59231 319.32617 292.53711 C 319.37167 267.83081 332.25555 248.69147 356.81055 236.85547 C 370.27998 230.36291 386.70569 227.13206 403.50586 227.10352 z M 184.17383 250.44141 C 179.02296 250.36171 173.89423 250.72801 170.17383 251.50391 C 152.49335 255.19091 139.14803 268.44771 134.86133 286.62891 C 132.95173 294.72811 132.95033 309.29691 134.86133 318.56641 C 139.17583 339.49521 153.8717 355.51161 173.58008 360.81641 C 180.79118 362.75721 197.44708 362.78646 204.89258 360.84766 C 225.70548 355.42816 238.36133 336.35616 238.36133 310.41016 C 238.36133 280.46326 222.75479 257.68216 198.26758 251.91016 C 194.48378 251.01816 189.3247 250.52141 184.17383 250.44141 z "
     id="path2453" />
</svg>
