<?xml version="1.0" encoding="UTF-8" standalone="no"?>
<!-- Created with Inkscape (http://www.inkscape.org/) -->

<svg
   xmlns:dc="http://purl.org/dc/elements/1.1/"
   xmlns:cc="http://creativecommons.org/ns#"
   xmlns:rdf="http://www.w3.org/1999/02/22-rdf-syntax-ns#"
   xmlns:svg="http://www.w3.org/2000/svg"
   xmlns="http://www.w3.org/2000/svg"
   xmlns:sodipodi="http://sodipodi.sourceforge.net/DTD/sodipodi-0.dtd"
   xmlns:inkscape="http://www.inkscape.org/namespaces/inkscape"
   width="151.15115mm"
   height="151.26588mm"
   viewBox="0 0 151.15115 151.26588"
   version="1.1"
   id="svg6251"
   sodipodi:docname="nsa.svg"
   inkscape:version="0.92.3 (2405546, 2018-03-11)">
  <defs
     id="defs6245" />
  <sodipodi:namedview
     id="base"
     pagecolor="#ffffff"
     bordercolor="#666666"
     borderopacity="1.0"
     inkscape:pageopacity="0.0"
     inkscape:pageshadow="2"
     inkscape:zoom="0.7"
     inkscape:cx="1137.3184"
     inkscape:cy="91.998208"
     inkscape:document-units="mm"
     inkscape:current-layer="layer1"
     showgrid="false"
     inkscape:window-width="3440"
     inkscape:window-height="1377"
     inkscape:window-x="-8"
     inkscape:window-y="-8"
     inkscape:window-maximized="1"
     fit-margin-top="0"
     fit-margin-left="0"
     fit-margin-right="0"
     fit-margin-bottom="0" />
  <metadata
     id="metadata6248">
    <rdf:RDF>
      <cc:Work
         rdf:about="">
        <dc:format>image/svg+xml</dc:format>
        <dc:type
           rdf:resource="http://purl.org/dc/dcmitype/StillImage" />
        <dc:title></dc:title>
      </cc:Work>
    </rdf:RDF>
  </metadata>
  <g
     inkscape:label="Layer 1"
     inkscape:groupmode="layer"
     id="layer1"
     transform="translate(-10.175924,-9.9353292)">
    <path
       style="fill:#000000;stroke-width:0.26458332"
       d="m 79.160765,160.93337 c -17.54182,-1.55358 -34.019906,-9.22012 -46.561047,-21.66283 -6.180965,-6.13245 -10.545388,-12.14639 -14.430646,-19.88467 -5.008784,-9.976 -7.525106,-19.936056 -7.944179,-31.444496 -0.9930148,-27.26984 13.179241,-53.21557 36.814243,-67.39735 8.369858,-5.022184 17.701029,-8.347275 27.781249,-9.899628 4.89809,-0.7543078 13.60863,-0.9393528 18.69685,-0.397194 35.466965,3.77906 63.061645,31.008242 67.475415,66.581672 0.44782,3.60926 0.44532,13.88327 -0.004,17.4625 -2.18075,17.362106 -9.54436,32.509346 -21.7402,44.720516 -3.92202,3.92696 -7.09634,6.53076 -11.77573,9.65929 -3.743,2.50249 -11.41173,6.40803 -15.57339,7.93123 -10.08778,3.69222 -22.062965,5.27642 -32.738315,4.33096 z m 18.12924,-1.0026 c 16.109085,-2.6134 30.347875,-9.85172 41.688695,-21.19254 11.37573,-11.37572 18.53074,-25.47546 21.22385,-41.823926 0.5097,-3.09412 0.58462,-4.54931 0.58462,-11.35417 0,-6.80487 -0.0749,-8.26006 -0.58462,-11.35418 -2.69311,-16.34847 -9.84812,-30.44821 -21.22385,-41.82394 C 127.648,21.051314 113.2283,13.747 97.069015,11.152626 c -3.24141,-0.52041 -4.71166,-0.598499 -11.26842,-0.598499 -6.55677,0 -8.02701,0.07809 -11.26843,0.598499 -16.159274,2.594374 -30.578976,9.898688 -41.909679,21.229388 -11.330703,11.33071 -18.635018,25.75041 -21.229392,41.90969 -0.52041,3.24141 -0.598499,4.71166 -0.598499,11.26843 0,6.55676 0.07809,8.02701 0.598499,11.26842 4.123485,25.683466 20.354688,46.957996 43.848125,57.472536 7.312786,3.27285 14.539406,5.15655 23.944796,6.24149 0.50931,0.0588 4.02166,0.0699 7.8052,0.0249 5.41979,-0.0646 7.60462,-0.19962 10.29879,-0.6367 z m -8.40511,-4.17859 c -0.35223,-0.0908 -0.44504,-0.28427 -0.33434,-0.69691 0.0843,-0.31415 0.15485,-0.68698 0.15684,-0.8285 0.002,-0.14151 0.19352,0.0138 0.42563,0.34521 0.33202,0.47402 0.62824,0.58531 1.38906,0.52189 0.87963,-0.0733 0.97459,-0.15901 1.05049,-0.94774 0.0768,-0.79766 -0.009,-0.90816 -1.07478,-1.37946 -1.537,-0.67989 -2.15721,-1.4087 -2.15721,-2.53496 0,-1.24113 0.79412,-1.99279 2.25901,-2.13826 1.49928,-0.14888 2.02029,0.17719 1.61827,1.0128 -0.16282,0.33843 -0.3041,0.47069 -0.31395,0.29391 -0.0565,-1.01442 -2.39916,-0.87618 -2.39916,0.14158 0,0.60246 0.57648,1.13314 2.01789,1.85754 1.14449,0.57517 1.42169,0.97792 1.42169,2.0655 0,1.7547 -1.92306,2.8383 -4.05944,2.2874 z m -5.46555,-3.78164 v -3.70417 h 1.98437 c 1.5875,0 1.98438,0.0794 1.98438,0.39688 0,0.29398 -0.30869,0.39687 -1.19063,0.39687 h -1.19062 v 1.21727 1.21727 l 1.19062,-0.0947 c 0.92867,-0.0739 1.19063,-0.007 1.19063,0.30599 0,0.31253 -0.26196,0.37985 -1.19063,0.30599 l -1.19062,-0.0947 v 1.50849 1.50849 l 1.19062,-0.0947 c 0.99533,-0.0792 1.19063,-0.0184 1.19063,0.37023 0,0.40219 -0.26779,0.46493 -1.98438,0.46493 h -1.98437 z m -4.06058,3.22109 c -0.68839,-0.0788 -0.74079,-0.15854 -0.60822,-0.92604 0.0798,-0.46191 0.22577,-1.94117 0.3244,-3.28724 l 0.17932,-2.44739 h -0.96017 c -0.67709,0 -0.96017,-0.11701 -0.96017,-0.39688 0,-0.43546 0.95548,-0.47773 3.83646,-0.16972 1.15744,0.12375 1.5875,0.27698 1.5875,0.56566 0,0.29444 -0.24767,0.3746 -0.96615,0.3127 l -0.96614,-0.0832 -0.18867,2.51649 c -0.28007,3.73561 -0.37266,4.01927 -1.27816,3.91565 z m -4.47223,-0.50018 c -0.53644,-0.0813 -0.72856,-0.26201 -0.73122,-0.68796 -0.006,-1.00681 -0.30377,-1.74684 -0.75256,-1.87214 -1.87301,-0.52295 -2.02128,-0.4886 -2.63961,0.61158 -0.39304,0.69931 -0.72363,1.00527 -0.97993,0.90692 -0.21273,-0.0816 -0.38679,-0.19873 -0.38679,-0.26021 0,-0.41675 4.31907,-6.44618 4.61761,-6.44618 0.45836,0 0.51153,0.17451 1.20924,3.96875 0.30773,1.67349 0.61888,3.25107 0.69145,3.50573 0.0726,0.25466 0.0346,0.44518 -0.0843,0.42338 -0.11894,-0.0218 -0.54368,-0.0892 -0.94387,-0.14987 z m -1.28315,-3.84539 c -0.0145,-0.32742 -0.10624,-0.88058 -0.20386,-1.22924 -0.1717,-0.61322 -0.20083,-0.59867 -0.89162,0.44517 -0.63351,0.95731 -0.66276,1.09259 -0.25915,1.19855 1.06549,0.27974 1.38111,0.18317 1.35463,-0.41448 z m 24.64894,3.02227 c -1.15036,-0.61695 -1.8684,-1.95757 -1.8684,-3.48843 0,-1.83971 1.09374,-3.14708 3.10938,-3.71673 2.930425,-0.82818 5.311355,1.08671 5.027265,4.04323 -0.27003,2.81033 -3.69882,4.53993 -6.268245,3.16193 z m 3.963765,-0.98381 c 1.13523,-1.20839 0.63297,-4.64228 -0.79042,-5.40405 -0.80924,-0.43309 -1.983085,-0.31758 -2.598425,0.25569 -1.10547,1.02991 -0.9948,3.57819 0.22261,5.12588 0.75587,0.96093 2.274475,0.97171 3.166235,0.0225 z m -36.457685,-0.30695 c -0.32742,-0.0631 -0.59407,-0.19568 -0.59256,-0.2947 0.002,-0.099 0.41699,-1.54926 0.92329,-3.22275 0.5063,-1.67348 0.92179,-3.06707 0.9233,-3.09686 0.002,-0.0298 -0.41398,-0.13233 -0.9233,-0.22788 -0.53037,-0.0995 -0.92604,-0.33072 -0.92604,-0.54116 0,-0.49793 0.19863,-0.47476 2.92442,0.34119 1.54611,0.46283 2.36725,0.83988 2.36725,1.08702 0,0.28005 -0.18783,0.33125 -0.72268,0.19702 -0.39746,-0.0998 -0.83271,-0.20197 -0.96721,-0.22713 -0.13449,-0.0252 -0.66239,1.35325 -1.17311,3.06312 -0.51072,1.70987 -0.99821,3.09264 -1.08331,3.07282 -0.0851,-0.0198 -0.42263,-0.0876 -0.75005,-0.15069 z m 41.081785,-0.39035 c -1.83469,-5.14411 -2.23589,-6.42296 -2.0639,-6.57876 0.24987,-0.22636 3.1652,-1.31084 3.52381,-1.31084 0.14007,0 0.25466,0.15975 0.25466,0.355 0,0.19525 -0.47125,0.49619 -1.04722,0.66875 -1.32595,0.39727 -1.43814,0.59617 -0.96922,1.71845 l 0.38164,0.9134 1.1996,-0.43137 c 1.17981,-0.42426 1.71112,-0.35075 1.37663,0.19046 -0.0934,0.15119 -0.64114,0.41609 -1.21712,0.58865 -0.57597,0.17257 -1.04723,0.39534 -1.04723,0.49504 0,0.0997 0.23844,0.8743 0.52986,1.72133 0.29141,0.84702 0.49977,1.56524 0.46302,1.59605 -0.37491,0.31421 -1.28155,0.36257 -1.38453,0.0738 z M 59.172695,150.4035 c -1.118056,-0.68176 -1.22853,-0.92874 -0.649706,-1.45257 0.465256,-0.42105 0.500216,-0.40846 0.662606,0.23858 0.18251,0.72715 1.20156,1.28361 1.87644,1.02463 0.85892,-0.32959 0.7669,-1.37414 -0.23425,-2.65916 -0.526,-0.67514 -0.95636,-1.45203 -0.95636,-1.72641 0,-0.71221 0.69838,-1.9669 1.20248,-2.16034 0.93454,-0.35862 2.21868,-0.15482 2.94136,0.4668 0.64898,0.55823 0.69057,0.6832 0.35993,1.08159 -0.34816,0.41951 -0.38793,0.41235 -0.57899,-0.10413 -0.29051,-0.78533 -1.40517,-1.25907 -1.93257,-0.82137 -0.57572,0.47781 -0.50157,1.17238 0.21744,2.03672 1.46028,1.75545 1.5728,2.69471 0.45654,3.81097 -0.92571,0.92571 -2.12602,1.02013 -3.36492,0.26469 z m 55.107615,-2.62079 c -0.49045,-5.42515 -0.50714,-6.31078 -0.12169,-6.45869 0.23187,-0.089 1.53237,0.88213 3.35965,2.50871 l 2.98133,2.65387 -0.83192,0.40291 c -0.80889,0.39176 -0.85443,0.38039 -1.64557,-0.41075 l -0.81366,-0.81366 -1.13415,0.55101 -1.13416,0.55102 0.14665,1.23818 c 0.1129,0.95329 0.0553,1.27322 -0.25012,1.39044 -0.31953,0.12262 -0.42784,-0.19141 -0.55636,-1.61304 z m 2.21195,-2.67895 c 0,-0.24627 -1.645,-1.63058 -1.77873,-1.49685 -0.0413,0.0413 2.6e-4,0.62536 0.0925,1.29792 l 0.16761,1.22284 0.75929,-0.39265 c 0.41762,-0.21596 0.7593,-0.50003 0.7593,-0.63126 z m -64.810631,1.28236 c -0.357048,-0.14256 -1.27499,-0.61726 -2.039877,-1.05489 l -1.3907,-0.79568 0.748728,-1.24344 c 0.4118,-0.68389 1.248209,-2.11094 1.858685,-3.17122 l 1.109959,-1.92778 1.504106,0.83286 c 2.273186,1.25872 3.223897,2.36492 3.223897,3.75114 0,2.62174 -2.671797,4.54456 -5.014798,3.60901 z m 2.065073,-1.43456 c 1.071776,-0.90184 1.74811,-2.68169 1.383471,-3.64076 -0.288425,-0.75862 -1.864238,-1.89598 -2.176309,-1.57078 -0.101325,0.10559 -0.798906,1.26036 -1.550185,2.56616 l -1.365962,2.37417 0.580541,0.4701 c 0.842756,0.68242 2.182272,0.59726 3.128444,-0.19889 z m 66.119978,-2.28538 c -1.95335,-4.12611 -1.82557,-4.38143 1.2918,-2.58109 1.24007,0.71616 2.36576,1.30212 2.50152,1.30212 0.23877,0 0.21291,-0.32188 -0.30724,-3.82454 -0.17395,-1.17133 -0.15065,-1.6285 0.0908,-1.78188 0.17862,-0.11347 0.38429,-0.19965 0.45705,-0.19152 0.0728,0.008 1.17201,1.22671 2.44277,2.70793 l 2.31047,2.69313 -0.56458,0.47172 c -0.31053,0.25945 -0.65165,0.43804 -0.75805,0.39688 -0.1064,-0.0412 -0.86228,-0.89366 -1.67974,-1.89443 -0.81745,-1.00077 -1.48538,-1.65561 -1.48428,-1.4552 0.002,0.40595 0.45557,3.40254 0.68557,4.53155 0.0815,0.40019 0.0334,0.72761 -0.10694,0.72761 -0.14034,0 -1.18659,-0.53087 -2.325,-1.17971 -1.1384,-0.64884 -2.1157,-1.13384 -2.17175,-1.07778 -0.0561,0.0561 0.33708,0.93736 0.87365,1.95845 0.86713,1.65016 1.0105,2.42345 0.44717,2.41198 -0.10056,-0.002 -0.86699,-1.4489 -1.7032,-3.21522 z m -74.548032,-0.24469 c -0.799983,-0.57119 -1.491416,-1.14829 -1.53652,-1.28243 -0.06582,-0.19574 3.088465,-4.74288 3.937553,-5.67629 0.342236,-0.37623 3.428923,2.04312 3.160599,2.47727 -0.175554,0.28406 -0.396899,0.21181 -1.059641,-0.34585 -0.46075,-0.38769 -0.925266,-0.7049 -1.032256,-0.7049 -0.106989,0 -0.473281,0.37704 -0.813985,0.83787 l -0.619458,0.83786 0.612031,0.4956 c 0.336619,0.27257 0.801346,0.60249 1.032725,0.73315 0.320696,0.1811 0.347397,0.31163 0.112342,0.54916 -0.236141,0.23863 -0.523566,0.14745 -1.227405,-0.3894 l -0.919059,-0.701 -0.855012,1.07954 c -0.470255,0.59375 -0.810892,1.11523 -0.756968,1.15884 0.05392,0.0436 0.547309,0.37842 1.096415,0.74402 0.770303,0.51287 0.92125,0.72872 0.660763,0.94491 -0.249823,0.20733 -0.715839,0.0101 -1.792124,-0.75835 z m 34.264237,-0.54868 c -12.30672,-1.3892 -23.892819,-6.79615 -32.772736,-15.29424 -9.106844,-8.71526 -14.663835,-19.15761 -16.970714,-31.890316 -0.591108,-3.26259 -0.811647,-11.1934 -0.416329,-14.97159 1.496935,-14.30672 8.450628,-27.68718 19.20353,-36.9519 6.825191,-5.8806 14.507269,-9.9156 23.078119,-12.12177 4.73086,-1.21774 8.75154,-1.7037 14.09584,-1.7037 5.34429,0 9.36498,0.48596 14.09583,1.7037 22.940645,5.905 39.813935,25.48877 42.281655,49.07367 0.39532,3.77819 0.17478,11.709 -0.41633,14.97159 -2.30687,12.732706 -7.86387,23.175056 -16.97071,31.890316 -9.02897,8.64073 -20.52937,13.94467 -33.225335,15.32338 -3.00505,0.32633 -8.96209,0.31185 -11.98282,-0.0291 z M 57.754761,126.17367 c 0,-0.80037 -0.0893,-1.44111 -0.198438,-1.42388 -0.662032,0.10453 -0.859896,-0.11576 -0.859896,-0.95737 v -0.92605 h 1.719792 1.719796 v 0.92605 c 0,0.74965 -0.1008,0.92604 -0.52917,0.92604 -0.46503,0 -0.52917,0.17639 -0.52917,1.45521 v 1.4552 h 2.91042 2.91042 v -1.4552 c 0,-0.80037 -0.0893,-1.44111 -0.19844,-1.42388 -0.87313,0.13786 -1.12448,-0.0761 -1.12448,-0.95737 0,-0.81139 0.0819,-0.92605 0.66146,-0.92605 0.57956,0 0.66146,-0.11465 0.66146,-0.92604 v -0.92604 h -6.482296 -6.482292 v 0.92604 c 0,0.81139 0.08189,0.92604 0.661459,0.92604 0.579564,0 0.661458,0.11466 0.661458,0.92605 0,0.81139 -0.08189,0.92604 -0.661458,0.92604 -0.62538,0 -0.661459,0.0794 -0.661459,1.45521 v 1.4552 h 2.910417 2.910417 z m 62.870779,0.21912 c 0.85345,-0.5592 1.8838,-2.07525 3.22235,-4.74139 0.81709,-1.62747 1.27891,-2.23982 1.92538,-2.55291 l 0.85045,-0.41189 -0.83302,-0.43077 c -0.6136,-0.3173 -1.12028,-1.0021 -1.92354,-2.59971 -1.46091,-2.90559 -1.83944,-3.45812 -2.15378,-3.14378 -0.14106,0.14106 -0.65914,0.19112 -1.15129,0.11126 -1.00873,-0.16369 -0.98778,-0.23729 -0.54228,1.90558 0.32482,1.56241 0.34396,1.58704 1.36249,1.7526 2.15395,0.35011 2.93765,2.50177 1.45226,3.98716 -0.6508,0.65081 -0.97244,0.78149 -1.71124,0.69523 -0.83855,-0.0979 -0.89776,-0.0582 -0.75608,0.50626 0.33964,1.35323 -1.0454,2.98345 -2.53475,2.98345 -0.29597,0 -0.92101,-0.34211 -1.38897,-0.76023 -0.66192,-0.59142 -0.85084,-0.97329 -0.85084,-1.71979 0,-0.93066 -0.0296,-0.95957 -0.9819,-0.95957 -1.20622,0 -2.35185,-1.17975 -2.35185,-2.4219 0,-1.06981 1.26661,-2.3406 2.33291,-2.3406 0.64611,0 0.78174,-0.10602 0.76156,-0.59531 -0.0135,-0.32742 0.0666,-0.8632 0.17811,-1.19063 0.12298,-0.36124 0.0963,-0.59531 -0.0678,-0.59531 -0.14874,0 -0.34881,0.41783 -0.44462,0.92851 -0.13479,0.7185 -0.33198,0.96558 -0.87188,1.09241 -0.38373,0.0902 -1.05034,0.476 -1.48134,0.85743 -0.85445,0.75618 -0.72662,0.52091 0.70133,-1.29085 1.51278,-1.91938 1.65023,-2.30211 1.11833,-3.1139 l -0.4568,-0.69716 -1.1671,1.28911 c -0.64191,0.70901 -1.38861,1.72329 -1.65933,2.25396 -0.63095,1.23676 -1.14424,1.65298 -1.90541,1.54507 -0.493,-0.0699 -0.63523,-0.28927 -0.74217,-1.14479 -0.10473,-0.83784 -0.24253,-1.05833 -0.66146,-1.05833 -0.43441,0 -0.54385,0.20372 -0.61117,1.13777 l -0.082,1.13778 -1.59502,-0.0576 c -1.37125,-0.0495 -1.626,-0.13908 -1.81595,-0.63867 -0.28223,-0.74233 -0.76349,-0.91786 -2.51645,-0.91786 -0.77988,0 -1.497645,-0.12893 -1.595035,-0.28651 -0.12281,-0.19871 0.432495,-0.25952 1.812105,-0.19844 1.99516,0.0883 2.45248,-0.11759 0.97958,-0.44109 -0.43323,-0.0952 -0.84445,-0.26485 -0.91382,-0.3771 -0.31237,-0.50541 -3.098715,-13.4865 -3.847125,-17.923096 -0.72353,-4.28903 -0.92956,-4.88948 -2.03081,-5.91847 l -0.98114,-0.91675 0.71144,0.8802 c 0.65128,0.80575 0.89433,1.36876 0.5909,1.36876 -0.0663,0 -0.55916,-0.29766 -1.09525,-0.66146 -1.49512,-1.01462 -2.1138,-0.87914 -3.92682,0.8599 -0.87234,0.83674 -1.38181,1.27385 -1.13215,0.97135 0.41035,-0.49719 0.45393,-1.46886 0.45393,-10.12031 v -9.57032 h 1.19063 1.19062 v 8.24821 8.2482 l 0.64795,-0.60871 c 0.45754,-0.42984 0.85356,-0.56941 1.34765,-0.47496 0.64882,0.12403 0.68488,0.0832 0.49584,-0.56188 -0.11212,-0.38261 -0.24605,-3.88057 -0.29762,-7.77325 l -0.0938,-7.07761 h 1.19893 1.19893 v 4.61295 c 0,3.02356 0.14704,5.48328 0.42676,7.13894 0.4222,2.49899 0.31374,4.65811 -0.1739,3.46166 -0.11862,-0.29105 -0.22404,-1.07983 -0.23426,-1.75287 -0.0102,-0.67303 -0.0943,-1.60225 -0.18685,-2.06492 l -0.16824,-0.84122 -0.50127,1.11961 c -0.47263,1.05565 -0.47846,1.24057 -0.10202,3.23642 0.42142,2.23438 0.63667,2.54136 1.78653,2.54788 1.00835,0.006 1.29473,-0.65283 0.84196,-1.93613 -0.2038,-0.57763 -0.5081,-2.45592 -0.67623,-4.17398 -0.16812,-1.71806 -0.39227,-3.07023 -0.49812,-3.00481 -0.10584,0.0654 -0.0685,-0.36934 0.083,-0.96611 0.21105,-0.83148 0.3297,-0.98806 0.50769,-0.67 0.56117,1.00275 3.667885,0.61283 4.100535,-0.51465 0.18861,-0.49148 -2.648355,-6.45735 -3.070675,-6.45735 -0.1371,0 -0.29729,0.38695 -0.35598,0.8599 -0.0587,0.47294 -0.12577,-0.18893 -0.14906,-1.47083 -0.0269,-1.48218 0.0531,-2.27173 0.2198,-2.1687 0.14417,0.0891 0.45836,-0.24948 0.69819,-0.75241 0.310415,-0.65094 0.663025,-0.95982 1.223715,-1.07195 0.43321,-0.0867 1.2668,-0.63668 1.85242,-1.2223 1.05761,-1.05761 1.06367,-1.07519 0.9025,-2.61716 -0.16005,-1.53133 -0.1516,-1.55681 0.62264,-1.87752 1.35139,-0.55976 1.60234,-3.42235 0.41502,-4.73431 -0.61084,-0.67497 -0.52472,-0.94288 0.43952,-1.36728 0.5483,-0.24133 1.05165,-0.76599 1.38907,-1.44786 l 0.52916,-1.06938 1.45521,0.10141 c 1.22643,0.0855 1.69382,-0.0247 2.97293,-0.70051 1.14117,-0.60296 1.73759,-0.76625 2.40391,-0.65812 0.61273,0.0994 1.2341,-0.0337 2.01365,-0.43137 0.6201,-0.31636 1.17628,-0.52637 1.23596,-0.46669 0.0597,0.0597 -0.24226,0.59271 -0.67096,1.18452 -0.50584,0.69827 -1.06378,1.13846 -1.58935,1.25389 -0.44544,0.0978 -0.80989,0.22261 -0.80989,0.27728 0,0.58033 4.34141,9.53771 4.96474,10.24345 0.58513,0.6625 2.00261,0.58938 2.8593,-0.14751 l 0.70978,-0.61054 -0.45372,-1.56077 c -0.58095,-1.99839 -3.36543,-8.97898 -4.3609,-10.9326 -1.64975,-3.23767 -3.47887,-5.18885 -6.01532,-6.41672 -1.05603,-0.51122 -1.48923,-0.56339 -3.61894,-0.43588 -3.63686,0.21775 -7.01383,1.76497 -8.643685,3.96027 -0.9776,1.31676 -1.03859,3.75249 -0.16358,6.53253 1.011395,3.21328 1.086325,3.85676 0.59803,5.13533 -0.45181,1.18303 -2.2398,3.09802 -3.97044,4.25245 l -1.02911,0.68646 h 1.62442 c 0.89343,0 1.62467,0.0893 1.62498,0.19844 2.6e-4,0.10914 -1.51266,0.13891 -3.36216,0.0661 l -3.36271,-0.13229 -0.3191,-1.45521 c -0.32882,-1.49954 -0.60726,-2.88007 -1.29179,-6.40499 -0.21783,-1.12165 -0.3958,-2.49087 -0.39551,-3.04271 2.6e-4,-0.55184 -0.19298,-2.05772 -0.4295,-3.3464 -0.53295,-2.90377 -1.30579,-3.9419 -3.36944,-4.526 -2.15686,-0.61049 -4.4924,-0.78468 -5.22522,-0.38971 -0.3624,0.19532 -1.57804,0.34968 -2.83963,0.36056 -2.86524,0.0247 -3.22299,0.37688 -3.2074,3.1572 0.0102,1.81807 0.0253,1.86188 0.40184,1.16797 0.80038,-1.47488 1.7849,-1.59151 3.77942,-0.44775 1.79174,1.02748 1.61097,1.30435 -0.23941,0.36669 -1.13495,-0.57512 -1.54269,-0.66096 -2.20912,-0.46507 l -0.81728,0.24022 0.98001,0.47166 c 0.53902,0.25941 1.13433,0.66905 1.32292,0.9103 0.29835,0.38166 0.2887,0.39642 -0.0743,0.11358 -0.61077,-0.47593 -2.36171,-1.17086 -2.35644,-0.93525 0.002,0.1111 0.68709,0.48972 1.52136,0.84138 2.26353,0.95415 2.78697,1.51132 2.61778,2.78644 -0.0913,0.6881 -0.0559,0.91383 0.10377,0.66146 0.13331,-0.21072 0.24421,-0.64399 0.24644,-0.96282 0.002,-0.31883 0.12311,-0.65328 0.26863,-0.74322 0.55426,-0.34255 -0.0275,1.64386 -0.61992,2.11667 -0.3472,0.27711 -1.17755,2.50985 -2.01714,5.42396 -0.27252,0.94588 -0.70932,2.28533 -0.97066,2.97656 l -0.47517,1.25677 h -2.56936 c -2.21645,0 -2.58889,0.0636 -2.71155,0.46302 -0.0782,0.25466 -0.10548,0.14626 -0.0606,-0.2409 0.0599,-0.51724 -0.0743,-0.77492 -0.5061,-0.97167 -0.32322,-0.14727 -1.00877,-0.63749 -1.52343,-1.08937 -0.87783,-0.77074 -0.92775,-0.7843 -0.80622,-0.21895 l 0.12954,0.60266 -0.54581,-0.62036 c -1.24366,-1.41351 -1.24044,-3.9526 0.0102,-8.05899 0.30736,-1.0092 0.50452,-2.25895 0.4487,-2.84427 -0.11542,-1.21026 0.14912,-1.36735 0.53293,-0.31648 0.2004,0.54867 0.27088,0.60097 0.28663,0.21265 0.0323,-0.79632 -1.24243,-2.43842 -2.5814,-3.32532 -1.67453,-1.10916 -3.47154,-1.58424 -5.97854,-1.58055 -3.834576,0.006 -5.838829,0.86875 -8.319041,3.5825 -2.46855,2.70098 -3.968904,6.53544 -5.054958,12.91895 -0.738147,4.33862 -0.778245,4.11008 0.673553,3.83886 0.664567,-0.12416 1.322075,-0.29605 1.461129,-0.38199 0.747528,-0.462 2.886316,-5.78484 3.425362,-8.52475 l 0.318892,-1.62089 -0.957887,-1.11908 c -1.40231,-1.63828 -1.28012,-2.06339 0.25626,-0.89153 1.420108,1.08317 3.994478,0.77632 5.24301,-0.62494 0.651174,-0.73083 0.856837,-0.71301 1.058817,0.0917 0.322792,1.28611 2.940253,1.22994 4.832283,-0.10368 0.7871,-0.5548 1.1455,-0.68984 1.1455,-0.43162 0,0.2067 -0.13146,0.45706 -0.29214,0.55636 -0.56001,0.34611 -1.28378,2.37319 -1.28955,3.61169 -0.005,0.98673 0.10653,1.30758 0.53171,1.53513 l 0.53753,0.28768 -0.53753,0.68335 c -0.58777,0.74724 -0.72228,2.41824 -0.26363,3.27523 0.15962,0.29825 0.55224,0.51177 0.94104,0.51177 0.63658,0 0.64828,0.0269 0.25528,0.58804 -0.5344,0.76296 -0.52245,1.80796 0.034,2.97486 0.4762,0.99861 1.1967,1.20736 2.24001,0.649 0.71681,-0.38363 0.9435,-0.0977 0.39929,0.50366 -0.91835,1.01477 -0.0867,2.38388 1.58411,2.60799 l 1.06752,0.14319 0.41754,-1.41827 0.41755,-1.41826 0.0213,3.80962 0.0213,3.80962 -1.19063,2.18423 c -0.65484,1.20133 -1.19062,2.31666 -1.19062,2.47851 0,0.16186 0.40818,0.48894 0.90707,0.72684 0.79432,0.37878 1.01631,0.38687 1.78593,0.0651 0.48338,-0.2021 0.96817,-0.33914 1.07731,-0.30454 0.10911,0.0346 0.19841,-1.96115 0.19841,-4.43501 v -4.49792 h 1.05003 1.05003 l 0.0744,7.11873 c 0.041,3.9153 -0.006,7.06873 -0.10494,7.00762 -0.19988,-0.12381 -0.35484,0.34238 -0.60324,1.8148 -0.19001,1.12629 -0.15384,1.14799 0.95656,0.57378 0.46146,-0.23863 1.08107,-0.35014 1.44207,-0.25954 l 0.63296,0.15886 v -8.20712 -8.20713 h 1.05833 1.05834 v 9.57691 9.5769 l -0.8725,-0.84565 c -0.98971,-0.95927 -2.30521,-1.13193 -3.30243,-0.43345 -0.32367,0.22671 -0.68551,0.35225 -0.80407,0.27897 -0.3587,-0.22169 -1.01043,1.1849 -1.45737,3.14528 -0.61913,2.71569 -0.88281,4.19961 -1.76305,9.921876 -1.26667,8.23431 -1.69042,9.97492 -2.48232,10.19661 -1.46038,0.40882 -2.05588,0.78201 -2.56667,1.60848 l -0.55309,0.89491 -4.01331,0.002 c -3.121183,10e-4 -4.189764,0.0935 -4.807068,0.41502 l -0.79375,0.4134 0.705884,-0.74576 c 1.052489,-1.11194 2.004454,-3.43044 2.777413,-6.76438 0.664211,-2.86489 1.339741,-4.63932 2.094241,-5.50103 0.36684,-0.41898 0.65827,-4.19219 1.17422,-15.203256 0.37226,-7.94422 0.34579,-9.65729 -0.1492,-9.65729 -0.2249,0 -0.69077,-0.28186 -1.03527,-0.62636 l -0.62636,-0.62637 -0.16145,2.67689 c -0.2194,3.63771 -0.67653,15.02429 -0.67758,16.87793 -8e-4,1.17903 -0.13276,1.66151 -0.615711,2.248956 -0.520364,0.63297 -0.722374,1.52048 -1.314469,5.77499 -0.68966,4.95559 -1.326465,7.80521 -1.744226,7.80521 -0.117406,0 -0.06721,-1.10133 0.111543,-2.4474 0.429303,-3.23277 0.6794,-5.87106 0.543486,-5.73325 -0.06013,0.061 -0.307366,0.88476 -0.549404,1.83065 -0.242036,0.94588 -0.720913,2.20362 -1.06417,2.79498 -0.393367,0.67768 -0.682432,1.70478 -0.781873,2.77812 -0.177639,1.91741 -0.592836,4.52277 -0.640329,4.01805 -0.04999,-0.53126 -2.250628,-0.41424 -2.956322,0.1572 -0.795483,0.64414 -0.806251,1.98352 -0.02225,2.76791 0.566562,0.56685 0.763619,0.58273 8.312324,0.66989 4.252601,0.0491 8.178491,0.15143 8.724191,0.22739 0.54571,0.076 0.99217,0.0358 0.99214,-0.0893 -5e-5,-0.2601 4.16913,-0.24754 4.43002,0.0133 0.0943,0.0943 0.19492,0.33129 0.22359,0.52663 0.0287,0.19535 0.25507,0.66491 0.50312,1.04348 0.43514,0.66411 0.48307,0.67492 1.36283,0.30733 0.89071,-0.37216 0.92906,-0.3617 1.65603,0.45193 0.71073,0.79544 0.78231,0.81713 1.59131,0.48203 0.75676,-0.31346 0.92306,-0.29482 1.55939,0.17484 0.62497,0.46127 0.82582,0.48664 1.63834,0.20694 0.82066,-0.28251 1.06905,-0.24712 2.18281,0.31093 l 1.25677,0.6297 1.2638,-0.64041 c 1.14367,-0.57954 1.34367,-0.60684 2.104,-0.28714 0.75335,0.31676 0.90969,0.29861 1.51251,-0.17557 0.60242,-0.47387 0.77024,-0.49344 1.61407,-0.18831 0.91169,0.32967 0.96263,0.31386 1.5958,-0.49517 0.64001,-0.81779 0.67344,-0.82762 1.55777,-0.45812 0.88282,0.36886 0.91689,0.35909 1.47342,-0.42248 0.31334,-0.44004 0.4976,-0.98797 0.40948,-1.21761 -0.1331,-0.34685 -0.0109,-0.38952 0.72182,-0.25206 0.48512,0.091 0.95515,0.0924 1.04449,0.003 0.22226,-0.22225 9.359665,-0.19978 9.721605,0.0239 0.15945,0.0986 0.49257,0.092 0.74027,-0.0146 1.3194,-0.56764 2.25881,-0.17687 2.98182,1.24034 1.14295,2.24038 3.8802,4.55472 5.89074,4.98062 1.00864,0.21367 2.61291,-0.10369 3.51628,-0.6956 z m -0.73052,-2.47196 c 0.48069,-0.48069 0.83046,-1.13405 0.88025,-1.6443 0.0713,-0.73104 0.20853,-0.87222 1.00447,-1.03372 1.01832,-0.2066 2.12085,-1.29589 2.12085,-2.09535 0,-0.34394 0.18163,-0.51442 0.54807,-0.51442 0.49824,0 0.51027,0.0378 0.13229,0.41578 -0.22867,0.22867 -0.41577,0.49798 -0.41577,0.59846 0,0.25453 -4.62458,5.07118 -4.86895,5.07118 -0.10936,0 0.16009,-0.35894 0.59879,-0.79763 z m -9.05212,-3.61701 c -0.0997,-0.0997 -0.6851,-0.26341 -1.30086,-0.36376 l -1.11957,-0.18245 1.09208,-0.0331 c 0.68216,-0.0207 1.21572,0.11586 1.42146,0.36376 0.32705,0.39407 0.25416,0.56284 -0.0931,0.21557 z m -39.186585,-0.34786 c -0.49566,-0.9359 -0.34903,-2.9101 0.21619,-2.91078 0.1991,-2.4e-4 0.27231,0.4732 0.21481,1.38906 l -0.0872,1.38943 3.65911,-0.0293 c 4.06769,-0.0325 3.39547,0.10705 -1.06288,0.22069 -1.57846,0.0402 -2.90145,0.0136 -2.93999,-0.0591 z m -21.376034,-0.28578 c -0.254661,-0.14832 -0.46302,-0.39741 -0.46302,-0.55351 0,-0.17005 0.17518,-0.13827 0.436988,0.0793 0.337968,0.28084 2.121585,0.39494 7.871354,0.50353 l 7.434362,0.1404 -7.408329,0.05 c -4.646383,0.0314 -7.580956,-0.0506 -7.871355,-0.2197 z m 17.734074,0.0917 c 0.62231,-0.0559 1.57481,-0.0551 2.11667,0.002 0.54186,0.0568 0.0327,0.10258 -1.13147,0.10162 -1.16417,-10e-4 -1.60751,-0.0475 -0.9852,-0.10337 z m 12.2962,0.0397 c 0.17982,-0.17982 10.03814,-0.14818 10.21912,0.0328 0.0669,0.0669 -2.2398,0.12161 -5.12596,0.12161 -2.88616,0 -5.17808,-0.0695 -5.09316,-0.15441 z m 10.71556,-0.19796 c -0.10914,-0.26656 -0.19844,-0.82605 -0.19844,-1.24331 0,-0.90086 1.13701,-1.87967 2.91023,-2.5053 1.68784,-0.5955 1.97744,-0.0577 0.36273,0.67363 -2.16806,0.98193 -2.70321,1.47495 -2.79438,2.57439 -0.0611,0.73657 -0.13179,0.86292 -0.28014,0.50059 z m 2.25861,0.15656 c 0.84206,-0.0527 2.15175,-0.0522 2.91042,10e-4 0.75867,0.0533 0.0697,0.0964 -1.53101,0.0958 -1.60073,-5.3e-4 -2.22146,-0.0442 -1.37941,-0.0968 z m 6.60493,10e-4 c 0.691225,-0.0545 1.822325,-0.0545 2.513545,0 0.69122,0.0545 0.12568,0.0991 -1.25677,0.0991 -1.382455,0 -1.948005,-0.0446 -1.256775,-0.0991 z m 5.164115,0.003 c 0.47555,-0.0589 1.18993,-0.0577 1.5875,0.003 0.39758,0.0604 0.008,0.10855 -0.86463,0.10707 -0.87313,-0.002 -1.19842,-0.0509 -0.72287,-0.10977 z m -25.168865,-0.90393 c 0.13469,-0.83856 0.0357,-1.09329 -0.76389,-1.9658 -0.88921,-0.9703 -0.94564,-0.99122 -1.76166,-0.65321 -0.66011,0.27342 -0.99139,0.28158 -1.52687,0.0376 -0.56731,-0.25849 -0.76817,-0.23527 -1.1787,0.13626 -0.4349,0.3936 -0.49486,0.39765 -0.49486,0.0335 0,-0.57973 1.50518,-1.78432 2.22956,-1.78432 0.7003,0 2.46224,1.21008 3.28508,2.25616 0.60118,0.76427 0.73414,1.84053 0.30964,2.50634 -0.17467,0.27396 -0.20511,0.0985 -0.0983,-0.56652 z m 18.10512,0.2358 c -0.0102,-0.40018 0.10046,-0.7276 0.24598,-0.7276 0.31055,0 0.31055,0.20336 0,0.92604 -0.20149,0.46891 -0.22951,0.44631 -0.24598,-0.19844 z m -32.39773,-0.68311 c -0.18064,-0.73662 -0.11407,-0.99053 0.40492,-1.54446 0.86173,-0.91975 2.16603,-1.41045 3.74902,-1.41045 1.62128,0 1.40426,0.36503 -0.4821,0.81093 -0.7276,0.17199 -1.62057,0.4416 -1.98437,0.59914 -0.36381,0.15754 -0.78052,0.29168 -0.92605,0.29808 -0.14552,0.006 -0.32773,0.48789 -0.40491,1.06998 l -0.14034,1.05833 z m -12.335451,0.38478 c 0,-0.0549 0.208359,-0.2633 0.463021,-0.46302 0.419645,-0.32911 0.429003,-0.31975 0.0999,0.0999 -0.345644,0.44073 -0.562917,0.58089 -0.562917,0.36313 z m 58.220466,-0.71651 c 0.16243,-0.3035 0.35992,-0.48723 0.43887,-0.40828 0.21808,0.21809 -0.13125,0.96011 -0.45201,0.96011 -0.19567,0 -0.19165,-0.16919 0.0131,-0.55183 z m -7.33727,-0.17577 c -0.0906,-0.25466 -0.20528,-0.53985 -0.25476,-0.63374 -0.0495,-0.0939 0.0582,-0.22729 0.23923,-0.29644 0.21197,-0.081 0.33924,0.14472 0.35738,0.63373 0.032,0.86211 -0.0998,0.97644 -0.34185,0.29645 z m -31.370175,-1.69658 c -0.7149,-0.26111 -0.96224,-0.83915 -0.48522,-1.13397 0.46614,-0.28809 1.6097,0.35538 1.6097,0.90577 0,0.59439 -0.0783,0.61029 -1.12448,0.2282 z m 24.69329,-0.0271 c -1.1276,-0.57532 -0.93309,-0.91071 0.49895,-0.86032 1.56185,0.055 1.92548,0.30026 1.2151,0.8197 -0.62404,0.45632 -0.88709,0.46255 -1.71405,0.0406 z m -27.53756,-1.80506 c -0.80037,-0.0854 -1.14295,-0.17472 -0.7613,-0.19844 0.90877,-0.0565 2.58003,-1.87057 3.46257,-3.75847 0.799,-1.70922 1.41268,-4.08433 1.80872,-7.00028 0.54919,-4.043566 1.57135,-10.005906 1.74211,-10.161876 0.0945,-0.0863 0.0979,0.75671 0.008,1.8733 -0.0931,1.15205 -0.0595,2.06758 0.0778,2.11667 0.4461,0.15947 2.99383,5.354496 2.67763,5.459896 -0.54816,0.18272 -1.15646,-0.58471 -2.12929,-2.68631 l -0.96069,-2.075406 -0.69752,4.192066 c -1.05139,6.31883 -1.13456,8.25115 -0.43743,10.16311 l 0.57231,1.56959 h 1.33156 c 1.7003,0 1.53144,0.15021 -0.38012,0.33812 l -1.49119,0.14659 -0.46791,-1.03763 c -0.78007,-1.72987 -1.01858,-1.75174 -2.01256,-0.18446 l -0.88714,1.39884 z m 21.49797,-1.16761 c 0.003,-0.58208 0.0571,-0.78905 0.1204,-0.45993 0.0633,0.32912 0.0609,0.80537 -0.005,1.05833 -0.0662,0.25297 -0.118,-0.0163 -0.11507,-0.5984 z m 3.35926,0.35052 c 0.71457,-0.76699 0.93277,-2.09018 0.5947,-3.60623 -0.15235,-0.68321 -0.70261,-3.07747 -1.2228,-5.32058 -0.52019,-2.2431 -0.9552,-4.38623 -0.96669,-4.762496 -0.0151,-0.49471 -0.16315,-0.2766 -0.53471,0.787716 -0.55529,1.59061 -1.90225,3.42469 -2.25819,3.07484 -0.21142,-0.2078 1.90881,-4.634386 2.38565,-4.980726 0.12832,-0.0932 0.15269,-0.59922 0.0542,-1.12448 -0.10182,-0.54273 -0.0726,-0.95502 0.0678,-0.95502 0.25872,0 1.56926,5.348036 2.29181,9.352356 0.74255,4.11519 2.09984,6.78615 3.8992,7.67314 0.67533,0.33289 0.74311,0.42626 0.3129,0.43098 -0.30205,0.003 -0.82882,-0.29163 -1.1706,-0.65543 -0.37056,-0.39444 -0.91501,-0.66146 -1.34874,-0.66146 -0.40003,0 -1.08107,0.29765 -1.51342,0.66146 -0.96767,0.81423 -1.31683,0.865 -0.59102,0.0859 z m 5.784825,0.1302 c 0.191,-0.0764 0.4192,-0.067 0.50712,0.0209 0.0879,0.0879 -0.0684,0.15045 -0.34726,0.13896 -0.30823,-0.0127 -0.37092,-0.0754 -0.15986,-0.15985 z m -22.610565,-2.79686 c -0.8582,-0.97058 -1.43285,-2.01297 -1.96934,-3.57231 -0.50882,-1.47893 -0.67657,-3.24377 -0.30746,-3.23491 0.20526,0.005 3.03021,7.17353 2.88436,7.31938 -0.0451,0.0452 -0.31856,-0.18532 -0.60756,-0.51216 z m 12.91236,-2.04948 c 0,-0.3638 0.0601,-0.51263 0.13346,-0.33073 0.0734,0.1819 0.0734,0.47956 0,0.66146 -0.0734,0.1819 -0.13346,0.0331 -0.13346,-0.33073 z m 0.75294,0.10715 c 0.001,-0.31332 1.51122,-4.35336 1.69621,-4.53835 0.0784,-0.0784 0.21843,0.0555 0.31128,0.2975 0.21867,0.56984 -0.8523,3.43399 -1.50487,4.02456 -0.27697,0.25065 -0.50315,0.34799 -0.50262,0.21629 z m -21.43221,-1.94433 c 0,-0.13732 0.72559,-1.77443 1.61243,-3.63802 0.88683,-1.86359 2.04148,-4.698026 2.56588,-6.298756 1.4246,-4.34859 1.36492,-2.49056 -0.0727,2.26221 -1.30284,4.307296 -1.61534,5.049226 -2.86406,6.799766 -0.76746,1.07588 -1.24159,1.40994 -1.24159,0.8748 z m 20.41469,-0.80866 c 0,-0.3638 0.0601,-0.51263 0.13345,-0.33072 0.0734,0.1819 0.0734,0.47955 0,0.66145 -0.0734,0.18191 -0.13345,0.0331 -0.13345,-0.33073 z m -11.61138,-1.5875 c 0,-0.65484 0.0516,-0.92273 0.11467,-0.59531 0.0631,0.32742 0.0631,0.86321 0,1.19063 -0.0631,0.32742 -0.11467,0.0595 -0.11467,-0.59532 z m 18.59222,-1.65295 c -1.17428,-2.51288 -3.31845,-8.387606 -3.31845,-9.092076 0,-1.02828 0.54511,-0.0284 1.71085,3.13826 0.70982,1.92816 1.68902,4.565176 2.176,5.860046 0.48699,1.29487 0.82448,2.41526 0.74998,2.48975 -0.0745,0.0745 -0.66777,-1.00369 -1.31838,-2.39598 z m -18.11423,-2.73472 c 0.0127,-0.308216 0.0754,-0.370916 0.15985,-0.15985 0.0764,0.19099 0.067,0.4192 -0.0209,0.50712 -0.0879,0.0879 -0.15045,-0.0684 -0.13897,-0.34727 z m 0.28547,-1.697736 c 0,-0.3638 0.0601,-0.51263 0.13346,-0.33073 0.0734,0.1819 0.0734,0.47956 0,0.66146 -0.0734,0.1819 -0.13346,0.0331 -0.13346,-0.33073 z m 4.269,-1.58453 c -0.0757,-0.2894 -0.21596,-0.47776 -0.31173,-0.41857 -0.0958,0.0592 -0.70126,-0.41839 -1.34552,-1.0613 -0.64426,-0.64292 -1.26673,-1.16894 -1.38328,-1.16894 -0.11655,0 -0.21191,-4.82203 -0.21191,-10.71562 v -10.71563 l 1.25677,-3e-5 1.25677,-4e-5 v 11.68258 c 0,11.47994 0.009,11.68395 0.52917,11.76134 0.29104,0.0433 0.79706,0.012 1.12448,-0.0696 l 0.59531,-0.14832 v -11.61298 -11.61299 h 1.19063 1.19062 v 10.68376 10.68375 l -1.18599,0.97183 c -0.65229,0.5345 -1.17397,1.05486 -1.15929,1.15635 0.074,0.51137 -0.0757,0.61317 -0.44777,0.30442 -0.2265,-0.18797 -0.39099,-0.23231 -0.36554,-0.0985 0.17897,0.941 -0.49463,1.28895 -0.73272,0.37849 z m 5.52059,-0.79672 c 0,-0.3638 0.0601,-0.51263 0.13345,-0.33073 0.0734,0.1819 0.0734,0.47956 0,0.66146 -0.0734,0.1819 -0.13345,0.0331 -0.13345,-0.33073 z m 3.02055,-0.60764 c -0.1185,-0.40695 -0.14163,-0.81375 -0.0514,-0.90399 0.29616,-0.29616 0.47033,0.12646 0.36767,0.89213 l -0.1008,0.75179 z m -15.14802,-1.8599 c -0.4625,-0.17083 -0.92123,-0.39229 -1.01939,-0.49214 -0.0982,-0.0999 -0.47166,-0.0701 -0.82997,0.0661 -0.77668,0.2953 -2.99966,0.33186 -2.99502,0.0493 0.002,-0.10914 0.82891,-0.53264 1.83803,-0.9411 l 1.83477,-0.74267 1.3219,1.00725 c 1.80934,1.37866 1.75532,1.75714 -0.15032,1.05326 z m 12.08883,-0.14002 c 0.002,-0.0938 0.65792,-0.62515 1.45823,-1.18075 l 1.45509,-1.01016 1.45219,0.71048 c 0.7987,0.39077 1.45219,0.77271 1.45219,0.84875 0,0.076 -0.67489,0.0686 -1.49974,-0.0165 -0.89307,-0.0922 -1.72002,-0.0369 -2.0443,0.13666 -0.70689,0.37832 -2.27771,0.73173 -2.27366,0.51155 z m -14.85355,-5.52839 c -0.32911,-0.41964 -0.31975,-0.429 0.0999,-0.0999 0.44073,0.34565 0.58089,0.56292 0.36312,0.56292 -0.0549,0 -0.2633,-0.20836 -0.46302,-0.46302 z m -5.87298,-6.32565 c -0.23786,-0.23786 0.33051,-0.88425 0.77751,-0.88425 0.19923,0 0.51095,-0.23812 0.6927,-0.52916 0.43705,-0.69983 0.64423,-0.66746 0.79558,0.12428 0.0687,0.3594 0.023,0.5905 -0.10145,0.51355 -0.1245,-0.0769 -0.22636,-0.0329 -0.22636,0.0978 0,0.13075 -0.30326,0.37591 -0.67391,0.54478 -0.77198,0.35174 -1.01928,0.37775 -1.26407,0.13297 z m 31.610985,-2.39122 c -0.19646,-0.0782 -0.630335,-0.73178 -0.964155,-1.45229 -0.34561,-0.74598 -0.66698,-1.15988 -0.74638,-0.96132 -0.0767,0.19179 -0.14702,-0.068 -0.15629,-0.57733 -0.0306,-1.68388 0.33991,-1.63807 1.27066,0.15708 0.488205,0.94161 1.110785,1.83143 1.383525,1.9774 1.0495,0.56168 0.35881,1.31299 -0.78736,0.85646 z m -30.181285,-1.82236 c 0.0127,-0.30823 0.0754,-0.37092 0.15985,-0.15986 0.0764,0.191 0.067,0.4192 -0.0209,0.50712 -0.0879,0.0879 -0.15045,-0.0684 -0.13896,-0.34726 z m -1.87297,-7.18138 c 0,-0.12983 0.18209,-0.46718 0.40465,-0.74965 0.39187,-0.49736 0.40232,-0.49334 0.33073,0.12714 -0.0682,0.59124 -0.73538,1.156 -0.73538,0.62251 z m 30.22388,-2.45387 c 0,-0.50932 0.0545,-0.71768 0.121,-0.46302 0.0665,0.25466 0.0665,0.67138 0,0.92604 -0.0666,0.25466 -0.121,0.0463 -0.121,-0.46302 z m -28.32022,-0.66146 c 0.005,-0.43656 0.0647,-0.58312 0.13178,-0.32569 0.0671,0.25743 0.0627,0.61462 -0.01,0.79375 -0.0725,0.17913 -0.12737,-0.0315 -0.12197,-0.46806 z m -4.65835,-0.53637 c 0.39149,-0.51328 0.76634,-0.87871 0.83299,-0.81206 0.2163,0.21629 -0.82755,1.74531 -1.19152,1.74531 -0.22691,0 -0.0986,-0.33386 0.35853,-0.93325 z m -18.676561,-0.0794 c 0,-0.18513 0.197276,-0.71764 0.438393,-1.18335 0.500891,-0.96747 2.050423,-5.44832 2.327559,-6.7307 0.101848,-0.47128 0.307834,-0.93267 0.45775,-1.02533 0.165695,-0.1024 0.216321,0.0261 0.129114,0.3277 -0.0789,0.27288 -0.407361,1.50818 -0.729904,2.74511 -0.608382,2.33312 -1.502756,4.60392 -2.212236,5.61684 -0.225872,0.32248 -0.410676,0.43485 -0.410676,0.24973 z m 51.350051,-0.46466 c 0.0127,-0.30822 0.0754,-0.37092 0.15985,-0.15985 0.0764,0.19099 0.067,0.4192 -0.0209,0.50712 -0.0879,0.0879 -0.15046,-0.0683 -0.13897,-0.34727 z m 2.691445,-0.85132 c -0.80277,-0.84153 -1.301165,-1.81662 -1.054565,-2.06321 0.490805,-0.49081 2.172505,1.60044 1.986975,2.47087 -0.0829,0.38905 -0.23641,0.32194 -0.93241,-0.40766 z m -20.439415,-0.44955 c 0.18116,-0.21828 0.43012,-0.39687 0.55326,-0.39687 0.12313,0 0.15535,0.17859 0.0716,0.39687 -0.0838,0.21828 -0.33273,0.39688 -0.55326,0.39688 -0.32642,0 -0.33973,-0.0738 -0.0716,-0.39688 z m 5.09638,-0.0504 c 0.246,-0.246 0.52156,-0.37299 0.61236,-0.28219 0.26039,0.2604 -0.13936,0.72946 -0.62168,0.72946 -0.40388,0 -0.40315,-0.0348 0.009,-0.44727 z m 4.70445,-0.98022 c -0.45896,-1.13081 -0.52263,-1.55153 -0.29174,-1.92774 0.27772,-0.45249 0.29124,-0.44962 0.2264,0.0479 -0.0379,0.29104 0.14993,1.10194 0.41747,1.80201 0.67915,1.77719 0.36571,1.84643 -0.35213,0.0778 z m -12.71124,-0.72157 c 0,-0.47505 0.0626,-0.5096 0.40644,-0.22425 0.3401,0.28226 0.54111,0.21197 1.23154,-0.43063 0.86841,-0.80824 0.77768,-0.39376 -0.13597,0.62113 -0.6923,0.76902 -1.50201,0.78721 -1.50201,0.0337 z m 3.36795,0.0516 c -0.1184,-0.45273 -0.0618,-0.4773 0.50493,-0.21909 0.56041,0.25534 0.75516,0.18037 1.59645,-0.61457 l 0.95819,-0.90538 -0.61665,1.12448 c -0.52651,0.96009 -0.7404,1.12448 -1.46312,1.12448 -0.61329,0 -0.88319,-0.14046 -0.9798,-0.50992 z m 4.35787,0.19242 c -0.49787,-0.49788 -0.3761,-0.67866 0.36211,-0.53754 0.51322,0.0981 0.89821,-0.082 1.5725,-0.73551 0.74552,-0.72258 0.86876,-0.77315 0.74669,-0.30634 -0.20776,0.79447 -1.29741,1.89689 -1.87491,1.89689 -0.26889,0 -0.63176,-0.14288 -0.80639,-0.3175 z m -21.48416,-1.00542 c 0.70766,-0.55354 1.05834,-0.65874 1.05834,-0.3175 0,0.39493 -0.63264,0.84669 -1.1774,0.84078 -0.5072,-0.006 -0.49948,-0.0394 0.11906,-0.52328 z m 55.103815,-3.33698 c -1.49914,-3.79345 -1.91477,-5.17301 -1.41947,-4.7115 0.39624,0.36921 2.99345,7.48072 2.86872,7.85493 -0.0521,0.15627 -0.70425,-1.25828 -1.44925,-3.14343 z m -29.385955,1.41875 c -0.32558,-1.10949 -0.37688,-2.3458 -0.0741,-1.78593 0.24789,0.45837 0.61278,2.64583 0.44135,2.64583 -0.0632,0 -0.22845,-0.38695 -0.36724,-0.8599 z m 14.072025,-0.0465 c -0.56563,-0.49105 -0.93238,-0.99084 -0.81498,-1.11064 0.28019,-0.28595 1.48066,0.40866 1.95627,1.13193 0.62217,0.94614 -0.0412,0.93377 -1.14129,-0.0213 z m -3.0841,-1.55459 c 0.0945,-0.83816 -0.0884,-1.75935 -0.693965,-3.49573 -0.89613,-2.56955 -1.08651,-4.95781 -0.46316,-5.81029 0.31868,-0.43582 0.35924,-0.32987 0.36057,0.94162 0.001,0.91338 0.302365,2.30719 0.831555,3.84533 0.89175,2.59198 0.99521,3.51691 0.53958,4.82391 -0.41557,1.19213 -0.72482,1.02807 -0.57458,-0.30484 z m -20.230435,0.42555 c 0.25743,-0.0671 0.61462,-0.0627 0.79375,0.01 0.17913,0.0725 -0.0315,0.12736 -0.46806,0.12197 -0.43656,-0.005 -0.58313,-0.0647 -0.32569,-0.13178 z m 3.3684,0.0819 c 0,-0.0558 0.23812,-0.1637 0.52916,-0.23981 0.29105,-0.0761 0.52917,-0.0305 0.52917,0.10143 0,0.1319 -0.23812,0.23982 -0.52917,0.23982 -0.29104,0 -0.52916,-0.0456 -0.52916,-0.10144 z m 5.04568,-1.93347 c 0.0102,-0.11773 0.12092,-0.45218 0.24599,-0.74322 0.21923,-0.51018 0.22805,-0.50837 0.24598,0.0505 0.0102,0.31883 -0.10046,0.65328 -0.24598,0.74322 -0.14553,0.0899 -0.25622,0.0672 -0.24599,-0.0505 z m -25.41859,-0.30023 c 0,-0.12015 0.29765,-0.49809 0.66145,-0.83986 0.75791,-0.71203 0.85569,-0.54241 0.23416,0.40618 -0.41775,0.63756 -0.89561,0.86896 -0.89561,0.43368 z m -13.210573,-0.22894 c 0.01023,-0.11773 0.120919,-0.45217 0.245985,-0.74322 0.219231,-0.51018 0.228058,-0.50836 0.245986,0.0505 0.01024,0.31884 -0.100465,0.65329 -0.245986,0.74322 -0.14552,0.0899 -0.256214,0.0672 -0.245985,-0.0505 z m 38.545803,-1.53697 c -0.0695,-0.3638 -0.0239,-0.66145 0.10145,-0.66145 0.12534,0 0.2279,0.29765 0.2279,0.66145 0,0.36381 -0.0457,0.66146 -0.10145,0.66146 -0.0558,0 -0.15835,-0.29765 -0.2279,-0.66146 z m 15.741325,-0.30365 c -0.93103,-0.45897 -1.15768,-1.15155 -0.37684,-1.15155 0.45587,0 1.63362,1.01372 1.63362,1.40611 0,0.2747 -0.31089,0.21172 -1.25678,-0.25456 z m -43.713585,-1.32068 c -0.005,-0.3113 0.22536,-0.84708 0.51156,-1.19063 0.51399,-0.61698 0.52047,-0.61769 0.52916,-0.0586 0.005,0.3113 -0.22536,0.84708 -0.51156,1.19063 -0.514,0.61698 -0.52047,0.61769 -0.52916,0.0586 z m 27.77649,-0.27828 c 0.002,-0.11773 0.11947,-0.39265 0.26053,-0.61093 0.22103,-0.34202 0.25704,-0.33504 0.26053,0.0505 0.002,0.24607 -0.11501,0.52099 -0.26053,0.61093 -0.14552,0.0899 -0.26276,0.0672 -0.26053,-0.0505 z m -9.03672,-1.43344 -0.62462,-0.55793 0.74898,0.44574 c 1.36655,0.81328 1.98321,0.0398 0.90466,-1.13468 l -0.59531,-0.64827 0.58925,0.30656 c 0.8419,0.438 1.25081,1.28591 0.85192,1.76655 -0.44641,0.53789 -1.148,0.47129 -1.87488,-0.17797 z m 29.232305,-0.90869 c -0.0862,-0.22456 -0.0904,-0.47461 -0.009,-0.55566 0.2317,-0.2317 0.71174,0.1613 0.71174,0.58269 0,0.50769 -0.5047,0.48827 -0.70244,-0.027 z m -27.296655,-1.26177 c -0.49594,-0.52789 -0.52629,-0.6779 -0.22153,-1.09469 0.38456,-0.52591 0.83497,-0.49556 3.21751,0.21681 1.14789,0.34322 1.21457,0.39791 0.50403,0.41341 -0.46454,0.0101 -1.02612,0.24684 -1.29778,0.54703 -0.63503,0.70169 -1.49578,0.66943 -2.20223,-0.0826 z m 2.06994,-0.18203 c 0.22603,-0.42235 0.20121,-0.52916 -0.12299,-0.52916 -0.2234,0 -0.40618,0.11906 -0.40618,0.26458 0,0.14552 -0.23813,0.26458 -0.52917,0.26458 -0.29398,0 -0.52916,-0.17639 -0.52916,-0.39687 0,-0.21828 -0.11907,-0.39688 -0.26459,-0.39688 -0.365,0 -0.33236,0.62014 0.0529,1.00542 0.49192,0.49192 1.48515,0.37507 1.79917,-0.21167 z m -4.62843,0.003 c -0.0721,-0.11661 0.0566,-0.28403 0.28596,-0.37204 0.58613,-0.22492 0.90288,-0.19906 0.90288,0.0737 0,0.31166 -1.02208,0.56814 -1.18884,0.29833 z m -4.10282,-1.10814 c 0,-0.64263 0.89483,-2.09753 1.11027,-1.80516 0.0536,0.0728 -0.17427,0.66353 -0.5064,1.31283 -0.5242,1.02479 -0.60387,1.08975 -0.60387,0.49233 z m 5.82526,-0.0854 c -0.006,-0.29104 -0.0764,-0.82683 -0.15555,-1.19063 -0.14098,-0.64813 -0.13536,-0.64671 0.27892,0.0705 0.30602,0.52977 0.34899,0.85864 0.15555,1.19063 -0.24412,0.41897 -0.26827,0.41287 -0.27892,-0.0705 z m 28.041405,73.091136 c 0,-0.1819 -0.29765,-0.33073 -0.66146,-0.33073 -0.66199,0 -0.81606,0.15408 -0.48507,0.48507 0.30493,0.30493 1.14653,0.19164 1.14653,-0.15434 z m -4.3448,-6.22401 c -0.45559,-0.43637 -0.46123,-0.43073 -0.12655,0.12656 0.19265,0.32081 0.40723,0.52633 0.47684,0.45672 0.0696,-0.0696 -0.088,-0.33208 -0.35029,-0.58328 z m 14.83723,-1.4489 c -0.19416,-1.2132 -0.54346,-2.06303 -1.3114,-3.19063 -0.57572,-0.84533 -1.38459,-2.39315 -1.79749,-3.43958 -0.8731,-2.21269 -0.90347,-2.14121 -0.37208,0.87552 0.48547,2.75599 0.50747,3.39142 0.10343,2.98739 -0.50446,-0.50447 -1.22851,-3.59069 -1.57773,-6.72509 -0.28239,-2.53451 -0.45195,-3.18153 -1.07494,-4.10182 -0.40682,-0.600946 -0.90588,-1.156426 -1.10903,-1.234376 -0.23335,-0.0896 -0.43413,-0.7589 -0.54527,-1.81778 -0.17595,-1.67631 -2.2036,-17.84652 -2.44134,-19.46926 -0.10769,-0.7351 -0.23335,-0.8599 -0.86586,-0.8599 -0.63335,0 -0.7853,0.15164 -1.05542,1.05318 -0.26385,0.88069 -0.20474,1.93156 0.36091,6.41615 1.40579,11.14541 2.40134,16.220576 3.54683,18.081316 0.44171,0.71751 1.27635,2.63365 1.85474,4.2581 1.77231,4.97757 2.8303,6.67418 5.03309,8.07115 0.64981,0.4121 1.2568,0.74927 1.34884,0.74927 0.0921,0 0.0483,-0.74414 -0.0973,-1.65364 z m -59.720755,-0.31388 c 0.57122,-0.60804 0.57522,-0.63668 0.0706,-0.50471 -0.29425,0.0769 -0.59439,0.36702 -0.666983,0.64461 -0.168582,0.64466 -0.132773,0.63626 0.596403,-0.1399 z m -7.853526,-0.66462 c 1.431388,-0.90776 2.083573,-2.04932 2.577487,-4.51157 0.508545,-2.53519 1.693891,-6.04869 2.744406,-8.13473 0.912347,-1.811676 0.929587,-1.909146 1.338977,-7.569746 0.446741,-6.17702 0.558832,-15.51635 0.186227,-15.51635 -0.53449,0 -1.659885,-1.49736 -1.929175,-2.56681 -0.160322,-0.6367 -0.365509,-1.08405 -0.45597,-0.99412 -0.09046,0.0899 -0.344593,4.58909 -0.564737,9.99815 -0.397822,9.77479 -0.404265,9.84002 -1.058333,10.71633 -0.633124,0.84826 -0.664229,1.07895 -0.820508,6.085416 -0.11272,3.61115 -0.301188,5.73007 -0.615815,6.92353 -0.560128,2.12471 -1.052012,2.75399 -0.827262,1.05833 0.214839,-1.62086 0.666827,-8.567506 0.564132,-8.670196 -0.04541,-0.0454 -0.502153,1.083136 -1.014984,2.507876 -0.697723,1.93842 -0.941676,3.05663 -0.969201,4.44253 -0.03477,1.75071 -0.69414,6.34391 -0.976209,6.80031 -0.28647,0.46352 0.658495,0.16827 1.820965,-0.56895 z m 10.126056,-4.61301 c 1.58613,-3.44573 2.87912,-8.766366 3.44743,-14.186056 0.0992,-0.94588 0.26983,-1.77932 0.3792,-1.85208 0.10937,-0.0728 0.28448,-2.39448 0.38912,-5.15938 l 0.19026,-5.02708 -0.71767,-0.0402 c -0.39472,-0.0221 -1.0604,-0.29354 -1.47928,-0.60323 l -0.7616,-0.56308 0.005,2.98449 c 0.003,1.64146 -0.13819,7.0326 -0.31305,11.98031 l -0.31792,8.995836 -0.74124,0.93205 c -0.62317,0.78359 -1.18108,2.26974 -2.23257,5.94711 -0.27273,0.95381 1.26603,-1.48305 2.15245,-3.40873 z m 60.063185,2.25794 c -0.18616,-0.70569 -0.55332,-2.5214 -0.81591,-4.03489 -0.26259,-1.5135 -0.55172,-2.81135 -0.64251,-2.88411 -0.52105,-0.41754 -1.32773,-1.91675 -1.74226,-3.23793 -0.26198,-0.834976 -0.51429,-1.480176 -0.5607,-1.433766 -0.145,0.145 0.68141,5.782796 1.09203,7.449826 0.46703,1.89604 0.47506,1.98437 0.18035,1.98437 -0.3093,0 -1.47702,-3.60413 -2.0145,-6.21771 -0.2394,-1.16416 -0.58774,-3.595086 -0.77407,-5.402046 -0.30899,-2.99646 -0.39903,-3.3372 -1.02383,-3.87463 -0.37678,-0.32409 -0.80324,-0.63161 -0.94769,-0.68337 -0.14582,-0.0522 -0.51315,-3.33027 -0.82588,-7.37016 -0.54109,-6.98972 -0.93159,-10.70571 -1.23182,-11.72174 -0.21229,-0.71844 -0.81857,-0.0969 -1.57588,1.61548 l -0.62989,1.42429 0.65993,5.59776 c 1.56433,13.26935 1.96231,15.88433 2.52301,16.57796 0.8177,1.01159 2.24518,4.139146 2.89824,6.349996 1.0754,3.64059 2.46505,5.89405 4.09795,6.64526 1.62467,0.74741 1.72239,0.68991 1.33343,-0.78459 z m -10.11146,-3.54556 c -0.94707,-2.33341 -1.37427,-3.11769 -2.23887,-4.11025 -0.41638,-0.478 -0.75706,-1.1063 -0.75706,-1.3962 0,-0.2899 -0.34838,-2.458646 -0.77417,-4.819436 -0.95865,-5.31518 -1.54022,-9.18591 -1.98812,-13.2324 -0.18989,-1.71558 -0.39021,-3.1583 -0.44513,-3.20605 -0.0549,-0.0477 -0.54576,-0.16743 -1.09074,-0.26595 -0.94111,-0.17014 -1.01338,-0.13193 -1.43916,0.76095 -0.42967,0.90103 -0.41818,1.14386 0.27674,5.84529 0.91148,6.1666 2.93492,12.87051 5.23077,17.330136 0.89629,1.74105 3.26031,4.74755 3.73299,4.74755 0.0901,0 -0.13811,-0.74414 -0.50725,-1.65364 z m -62.133969,-2.27798 c 0.615831,-0.94617 1.938785,-5.114256 2.531594,-7.976036 0.165632,-0.79958 0.630696,-2.04911 1.033473,-2.77671 0.814631,-1.4716 1.016432,-3.33812 1.616224,-14.94896 l 0.293859,-5.68854 -0.883658,-1.51144 c -0.63323,-1.08309 -1.044763,-1.51424 -1.452121,-1.52135 -0.511627,-0.009 -0.583779,0.16864 -0.721698,1.77602 -0.08428,0.98226 -0.230712,4.8755 -0.325398,8.65163 l -0.172157,6.8657 -0.883258,1.60689 -0.883256,1.60689 0.03848,5.28575 c 0.02371,3.25787 -0.07024,5.539506 -0.244906,5.947196 l -0.283387,0.66146 -0.158629,-0.66146 c -0.08725,-0.3638 -0.254571,-2.328326 -0.371835,-4.365616 -0.205531,-3.57082 -0.224903,-3.66131 -0.538136,-2.51355 -0.178712,0.65485 -0.484338,1.54782 -0.679169,1.98438 -0.246407,0.55213 -0.278546,0.9951 -0.105577,1.45521 0.136766,0.3638 0.209939,2.345146 0.162608,4.402996 l -0.08606,3.74155 0.743053,-0.52942 c 0.408678,-0.29118 1.025155,-0.96284 1.369949,-1.49259 z m 73.548969,-2.7491 c -0.18762,-0.90951 -0.4196,-2.606146 -0.51553,-3.770316 -0.0959,-1.16416 -0.39588,-2.89057 -0.66657,-3.83646 -0.2707,-0.94588 -0.67822,-2.39022 -0.90561,-3.20965 -0.22739,-0.81943 -0.66078,-1.77193 -0.96308,-2.11667 l -0.54963,-0.6268 0.14805,3.30729 c 0.0814,1.81901 0.26138,3.96214 0.3999,4.7625 0.13851,0.80037 0.31957,1.87193 0.40236,2.38125 l 0.15051,0.92604 -0.38541,-0.79375 c -0.59447,-1.22427 -1.17605,-4.1484 -1.599,-8.03959 -0.26495,-2.43753 -0.51671,-3.68725 -0.80755,-4.00862 -0.3485,-0.3851 -0.511,-2.12968 -0.92696,-9.95208 -0.2774,-5.21682 -0.50777,-9.5087 -0.51193,-9.53751 -0.004,-0.0288 -0.33816,0.0629 -0.74221,0.20372 -0.60862,0.21217 -0.81655,0.53891 -1.21197,1.90447 -0.59071,2.04001 -0.59058,2.03648 -0.21232,5.7494 0.17049,1.67349 0.56066,5.77971 0.86704,9.12494 0.51636,5.63795 0.60414,6.13819 1.20171,6.84835 1.07902,1.28235 1.66813,2.70117 2.32111,5.5902 0.34326,1.5187 0.89049,3.311556 1.21608,3.984126 0.60699,1.25388 2.34102,2.7628 3.17497,2.7628 0.42078,0 0.43002,-0.13159 0.11604,-1.65364 z M 45.353317,98.322704 c 1.097787,-1.26407 1.423516,-2.03149 2.048002,-4.82507 0.312282,-1.39698 1.02173,-3.45381 1.597067,-4.63021 l 1.035187,-2.11667 0.307433,-6.35 c 0.169087,-3.4925 0.423934,-7.28987 0.566325,-8.4386 0.255868,-2.0642 0.250576,-2.09727 -0.453044,-2.83169 -0.665279,-0.6944 -0.758909,-0.71881 -1.428697,-0.37245 -0.640667,0.3313 -0.734803,0.5617 -0.886706,2.17024 -0.09347,0.98977 -0.170791,2.61273 -0.171825,3.60657 -0.0011,0.99384 -0.116319,2.89884 -0.256189,4.23333 -0.139869,1.33449 -0.386564,4.68854 -0.548211,7.45343 -0.302691,5.17743 -0.884269,9.71118 -1.338675,10.43577 -0.436848,0.6966 -0.02511,-6.12563 1.212683,-20.09306 0.212783,-2.40109 0.449956,-5.08462 0.527047,-5.9634 l 0.140169,-1.59777 -0.901584,-0.40866 -0.901586,-0.40865 -0.162957,1.60955 c -0.08963,0.88526 -0.276315,3.27643 -0.414867,5.31372 -0.138549,2.03729 -0.388588,5.60917 -0.55564,7.9375 -0.284057,3.95911 -0.500177,17.197066 -0.268881,16.4699 0.05778,-0.18167 0.442513,-0.71887 0.854949,-1.19378 z m 80.476843,-2.79688 c -1.04801,-3.95032 -1.52475,-7.94063 -1.9335,-16.1834 -0.27017,-5.44819 -0.87533,-12.15899 -1.22047,-13.53413 -0.1468,-0.58489 -0.17257,-0.59 -0.75827,-0.15026 -0.45014,0.33796 -0.58153,0.65968 -0.51009,1.24897 0.0529,0.43656 0.22339,2.2225 0.37881,3.96875 0.64408,7.23695 1.55123,16.40658 1.85843,18.78542 0.13155,1.01864 0.23532,2.14974 0.23059,2.51354 l -0.009,0.66146 -0.24567,-0.61257 c -0.69767,-1.7396 -1.49832,-7.85785 -2.37817,-18.17285 -0.2979,-3.4925 -0.60238,-6.58813 -0.67663,-6.87917 -0.0917,-0.35942 -0.57571,-0.66982 -1.50889,-0.96765 -1.58382,-0.50548 -1.82404,-0.34349 -1.63118,1.09994 0.068,0.50933 0.24459,2.95011 0.39231,5.42396 0.80604,13.49904 0.73622,12.89936 1.57942,13.56433 1.2211,0.96298 1.80336,2.1708 2.52862,5.24523 0.98805,4.1884 2.06078,5.77669 3.69106,5.46505 0.55898,-0.10686 0.56483,-0.14754 0.21223,-1.47662 z m -57.661975,-4.01275 c 0.53547,-0.53547 0.92898,-2.6749 1.02042,-5.54782 0.0637,-2.00016 0.009,-2.3865 -0.34701,-2.459 -0.35793,-0.0728 -0.44939,0.35065 -0.59817,2.76987 -0.19824,3.22342 -0.43569,4.35558 -0.94939,4.52682 -0.26453,0.0882 -0.31107,-0.0743 -0.18454,-0.64422 0.33573,-1.51215 0.52586,-7.50901 0.23807,-7.50901 -0.17318,0 -0.34403,1.55881 -0.45673,4.16719 -0.099,2.29195 -0.23865,4.37554 -0.31027,4.6302 -0.16778,0.59662 1.00811,0.64548 1.58762,0.066 z m 3.34112,-0.13008 c 0.64214,-0.34367 1.00316,-1.52745 1.21723,-3.99129 0.13289,-1.52953 0.0809,-2.18304 -0.21948,-2.75624 -0.39078,-0.74585 -0.39498,-0.73795 -0.57334,1.07884 -0.26267,2.67572 -0.68303,4.60832 -1.00236,4.60832 -0.17473,0 -0.2206,-0.37223 -0.12227,-0.99218 0.0866,-0.54571 0.23827,-2.18282 0.33714,-3.63802 0.17861,-2.62876 0.17636,-2.64282 -0.34761,-2.17849 -0.45533,0.40351 -0.55097,0.93364 -0.70013,3.8808 -0.095,1.8774 -0.24506,3.60186 -0.33343,3.83213 -0.12183,0.31749 0.0102,0.41868 0.5465,0.41868 0.38894,0 0.92792,-0.11815 1.19775,-0.26255 z m 30.960045,-1.76081 c 0,-0.14302 -1.0241,-5.30475 -1.4828,-7.47376 -0.0802,-0.3792 -0.23037,-0.53721 -0.37403,-0.39355 -0.21408,0.21408 -0.0646,1.45063 0.69204,5.72348 0.11199,0.63246 0.0741,0.99219 -0.10447,0.99219 -0.23772,0 -0.78278,-2.0677 -1.598805,-6.06507 -0.10168,-0.49813 -0.34798,-0.96007 -0.54733,-1.02651 -0.23075,-0.0769 -0.29054,-0.004 -0.16455,0.19937 0.10884,0.17611 0.29672,1.55499 0.41752,3.06419 0.23857,2.98064 0.464,3.65006 1.533695,4.55431 0.65751,0.55582 1.62872,0.80945 1.62873,0.42535 z M 67.805085,79.158564 c 0.48355,-0.91753 1.09895,-1.98426 1.36755,-2.37053 0.60671,-0.87248 0.61091,-1.27869 0.0254,-2.45531 -0.71246,-1.43164 -1.38825,-1.26087 -2.28703,0.57793 -0.40899,0.83674 -1.25784,2.2439 -1.88633,3.12701 -0.62848,0.88311 -1.0628,1.73133 -0.96514,1.88493 0.0977,0.1536 0.58494,0.52564 1.08284,0.82676 1.18627,0.71744 1.56578,0.49071 2.66276,-1.59079 z m -3.17116,0.96053 c 0,-0.0822 0.36241,-0.45432 0.80535,-0.82704 0.44295,-0.37271 1.04657,-1.15047 1.34138,-1.72835 0.29481,-0.57788 0.59986,-0.98685 0.67788,-0.90883 0.27812,0.27812 -0.80128,2.59027 -1.44598,3.09739 -0.6221,0.48935 -1.37863,0.69064 -1.37863,0.36683 z m 0.4586,-4.5766 c 1.82586,-2.83389 1.85527,-2.90649 1.24013,-3.06089 -0.34655,-0.087 -0.8916,-0.51184 -1.21121,-0.94414 l -0.58111,-0.786 -1.04357,1.91423 c -0.57396,1.05283 -1.51797,2.48627 -2.0978,3.18545 -1.01958,1.22943 -1.0388,1.28827 -0.58471,1.79004 0.46539,0.51424 0.47529,0.51354 1.12221,-0.0806 0.35897,-0.32969 1.06319,-1.23437 1.56494,-2.01042 0.50175,-0.77605 0.97245,-1.35081 1.04602,-1.27724 0.242,0.242 -2.04455,3.87886 -2.43871,3.87886 -0.47115,0 -0.51085,0.44002 -0.0545,0.60366 0.6455,0.23145 1.19017,-0.34453 3.03828,-3.21296 z m 40.368205,2.33782 c 1.18403,-0.93136 1.13074,-1.37779 -0.43198,-3.61946 -0.79069,-1.1342 -1.75477,-2.69362 -2.14242,-3.46539 -0.60819,-1.21082 -0.78484,-1.37905 -1.2885,-1.22703 -0.91775,0.277 -1.11286,0.59186 -1.11286,1.79589 0,0.87235 0.24847,1.50534 1.1113,2.83104 0.61121,0.93911 1.29468,2.1474 1.51882,2.6851 0.35686,0.8561 0.99226,1.5027 1.50139,1.52787 0.0895,0.004 0.46943,-0.23319 0.84425,-0.52802 z m -1.36215,-0.45612 c -0.52086,-0.44165 -2.83061,-5.83213 -2.59847,-6.06427 0.12544,-0.12545 1.08947,1.4799 2.12654,3.54122 0.38173,0.75877 0.93235,1.5071 1.22359,1.66296 0.59983,0.32102 0.72249,1.32311 0.16196,1.32311 -0.20216,0 -0.61329,-0.20836 -0.91362,-0.46302 z m -43.514675,-2.77813 c 0.59798,-0.61846 1.58479,-1.9458 2.19291,-2.94963 l 1.10566,-1.82515 -0.6826,-0.63295 c -0.52829,-0.48985 -0.68261,-0.88828 -0.68261,-1.7623 0,-0.62114 -0.15877,-1.34647 -0.35281,-1.61185 -0.32024,-0.43794 -0.4722,-0.2698 -1.64568,1.82082 -0.71108,1.26683 -1.832438,2.97924 -2.491909,3.80537 -0.78059,0.97785 -1.169821,1.70644 -1.115309,2.08773 0.111284,0.77838 1.455979,2.19244 2.084898,2.19244 0.27511,0 0.98947,-0.50601 1.58745,-1.12448 z m -2.652755,0.15434 c -0.308935,-0.30893 -0.191394,-0.55172 0.333563,-0.689 0.280477,-0.0733 1.024622,-0.85471 1.653642,-1.73638 0.62904,-0.88167 1.235,-1.60945 1.34659,-1.6173 0.30574,-0.0215 -1.00117,2.43913 -1.79926,3.3876 -0.679184,0.80717 -1.172047,1.01757 -1.534535,0.65508 z m 51.74809,-0.63098 c 0.40018,-0.43366 0.7276,-1.02406 0.7276,-1.31199 0,-0.28793 -0.704,-1.473 -1.56446,-2.6335 -0.86045,-1.1605 -2.07459,-3.03412 -2.69808,-4.1636 l -1.13362,-2.05361 -0.28586,1.71472 c -0.15723,0.9431 -0.49329,2.12476 -0.74681,2.62591 l -0.46095,0.91119 1.25669,2.0788 c 1.92831,3.18979 2.65326,3.97635 3.48583,3.78206 0.38063,-0.0888 1.01948,-0.51631 1.41966,-0.94998 z m -1.82762,-0.75267 c -0.74157,-0.80944 -3.06422,-4.99724 -2.95437,-5.3268 0.0532,-0.15951 0.86023,0.82972 1.79346,2.19829 0.93322,1.36857 1.92927,2.59641 2.21342,2.72853 0.69972,0.32535 0.70263,0.75145 0.006,0.85074 -0.31863,0.0454 -0.78622,-0.15375 -1.05833,-0.45076 z m -50.807591,-3.06267 c 1.802476,-1.80247 4.150316,-5.67404 4.150316,-6.84382 0,-0.527 0.19463,-1.44461 0.43252,-2.03914 0.32257,-0.80619 0.3562,-1.15728 0.13229,-1.38119 -0.37325,-0.37325 -0.39039,-2.03945 -0.0307,-2.98549 0.23807,-0.62616 0.21491,-0.6861 -0.19844,-0.51366 -0.25737,0.10737 -0.80521,0.2706 -1.21741,0.36272 -0.66995,0.14972 -0.82665,0.40587 -1.47719,2.41466 -0.944338,2.91603 -2.416416,6.06669 -3.566637,7.6336 -0.503171,0.68546 -0.992793,1.55681 -1.088049,1.93633 -0.259998,1.03592 0.575297,2.46913 1.50263,2.57823 0.09765,0.0115 0.709956,-0.51152 1.360678,-1.16224 z m -2.199685,-0.56143 c 0,-0.23191 0.234376,-0.48294 0.520835,-0.55785 0.615064,-0.16084 2.386158,-3.0943 4.102896,-6.79561 0.66727,-1.43865 1.27389,-2.55506 1.34803,-2.48091 0.35765,0.35765 -3.329185,8.49908 -4.314557,9.52759 -0.768347,0.80198 -1.657204,0.96652 -1.657204,0.30678 z m 57.383666,0.78394 c 0.71911,-0.50369 1.35383,-1.88145 1.35383,-2.93869 0,-0.46061 -0.42835,-1.314 -1.13127,-2.25378 -0.62221,-0.83185 -2.00042,-3.181 -3.06271,-5.22031 -1.06228,-2.03932 -1.97225,-3.70785 -2.02214,-3.70785 -0.0499,0 -0.34808,0.41642 -0.66263,0.92538 -0.41571,0.67263 -0.52426,1.14235 -0.39743,1.71979 0.096,0.43693 0.27785,0.79441 0.40418,0.79441 0.12634,0 0.7881,1.0418 1.47059,2.31511 0.68248,1.2733 1.94277,3.49191 2.80063,4.93023 1.51465,2.53948 1.72301,3.2192 0.81037,2.64352 -0.54896,-0.34627 -3.84302,-6.06104 -4.54418,-7.88356 -0.32105,-0.83453 -0.52222,-1.12293 -0.53078,-0.76098 -0.008,0.32058 -0.14796,0.87734 -0.31196,1.23726 -0.16398,0.35992 -0.2272,0.9371 -0.14048,1.28262 0.27969,1.11441 4.66916,7.3483 5.17415,7.3483 0.0956,0 0.45103,-0.19415 0.78983,-0.43145 z m -59.346724,-2.41687 c 0.557348,-0.37894 3.108151,-4.40873 3.960395,-6.25668 0.475649,-1.03136 1.051028,-2.58958 1.278617,-3.46271 0.410189,-1.57365 0.408356,-1.59295 -0.210327,-2.21282 l -0.624129,-0.62532 -1.02231,0.69717 c -0.562274,0.38344 -1.455187,0.76718 -1.984259,0.85274 -0.915027,0.14798 -0.96992,0.2157 -1.125482,1.38838 -0.08995,0.67804 -0.741232,2.9179 -1.447302,4.97745 l -1.283764,3.74465 0.549815,0.54981 c 0.554807,0.55481 1.382157,0.70536 1.908746,0.34733 z m -0.682775,-0.55258 c 0,-0.11511 0.342566,-0.85552 0.761259,-1.64534 0.41869,-0.78983 0.970648,-2.0016 1.226568,-2.69282 0.403387,-1.08951 0.922589,-1.67994 0.922589,-1.04916 0,0.43879 -1.130292,3.41027 -1.652452,4.3442 -0.506863,0.90656 -1.257964,1.52939 -1.257964,1.04312 z m 2.910416,-6.464 c 0,-0.28748 0.242025,-1.06166 1.208326,-3.86516 0.06988,-0.20272 0.191365,-0.30427 0.269978,-0.22566 0.20687,0.20687 -0.989753,4.43072 -1.255231,4.43072 -0.12269,0 -0.223073,-0.15295 -0.223073,-0.3399 z m 60.691983,4.5846 c 0.3663,-0.13927 0.8447,-0.59877 1.06311,-1.02112 0.38542,-0.74532 0.33172,-0.91495 -1.82511,-5.76606 -1.22221,-2.74898 -2.33731,-4.97184 -2.478,-4.93969 -0.14069,0.0321 -0.69488,0.35641 -1.23154,0.7206 -0.53666,0.36419 -1.38049,0.73809 -1.87518,0.8309 -0.49468,0.0928 -0.89943,0.23499 -0.89943,0.31598 0,0.32837 2.54119,4.81805 3.77698,6.67302 1.1323,1.69964 2.51714,3.43959 2.73759,3.43959 0.0361,0 0.36527,-0.11395 0.73158,-0.25322 z m -0.84889,-1.28703 c -0.50384,-0.50383 -3.87979,-7.14999 -4.1567,-8.18319 -0.24708,-0.92189 0.26021,-0.70217 0.61087,0.26458 0.17154,0.47295 1.22195,2.40771 2.33424,4.29948 1.11229,1.89177 2.08015,3.58841 2.15081,3.77032 0.19146,0.49287 -0.38852,0.39952 -0.93922,-0.15119 z m -47.491515,-2.74269 c -0.0845,-0.21107 -0.14716,-0.14838 -0.15985,0.15985 -0.0115,0.27891 0.051,0.43518 0.13896,0.34726 0.0879,-0.0879 0.0973,-0.31612 0.0209,-0.50711 z m 0.87404,-5.61019 c 0.14747,-0.42304 0.26004,-0.95976 0.25015,-1.19271 -0.0322,-0.7571 -1.2928,3.78535 -1.27761,4.60355 0.009,0.48621 0.15899,0.12822 0.38704,-0.92397 0.20476,-0.94474 0.49295,-2.06384 0.64042,-2.48687 z m 0.45149,-3.00027 c -0.0671,-0.25744 -0.12638,-0.11087 -0.13178,0.32569 -0.005,0.43656 0.0495,0.64719 0.12197,0.46806 0.0725,-0.17913 0.0769,-0.53632 0.01,-0.79375 z m 59.213575,84.541026 c -3.15242,-3.69951 -2.99256,-3.13593 -1.29975,-4.58214 1.02327,-0.8742 1.55313,-1.17101 1.74607,-0.97807 0.19294,0.19294 0.0147,0.51137 -0.58741,1.04935 l -0.86442,0.77235 0.61967,0.83815 c 0.34082,0.46098 0.68658,0.83759 0.76835,0.83692 0.0818,-7.9e-4 0.52021,-0.34947 0.97429,-0.77512 0.60025,-0.56264 0.90503,-0.69448 1.11654,-0.48297 0.21151,0.21151 0.0344,0.51338 -0.64862,1.10585 l -0.93955,0.81492 0.92437,1.05834 0.92436,1.05833 0.91934,-0.88289 c 0.67612,-0.64931 0.97445,-0.79373 1.12762,-0.54588 0.13855,0.22417 -0.27223,0.76239 -1.22694,1.60757 -0.78937,0.69881 -1.49567,1.27188 -1.56954,1.27349 -0.0739,0.002 -0.96684,-0.97409 -1.98438,-2.1682 z m -87.638055,0.93643 -0.592164,-0.41317 2.166088,-2.51795 2.166086,-2.51795 -0.749298,-0.64452 c -0.541546,-0.46581 -0.6692,-0.72461 -0.460414,-0.9334 0.208785,-0.20878 0.787093,0.13978 2.08579,1.25716 0.9883,0.85032 1.910019,1.6431 2.048263,1.76173 0.156065,0.13393 0.132316,0.33474 -0.06264,0.5297 -0.242271,0.24227 -0.465664,0.17151 -0.977985,-0.30979 l -0.66399,-0.62379 -0.912524,1.0374 c -0.501891,0.57057 -1.425062,1.65669 -2.051495,2.41361 -0.626433,0.75692 -1.198499,1.37575 -1.271259,1.37518 -0.07276,-5.3e-4 -0.398767,-0.18696 -0.724456,-0.41421 z m 91.233505,-4.96138 -2.48154,-2.4919 0.81435,-1.0282 c 0.44789,-0.56551 1.23653,-1.25556 1.75254,-1.53345 0.93127,-0.50152 0.94361,-0.50116 1.67242,0.0495 0.60266,0.45537 0.73018,0.74926 0.71168,1.64012 -0.0248,1.19618 -0.10842,1.13816 2.33765,1.62302 0.83674,0.16585 1.52135,0.39373 1.52135,0.50638 0,0.11265 -0.23856,0.42071 -0.53014,0.68458 -0.54773,0.49569 -0.74616,0.48037 -3.96778,-0.3063 -0.57313,-0.13996 -0.49252,0.0133 0.60368,1.14786 1.2199,1.26257 1.24753,1.3253 0.77291,1.75482 -0.27071,0.245 -0.54472,0.44545 -0.60889,0.44545 -0.0642,0 -1.23338,-1.12136 -2.59823,-2.4919 z m 1.56595,-2.35209 c 0,-0.59244 -0.96533,-1.77059 -1.45076,-1.77059 -0.1651,0 -0.5313,0.17065 -0.81377,0.37922 -0.49519,0.36563 -0.47636,0.41753 0.52573,1.44849 1.09602,1.1276 1.7388,1.10648 1.7388,-0.0571 z m -96.390473,4.00037 c -0.466809,-0.49826 -0.416782,-0.57661 1.963272,-3.07498 1.343258,-1.41003 2.520006,-2.59635 2.614994,-2.63627 0.09499,-0.0399 0.395859,0.17399 0.668599,0.47537 0.491982,0.54363 0.475139,0.56845 -2.135978,3.14756 -2.577569,2.54596 -2.641756,2.58905 -3.110887,2.08832 z m -2.466564,-2.45989 c -0.08989,-0.23426 0.02772,-1.93072 0.261347,-3.76992 0.233632,-1.8392 0.389229,-3.37956 0.345771,-3.42302 -0.04346,-0.0435 -0.940192,0.65128 -1.992739,1.54386 -1.440846,1.22187 -1.988813,1.54779 -2.217615,1.31898 -0.189126,-0.18912 -0.208968,-0.38539 -0.05254,-0.51969 4.932003,-4.23435 5.325594,-4.51844 5.717291,-4.12674 0.342025,0.34202 0.346795,0.73689 0.03738,3.0949 -0.543589,4.14265 -0.546616,4.1381 1.585474,2.38082 1.258858,-1.03757 1.88061,-1.39773 2.075849,-1.20249 0.195239,0.19523 -0.452951,0.90115 -2.164114,2.35683 -3.322257,2.82623 -3.394033,2.87306 -3.596108,2.34647 z m 101.833407,-3.99395 c -2.67972,-2.25672 -2.69338,-2.27424 -2.27352,-2.91504 0.48651,-0.7425 0.15834,-0.92125 3.59663,1.95904 1.27331,1.06666 2.31132,2.0206 2.30669,2.11986 -0.0103,0.22108 -0.66857,1.10652 -0.82263,1.10652 -0.0612,0 -1.32441,-1.02167 -2.80717,-2.27038 z m 2.13124,-1.95131 c -2.42325,-1.47755 -2.49072,-4.47589 -0.15071,-6.69785 0.77131,-0.73239 0.77247,-0.73258 1.25586,-0.19843 0.47156,0.52107 0.46907,0.53463 -0.0984,0.53463 -0.83653,0 -1.88107,1.14696 -1.88107,2.06552 0,1.63031 2.05851,3.49073 3.8624,3.49073 1.02269,0 2.09174,-0.99723 2.3263,-2.17003 0.1217,-0.6085 0.2477,-0.75982 0.45775,-0.54977 0.4816,0.4816 -0.21381,2.05441 -1.3703,3.09923 -0.8888,0.80297 -1.2314,0.94334 -2.30034,0.9425 -0.77778,-5.3e-4 -1.57795,-0.19728 -2.10153,-0.51653 z M 28.415021,124.87834 c -0.899689,-0.49866 -1.878144,-2.24322 -1.879738,-3.35153 -0.0016,-1.10882 0.547914,-1.69571 3.285437,-3.50896 1.678436,-1.11174 1.86025,-1.17545 2.174398,-0.76201 0.188547,0.24814 0.3466,0.58498 0.351228,0.74853 0.0046,0.16356 -0.950012,0.9266 -2.121423,1.69565 -2.186731,1.43563 -2.632662,1.92624 -2.632662,2.8964 0,0.75264 1.149141,1.85745 1.931974,1.85745 0.348212,0 1.653637,-0.6407 2.900946,-1.42378 1.604831,-1.00755 2.35025,-1.34138 2.549748,-1.14188 0.199496,0.1995 -0.161636,0.58121 -1.235273,1.30567 -3.076705,2.07608 -4.057976,2.38651 -5.324635,1.68446 z m 114.317019,-5.33236 c -2.61497,-3.30921 -2.81673,-3.96868 -1.13554,-3.71178 0.52647,0.0804 2.02878,0.27193 3.33847,0.4255 3.77877,0.44311 3.65303,0.3906 3.17039,1.32393 -0.41906,0.81038 -0.51746,0.82589 -2.27093,0.35809 -0.28763,-0.0767 -0.6251,0.26713 -1.05211,1.07205 l -0.62865,1.18502 0.72138,0.75296 c 0.39676,0.41413 0.72138,0.88824 0.72138,1.05359 0,0.88454 -0.69043,0.29174 -2.86439,-2.45936 z m 1.51254,-0.82281 c 0.38816,-0.85193 0.0781,-1.13828 -1.23912,-1.14441 l -0.87117,-0.004 0.73888,0.92603 c 0.40639,0.50932 0.80907,0.92604 0.89485,0.92604 0.0858,1e-5 0.30024,-0.31662 0.47656,-0.70361 z M 22.415273,109.0419 c 0.139901,-1.264 0.335439,-1.79687 0.829834,-2.26144 0.707577,-0.6649 0.69743,-0.86052 -0.177764,-3.42711 -0.260515,-0.76398 -0.431714,-1.38906 -0.380443,-1.38906 0.05127,0 0.503128,0.57056 1.004125,1.26791 0.736981,1.02583 0.866572,1.38775 0.678721,1.89556 -0.409389,1.10668 -0.122712,1.05733 1.727892,-0.29748 1.87065,-1.36948 1.91021,-1.33391 0.568581,0.51129 -0.559953,0.77012 -1.017661,1.11542 -1.553936,1.1723 -0.736229,0.0781 -0.70916,0.11749 0.858871,1.25023 0.890482,0.64328 1.580208,1.20845 1.532726,1.25593 -0.04748,0.0475 -0.723955,-0.1304 -1.503272,-0.3953 -1.205036,-0.4096 -1.4625,-0.61694 -1.721576,-1.38641 l -0.304635,-0.90477 -0.726338,2.181 c -0.399486,1.19954 -0.79147,2.18099 -0.871077,2.18099 -0.07961,0 -0.06237,-0.74414 0.03829,-1.65364 z m 126.482847,-1.37862 c -0.80946,-0.98784 -0.93829,-1.31125 -0.79044,-1.98438 0.0971,-0.44231 0.11382,-0.80419 0.0371,-0.80419 -0.0768,0 -0.86014,0.59965 -1.74081,1.33256 -0.88069,0.73291 -1.60124,1.26731 -1.60124,1.18755 0,-0.0798 0.38695,-0.7368 0.85989,-1.4601 0.71011,-1.086 0.99817,-1.31683 1.65365,-1.32511 0.43656,-0.006 1.92484,-0.0617 3.30729,-0.12496 l 2.51354,-0.11494 -1.5875,0.62739 c -1.44538,0.57124 -1.64285,0.59195 -2.20576,0.23136 -0.34005,-0.21782 -0.65835,-0.35596 -0.70733,-0.30698 -0.049,0.049 0.24648,0.95146 0.65659,2.00552 0.4101,1.05405 0.7066,1.91646 0.65889,1.91646 -0.0477,0 -0.52193,-0.53108 -1.05382,-1.18018 z M 19.787052,106.0481 c 0.145521,-0.0593 0.831005,-0.27659 1.523298,-0.48296 1.160645,-0.34599 1.304946,-0.33666 1.852084,0.11983 0.589386,0.49173 0.579162,0.49497 -1.523298,0.48296 -1.164167,-0.007 -1.997605,-0.0606 -1.852084,-0.11983 z m 126.338538,-2.93172 c -0.94588,-0.6591 -1.48166,-1.136 -1.19062,-1.0598 2.38328,0.62403 2.84328,0.83837 3.06807,1.42962 0.44823,1.17894 0.30463,1.15065 -1.87745,-0.36982 z m 2.38125,1.12515 c 0,-0.4519 0.91256,-3.50097 1.11709,-3.73245 0.13755,-0.15567 0.2008,0.4306 0.15366,1.42431 -0.0668,1.40812 -0.17909,1.75437 -0.67543,2.08279 -0.32742,0.21665 -0.59532,0.31805 -0.59532,0.22535 z M 15.950594,95.062774 c 0,-0.69215 0.412884,-1.2882 2.315104,-3.34215 1.273307,-1.37487 2.723656,-2.98035 3.222997,-3.56774 l 0.907893,-1.06799 -1.040184,0.15279 c -0.572102,0.084 -2.124443,0.2285 -3.449647,0.32104 -2.137626,0.14926 -2.429369,0.11637 -2.585915,-0.29159 -0.09705,-0.2529 -0.11433,-0.52195 -0.0384,-0.59788 0.143083,-0.14308 7.7173,-0.8084 9.46555,-0.83146 1.670541,-0.022 1.323546,0.764 -1.852084,4.19541 -1.564348,1.69035 -3.082395,3.35495 -3.373437,3.69911 l -0.529167,0.62575 3.175,-0.18296 c 1.74625,-0.10062 3.38336,-0.24271 3.638021,-0.31575 0.355225,-0.10188 0.463021,0.0253 0.463021,0.54649 0,0.46951 -0.142989,0.68013 -0.463021,0.68202 -0.550107,0.003 -6.170239,0.45295 -8.334375,0.66689 l -1.521354,0.1504 z m 137.318746,-2.22625 -2.51354,-1.67927 -2.46317,-0.18538 c -2.00186,-0.15065 -2.43545,-0.25764 -2.31511,-0.57124 0.0814,-0.21223 0.14806,-0.70355 0.14804,-1.09183 l -4e-5,-0.70597 2.18285,0.0869 c 2.13442,0.085 2.24977,0.057 5.19895,-1.26133 1.65886,-0.74154 3.06305,-1.3013 3.12044,-1.24392 0.0574,0.0574 0.01,0.66804 -0.10569,1.35702 l -0.21002,1.25269 -1.98437,0.78378 c -1.09141,0.43108 -2.08675,0.88329 -2.21187,1.00492 -0.12511,0.12163 0.73809,0.77808 1.91823,1.45879 1.74961,1.00917 2.14572,1.35548 2.14572,1.87595 0,0.35106 -0.0893,0.62926 -0.19844,0.61821 -0.10914,-0.0111 -1.32953,-0.77575 -2.71198,-1.69935 z M 20.448511,81.992694 c -3.939862,-2.11217 -4.642482,-2.58138 -4.712525,-3.14703 -0.07057,-0.56992 0.06155,-0.70477 0.926042,-0.9452 0.554597,-0.15424 2.972889,-0.8617 5.373983,-1.57213 2.401093,-0.71044 4.404322,-1.25655 4.451619,-1.21358 0.0473,0.043 0.0049,0.61912 -0.09429,1.28032 l -0.18028,1.2022 -1.451722,0.32488 c -1.659783,0.37145 -1.93158,0.77492 -1.93158,2.8674 v 1.2804 l 1.455208,0.60315 c 1.171382,0.48551 1.455208,0.72266 1.455208,1.21592 0,0.33703 -0.148828,0.60673 -0.330729,0.59935 -0.181901,-0.007 -2.414323,-1.13044 -4.960937,-2.49568 z m 1.4269,-1.08441 c 0.227493,-0.59284 0.199669,-2.22803 -0.03784,-2.22373 -0.10914,0.002 -0.911844,0.21714 -1.783785,0.47814 l -1.585348,0.47453 1.453056,0.81536 c 1.748368,0.98107 1.751985,0.98192 1.953915,0.4557 z m 124.587009,2.87762 c -0.68482,-1.04506 -0.80504,-4.46703 -0.19893,-5.66253 1.01953,-2.01095 2.48146,-2.882 4.83703,-2.882 3.22817,0 5.30167,2.05436 5.53619,5.48508 0.0673,0.98503 0.002,2.09927 -0.14455,2.47608 -0.22347,0.57344 -0.39797,0.66589 -1.07056,0.56717 l -0.80357,-0.11794 0.57642,-0.77964 c 0.71169,-0.96262 0.75439,-2.50595 0.0971,-3.50912 -0.70634,-1.07801 -2.58886,-1.82535 -4.24381,-1.68476 -3.7184,0.31589 -5.37784,2.84755 -3.72036,5.67583 0.64796,1.10565 0.65303,1.14772 0.1384,1.14772 -0.29383,0 -0.74533,-0.32215 -1.00335,-0.71589 z m -1.21054,-9.50644 c -0.46383,-0.46383 -0.0309,-1.46794 2.02486,-4.69638 2.34552,-3.68347 2.91401,-4.6627 2.7729,-4.77625 -0.0482,-0.0388 -1.56599,0.33256 -3.37292,0.82515 -3.21204,0.87563 -3.9908,0.8833 -3.66054,0.036 0.0764,-0.19608 2.24829,-0.90854 4.96581,-1.62898 6.47741,-1.71724 6.48982,-1.69866 2.80109,4.19089 -1.36714,2.18281 -2.45,4.00693 -2.40636,4.0536 0.0436,0.0467 1.44009,-0.28076 3.10321,-0.72761 3.56042,-0.95661 3.54248,-0.95508 3.70969,-0.31566 0.11508,0.44006 -0.40257,0.64115 -4.5332,1.761 -2.56471,0.69531 -4.7884,1.30889 -4.94152,1.36352 -0.15312,0.0546 -0.36148,0.0162 -0.46302,-0.0853 z M 16.931782,72.411044 c -0.296143,-0.0769 -0.424328,-0.2888 -0.341597,-0.56462 0.07283,-0.24283 0.504623,-1.94111 0.959532,-3.77395 0.803299,-3.23652 0.845943,-3.32885 1.481422,-3.20737 0.478212,0.0914 0.607294,0.24061 0.479613,0.55432 -0.565586,1.38967 -0.691824,1.94591 -0.484175,2.13344 0.12722,0.11489 2.076777,0.65769 4.33235,1.20622 2.255573,0.54853 4.187971,1.07417 4.294216,1.16809 0.19804,0.17506 -0.244607,2.1392 -0.4821,2.1392 -0.07247,0 -2.026045,-0.47625 -4.341282,-1.05833 -2.315237,-0.58208 -4.32277,-1.05833 -4.461183,-1.05833 -0.138414,0 -0.333538,0.59531 -0.433609,1.32291 -0.100071,0.72761 -0.260072,1.30911 -0.355557,1.29223 -0.09548,-0.0169 -0.386919,-0.0861 -0.64763,-0.15381 z m 7.435652,-8.24614 c -2.574018,-0.9657 -4.748472,-1.82683 -4.832118,-1.91363 -0.08365,-0.0868 0.02753,-0.58768 0.247051,-1.11308 l 0.399135,-0.95526 1.78715,0.6733 c 0.982933,0.37032 3.096838,1.15173 4.697567,1.73646 1.600729,0.58473 2.98541,1.13981 3.077069,1.23352 0.09166,0.0937 -0.0274,0.6033 -0.264584,1.13244 l -0.431235,0.96206 z m 117.553816,-0.86902 c -0.13362,-0.34222 -0.61152,-1.43698 -1.06201,-2.43282 -0.45048,-0.99583 -0.81906,-1.89925 -0.81906,-2.0076 0,-0.22372 9.22528,-4.37747 9.37453,-4.22094 0.0533,0.0559 0.59817,1.21771 1.21082,2.58178 0.89127,1.98446 1.04204,2.52566 0.75438,2.70793 -0.53611,0.33968 -0.75565,0.28621 -0.93266,-0.22713 -0.0878,-0.25466 -0.37365,-0.96591 -0.6352,-1.58056 l -0.47556,-1.11754 -1.27472,0.55324 c -0.70109,0.30428 -1.37335,0.64387 -1.49391,0.75465 -0.12056,0.11078 0.0878,0.80724 0.46302,1.54769 0.81327,1.60492 0.8068,1.54317 0.19605,1.87003 -0.42271,0.22623 -0.56623,0.0634 -1.09971,-1.24746 -0.33746,-0.82921 -0.6497,-1.55249 -0.69387,-1.6073 -0.14831,-0.18401 -3.54109,1.40501 -3.54109,1.65849 0,0.13775 0.35821,0.88516 0.79601,1.66091 0.43781,0.77575 0.68567,1.41046 0.55081,1.41046 -0.13486,0 -0.43188,0.0716 -0.66004,0.15919 -0.27679,0.10621 -0.49569,-0.0479 -0.65779,-0.46302 z M 26.137052,59.922044 c -1.237238,-0.57406 -2.627167,-1.96114 -3.02648,-3.02029 -0.969155,-2.5706 0.598406,-6.39782 3.163791,-7.72443 1.374552,-0.71081 3.909993,-0.45121 5.34735,0.5475 2.000767,1.39017 2.837538,4.09208 2.010932,6.49322 -1.209955,3.51471 -4.451358,5.11647 -7.495593,3.704 z m 5.501415,-2.1473 c 1.639967,-1.29 1.476158,-3.48113 -0.386018,-5.16349 -1.381863,-1.24844 -2.520188,-1.71154 -4.206995,-1.71154 -1.164805,0 -1.461989,0.1118 -2.09311,0.78741 -1.356002,1.45161 -1.247542,2.99805 0.320224,4.56581 1.966281,1.96628 4.907096,2.6693 6.365899,1.52181 z m 106.365513,-2.47173 c -1.72554,-1.88802 -2.28338,-3.09753 -2.3969,-5.19705 -0.10618,-1.96374 0.32594,-2.91581 1.83088,-4.03386 2.63002,-1.95388 5.56626,-1.59038 7.81811,0.96786 1.50089,1.7051 2.48461,4.6535 1.55262,4.6535 -0.20638,0 -0.53479,0.0612 -0.72981,0.13606 -0.27105,0.10402 -0.33282,-0.13743 -0.26223,-1.02507 0.25107,-3.15675 -2.6713,-4.75985 -5.91958,-3.24726 -3.02853,1.41027 -3.90892,4.18112 -1.98341,6.24239 l 0.76704,0.82111 1.51692,-0.97036 c 1.45779,-0.93254 1.53146,-0.95092 1.88975,-0.47143 0.96698,1.29404 0.95137,1.35233 -0.63357,2.3662 -0.8273,0.52922 -1.64494,1.01623 -1.81697,1.08224 -0.17203,0.066 -0.90681,-0.52993 -1.63285,-1.32433 z M 33.148511,48.080274 c -1.819011,-1.52864 -3.597061,-3.01248 -3.951224,-3.29742 l -0.643932,-0.51808 0.584139,-0.58513 c 0.536803,-0.53772 0.972871,-0.60658 5.381281,-0.84972 l 4.797144,-0.26459 -2.686828,-2.21659 c -1.477756,-1.21913 -2.68683,-2.30588 -2.68683,-2.415 0,-0.10912 0.154844,-0.32692 0.344098,-0.48398 0.262649,-0.21798 1.264727,0.47144 4.233334,2.9125 2.139079,1.75895 3.889234,3.34658 3.889234,3.52808 0,0.69741 -0.800393,0.86309 -5.027083,1.04061 -2.401094,0.10085 -4.631758,0.24738 -4.957031,0.32564 -0.514004,0.12365 -0.23249,0.44014 2.150945,2.41814 2.384316,1.97874 2.703661,2.33783 2.445991,2.75043 -0.162997,0.261 -0.357018,0.46553 -0.431155,0.4545 -0.07414,-0.011 -1.623073,-1.27075 -3.442083,-2.79939 z m 99.287629,-0.79549 -0.84075,-0.94142 0.76641,-1.51824 0.7664,-1.51824 -1.30578,-1.28615 -1.30578,-1.28614 -1.42934,0.70101 c -1.41191,0.69247 -1.43502,0.69474 -1.89529,0.18615 -0.25627,-0.28318 -0.41707,-0.55421 -0.35733,-0.6023 0.0597,-0.0481 2.46179,-0.96078 5.33788,-2.02822 6.9127,-2.56558 6.7557,-2.74531 3.55847,4.07359 -1.30405,2.78122 -2.38971,5.0803 -2.41257,5.10907 -0.0229,0.0288 -0.41991,-0.37133 -0.88232,-0.88911 z m 2.48419,-7.94311 c -0.0704,-0.0704 -0.85858,0.13835 -1.75149,0.46392 l -1.62347,0.59195 0.99938,1.02346 0.99938,1.02345 0.75211,-1.48738 c 0.41366,-0.81806 0.6945,-1.545 0.62409,-1.6154 z m -93.385504,-1.71105 c -1.608979,-4.95807 -1.711169,-5.4093 -1.322327,-5.83896 0.399246,-0.44116 0.520253,-0.41201 2.301105,0.5543 1.033833,0.56097 3.297087,1.76817 5.029452,2.68268 l 3.149756,1.66273 -0.900798,0.74705 c -0.495437,0.41088 -0.990444,0.75026 -1.100013,0.75417 -0.109569,0.004 -0.758653,-0.34108 -1.442408,-0.76666 -1.386538,-0.86301 -1.217832,-0.90726 -3.363926,0.88233 l -0.77222,0.64393 0.583538,1.52488 c 0.572596,1.49629 0.574143,1.53428 0.08256,2.02587 -0.491588,0.49158 -0.533683,0.40021 -2.244717,-4.87232 z m 2.395456,-0.49327 c 0.472942,-0.43025 0.859895,-0.84107 0.859895,-0.91294 0,-0.1502 -2.689299,-1.72264 -2.952596,-1.72639 -0.09596,-10e-4 0.07714,0.77143 0.384675,1.71731 0.30753,0.94589 0.624168,1.71631 0.703638,1.71204 0.07947,-0.004 0.531445,-0.35978 1.004388,-0.79002 z m 75.935418,-1.13991 c -0.40018,-0.32765 -0.72761,-0.68199 -0.72761,-0.7874 0,-0.10542 0.52508,-0.99392 1.16683,-1.97445 1.07488,-1.64227 1.18107,-1.95999 1.34743,-4.03172 0.0993,-1.23693 0.25886,-2.69486 0.35452,-3.23986 l 0.17393,-0.9909 1.06871,0.72632 1.0687,0.72632 -0.32122,2.11666 c -0.40008,2.63625 -0.40805,2.77813 -0.15614,2.77813 0.11267,0 1.14893,-0.53801 2.30281,-1.19558 2.01213,-1.14666 2.11724,-1.17629 2.56928,-0.72425 0.45203,0.45203 0.35365,0.52811 -2.40466,1.85952 -2.85597,1.37854 -2.88492,1.40195 -4.16318,3.36667 -0.70797,1.08816 -1.34674,1.97573 -1.4195,1.97238 -0.0728,-0.003 -0.45972,-0.27418 -0.8599,-0.60184 z m -70.510185,-3.42989 c -1.199846,-1.92279 -2.424221,-3.87075 -2.720835,-4.32881 l -0.539295,-0.83285 0.961811,-0.59443 c 0.561718,-0.34716 1.033158,-0.48854 1.133332,-0.33987 0.09434,0.14 1.162577,1.82248 2.37386,3.73883 1.211287,1.91635 2.29774,3.54323 2.414345,3.6153 0.116601,0.0721 0.673361,-0.20076 1.237244,-0.60628 1.590773,-1.14402 1.63916,-1.1592 1.93479,-0.60681 0.242882,0.45383 0.03075,0.66961 -1.83459,1.86618 -1.160076,0.74416 -2.259954,1.40515 -2.444175,1.46886 -0.201899,0.0698 -1.201524,-1.27286 -2.516487,-3.38012 z m 62.969435,-0.95164 -0.86003,-0.44111 1.98451,-4.05234 c 1.09147,-2.22879 1.9845,-4.15068 1.9845,-4.27087 0,-0.1202 -0.53578,-0.42315 -1.19063,-0.67324 -1.25752,-0.48025 -1.32217,-0.55907 -0.946,-1.15333 0.26624,-0.42058 1.32563,-0.0342 5.11319,1.86494 2.10779,1.05686 2.20854,1.15672 1.80708,1.79085 -0.19599,0.30957 -0.39692,0.27639 -1.2017,-0.19844 -0.53149,-0.31359 -1.08384,-0.57017 -1.22744,-0.57017 -0.1436,0 -1.14172,1.84547 -2.21805,4.10105 -1.07633,2.25557 -2.05337,4.08815 -2.17119,4.0724 -0.11782,-0.0157 -0.60123,-0.22713 -1.07424,-0.46974 z m -51.493005,-1.68443 c -0.0877,-0.32743 -0.16117,-0.82213 -0.16316,-1.09934 -0.003,-0.45518 0.0413,-0.46549 0.45941,-0.10637 0.77096,0.66214 1.3744,0.75592 2.32048,0.36062 1.10973,-0.46368 1.43978,-1.43903 0.81144,-2.39799 -0.23767,-0.36274 -0.57822,-0.66192 -0.75676,-0.66485 -1.61219,-0.0264 -3.7804,-0.57108 -4.33044,-1.08783 -1.712982,-1.60926 -1.256568,-4.0733 0.9631,-5.19946 0.65923,-0.33447 1.54488,-0.57065 1.98437,-0.52917 0.68711,0.0649 0.80507,0.19284 0.878,0.95276 l 0.0842,0.87786 -0.67763,-0.444 c -1.19518,-0.78311 -2.79816,-0.0796 -2.79816,1.22813 0,0.98726 0.76236,1.45203 2.73477,1.66726 2.01139,0.21949 2.91062,0.70962 3.47188,1.89238 0.61975,1.30604 0.35609,2.53368 -0.79041,3.68019 -1.43052,1.43051 -3.90335,1.94371 -4.19114,0.86981 z m 45.606155,-0.86031 c -0.54256,-0.1952 -0.89178,-0.48323 -0.8433,-0.69554 0.078,-0.34162 3.26561,-9.2789 3.36256,-9.42784 0.10052,-0.15441 1.97865,0.75382 1.97865,0.95684 0,0.35426 -3.19866,9.15123 -3.39368,9.33333 -0.098,0.0915 -0.59491,0.0164 -1.10423,-0.16679 z m -3.83942,-1.24625 -1.06129,-0.25707 -0.76044,-2.6387 c -0.41824,-1.45128 -0.851675,-2.54169 -0.963195,-2.42313 -0.11151,0.11856 -0.40501,1.13829 -0.65223,2.26608 -0.24721,1.12779 -0.52682,2.04986 -0.62135,2.04905 -0.0945,-8.2e-4 -0.60173,-0.12088 -1.12712,-0.26682 l -0.95523,-0.26534 1.18671,-4.95871 c 0.6527,-2.72728 1.22574,-5.002672 1.27344,-5.056416 0.12212,-0.137589 3.770615,0.757028 4.816745,1.181076 2.21954,0.89968 1.76083,4.3113 -0.64024,4.76174 -0.48935,0.0918 -0.88972,0.20729 -0.88972,0.25664 0,0.0493 0.41672,1.24092 0.92604,2.64795 0.50933,1.40702 0.92604,2.66309 0.92604,2.79125 0,0.26382 -0.01,0.26323 -1.45816,-0.0876 z m -0.46128,-6.62232 c 0.18123,-0.14497 0.46271,-0.70815 0.6255,-1.25151 0.36382,-1.21432 0.007,-2.03881 -0.99105,-2.28928 -0.83729,-0.21015 -0.99512,0.0188 -1.43198,2.07741 -0.28218,1.32971 -0.2763,1.61362 0.0375,1.81061 0.39641,0.24884 1.21734,0.0869 1.76002,-0.34723 z m -34.040915,5.68617 c -1.65862,-6.28113 -2.13809,-8.20152 -2.1388,-8.56647 -5.3e-4,-0.3214 0.58605,-0.57576 2.31426,-1.00341 1.27331,-0.315075 2.51451,-0.632531 2.75822,-0.705453 0.31102,-0.09306 0.46876,0.04831 0.52917,0.474237 0.0773,0.544986 -0.0725,0.639546 -1.46983,0.927976 -0.85573,0.17663 -1.61328,0.37857 -1.68346,0.44874 -0.22252,0.22253 0.5103,2.83743 0.82952,2.95992 0.16819,0.0645 0.88882,-0.0581 1.60141,-0.27258 1.4199,-0.42732 1.73445,-0.3619 1.73445,0.36075 0,0.37165 -0.2826,0.51784 -1.25677,0.65013 -1.97142,0.26772 -2.01376,0.33447 -1.50273,2.36889 0.24342,0.96908 0.5855,1.76195 0.76016,1.76195 0.17467,0 0.88764,-0.19423 1.58438,-0.43164 1.06806,-0.36392 1.30308,-0.3743 1.49804,-0.0661 0.12718,0.20103 0.19531,0.47908 0.1514,0.61791 -0.0719,0.22727 -4.34533,1.44494 -5.12688,1.46086 -0.1763,0.004 -0.43843,-0.43996 -0.58254,-0.98567 z m 9.36973,-1.16697 c -2.42317,-0.90835 -3.40842,-2.5397 -3.26378,-5.40404 0.0847,-1.67821 0.20118,-2.05173 0.91475,-2.93457 0.4497,-0.556387 1.17199,-1.219263 1.60509,-1.473061 1.09849,-0.643716 3.26896,-1.009096 4.62726,-0.778958 1.0474,0.177461 1.15075,0.265743 1.22667,1.047828 0.0925,0.952613 -0.0857,1.053301 -0.76914,0.434742 -0.71401,-0.646171 -2.39104,-0.77157 -3.39254,-0.253676 -2.26885,1.173275 -2.47893,6.007745 -0.34356,7.906365 1.19882,1.06591 3.52238,0.95168 4.83672,-0.23778 0.49349,-0.4466 0.51166,-0.43835 0.51166,0.23263 0,0.5169 -0.22043,0.80965 -0.85779,1.13925 -1.04628,0.54105 -4.01046,0.72795 -5.09534,0.32127 z m 11.50977,0.002 c -1.48926,-0.27394 -2.37817,-0.91135 -2.99216,-2.1456 -0.42167,-0.84765 -0.45637,-1.38284 -0.29335,-4.52571 0.10168,-1.960406 0.26224,-3.689566 0.35681,-3.842575 0.10077,-0.163052 0.57784,-0.21233 1.15261,-0.119056 l 0.98069,0.159143 -0.16066,3.735798 c -0.18488,4.29938 -0.0212,4.98605 1.34328,5.63675 1.17908,0.56226 2.65015,0.24608 3.37007,-0.72433 0.55209,-0.74419 0.98928,-3.21735 1.00311,-5.67454 0.012,-2.134129 0.21088,-2.778128 0.85792,-2.778128 0.5082,0 0.52271,0.116505 0.35402,2.844268 -0.24722,3.99762 -0.39953,4.92536 -0.95989,5.84679 -0.85311,1.40282 -2.74977,2.0034 -5.01245,1.58719 z"
       id="path6342"
       inkscape:connector-curvature="0" />
  </g>
</svg>
