<?xml version="1.0" encoding="UTF-8" standalone="no"?>
<svg
   xmlns:dc="http://purl.org/dc/elements/1.1/"
   xmlns:cc="http://creativecommons.org/ns#"
   xmlns:rdf="http://www.w3.org/1999/02/22-rdf-syntax-ns#"
   xmlns:svg="http://www.w3.org/2000/svg"
   xmlns="http://www.w3.org/2000/svg"
   viewBox="0 0 628.17334 243.42667"
   height="243.42667"
   width="628.17334"
   xml:space="preserve"
   id="svg2"
   version="1.1"><metadata
     id="metadata8"><rdf:RDF><cc:Work
         rdf:about=""><dc:format>image/svg+xml</dc:format><dc:type
           rdf:resource="http://purl.org/dc/dcmitype/StillImage" /></cc:Work></rdf:RDF></metadata><defs
     id="defs6" /><g
     transform="matrix(1.3333333,0,0,-1.3333333,0,243.42667)"
     id="g10"><g
       transform="scale(0.1)"
       id="g12"><path
         id="path14"
         style="fill:#54c38a;fill-opacity:1;fill-rule:evenodd;stroke:none"
         d="m 571.703,393.352 -12.031,-4.122 c -78.027,-25.89 -193.516,-65.769 -297.09,-113.429 -5.605,-2.641 -9.277,-9.973 -9.277,-9.973 -1.946,-4.348 -4.239,-9.848 -7.102,-16.039 l -0.351,-0.91 C 234.289,222.531 218.246,182.77 211.254,166.621 l -5.156,-12.73 c -0.91,-2.063 -0.344,-4.352 1.152,-5.95 1.023,-0.921 2.176,-1.382 3.66,-1.492 0.578,0 1.496,0.231 2.297,0.571 l 12.488,5.96 c 28.41,13.52 64.27,33.911 101.848,51.782 l 1.375,0.699 c 71.613,33.898 152.383,72.289 201.074,95.437 0,0 7.793,4.122 11.692,12.024 l 36.433,72.988 c 0.91,1.942 0.684,4.231 -0.574,5.84 -1.602,1.602 -3.781,2.172 -5.84,1.602" /><path
         id="path16"
         style="fill:#54c38a;fill-opacity:1;fill-rule:evenodd;stroke:none"
         d="m 280.676,506.52 c 5.156,9.968 28.762,55.46 34.14,65.66 l 1.036,1.711 C 473.84,872.012 666.438,1153.4 888.363,1409.8 l 5.957,7.1 c 1.942,2.18 2.293,5.39 0.918,8.03 -1.379,2.52 -4.355,3.89 -7.109,3.55 l -9.277,-1.27 C 733.234,1407.17 586.008,1379.44 440.844,1344.73 426.41,1340.72 417.133,1331.32 415.18,1329.15 306.684,1199.11 203.684,1062.2 109.387,921.961 c -4.696,-7.109 -5.157,-24.063 -5.157,-24.063 0,0 23.723,-182.628 58.321,-317.25 C 76.8477,334.09 0.316406,8.94141 0.316406,8.94141 -0.367188,6.87891 0.0898438,4.58984 1.35156,2.87109 2.60938,1.03125 4.67188,0.0117188 6.84766,0.0117188 H 55.6563 C 58.7539,-0.109375 61.4961,1.73047 62.6484,4.58984 l 3.2032,9.17186 C 115.805,149.641 172.641,283.91 235.305,414.641 c 14.55,30.48 45.371,91.879 45.371,91.879" /><path
         id="path18"
         style="fill:#54c38a;fill-opacity:1;fill-rule:evenodd;stroke:none"
         d="m 959.945,1356.47 -0.117,9.4 c -0.109,2.86 -2.062,5.49 -4.699,6.41 -2.625,1.03 -5.84,0.35 -7.676,-1.95 l -6.074,-6.98 C 682.68,1064.2 465.453,732.281 295.316,376.66 l -3.898,-8.25 c -1.367,-2.64 -0.801,-5.84 1.152,-7.898 1.368,-1.5 3.086,-2.184 5.039,-2.184 0.918,0 1.836,0.121 2.746,0.461 l 8.594,3.539 c 145.281,60.281 293.535,112.293 440.985,154.902 8.711,2.52 16.269,8.719 20.39,16.848 64.621,125.91 214.602,369.719 214.602,369.719 3.777,5.5 2.859,13.633 2.859,13.633 0,0 -26.238,291.47 -27.84,439.04" /><path
         id="path20"
         style="fill:#54c38a;fill-opacity:1;fill-rule:evenodd;stroke:none"
         d="m 1294.25,1776.99 c -36.66,31.86 -89.94,46.75 -172.77,48.58 -75.04,1.61 -164.183,-14.55 -265.343,-47.89 -15.129,-5.39 -27.278,-13.75 -37.93,-24.4 C 715.324,1656.8 615.422,1554.5 520.902,1448.63 l -7.226,-8.02 c -2.063,-2.29 -2.403,-5.61 -0.91,-8.25 1.484,-2.63 4.582,-3.9 7.558,-3.32 l 10.656,2.18 c 152.266,32.64 306.133,57.51 457.02,74.01 9.855,1.15 20.17,-2.18 27.5,-8.93 7.45,-6.88 11.69,-16.62 11.57,-26.7 -2.52,-149.75 2.86,-300.18 16.27,-447.29 l 0.8,-9.63 c 0.34,-2.98 2.41,-5.38 5.28,-6.18 0.46,-0.11 1.02,-0.23 1.72,-0.23 2.17,-0.11 4.58,1.03 5.95,2.99 l 5.5,7.9 c 85.01,121.32 177.47,239.23 274.85,350.7 h -0.11 c 11,12.49 13.75,20.28 15.92,31.5 30.48,196.04 -16.72,340.97 -59,377.63" /><path
         id="path22"
         style="fill:#54c38a;fill-opacity:1;fill-rule:nonzero;stroke:none"
         d="m 1648.53,917.129 -63.99,-63.977 c -19.11,19.114 -34.07,28.25 -63.15,28.25 -45.7,0 -83.93,-36.558 -83.93,-94.722 V 530.738 h -84.75 v 421.289 h 83.09 v -45.691 c 21.6,29.91 64.81,50.684 112.18,50.684 40.71,0 71.46,-10.801 100.55,-39.891" /><path
         id="path24"
         style="fill:#54c38a;fill-opacity:1;fill-rule:nonzero;stroke:none"
         d="m 1767.34,857.305 c -25.77,-25.766 -29.09,-69.793 -29.09,-115.504 0,-45.699 3.32,-89.742 29.09,-115.5 15.79,-15.789 36.56,-24.93 61.49,-24.93 24.92,0 46.53,9.141 62.32,24.93 25.76,25.758 29.09,69.801 29.09,115.5 0,45.711 -3.33,89.738 -29.09,115.504 -15.79,15.789 -37.4,24.097 -62.32,24.097 -24.93,0 -45.7,-8.308 -61.49,-24.097 z m 187.79,49.859 c 39.89,-41.551 49.86,-94.734 49.86,-165.363 0,-71.461 -9.97,-124.641 -49.86,-166.199 -27.42,-28.243 -68.97,-49.852 -126.3,-49.852 -57.34,0 -98.06,21.609 -125.48,49.852 -39.88,41.558 -49.85,94.738 -49.85,166.199 0,70.629 9.97,123.812 49.85,165.363 27.42,28.254 68.14,49.856 125.48,49.856 57.33,0 98.88,-21.602 126.3,-49.856" /><path
         id="path26"
         style="fill:#54c38a;fill-opacity:1;fill-rule:nonzero;stroke:none"
         d="m 2168.66,741.801 c 0,-74.781 10.81,-140.43 88.09,-140.43 76.45,0 87.25,65.649 87.25,140.43 0,74.789 -10.8,139.601 -87.25,139.601 -77.28,0 -88.09,-64.812 -88.09,-139.601 z m 0,167.855 c 30.75,36.563 65.65,47.364 110.52,47.364 42.38,0 78.94,-14.129 102.21,-37.391 40.71,-41.555 47.36,-108.859 47.36,-177.828 0,-69.801 -6.65,-137.102 -47.36,-178.66 -23.27,-23.262 -60.66,-37.391 -103.04,-37.391 -44.87,0 -79.77,11.629 -111.35,49.852 v -44.864 h -83.09 v 591.642 h 84.75 V 909.656" /><path
         id="path28"
         style="fill:#54c38a;fill-opacity:1;fill-rule:nonzero;stroke:none"
         d="m 2600.74,530.738 h -84.75 v 421.289 h 84.75 z m 2.49,504.392 h -89.74 v 89.74 h 89.74 v -89.74" /><path
         id="path30"
         style="fill:#54c38a;fill-opacity:1;fill-rule:nonzero;stroke:none"
         d="m 3013.71,918.797 c 32.42,-31.582 42.39,-71.465 42.39,-118.828 V 530.738 h -84.76 v 256.774 c 0,65.64 -37.39,93.89 -84.76,93.89 -47.37,0 -87.25,-29.089 -87.25,-93.89 V 530.738 h -84.76 v 421.289 h 83.1 v -42.371 c 29.08,31.574 69.8,47.364 112.18,47.364 43.21,0 78.94,-14.129 103.86,-38.223" /><path
         id="path32"
         style="fill:#54c38a;fill-opacity:1;fill-rule:nonzero;stroke:none"
         d="m 3235.56,909.656 c 28.26,31.574 67.31,47.364 110.52,47.364 43.21,0 78.94,-14.129 103.87,-38.223 32.41,-31.582 42.38,-71.465 42.38,-118.828 V 530.738 h -84.76 v 256.774 c 0,65.64 -37.39,93.89 -84.76,93.89 -47.36,0 -87.25,-29.089 -87.25,-93.89 V 530.738 h -84.76 v 591.642 h 84.76 V 909.656" /><path
         id="path34"
         style="fill:#54c38a;fill-opacity:1;fill-rule:nonzero;stroke:none"
         d="m 3670.97,857.305 c -25.76,-25.766 -29.09,-69.793 -29.09,-115.504 0,-45.699 3.33,-89.742 29.09,-115.5 15.78,-15.789 36.55,-24.93 61.48,-24.93 24.94,0 46.54,9.141 62.33,24.93 25.76,25.758 29.08,69.801 29.08,115.5 0,45.711 -3.32,89.738 -29.08,115.504 -15.79,15.789 -37.39,24.097 -62.33,24.097 -24.93,0 -45.7,-8.308 -61.48,-24.097 z m 187.79,49.859 c 39.89,-41.551 49.86,-94.734 49.86,-165.363 0,-71.461 -9.97,-124.641 -49.86,-166.199 -27.42,-28.243 -68.96,-49.852 -126.31,-49.852 -57.33,0 -98.04,21.609 -125.47,49.852 -39.89,41.558 -49.86,94.738 -49.86,166.199 0,70.629 9.97,123.812 49.86,165.363 27.43,28.254 68.14,49.856 125.47,49.856 57.35,0 98.89,-21.602 126.31,-49.856" /><path
         id="path36"
         style="fill:#54c38a;fill-opacity:1;fill-rule:nonzero;stroke:none"
         d="m 4076.45,857.305 c -25.76,-25.766 -29.08,-69.793 -29.08,-115.504 0,-45.699 3.32,-89.742 29.08,-115.5 15.79,-15.789 36.56,-24.93 61.49,-24.93 24.92,0 46.54,9.141 62.32,24.93 25.76,25.758 29.09,69.801 29.09,115.5 0,45.711 -3.33,89.738 -29.09,115.504 -15.78,15.789 -37.4,24.097 -62.32,24.097 -24.93,0 -45.7,-8.308 -61.49,-24.097 z m 187.79,49.859 c 39.89,-41.551 49.86,-94.734 49.86,-165.363 0,-71.461 -9.97,-124.641 -49.86,-166.199 -27.41,-28.243 -68.96,-49.852 -126.3,-49.852 -57.34,0 -98.05,21.609 -125.48,49.852 -39.88,41.558 -49.85,94.738 -49.85,166.199 0,70.629 9.97,123.812 49.85,165.363 27.43,28.254 68.14,49.856 125.48,49.856 57.34,0 98.89,-21.602 126.3,-49.856" /><path
         id="path38"
         style="fill:#54c38a;fill-opacity:1;fill-rule:nonzero;stroke:none"
         d="m 4451.18,740.969 c 0,-74.789 10.8,-139.598 87.26,-139.598 77.28,0 88.08,64.809 88.08,139.598 0,74.793 -10.8,140.433 -88.08,140.433 -76.46,0 -87.26,-65.64 -87.26,-140.433 z m 260.09,-210.231 h -83.09 v 44.864 c -31.58,-38.223 -66.48,-49.852 -111.35,-49.852 -43.2,0 -79.78,14.129 -103.04,37.391 -40.72,41.558 -47.36,108.859 -47.36,177.828 0,68.972 6.64,137.105 47.36,178.66 23.26,23.262 59,37.391 102.21,37.391 44.87,0 79.77,-10.801 110.52,-48.196 v 213.556 h 84.75 V 530.738" /></g></g></svg>