<svg id="Layer_4" data-name="Layer 4" xmlns="http://www.w3.org/2000/svg" width="1440" height="1024" viewBox="0 0 1440 1024">
  <defs>
    <style>
      .cls-1 {
        fill: #c5f0ff;
      }
    </style>
  </defs>
  <title>Bottom Right Stars</title>
  <path class="cls-1" d="M1183.3,812v4.4h-.4a8.4,8.4,0,0,0-8.4,8.3v.5h-4.4v-.5a8.3,8.3,0,0,0-8.3-8.3h-.5V812h.5a8.3,8.3,0,0,0,8.3-8.3v-.5h4.4v.5a8.4,8.4,0,0,0,8.4,8.3Z"/>
  <path class="cls-1" d="M1300,856.8V867h-1.2a19.3,19.3,0,0,0-19.3,19.3v1.2h-10.2v-1.2a19.4,19.4,0,0,0-19.4-19.3h-1.1V856.8h1.1a19.4,19.4,0,0,0,19.4-19.4v-1.1h10.2v1.1a19.3,19.3,0,0,0,19.3,19.4Z"/>
</svg>
