<svg xmlns="http://www.w3.org/2000/svg" width="1440" height="1024" viewBox="0 0 1440 1024">
  <defs>
    <style>
      .cls-1 {
        fill: #fff;
      }
    </style>
  </defs>
  <title>Bottom Left Cloud</title>
  <g id="Layer_4" data-name="Layer 4">
    <path class="cls-1" d="M510.2,839.4h0a3.5,3.5,0,0,1-3.5,3.5H180a3.5,3.5,0,0,1-3.5-3.5h0a5.8,5.8,0,0,1,5.8-5.8h34.8a34.2,34.2,0,0,1,33.7-28.5,33.7,33.7,0,0,1,21.1,7.3,40.1,40.1,0,0,1,73-15.8,54.3,54.3,0,0,1,84.7,18.2,29.4,29.4,0,0,1,44.7,18.8h30.1A5.8,5.8,0,0,1,510.2,839.4Z"/>
  </g>
</svg>
