<svg id="Layer_3" data-name="Layer 3" xmlns="http://www.w3.org/2000/svg" width="1440" height="1024" viewBox="0 0 1440 1024">
  <defs>
    <style>
      .cls-1 {
        fill: #c5f0ff;
      }
    </style>
  </defs>
  <title>Bottom Left Stars</title>
  <path class="cls-1" d="M313.1,876.1v3.1h-.4a5.9,5.9,0,0,0-5.9,6v.3h-3.2v-.3a5.9,5.9,0,0,0-5.9-6h-.4v-3.1h.4a5.9,5.9,0,0,0,5.9-6v-.3h3.2v.3a5.9,5.9,0,0,0,5.9,6Z"/>
  <path class="cls-1" d="M223.9,827v8.4H223a15.8,15.8,0,0,0-15.8,15.8v.9h-8.4v-.9A15.8,15.8,0,0,0,183,835.4h-.9V827h.9a15.8,15.8,0,0,0,15.8-15.8v-1h8.4v1A15.8,15.8,0,0,0,223,827Z"/>
</svg>
