<svg xmlns="http://www.w3.org/2000/svg" width="1440" height="1024" viewBox="0 0 1440 1024">
  <defs>
    <style>
      .cls-1 {
        isolation: isolate;
      }

      .cls-2 {
        fill: #2aaa20;
        mix-blend-mode: multiply;
      }

      .cls-3 {
        fill: #a6f696;
        mix-blend-mode: screen;
      }
    </style>
  </defs>
  <title>Left Leaves</title>
  <g class="cls-1">
    <g id="Layer_2" data-name="Layer 2">
      <g>
        <path class="cls-2" d="M314,591c7.4-7.4,16.7-19.7,13.1-36-16.4-3.7-28.7,5.7-36,13s-16.7,19.7-13.1,36.1C294.4,607.7,306.7,598.3,314,591Z"/>
        <path class="cls-2" d="M299.9,722.6c4.2-4.2,9.5-11.1,7.4-20.4-9.2-2.1-16.2,3.2-20.4,7.4s-9.4,11.2-7.4,20.4C288.8,732.1,295.8,726.8,299.9,722.6Z"/>
        <path class="cls-2" d="M309.2,344c9.9-9.9,22.5-26.5,17.6-48.6-22.1-4.9-38.7,7.7-48.6,17.6s-22.6,26.6-17.7,48.7C282.6,366.5,299.3,353.9,309.2,344Z"/>
        <path class="cls-2" d="M263.4,451.3c3.1,3.2,8.4,7.2,15.5,5.6,1.5-7-2.5-12.3-5.6-15.5s-8.5-7.2-15.5-5.6C256.2,442.8,260.2,448.1,263.4,451.3Z"/>
        <path class="cls-3" d="M333.6,674.7c5.3,5.2,14.1,11.9,25.7,9.3,2.6-11.7-4-20.5-9.3-25.7s-14-11.9-25.7-9.3C321.7,660.6,328.4,669.4,333.6,674.7Z"/>
        <path class="cls-3" d="M343.7,461.3c-5.2-5.2-14-11.9-25.7-9.3-2.6,11.7,4.1,20.5,9.3,25.7s14.1,11.9,25.8,9.4C355.7,475.4,349,466.6,343.7,461.3Z"/>
      </g>
    </g>
  </g>
</svg>
