<svg xmlns="http://www.w3.org/2000/svg" width="100%" height="100%" viewBox="0 0 804.7 271.5">
  <defs>
    <style>
      .cls-1 {
        isolation: isolate;
      }

      .cls-2 {
        fill: #0c0c51;
      }

      .cls-3 {
        fill: #ff9e00;
      }

      .cls-4 {
        fill: #ffca00;
      }

      .cls-22, .cls-5 {
        fill: #c9926c;
      }

      .cls-27, .cls-6 {
        fill: #e88170;
      }

      .cls-7 {
        fill: #0f66bc;
      }

      .cls-8, .cls-9 {
        fill: #985436;
      }

      .cls-17, .cls-22, .cls-9 {
        mix-blend-mode: multiply;
      }

      .cls-10 {
        fill: #3882d6;
      }

      .cls-11 {
        fill: #464649;
      }

      .cls-12 {
        fill: #5a5a5e;
      }

      .cls-13, .cls-21 {
        fill: #fff;
      }

      .cls-14, .cls-20 {
        fill: none;
        stroke-miterlimit: 10;
      }

      .cls-14 {
        stroke: #3882d6;
        stroke-width: 1.12px;
      }

      .cls-15, .cls-17 {
        fill: #ffad98;
      }

      .cls-16 {
        fill: #65c1ef;
      }

      .cls-18 {
        fill: #966e5a;
      }

      .cls-19 {
        fill: #a39ae2;
      }

      .cls-20 {
        stroke: #000;
      }

      .cls-21, .cls-24 {
        opacity: 0.5;
      }

      .cls-23, .cls-26 {
        fill: #5f7fce;
      }

      .cls-25 {
        fill: #281f17;
      }

      .cls-26, .cls-27 {
        mix-blend-mode: screen;
      }
    </style>
  </defs>
  <title>Letter from our Team</title>
  <g class="cls-1">
    <g id="Layer_1" data-name="Layer 1">
      <g>
        <g>
          <rect class="cls-2" x="383.8" y="257.4" width="39.4" height="14.16"/>
          <rect class="cls-2" x="430.8" y="257.4" width="19.7" height="14.16"/>
          <rect class="cls-2" x="356.4" y="257.4" width="19.7" height="14.16"/>
          <path class="cls-3" d="M397.5,207.5c-7.8,0-14.1-10.3-14.1-22.9s6.3-22.9,14.1-22.9"/>
          <path class="cls-4" d="M427.5,241.6c-5,0-9-5.9-9-13.1s4-13.2,9-13.2"/>
          <path class="cls-4" d="M379.4,210.8c6.4,0,11.5,6.9,11.5,15.4s-5.1,15.4-11.5,15.4"/>
          <path class="cls-3" d="M406.5,172.2c6.6,0,12,11.7,12,26.1s-5.4,26.1-12,26.1"/>
          <path class="cls-4" d="M395.6,246.8a8,8,0,0,1,15.9,0"/>
        </g>
        <rect class="cls-5" x="602.9" y="94.4" width="13.2" height="34.86" transform="translate(1216 -15) rotate(157.8)"/>
        <path class="cls-5" d="M615.4,119.7h44.8a0,0,0,0,1,0,0v10.7a0,0,0,0,1,0,0H615.4A5.4,5.4,0,0,1,610,125v0A5.4,5.4,0,0,1,615.4,119.7Z" transform="translate(1270.2 250) rotate(-180)"/>
        <path class="cls-6" d="M619,114.1l-14.7,6-5.2-12.7v53.4H542V103.9l2.3-5.7-2.3-1-9.9-4-8.8,21.4-1.2-.5,12-29.4a9.9,9.9,0,0,1,9.2-6.2h54.5a9.9,9.9,0,0,1,9.2,6.2Z"/>
        <polygon class="cls-5" points="544.3 98.2 535.6 119.6 531.1 130.5 518.9 125.5 523.3 114.6 532.1 93.2 544.3 98.2"/>
        <rect class="cls-7" x="270.2" y="108" width="10.2" height="11.48"/>
        <path class="cls-8" d="M211.4,23.6h57.1a0,0,0,0,1,0,0V52.2A28.6,28.6,0,0,1,240,80.7h0a28.6,28.6,0,0,1-28.6-28.6V23.6A0,0,0,0,1,211.4,23.6Z"/>
        <circle class="cls-8" cx="268.6" cy="48.9" r="6.6"/>
        <path class="cls-9" d="M268.6,45.7a3.2,3.2,0,0,1,0,6.4"/>
        <path class="cls-9" d="M242.7,57.3a2.7,2.7,0,1,1-5.4,0"/>
        <circle class="cls-8" cx="211.4" cy="48.9" r="6.6"/>
        <g>
          <path d="M224.6,50.7a3.6,3.6,0,0,1,7.2,0"/>
          <path d="M248.3,50.7a3.6,3.6,0,1,1,7.1,0"/>
        </g>
        <rect class="cls-10" x="211.4" y="87.5" width="57.1" height="86.82"/>
        <path class="cls-9" d="M211.4,52.1a3.2,3.2,0,0,1,0-6.4"/>
        <rect class="cls-8" x="215.9" y="216" width="14.4" height="40.24"/>
        <rect class="cls-8" x="249.7" y="216" width="14.4" height="40.24"/>
        <polygon class="cls-11" points="268.6 174.3 268.6 241.8 244.1 241.8 244.1 205.2 235.9 205.2 235.9 241.8 211.4 241.8 211.4 174.3 268.6 174.3"/>
        <rect class="cls-12" x="246.3" y="241.8" width="20.3" height="8.34"/>
        <rect class="cls-12" x="213" y="241.8" width="20.3" height="8.34"/>
        <path class="cls-7" d="M260,87.5h14.8a5.5,5.5,0,0,1,5.5,5.5v17.8a0,0,0,0,1,0,0H260a0,0,0,0,1,0,0V87.5A0,0,0,0,1,260,87.5Z"/>
        <rect class="cls-7" x="197.6" y="87.5" width="24" height="18.68"/>
        <polygon class="cls-7" points="271.5 87.5 271.5 174.3 208.8 174.3 208.8 87.5 230.2 87.5 240 128.2 249.8 87.5 271.5 87.5"/>
        <g>
          <rect class="cls-8" x="230.2" y="67.5" width="19.7" height="20"/>
          <circle class="cls-8" cx="240" cy="87.5" r="9.8"/>
        </g>
        <path class="cls-13" d="M231.7,66c0,4.3,3.7,7.7,8.3,7.7s8.4-3.4,8.4-7.7Z"/>
        <line class="cls-14" x1="240" y1="119.5" x2="240" y2="162.6"/>
        <rect class="cls-10" x="249.8" y="151.9" width="14.1" height="3.34"/>
        <rect class="cls-10" x="216.3" y="151.9" width="14.1" height="3.34"/>
        <rect class="cls-10" x="183.6" y="92.1" width="18.7" height="9.4" transform="translate(289.7 -96.1) rotate(90)"/>
        <rect class="cls-10" x="264.4" y="112.9" width="15.9" height="9.4" transform="translate(544.8 235.2) rotate(180)"/>
        <rect class="cls-8" x="176.4" y="89" width="11.8" height="14.81"/>
        <rect class="cls-8" x="267.7" y="121.8" width="12.6" height="11.82"/>
        <path class="cls-8" d="M176.4,90.1h10.5V57.9a5.4,5.4,0,0,0-5.2-5.7h0a5.5,5.5,0,0,0-5.3,5.7Z"/>
        <path class="cls-8" d="M267.6,133.5l7.5-7.4-20-20a5.5,5.5,0,0,0-7.8-.4h0a5.5,5.5,0,0,0,.3,7.8Z"/>
        <g>
          <path class="cls-13" d="M220.3,112.1l-3.2-1.8v-4.4l3.7-2.1,3.9,2.2v4.3l-2.2,1.3v3.5l2.9,1.6,2.9-1.6v-3.5l-2.3-1.3v-.9l3.2,1.7v4.5l-3.8,2.2-3.8-2.2v-4.5l2.2-1.3v-3.4l-2.9-1.6-2.9,1.6v3.4l2.3,1.4Z"/>
          <polygon class="cls-13" points="219.1 107.2 219.1 109.2 220.9 110.3 222.7 109.2 222.7 107.2 220.9 106.1 219.1 107.2"/>
          <polygon class="cls-13" points="223.6 112.3 223.6 114.4 225.4 115.4 227.2 114.4 227.2 112.3 225.4 111.3 223.6 112.3"/>
        </g>
        <path d="M268.6,18.9V40.2c0,.2-.2.3-.4.3a9.1,9.1,0,0,1-9-7.8H220.8a9.2,9.2,0,0,1-2.6,5.2,9.1,9.1,0,0,1-6.4,2.6c-.2,0-.4-.1-.4-.3V18.9a5.8,5.8,0,0,1,5.8-5.7h45.7A5.8,5.8,0,0,1,268.6,18.9Z"/>
        <path d="M249.6,256.2h18.5a13,13,0,0,1,13,13v.4a1.9,1.9,0,0,1-1.9,1.9H252.4a5.3,5.3,0,0,1-5.3-5.3v-7.6a2.4,2.4,0,0,1,2.4-2.4Z"/>
        <path d="M204.3,256.2H231a1.9,1.9,0,0,1,1.9,1.9v.4a13,13,0,0,1-13,13H201.4a2.4,2.4,0,0,1-2.4-2.4v-7.6A5.3,5.3,0,0,1,204.3,256.2Z" transform="translate(431.9 527.7) rotate(180)"/>
        <rect class="cls-15" x="699.7" y="153.3" width="40.4" height="11.42"/>
        <rect class="cls-15" x="717.8" y="138.3" width="13.1" height="15.16"/>
        <rect class="cls-15" x="783.5" y="91" width="11.8" height="31.55" transform="translate(306.7 -526.9) rotate(45)"/>
        <path class="cls-15" d="M783.4,72.4h.6a4.6,4.6,0,0,1,4.6,4.6V99a0,0,0,0,1,0,0h-9.8a0,0,0,0,1,0,0V77A4.6,4.6,0,0,1,783.4,72.4Z" transform="translate(169 579.3) rotate(-45)"/>
        <polygon class="cls-16" points="725.9 124.8 725.9 181.1 783 181.1 783 124.8 797.6 110.2 784.8 97.2 773 109 735.9 109 725.9 109 725.9 124.8"/>
        <path class="cls-15" d="M725.9,46.9H783a0,0,0,0,1,0,0V75.5A28.6,28.6,0,0,1,754.5,104h0a28.6,28.6,0,0,1-28.6-28.6V46.9A0,0,0,0,1,725.9,46.9Z"/>
        <circle class="cls-15" cx="783" cy="72.2" r="6.6"/>
        <path class="cls-17" d="M783,69a3.2,3.2,0,0,1,3.2,3.2,3.2,3.2,0,0,1-3.2,3.2"/>
        <path class="cls-17" d="M751.1,80.6a2.8,2.8,0,0,1-2.8,2.7,2.7,2.7,0,0,1-2.7-2.7"/>
        <circle class="cls-15" cx="725.9" cy="72.2" r="6.6"/>
        <g>
          <path d="M736,74a3.6,3.6,0,1,1,7.1,0"/>
          <path d="M758.2,74a3.6,3.6,0,1,1,7.1,0"/>
        </g>
        <g>
          <rect class="cls-15" x="744.6" y="90.8" width="19.7" height="20"/>
          <circle class="cls-15" cx="754.5" cy="110.8" r="9.8"/>
        </g>
        <path class="cls-13" d="M743,88.3a8.4,8.4,0,1,0,16.7,0Z"/>
        <path class="cls-17" d="M725.9,75.4a3.2,3.2,0,0,1-3.2-3.2,3.2,3.2,0,0,1,3.2-3.2"/>
        <polygon class="cls-18" points="783 181.2 783 220.5 758.5 220.5 758.5 212.2 750.4 212.2 750.4 220.5 725.9 220.5 725.9 181.2 783 181.2"/>
        <rect class="cls-15" x="730.4" y="220.5" width="14.4" height="38.01"/>
        <rect class="cls-15" x="764.1" y="220.5" width="14.4" height="38.01"/>
        <rect class="cls-16" x="764.1" y="246.4" width="14.4" height="12.17"/>
        <rect class="cls-16" x="730.4" y="246.4" width="14.4" height="12.17"/>
        <rect class="cls-6" x="764.1" y="250.6" width="14.4" height="3.71"/>
        <rect class="cls-6" x="730.4" y="250.6" width="14.4" height="3.71"/>
        <path d="M783,43.3v20a9.7,9.7,0,0,1-9.4-7.6H735.3a9.8,9.8,0,0,1-2.6,4.8,9.6,9.6,0,0,1-6.8,2.8V46.7a6.3,6.3,0,0,1,6.3-6.3h8.9a4.6,4.6,0,0,1,4.6-4.5h29.9A7.4,7.4,0,0,1,783,43.3Z"/>
        <path class="cls-2" d="M762.1,258.5h16.5a0,0,0,0,1,0,0v9.8a3.2,3.2,0,0,1-3.2,3.2H753.6a2.3,2.3,0,0,1-2.3-2.3v0A10.7,10.7,0,0,1,762.1,258.5Z"/>
        <path class="cls-2" d="M728.6,258.5h16.5a0,0,0,0,1,0,0v9.8a3.2,3.2,0,0,1-3.2,3.2H720.1a2.3,2.3,0,0,1-2.3-2.3v0A10.7,10.7,0,0,1,728.6,258.5Z"/>
        <path class="cls-16" d="M725.8,109h3a0,0,0,0,1,0,0v35a0,0,0,0,1,0,0H714.7a0,0,0,0,1,0,0V120.1A11.2,11.2,0,0,1,725.8,109Z"/>
        <g>
          <path class="cls-15" d="M699.7,153.3h-14a1.9,1.9,0,0,0-1.8,1.9v4.6a4.9,4.9,0,0,0,4.9,4.9h10.9"/>
          <path class="cls-15" d="M694.5,148.1h1.7a0,0,0,0,1,0,0v9.4a0,0,0,0,1,0,0h-4.5a0,0,0,0,1,0,0v-6.6A2.8,2.8,0,0,1,694.5,148.1Z"/>
        </g>
        <g>
          <path class="cls-13" d="M730,138.4v-8h1.8v3.5h1.8v-3.5h1.8v8h-1.8v-3.6h-1.8v3.6Z"/>
          <path class="cls-13" d="M737.7,138.4v-6.2a1.7,1.7,0,0,1,1.8-1.8h1.8a1.7,1.7,0,0,1,1.2.5,1.8,1.8,0,0,1,.6,1.3v6.2h-1.8v-3.6h-1.8v3.6Zm1.8-4.5h1.8v-1.7a.9.9,0,0,0-.3-.7l-.6-.2-.6.2a.9.9,0,0,0-.3.7Z"/>
          <path class="cls-13" d="M750.8,136.6q-.1,1.8-1.8,1.8h-1.8a1.7,1.7,0,0,1-1.8-1.8v-4.4a1.7,1.7,0,0,1,1.8-1.8H749q1.7,0,1.8,1.8h-.9q-.1-.9-.9-.9h-.9l-.7.2a1.4,1.4,0,0,0-.2.7v4.4a1.4,1.4,0,0,0,.2.7l.7.2h.9q.8,0,.9-.9Z"/>
          <path class="cls-13" d="M753.1,138.4v-8h1.8v3.3l2.9-3.3h1.5l-3.5,4,3.5,4h-1.8l-2.6-3.1v3.1Z"/>
          <path class="cls-13" d="M764.3,133.9H767v2.7a1.7,1.7,0,0,1-.6,1.4,1.6,1.6,0,0,1-1.2.4h-1.8a1.7,1.7,0,0,1-1.2-.5,1.8,1.8,0,0,1-.6-1.3v-4.4a1.8,1.8,0,0,1,.6-1.3,1.7,1.7,0,0,1,1.2-.5h1.8q1.6,0,1.8,1.8h-.9q-.1-.9-.9-.9h-.9l-.6.2a.9.9,0,0,0-.3.7v4.4a.9.9,0,0,0,.3.7l.6.2a.8.8,0,0,0,.9-.9v-1.8h-.9Z"/>
          <path class="cls-13" d="M770.2,138.4v-7.1h-1.8v-.9h5.4v.9H772v7.1Z"/>
        </g>
        <g>
          <path class="cls-13" d="M216.2,123.4v-3h.7v1.4h.6v-1.4h.7v3h-.7v-1.3h-.6v1.3Z"/>
          <path class="cls-13" d="M219.1,123.4v-2.3a.6.6,0,0,1,.2-.5l.4-.2h.7l.5.2a.9.9,0,0,1,.1.5v2.3h-.6v-1.3h-.7v1.3Zm.6-1.6h.7v-.7c0-.1,0-.2-.1-.2h-.5v.9Z"/>
          <path class="cls-13" d="M223.9,122.8c0,.4-.2.6-.7.6h-.6c-.2,0-.4,0-.5-.2a.8.8,0,0,1-.2-.4v-1.7c0-.2.1-.3.2-.5l.5-.2h.6a.6.6,0,0,1,.7.7h-.3c-.1-.2-.2-.3-.4-.3h-.3c-.1,0-.2,0-.2.1s-.1.1-.1.2v1.7a.3.3,0,0,0,.1.2h.5c.2,0,.3-.1.4-.3Z"/>
          <path class="cls-13" d="M224.8,123.4v-3h.6v1.3l1.1-1.3h.6l-1.3,1.5,1.3,1.5h-.7l-1-1.1v1.1Z"/>
          <path class="cls-13" d="M228.9,121.8h1v1a.6.6,0,0,1-.2.5h-1.1a.6.6,0,0,1-.5-.2.8.8,0,0,1-.2-.4v-1.7c0-.2.1-.3.2-.5l.5-.2h.7c.4,0,.6.3.6.7h-.3a.3.3,0,0,0-.3-.3h-.6c-.1,0-.1.1-.1.2v1.7a.3.3,0,0,0,.1.2h.2c.2,0,.4-.1.4-.3v-.7h-.4Z"/>
          <path class="cls-13" d="M231.1,123.4v-2.6h-.6v-.4h2v.4h-.7v2.6Z"/>
        </g>
        <rect class="cls-6" x="699.7" y="153.4" width="3.2" height="11.3"/>
        <path d="M63.4,42.8h0A37.5,37.5,0,0,1,101,80.3v89a0,0,0,0,1,0,0H25.9a0,0,0,0,1,0,0v-89A37.5,37.5,0,0,1,63.4,42.8Z"/>
        <path class="cls-15" d="M37.7,68.9H88a0,0,0,0,1,0,0V94a25.1,25.1,0,0,1-25.1,25.1h0A25.1,25.1,0,0,1,37.7,94V68.9A0,0,0,0,1,37.7,68.9Z"/>
        <circle class="cls-15" cx="88" cy="91.2" r="5.8"/>
        <path class="cls-15" d="M107.5,84.7h0a5.3,5.3,0,0,1,5.3,5.3v41.2a.5.5,0,0,1-.5.5h-9.6a.5.5,0,0,1-.5-.5V90a5.3,5.3,0,0,1,5.3-5.3Z" transform="translate(108 -44.4) rotate(45)"/>
        <path class="cls-17" d="M88,88.4a2.8,2.8,0,0,1,2.8,2.8A2.9,2.9,0,0,1,88,94"/>
        <path class="cls-17" d="M67.4,96.6a2.8,2.8,0,0,1-4,0l2-2Z"/>
        <circle class="cls-15" cx="37.7" cy="91.2" r="5.8"/>
        <g>
          <path d="M51.1,91.2a3.2,3.2,0,1,1,6.3,0"/>
          <path d="M71.9,91.2a3.2,3.2,0,1,1,6.3,0"/>
        </g>
        <path class="cls-15" d="M13.4,84.7H23a.5.5,0,0,1,.5.5v41.2a5.3,5.3,0,0,1-5.3,5.3h0a5.3,5.3,0,0,1-5.3-5.3V85.2a.5.5,0,0,1,.5-.5Z" transform="translate(107.5 171.8) rotate(135)"/>
        <path d="M96.7,73.4c-.8,4.1-12,5.4-25,3a63.2,63.2,0,0,1-14.6-4.5,40.2,40.2,0,0,1-9.7,5.9c-9.2,3.9-18,4-19.7.2s4.5-10.2,13.7-14.2a34.7,34.7,0,0,1,13.6-3c4.7-1,11.8-.8,19.5.6C87.5,63.9,97.5,69.3,96.7,73.4Z"/>
        <polygon class="cls-19" points="100.9 126.2 88 139 88 190.5 37.7 190.5 37.7 139 24.8 126.2 36.2 114.8 46.5 125.1 79.2 125.1 89.5 114.8 100.9 126.2"/>
        <g>
          <rect class="cls-15" x="54.2" y="107.5" width="17.3" height="17.6"/>
          <circle class="cls-15" cx="62.9" cy="125.1" r="8.6"/>
        </g>
        <path class="cls-13" d="M58.1,103.1c0,4.5,3.3,8.2,7.3,8.2s7.4-3.7,7.4-8.2Z"/>
        <path class="cls-17" d="M37.7,94a2.9,2.9,0,0,1-2.8-2.8,2.8,2.8,0,0,1,2.8-2.8"/>
        <polygon class="cls-18" points="88 190.5 88 225.1 66.4 225.1 66.4 217.7 59.3 217.7 59.3 225.1 37.7 225.1 37.7 190.5 88 190.5"/>
        <rect class="cls-15" x="41.7" y="225.1" width="12.7" height="33.45"/>
        <rect class="cls-15" x="71.4" y="225.1" width="12.7" height="33.45"/>
        <rect class="cls-19" x="71.4" y="247.8" width="12.7" height="10.71"/>
        <rect class="cls-19" x="41.7" y="247.8" width="12.7" height="10.71"/>
        <rect class="cls-6" x="71.4" y="251.6" width="12.7" height="3.26"/>
        <rect class="cls-6" x="41.7" y="251.6" width="12.7" height="3.26"/>
        <g>
          <path class="cls-13" d="M57.1,158.4l-7.5-4.2V143.9l8.8-5.1,9.2,5.1v10.3l-5.4,3.1c0,2.6.1,5.3.1,8l6.8,3.9,6.8-3.8v-8.2l-5.2-3.1V152l7.3,4v10.6l-8.9,5-8.9-5.1V156.1l5.3-3.2V145l-6.9-3.9-6.7,3.8V153l5.3,3.1Z"/>
          <polygon class="cls-13" points="54.5 146.8 54.5 151.6 58.7 154.1 62.9 151.6 62.9 146.8 58.7 144.4 54.5 146.8"/>
          <polygon class="cls-13" points="64.9 158.8 64.9 163.7 69.1 166.1 73.3 163.7 73.3 158.8 69.1 156.4 64.9 158.8"/>
        </g>
        <path class="cls-2" d="M43.9,258.5H65.7a3.2,3.2,0,0,1,3.2,3.2v9.8a0,0,0,0,1,0,0H52.4a10.7,10.7,0,0,1-10.7-10.7v0A2.3,2.3,0,0,1,43.9,258.5Z" transform="translate(110.5 530.1) rotate(180)"/>
        <path class="cls-2" d="M73.6,258.5H95.4a3.2,3.2,0,0,1,3.2,3.2v9.8a0,0,0,0,1,0,0H82.1a10.7,10.7,0,0,1-10.7-10.7v0A2.3,2.3,0,0,1,73.6,258.5Z" transform="translate(170 530.1) rotate(180)"/>
        <g>
          <g>
            <circle class="cls-20" cx="55" cy="89.6" r="6"/>
            <circle class="cls-20" cx="75.8" cy="89.6" r="6"/>
            <line class="cls-20" x1="61" y1="89.6" x2="69.8" y2="89.6"/>
          </g>
          <g>
            <circle class="cls-21" cx="55" cy="89.6" r="6"/>
            <circle class="cls-21" cx="75.8" cy="89.6" r="6"/>
          </g>
        </g>
        <rect class="cls-5" x="546.5" y="223" width="14.4" height="34.75"/>
        <rect class="cls-5" x="580.2" y="223" width="14.4" height="34.75"/>
        <path class="cls-5" d="M542,14.6h57.1a0,0,0,0,1,0,0V43.2a28.6,28.6,0,0,1-28.6,28.6h0A28.6,28.6,0,0,1,542,43.2V14.6a0,0,0,0,1,0,0Z"/>
        <circle class="cls-5" cx="599.1" cy="39.9" r="6.6"/>
        <path class="cls-22" d="M599.1,36.8a3.2,3.2,0,1,1,0,6.3"/>
        <path class="cls-22" d="M573.3,49.3a2.8,2.8,0,0,1-2.8,2.8,2.9,2.9,0,0,1-2.8-2.8l2.8-2.8Z"/>
        <circle class="cls-5" cx="542" cy="39.9" r="6.6"/>
        <g>
          <path d="M585.9,38.2a3.6,3.6,0,0,1-7.1,0"/>
          <path d="M562.3,38.2a3.6,3.6,0,0,1-7.1,0"/>
        </g>
        <polygon class="cls-6" points="544.3 98.2 542 103.9 542 97.2 544.3 98.2"/>
        <g>
          <path class="cls-13" d="M554.2,107.2l-3.4-1.9v-4.6l4-2.3,4.1,2.3v4.6l-2.4,1.4v3.6l3.1,1.7,3-1.7v-3.7l-2.3-1.3v-1l3.3,1.8c-.1,1.6-.1,3.2-.1,4.7l-3.9,2.3-4-2.3v-4.7l2.3-1.4v-3.5l-3.1-1.8-3,1.7v3.7l2.4,1.4Z"/>
          <polygon class="cls-13" points="553 102 553 104.2 554.9 105.2 556.8 104.2 556.8 102 554.9 100.9 553 102"/>
          <polygon class="cls-13" points="557.7 107.4 557.7 109.5 559.5 110.6 561.4 109.5 561.4 107.4 559.5 106.3 557.7 107.4"/>
        </g>
        <g>
          <rect class="cls-5" x="560.7" y="58.5" width="19.7" height="20"/>
          <circle class="cls-5" cx="570.5" cy="78.5" r="9.8"/>
        </g>
        <path class="cls-13" d="M562.2,57.2c0,3.2,3.7,5.9,8.3,5.9s8.4-2.7,8.4-5.9Z"/>
        <path class="cls-22" d="M542,43.1a3.2,3.2,0,1,1,0-6.3"/>
        <polygon class="cls-23" points="599.1 160.8 599.1 242 574.6 242 574.6 191.7 566.5 191.7 566.5 242 542 242 542 160.8 599.1 160.8"/>
        <path d="M599.1,14.1V31.8a9.6,9.6,0,0,1-9.6-9.6V19.8h-7.8a4.1,4.1,0,0,1-4.1,4.1H551.5a9.7,9.7,0,0,1-9.5,7.9V12.2A12.1,12.1,0,0,1,554.1,0h16.1a6.3,6.3,0,0,1,6.3,6.2h14.8A7.9,7.9,0,0,1,599.1,14.1Z"/>
        <g>
          <circle class="cls-20" cx="582.4" cy="39.1" r="7.4"/>
          <circle class="cls-20" cx="558.7" cy="39.1" r="7.4"/>
          <line class="cls-20" x1="566.1" y1="39.1" x2="574.9" y2="39.1"/>
        </g>
        <g class="cls-24">
          <circle class="cls-13" cx="582.4" cy="39.1" r="7.4"/>
          <circle class="cls-13" cx="558.7" cy="39.1" r="7.4"/>
        </g>
        <path class="cls-25" d="M534.6,257.7h26.7a1.7,1.7,0,0,1,1.7,1.7v.6a11.5,11.5,0,0,1-11.5,11.5h-20a1.5,1.5,0,0,1-1.5-1.5v-7.6a4.7,4.7,0,0,1,4.7-4.7Z" transform="translate(1092.9 529.2) rotate(180)"/>
        <path class="cls-25" d="M579.6,257.7h20a11.5,11.5,0,0,1,11.5,11.5v.6a1.7,1.7,0,0,1-1.7,1.7H582.8a4.7,4.7,0,0,1-4.7-4.7v-7.6a1.5,1.5,0,0,1,1.5-1.5Z"/>
        <rect class="cls-26" x="542" y="234.9" width="24.5" height="7.11"/>
        <rect class="cls-26" x="574.6" y="234.9" width="24.5" height="7.11"/>
        <rect class="cls-6" x="546.5" y="250.7" width="14.4" height="7.03"/>
        <rect class="cls-6" x="580.2" y="250.7" width="14.4" height="7.03"/>
        <rect class="cls-6" x="522.3" y="99.8" width="23.1" height="13.2" transform="translate(233.5 560.4) rotate(-67.8)"/>
        <polygon class="cls-6" points="542 103.9 542 107.4 536.8 120.1 535.6 119.6 542 103.9"/>
        <path class="cls-5" d="M486.2,119.7h44.8a0,0,0,0,1,0,0v10.7a0,0,0,0,1,0,0H486.2a5.4,5.4,0,0,1-5.4-5.4v0A5.4,5.4,0,0,1,486.2,119.7Z"/>
        <rect class="cls-27" x="578.8" y="99.3" width="11.9" height="2.39"/>
        <rect class="cls-27" x="578.8" y="103.5" width="11.9" height="8.36"/>
      </g>
    </g>
  </g>
</svg>
