<svg xmlns="http://www.w3.org/2000/svg" width="1440" height="1024" viewBox="0 0 1440 1024">
  <defs>
    <style>
      .cls-1 {
        isolation: isolate;
      }

      .cls-2 {
        fill: #2aaa20;
        mix-blend-mode: multiply;
      }

      .cls-3 {
        fill: #a6f696;
        mix-blend-mode: screen;
      }
    </style>
  </defs>
  <title>Right Leaves</title>
  <g class="cls-1">
    <g id="Layer_1" data-name="Layer 1">
      <g>
        <path class="cls-2" d="M1128.4,436.7c-7.3,7.4-16.6,19.7-13,36.1,16.3,3.6,28.7-5.7,36-13.1s16.7-19.7,13.1-36C1148.1,420,1135.8,429.4,1128.4,436.7Z"/>
        <path class="cls-2" d="M1142.5,305.1c-4.1,4.2-9.4,11.2-7.4,20.4,9.3,2.1,16.3-3.2,20.5-7.4s9.4-11.1,7.4-20.4C1153.7,295.6,1146.7,300.9,1142.5,305.1Z"/>
        <path class="cls-2" d="M1133.3,683.7c-9.9,9.9-22.5,26.6-17.7,48.6,22.1,4.9,38.8-7.7,48.7-17.6s22.5-26.6,17.6-48.7C1159.9,661.2,1143.2,673.8,1133.3,683.7Z"/>
        <path class="cls-2" d="M1179.1,576.4c-3.2-3.2-8.5-7.2-15.5-5.6-1.6,7,2.4,12.3,5.6,15.5s8.5,7.2,15.5,5.6C1186.3,584.9,1182.2,579.6,1179.1,576.4Z"/>
        <path class="cls-3" d="M1108.9,353c-5.3-5.2-14.1-11.9-25.8-9.3-2.6,11.7,4.1,20.5,9.3,25.7s14.1,11.9,25.8,9.4C1120.8,367.1,1114.1,358.3,1108.9,353Z"/>
        <path class="cls-3" d="M1098.7,566.4c5.3,5.2,14.1,11.9,25.8,9.3,2.5-11.7-4.1-20.5-9.4-25.7s-14-11.9-25.7-9.3C1086.8,552.3,1093.5,561.2,1098.7,566.4Z"/>
      </g>
    </g>
  </g>
</svg>
