<svg id="Layer_1" data-name="Layer 1" xmlns="http://www.w3.org/2000/svg" width="1440" height="1024" viewBox="0 0 1440 1024">
  <defs>
    <style>
      .cls-1 {
        fill: #c5f0ff;
      }
    </style>
  </defs>
  <title>Top Left Stars</title>
  <path class="cls-1" d="M303.5,220.6v6.3h-.7a12.1,12.1,0,0,0-12,12.1v.7h-6.4V239a12.1,12.1,0,0,0-12.1-12.1h-.7v-6.3h.7a12.1,12.1,0,0,0,12.1-12.1v-.7h6.4v.7a12.1,12.1,0,0,0,12,12.1Z"/>
  <path class="cls-1" d="M481.7,245v3.3h-.4a6.2,6.2,0,0,0-6.2,6.2v.4h-3.2v-.4a6.3,6.3,0,0,0-6.3-6.2h-.3V245h.3a6.2,6.2,0,0,0,6.3-6.2v-.3h3.2v.3a6.2,6.2,0,0,0,6.2,6.2Z"/>
</svg>
