<svg xmlns="http://www.w3.org/2000/svg" width="1440" height="1024" viewBox="0 0 1440 1024">
  <defs>
    <style>
      .cls-1 {
        fill: #fff;
      }
    </style>
  </defs>
  <title>Top Right Cloud</title>
  <g id="Layer_3" data-name="Layer 3">
    <path class="cls-1" d="M1043.2,225.3h0a2.5,2.5,0,0,0,2.5,2.5h237a2.5,2.5,0,0,0,2.5-2.5h0a4.1,4.1,0,0,0-4.2-4.2h-25.2a24.8,24.8,0,0,0-24.5-20.7,24.1,24.1,0,0,0-15.3,5.3,29.1,29.1,0,0,0-28.7-24.6,28.8,28.8,0,0,0-24.2,13.1,39.1,39.1,0,0,0-25.8-9.6,39.5,39.5,0,0,0-35.7,22.8A21.6,21.6,0,0,0,1090,204a21.1,21.1,0,0,0-20.8,17.1h-21.8A4.1,4.1,0,0,0,1043.2,225.3Z"/>
  </g>
</svg>
