<?xml version="1.0" encoding="UTF-8"?>
<svg width="61px" height="86px" viewBox="0 0 61 86" version="1.1" xmlns="http://www.w3.org/2000/svg" xmlns:xlink="http://www.w3.org/1999/xlink">
    <!-- Generator: Sketch 47.1 (45422) - http://www.bohemiancoding.com/sketch -->
    <title>AI</title>
    <desc>Created with Sketch.</desc>
    <defs></defs>
    <g id="Page-1" stroke="none" stroke-width="1" fill="none" fill-rule="evenodd">
        <g id="AI" transform="translate(-1.000000, 0.000000)" fill-rule="nonzero">
            <path d="M56.1,32.1 C56.6657694,22.6382338 52.0169379,13.7836846 44.0336524,8.958395 C36.0503669,4.13310541 26.0496331,4.13310541 18.0663476,8.958395 C10.0830621,13.7836846 5.43423064,22.6382338 5.99547101,31.9495859 L5.99999248,57.6061305 C5.99849523,58.2167008 6.23983452,58.8028105 6.66776695,59.232233 L18.7708258,71.3352972 C20.1387547,72.7079725 20.9047446,74.5682337 20.9,76.5 L20.8999999,78.4005426 C20.8998657,79.0189341 21.148753,79.6113286 21.5905063,80.0440665 C22.0322596,80.4768044 22.6296593,80.7134258 23.3,80.7 L53.7520834,80.7005426 C54.3703407,80.7134258 54.9677404,80.4768044 55.4094937,80.0440665 C55.851247,79.6113286 56.1001343,79.0189341 56.1,78.4 L56.1,32.1 Z M61.0999999,78.3994574 C61.1004259,80.3621783 60.3104795,82.2423869 58.9083929,83.6158594 C57.5063064,84.989332 55.6102116,85.7403475 53.7,85.7 L23.3520834,85.6994574 C21.3897884,85.7403475 19.4936936,84.989332 18.0916071,83.6158594 C16.6895205,82.2423869 15.8995741,80.3621783 15.9,78.4 L15.9000075,76.4938695 C15.9015048,75.8832992 15.6601655,75.2971895 15.232233,74.867767 L3.12917418,62.7647028 C1.76124527,61.3920275 0.995255356,59.5317663 1,57.6 L1,32.1736511 C0.357061711,21.0355662 5.92832187,10.452546 15.4799627,4.6793048 C25.0535441,-1.10719785 37.0464559,-1.10719785 46.6200373,4.6793048 C56.1716781,10.452546 61.7429383,21.0355662 61.1,32.1736511 L61.0999999,78.3994574 Z" id="Shape" fill="#AC4C8F"></path>
            <path d="M43,49.7 C43,55.4989899 38.2989899,60.2 32.5,60.2 C26.7010101,60.2 22,55.4989899 22,49.7 L32.5,39.2 L43,49.7 Z" id="Shape" fill="#533B89"></path>
            <path d="M43,28.9 C43,34.6989899 38.2989899,39.4 32.5,39.4 C26.7010101,39.4 22,34.6989899 22,28.9 L32.5,18.4 L43,28.9 Z" id="Shape" fill="#533B89"></path>
            <rect id="Rectangle-path" fill="#AC4C8F" x="20" y="75.9" width="37.3" height="6.08"></rect>
        </g>
    </g>
</svg>