<svg xmlns="http://www.w3.org/2000/svg" width="100%" height="100%" viewBox="0 0 332.7 267.4">
  <defs>
    <style>
      .cls-1 {
        isolation: isolate;
      }

      .cls-2 {
        fill: #fff;
      }

      .cls-3 {
        fill: #e88170;
      }

      .cls-4, .cls-5 {
        fill: #ac4c8f;
      }

      .cls-5 {
        mix-blend-mode: screen;
      }

      .cls-6 {
        fill: #533b89;
      }
    </style>
  </defs>
  <title>Mobile Development Illo</title>
  <g class="cls-1">
    <g id="Layer_1" data-name="Layer 1">
      <g>
        <path class="cls-2" d="M172.9,124.9a2.7,2.7,0,0,0-.8,1.9,1.6,1.6,0,0,0,1.7,1.7h52v73.7h-119V106.3h73.4a1.8,1.8,0,0,0,1.7-1.7,2.8,2.8,0,0,0-2.8-2.8H164.4a14.1,14.1,0,0,0-13.9-11.4,13.7,13.7,0,0,0-7.7,2.3,26.4,26.4,0,0,0-23.9-15.3,23.9,23.9,0,0,0-6.6.9,26,26,0,0,0-5.5,2.1V23.9h119v77.3a19.7,19.7,0,0,0-5.5,6,21.6,21.6,0,0,0-2.3,6.6,16.3,16.3,0,0,0-10.2-3.5A16.5,16.5,0,0,0,191.6,124H174.9A2.9,2.9,0,0,0,172.9,124.9Z"/>
        <path class="cls-3" d="M181.9,104.6a1.8,1.8,0,0,1-1.7,1.7H106.8V80.4a26,26,0,0,1,5.5-2.1,23.9,23.9,0,0,1,6.6-.9,26.4,26.4,0,0,1,23.9,15.3,13.7,13.7,0,0,1,7.7-2.3,14.1,14.1,0,0,1,13.9,11.4h14.7A2.8,2.8,0,0,1,181.9,104.6Z"/>
        <path class="cls-4" d="M106.8,80.4v25.9H21.7a1.8,1.8,0,0,1-1.7-1.7,2.9,2.9,0,0,1,.9-2,2.7,2.7,0,0,1,1.9-.8H39.7A16.5,16.5,0,0,1,66.3,91.5a19.4,19.4,0,0,1,35.4-7.7A28.3,28.3,0,0,1,106.8,80.4Z"/>
        <path class="cls-3" d="M225.8,101.2v27.3h-52a1.6,1.6,0,0,1-1.7-1.7,2.7,2.7,0,0,1,.8-1.9,2.9,2.9,0,0,1,2-.9h16.7a16.5,16.5,0,0,1,16.2-13.7,16.3,16.3,0,0,1,10.2,3.5,21.6,21.6,0,0,1,2.3-6.6A19.7,19.7,0,0,1,225.8,101.2Z"/>
        <path class="cls-5" d="M332.7,126.8a1.7,1.7,0,0,1-1.7,1.7H225.8V101.2a19.3,19.3,0,0,1,27.3,5,26.2,26.2,0,0,1,40.8,8.8,14.1,14.1,0,0,1,21.5,9h14.5A2.9,2.9,0,0,1,332.7,126.8Z"/>
        <path class="cls-4" d="M225.8,15.4v8.5h-119V15.4A15.4,15.4,0,0,1,122.2,0h88.3A15.3,15.3,0,0,1,225.8,15.4Z"/>
        <path class="cls-4" d="M106.8,202.2h119v7.9a15.3,15.3,0,0,1-15.3,15.3H122.2a15.4,15.4,0,0,1-15.4-15.3Z"/>
        <circle class="cls-2" cx="166.3" cy="213.5" r="7.5"/>
        <g>
          <polygon class="cls-6" points="100.9 241.7 46.3 241.7 73.6 214.4 100.9 241.7"/>
          <polygon class="cls-6" points="86 254 61.3 254 73.6 241.6 86 254"/>
          <polygon class="cls-6" points="100.9 214.4 46.3 214.4 73.6 187.1 100.9 214.4"/>
          <polygon class="cls-6" points="100.9 187.1 46.3 187.1 73.6 159.8 100.9 187.1"/>
        </g>
        <g>
          <polygon class="cls-6" points="181.9 254.3 124.2 254.3 153 225.5 181.9 254.3"/>
          <polygon class="cls-6" points="166.1 267.4 140 267.4 153 254.3 166.1 267.4"/>
          <polygon class="cls-6" points="181.9 225.5 124.2 225.5 153 196.7 181.9 225.5"/>
          <polygon class="cls-6" points="181.9 196.7 124.2 196.7 153 167.9 181.9 196.7"/>
        </g>
        <g>
          <polygon class="cls-6" points="259.8 241.7 205.1 241.7 232.5 214.4 259.8 241.7"/>
          <polygon class="cls-6" points="244.8 254 220.1 254 232.5 241.6 244.8 254"/>
          <polygon class="cls-6" points="259.8 214.4 205.1 214.4 232.5 187.1 259.8 214.4"/>
          <polygon class="cls-6" points="259.8 187.1 205.1 187.1 232.5 159.8 259.8 187.1"/>
        </g>
        <g>
          <polygon class="cls-6" points="322.5 206.5 282.1 206.5 302.3 186.3 322.5 206.5"/>
          <polygon class="cls-6" points="311.5 215.6 293.1 215.6 302.3 206.5 311.5 215.6"/>
          <polygon class="cls-6" points="322.5 186.3 282.1 186.3 302.3 166.1 322.5 186.3"/>
          <polygon class="cls-6" points="322.5 166.1 282.1 166.1 302.3 145.8 322.5 166.1"/>
        </g>
        <g>
          <polygon class="cls-6" points="40.5 206.5 0 206.5 20.2 186.3 40.5 206.5"/>
          <polygon class="cls-6" points="29.4 215.6 11.1 215.6 20.2 206.5 29.4 215.6"/>
          <polygon class="cls-6" points="40.5 186.3 0 186.3 20.2 166.1 40.5 186.3"/>
          <polygon class="cls-6" points="40.5 166.1 0 166.1 20.2 145.8 40.5 166.1"/>
        </g>
        <rect class="cls-2" x="150.2" y="13.5" width="32.3" height="1.34" rx="0.7" ry="0.7"/>
      </g>
    </g>
  </g>
</svg>
