<svg id="Layer_1" data-name="Layer 1" xmlns="http://www.w3.org/2000/svg" width="100%" height="100%" viewBox="0 0 369.1 237.6">
  <defs>
    <style>
      .cls-1, .cls-2 {
        fill: #ac4c8f;
      }

      .cls-2 {
        stroke: #ac4c8f;
        stroke-miterlimit: 10;
        stroke-width: 13px;
      }

      .cls-3 {
        fill: #fff;
      }

      .cls-4 {
        fill: #e88170;
      }

      .cls-5 {
        fill: #533b89;
      }
    </style>
  </defs>
  <title>Security Illo</title>
  <g>
    <path class="cls-1" d="M361.8,102.8a1.5,1.5,0,0,1-1.5,1.5H272.7V76.6a13.3,13.3,0,0,1,2.8-.3A17.1,17.1,0,0,1,290,84.2a23.5,23.5,0,0,1,36.8,7.9,12.8,12.8,0,0,1,7-2.1,12.7,12.7,0,0,1,12.4,10.2h13.1A2.6,2.6,0,0,1,361.8,102.8Z"/>
    <path class="cls-1" d="M96.4,93.2v24.1H8.7a1.4,1.4,0,0,1-1.4-1.4,2.4,2.4,0,0,1,.7-1.7,2.1,2.1,0,0,1,1.7-.7H24.1a14.1,14.1,0,0,1,14-11.8,13.9,13.9,0,0,1,8.7,3,16.7,16.7,0,0,1,16.4-14A16.4,16.4,0,0,1,77,98.2a22.6,22.6,0,0,1,14.7-5.5A24.2,24.2,0,0,1,96.4,93.2Z"/>
    <path class="cls-2" d="M146.2,6.5h76.7a14.2,14.2,0,0,1,14.2,14.2V45.5a0,0,0,0,1,0,0H132a0,0,0,0,1,0,0V20.7A14.2,14.2,0,0,1,146.2,6.5Z"/>
    <path class="cls-1" d="M272.7,60.3v5.1H96.4V60.3A19.7,19.7,0,0,1,116,40.6H253.1A19.7,19.7,0,0,1,272.7,60.3Z"/>
    <path class="cls-1" d="M96.4,166.3H272.7v5.1a19.7,19.7,0,0,1-19.6,19.7H116a19.7,19.7,0,0,1-19.6-19.7Z"/>
    <rect class="cls-3" x="139.5" y="12.3" width="90.2" height="18.96" rx="9.5" ry="9.5"/>
    <path class="cls-4" d="M145.5,115.9a1.5,1.5,0,0,1-1.5,1.4H96.4V93.2a22.7,22.7,0,0,1,15.7,12.5,12.4,12.4,0,0,1,6.6-1.9,12,12,0,0,1,11.9,9.7h12.5A2.4,2.4,0,0,1,145.5,115.9Z"/>
    <path class="cls-4" d="M272.7,76.6v27.7H218.4a1.5,1.5,0,0,1-1.5-1.5,2.3,2.3,0,0,1,.8-1.8,2.1,2.1,0,0,1,1.7-.8h15.1a14.9,14.9,0,0,1,14.7-12.3,14.3,14.3,0,0,1,9.1,3.1A17.4,17.4,0,0,1,272.7,76.6Z"/>
    <path class="cls-3" d="M217.7,101a2.3,2.3,0,0,0-.8,1.8,1.5,1.5,0,0,0,1.5,1.5h54.3v62H96.4v-49H144a1.5,1.5,0,0,0,1.5-1.4,2.4,2.4,0,0,0-2.4-2.4H130.6a12,12,0,0,0-11.9-9.7,12.4,12.4,0,0,0-6.6,1.9A22.7,22.7,0,0,0,96.4,93.2V65.4H272.7V76.6A17.4,17.4,0,0,0,258.3,91a14.3,14.3,0,0,0-9.1-3.1,14.9,14.9,0,0,0-14.7,12.3H219.4A2.1,2.1,0,0,0,217.7,101Z"/>
    <g>
      <g>
        <polygon class="cls-5" points="313.5 199.1 262.6 199.1 288.1 173.6 313.5 199.1"/>
        <path class="cls-5" d="M313.5,147.1a25.5,25.5,0,0,1-50.9,0"/>
        <rect class="cls-5" x="262.6" y="199.1" width="50.9" height="16.82"/>
        <rect class="cls-5" x="262.6" y="135.1" width="50.9" height="11.97"/>
      </g>
      <g>
        <polygon class="cls-5" points="106.5 199.1 55.6 199.1 81 173.6 106.5 199.1"/>
        <path class="cls-5" d="M106.5,147.1a25.5,25.5,0,0,1-50.9,0"/>
        <rect class="cls-5" x="55.6" y="199.1" width="50.9" height="16.82"/>
        <rect class="cls-5" x="55.6" y="135.1" width="50.9" height="11.97"/>
      </g>
    </g>
    <g>
      <polygon class="cls-5" points="216.8 216.3 152.3 216.3 184.5 184 216.8 216.3"/>
      <path class="cls-5" d="M216.8,150.3a32.3,32.3,0,1,1-64.5,0"/>
      <rect class="cls-5" x="152.3" y="216.3" width="64.6" height="21.34"/>
      <rect class="cls-5" x="152.3" y="135.1" width="64.6" height="15.19"/>
    </g>
    <g>
      <g>
        <polygon class="cls-5" points="369.1 180.8 332.7 180.8 350.9 162.7 369.1 180.8"/>
        <path class="cls-5" d="M369.1,143.7a18.2,18.2,0,0,1-36.4,0"/>
        <rect class="cls-5" x="332.7" y="180.8" width="36.4" height="12.02"/>
        <rect class="cls-5" x="332.7" y="135.1" width="36.4" height="8.55"/>
      </g>
      <g>
        <polygon class="cls-5" points="36.4 180.8 0 180.8 18.2 162.7 36.4 180.8"/>
        <path class="cls-5" d="M36.4,143.7a18.2,18.2,0,0,1-36.4,0"/>
        <rect class="cls-5" y="180.8" width="36.4" height="12.02"/>
        <rect class="cls-5" y="135.1" width="36.4" height="8.55"/>
      </g>
    </g>
  </g>
</svg>
