<svg id="Layer_1" data-name="Layer 1" xmlns="http://www.w3.org/2000/svg" width="100%" height="100%" viewBox="0 0 385.4 214.2">
  <defs>
    <style>
      .cls-1 {
        fill: #fff;
      }

      .cls-2 {
        fill: #ac4c8f;
      }

      .cls-3 {
        fill: #e88170;
      }

      .cls-4 {
        fill: #533b89;
      }
    </style>
  </defs>
  <title>Web Development Illo</title>
  <g>
    <path class="cls-1" d="M233.7,130.8a2.7,2.7,0,0,0-.8,1.9,1.6,1.6,0,0,0,1.6,1.6h93V181H60.6V92.1h73a1.4,1.4,0,0,0,1.4-1.4,2.3,2.3,0,0,0-2.4-2.3H120.5a11.8,11.8,0,0,0-11.6-9.5,12.1,12.1,0,0,0-6.5,1.9,22,22,0,0,0-34.3-7.4,16.1,16.1,0,0,0-7.5-6.1V26.2H327.5v81h-1.4a24.9,24.9,0,0,0-16.2,6,18.4,18.4,0,0,0-33.4,7.2,15.9,15.9,0,0,0-9.6-3.3,15.5,15.5,0,0,0-15.4,13H235.6A2.7,2.7,0,0,0,233.7,130.8Z"/>
    <path class="cls-2" d="M327.5,9.5V26.2H60.6V9.5A9.4,9.4,0,0,1,70.1,0H318A9.4,9.4,0,0,1,327.5,9.5Z"/>
    <circle class="cls-1" cx="73.8" cy="12.7" r="2.1"/>
    <circle class="cls-1" cx="82.8" cy="12.7" r="2.1"/>
    <circle class="cls-1" cx="91.8" cy="12.7" r="2.1"/>
    <path class="cls-2" d="M327.5,181a9.6,9.6,0,0,1-9.5,8.8H70.1a9.6,9.6,0,0,1-9.5-8.8Z"/>
    <path class="cls-1" d="M60.6,180.3v.7h0Z"/>
    <path class="cls-1" d="M327.5,181v0Z"/>
    <path class="cls-3" d="M327.5,107.2v27.1h-93a1.6,1.6,0,0,1-1.6-1.6,2.7,2.7,0,0,1,2.7-2.7h15.9a15.5,15.5,0,0,1,15.4-13,15.9,15.9,0,0,1,9.6,3.3,18.4,18.4,0,0,1,33.4-7.2,24.9,24.9,0,0,1,16.2-6Z"/>
    <path class="cls-2" d="M385.4,132.7a1.6,1.6,0,0,1-1.6,1.6H327.5V107.2a24.7,24.7,0,0,1,21.1,14.3,13.1,13.1,0,0,1,7.3-2.2A13.3,13.3,0,0,1,369,130h13.7A2.7,2.7,0,0,1,385.4,132.7Z"/>
    <path class="cls-3" d="M135,90.7a1.4,1.4,0,0,1-1.4,1.4h-73V67.3a16.1,16.1,0,0,1,7.5,6.1,22,22,0,0,1,34.3,7.4,12.1,12.1,0,0,1,6.5-1.9,11.8,11.8,0,0,1,11.6,9.5h12.1A2.3,2.3,0,0,1,135,90.7Z"/>
    <path class="cls-2" d="M60.6,67.3V92.1H1.4A1.4,1.4,0,0,1,0,90.7a2.4,2.4,0,0,1,.7-1.6,2,2,0,0,1,1.6-.7H16.4A13.9,13.9,0,0,1,30.1,76.8a13.3,13.3,0,0,1,8.5,3,16.2,16.2,0,0,1,16-13.7A15,15,0,0,1,60.6,67.3Z"/>
    <g>
      <polygon class="cls-4" points="189.8 214.2 48.1 214.2 119 143.4 189.8 214.2"/>
      <polygon class="cls-4" points="241.7 214.2 159.9 214.2 200.8 173.3 241.7 214.2"/>
      <polygon class="cls-4" points="81.8 214.2 0 214.2 40.9 173.3 81.8 214.2"/>
    </g>
    <g>
      <polygon class="cls-4" points="324.6 214.2 215.7 214.2 270.1 159.8 324.6 214.2"/>
      <polygon class="cls-4" points="364.5 214.2 301.6 214.2 333 182.8 364.5 214.2"/>
      <polygon class="cls-4" points="241.6 214.2 178.7 214.2 210.2 182.8 241.6 214.2"/>
    </g>
  </g>
</svg>
