<svg id="Layer_1" data-name="Layer 1" xmlns="http://www.w3.org/2000/svg" width="100%" height="100%" viewBox="0 0 363.3 230.6">
  <defs>
    <style>
      .cls-1 {
        fill: #ac4c8f;
      }

      .cls-2 {
        fill: #533b89;
      }

      .cls-3 {
        fill: #e88170;
      }

      .cls-4 {
        fill: #fff;
      }
    </style>
  </defs>
  <title>AI Illo</title>
  <g>
    <path class="cls-1" d="M121.3,107.8v27.9H30.8A1.8,1.8,0,0,1,29,134a3.1,3.1,0,0,1,.9-2.1,2.8,2.8,0,0,1,2-.8H49.4A17.2,17.2,0,0,1,77,120.4a20,20,0,0,1,36.6-7.9A25.3,25.3,0,0,1,121.3,107.8Z"/>
    <path class="cls-1" d="M334.5,108.6a1.4,1.4,0,0,1-1.4,1.4h-91V98.2a51.4,51.4,0,0,0-.7-8.8,16.4,16.4,0,0,1,25.9,1.8,21.6,21.6,0,0,1,14.4-5.4,22,22,0,0,1,20,12.8,12.1,12.1,0,0,1,6.5-1.9,11.9,11.9,0,0,1,11.7,9.5h12.2A2.4,2.4,0,0,1,334.5,108.6Z"/>
    <path class="cls-1" d="M239.3,79.9H124.1a60.5,60.5,0,0,1,115.2,0Z"/>
    <path class="cls-1" d="M242.1,146.6v53.3a10.7,10.7,0,0,1-10.7,10.7H164.6A10.6,10.6,0,0,1,154,199.9v-4.1a10.7,10.7,0,0,0-3.2-7.6l-26.4-26.4a10.7,10.7,0,0,1-3.1-7.6v-7.6Z"/>
    <g>
      <g>
        <path class="cls-2" d="M34.5,79.9a17.1,17.1,0,0,1-17.2,17A17.1,17.1,0,0,1,0,79.9L17.3,62.6Z"/>
        <path class="cls-2" d="M34.5,45.6a17.1,17.1,0,0,1-17.2,17A17.1,17.1,0,0,1,0,45.6L17.3,28.3Z"/>
      </g>
      <g>
        <path class="cls-2" d="M363.3,194.6a17.3,17.3,0,0,1-34.5,0l17.3-17.2Z"/>
        <path class="cls-2" d="M363.3,160.3a17.3,17.3,0,0,1-34.5,0l17.3-17.2Z"/>
      </g>
    </g>
    <g>
      <g>
        <path class="cls-2" d="M90.9,221.2a9.5,9.5,0,0,1-19,0l9.5-9.5Z"/>
        <path class="cls-2" d="M90.9,202.3a9.5,9.5,0,0,1-19,0l9.5-9.5Z"/>
      </g>
      <g>
        <path class="cls-2" d="M291.4,28.4a9.5,9.5,0,0,1-19,0l9.5-9.5Z"/>
        <path class="cls-2" d="M291.4,9.5a9.5,9.5,0,0,1-19,0L281.9,0Z"/>
      </g>
    </g>
    <path class="cls-3" d="M196.6,134a1.8,1.8,0,0,1-1.7,1.7H121.3V107.8a25.9,25.9,0,0,1,10.1-1.9,27.2,27.2,0,0,1,24.7,15.7,14.7,14.7,0,0,1,22.5,9.5h15.1A2.9,2.9,0,0,1,196.6,134Z"/>
    <path class="cls-3" d="M242.1,98.2V110H200.2a1.4,1.4,0,0,1-1.4-1.4,2.4,2.4,0,0,1,2.4-2.4h14.1A13.9,13.9,0,0,1,229,94.6a13.6,13.6,0,0,1,8.6,3,17.2,17.2,0,0,1,3.8-8.2A51.4,51.4,0,0,1,242.1,98.2Z"/>
    <path class="cls-4" d="M242.1,110v36.6H121.3V135.7h73.6a1.8,1.8,0,0,0,1.7-1.7,2.9,2.9,0,0,0-2.9-2.9H178.6a14.7,14.7,0,0,0-22.5-9.5,27.2,27.2,0,0,0-24.7-15.7,25.9,25.9,0,0,0-10.1,1.9V98.2a61.9,61.9,0,0,1,2.8-18.3H239.3c.2.9.5,1.7.7,2.5a57.8,57.8,0,0,1,1.4,7,17.2,17.2,0,0,0-3.8,8.2,13.6,13.6,0,0,0-8.6-3,13.9,13.9,0,0,0-13.7,11.6H201.2a2.4,2.4,0,0,0-2.4,2.4,1.4,1.4,0,0,0,1.4,1.4Z"/>
  </g>
</svg>
