<svg id="Layer_1" data-name="Layer 1" xmlns="http://www.w3.org/2000/svg" width="72.8" height="76" viewBox="0 0 72.8 76" style="pointer-events: none;">
  <defs>
    <style>
      .cls-1, .cls-4 {
        fill: #ac4c8f;
      }

      .cls-1, .cls-2 {
        stroke: #ac4c8f;
        stroke-miterlimit: 10;
        stroke-width: 5px;
      }

      .cls-2, .cls-5 {
        fill: #fff;
      }

      .cls-3 {
        fill: #533b89;
      }
    </style>
  </defs>
  <title>Security</title>
  <g>
    <path class="cls-1" d="M21.7,2.5H51.2A5.5,5.5,0,0,1,56.6,8v9.5a0,0,0,0,1,0,0H16.2a0,0,0,0,1,0,0V8A5.5,5.5,0,0,1,21.7,2.5Z"/>
    <rect class="cls-2" x="2.5" y="15.6" width="67.8" height="57.87" rx="7.6" ry="7.6"/>
    <g>
      <polygon class="cls-3" points="44.8 52.3 28.1 52.3 36.4 43.9 44.8 52.3"/>
      <path class="cls-3" d="M44.8,35.2a8.4,8.4,0,1,1-16.8,0"/>
      <rect class="cls-3" x="28" y="52.3" width="16.7" height="5.52"/>
      <rect class="cls-3" x="28" y="31.3" width="16.7" height="3.93"/>
    </g>
    <path class="cls-4" d="M2.5,28.1h0a6.6,6.6,0,0,1,6.6,6.6V56.6a6.6,6.6,0,0,1-6.6,6.6h0a0,0,0,0,1,0,0v-35A0,0,0,0,1,2.5,28.1Z"/>
    <path class="cls-4" d="M70.3,28.1h0a0,0,0,0,1,0,0v35a0,0,0,0,1,0,0h0a6.6,6.6,0,0,1-6.6-6.6V34.7A6.6,6.6,0,0,1,70.3,28.1Z"/>
    <rect class="cls-5" x="19.1" y="4.7" width="34.7" height="7.29" rx="3.6" ry="3.6"/>
    <path class="cls-4" d="M4.5,66.9H68.3a2,2,0,0,1,2,2v0a4.5,4.5,0,0,1-4.5,4.5H7A4.5,4.5,0,0,1,2.5,69v0a2,2,0,0,1,2-2Z"/>
  </g>
</svg>
