<svg id="Layer_1" data-name="Layer 1" xmlns="http://www.w3.org/2000/svg" width="100%" height="100%" viewBox="0 0 131 75.3">
  <defs>
    <style>
      .cls-1 {
        fill: #ac4c8f;
      }
    </style>
  </defs>
  <title>Bottom Left Stars</title>
  <g>
    <path class="cls-1" d="M131,65.8V69h-.3a5.9,5.9,0,0,0-6,5.9v.4h-3.1v-.4a5.9,5.9,0,0,0-6-5.9h-.3V65.8h.3a5.9,5.9,0,0,0,6-5.9v-.4h3.1v.4a5.9,5.9,0,0,0,6,5.9Z"/>
    <path class="cls-1" d="M41.9,16.8v8.3h-1A15.8,15.8,0,0,0,25.1,40.9v1H16.8v-1A15.9,15.9,0,0,0,.9,25.1H0V16.8H.9A15.9,15.9,0,0,0,16.8.9V0h8.3V.9A15.9,15.9,0,0,0,40.9,16.8Z"/>
  </g>
</svg>
